<mxfile host="app.diagrams.net" modified="2022-11-27T01:22:48.011Z" agent="5.0 (Windows NT 10.0; Win64; x64) AppleWebKit/537.36 (KHTML, like Gecko) Chrome/107.0.0.0 Safari/537.36 Edg/107.0.1418.56" etag="57hNFe4Np2DytQt8zYxG" version="20.6.0" type="github">
  <diagram id="C5RBs43oDa-KdzZeNtuy" name="Page-1">
    <mxGraphModel dx="1038" dy="579" grid="1" gridSize="10" guides="1" tooltips="1" connect="1" arrows="1" fold="1" page="1" pageScale="1" pageWidth="3300" pageHeight="4681" math="0" shadow="0">
      <root>
        <mxCell id="WIyWlLk6GJQsqaUBKTNV-0" />
        <mxCell id="WIyWlLk6GJQsqaUBKTNV-1" parent="WIyWlLk6GJQsqaUBKTNV-0" />
        <mxCell id="WIyWlLk6GJQsqaUBKTNV-2" value="" style="rounded=0;html=1;jettySize=auto;orthogonalLoop=1;fontSize=11;endArrow=block;endFill=0;endSize=8;strokeWidth=1;shadow=0;labelBackgroundColor=none;edgeStyle=orthogonalEdgeStyle;" parent="WIyWlLk6GJQsqaUBKTNV-1" source="WIyWlLk6GJQsqaUBKTNV-3" target="WIyWlLk6GJQsqaUBKTNV-6" edge="1">
          <mxGeometry relative="1" as="geometry" />
        </mxCell>
        <mxCell id="WIyWlLk6GJQsqaUBKTNV-3" value="灯不工作" style="rounded=1;whiteSpace=wrap;html=1;fontSize=12;glass=0;strokeWidth=1;shadow=0;" parent="WIyWlLk6GJQsqaUBKTNV-1" vertex="1">
          <mxGeometry x="460" y="280" width="120" height="40" as="geometry" />
        </mxCell>
        <mxCell id="WIyWlLk6GJQsqaUBKTNV-4" value="Yes" style="rounded=0;html=1;jettySize=auto;orthogonalLoop=1;fontSize=11;endArrow=block;endFill=0;endSize=8;strokeWidth=1;shadow=0;labelBackgroundColor=none;edgeStyle=orthogonalEdgeStyle;" parent="WIyWlLk6GJQsqaUBKTNV-1" source="WIyWlLk6GJQsqaUBKTNV-6" target="WIyWlLk6GJQsqaUBKTNV-10" edge="1">
          <mxGeometry y="20" relative="1" as="geometry">
            <mxPoint as="offset" />
          </mxGeometry>
        </mxCell>
        <mxCell id="WIyWlLk6GJQsqaUBKTNV-5" value="No" style="edgeStyle=orthogonalEdgeStyle;rounded=0;html=1;jettySize=auto;orthogonalLoop=1;fontSize=11;endArrow=block;endFill=0;endSize=8;strokeWidth=1;shadow=0;labelBackgroundColor=none;" parent="WIyWlLk6GJQsqaUBKTNV-1" source="WIyWlLk6GJQsqaUBKTNV-6" target="WIyWlLk6GJQsqaUBKTNV-7" edge="1">
          <mxGeometry y="10" relative="1" as="geometry">
            <mxPoint as="offset" />
          </mxGeometry>
        </mxCell>
        <mxCell id="WIyWlLk6GJQsqaUBKTNV-6" value="Lamp&lt;br&gt;plugged in?" style="rhombus;whiteSpace=wrap;html=1;shadow=0;fontFamily=Helvetica;fontSize=12;align=center;strokeWidth=1;spacing=6;spacingTop=-4;" parent="WIyWlLk6GJQsqaUBKTNV-1" vertex="1">
          <mxGeometry x="470" y="380" width="100" height="80" as="geometry" />
        </mxCell>
        <mxCell id="WIyWlLk6GJQsqaUBKTNV-7" value="Plug in lamp" style="rounded=1;whiteSpace=wrap;html=1;fontSize=12;glass=0;strokeWidth=1;shadow=0;" parent="WIyWlLk6GJQsqaUBKTNV-1" vertex="1">
          <mxGeometry x="620" y="400" width="120" height="40" as="geometry" />
        </mxCell>
        <mxCell id="WIyWlLk6GJQsqaUBKTNV-8" value="No" style="rounded=0;html=1;jettySize=auto;orthogonalLoop=1;fontSize=11;endArrow=block;endFill=0;endSize=8;strokeWidth=1;shadow=0;labelBackgroundColor=none;edgeStyle=orthogonalEdgeStyle;" parent="WIyWlLk6GJQsqaUBKTNV-1" source="WIyWlLk6GJQsqaUBKTNV-10" target="WIyWlLk6GJQsqaUBKTNV-11" edge="1">
          <mxGeometry x="0.3333" y="20" relative="1" as="geometry">
            <mxPoint as="offset" />
          </mxGeometry>
        </mxCell>
        <mxCell id="WIyWlLk6GJQsqaUBKTNV-9" value="Yes" style="edgeStyle=orthogonalEdgeStyle;rounded=0;html=1;jettySize=auto;orthogonalLoop=1;fontSize=11;endArrow=block;endFill=0;endSize=8;strokeWidth=1;shadow=0;labelBackgroundColor=none;" parent="WIyWlLk6GJQsqaUBKTNV-1" source="WIyWlLk6GJQsqaUBKTNV-10" target="WIyWlLk6GJQsqaUBKTNV-12" edge="1">
          <mxGeometry y="10" relative="1" as="geometry">
            <mxPoint as="offset" />
          </mxGeometry>
        </mxCell>
        <mxCell id="WIyWlLk6GJQsqaUBKTNV-10" value="Bulb&lt;br&gt;burned out?" style="rhombus;whiteSpace=wrap;html=1;shadow=0;fontFamily=Helvetica;fontSize=12;align=center;strokeWidth=1;spacing=6;spacingTop=-4;" parent="WIyWlLk6GJQsqaUBKTNV-1" vertex="1">
          <mxGeometry x="470" y="500" width="100" height="80" as="geometry" />
        </mxCell>
        <mxCell id="WIyWlLk6GJQsqaUBKTNV-11" value="Repair Lamp" style="rounded=1;whiteSpace=wrap;html=1;fontSize=12;glass=0;strokeWidth=1;shadow=0;" parent="WIyWlLk6GJQsqaUBKTNV-1" vertex="1">
          <mxGeometry x="460" y="640" width="120" height="40" as="geometry" />
        </mxCell>
        <mxCell id="WIyWlLk6GJQsqaUBKTNV-12" value="Replace Bulb" style="rounded=1;whiteSpace=wrap;html=1;fontSize=12;glass=0;strokeWidth=1;shadow=0;" parent="WIyWlLk6GJQsqaUBKTNV-1" vertex="1">
          <mxGeometry x="620" y="520" width="120" height="40" as="geometry" />
        </mxCell>
        <mxCell id="rD-4-QpMipcTkR7Zfb2P-0" value="" style="shape=image;verticalLabelPosition=bottom;labelBackgroundColor=default;verticalAlign=top;aspect=fixed;imageAspect=0;image=data:image/png,iVBORw0KGgoAAAANSUhEUgAAAmUAAAEXCAYAAADsjTNwAAAgAElEQVR4nOzdeXxcZ3nw/d85Z3ZptG+25C2SLcnxGjurk9gOSpwFJ4QGAi2hEHihIW3ztKVNeGhLXyAt8JaXthSefoCEshQCoQ0O2UicOE7ixI5XeV/kTda+jpZZz/b8MdJYY8myJEseLdc3n/nonDPn3HMfRZ655ro3ZVebbSOEmPQs0+TP7l3D7t27Abj55pu5/vrrR13OnXfeybp16xL7L7/8Mlu3bh10/Iknnrj8Sl+GqqoqqqqqEvujrU/V4neounpb0rEnnn18XOrmdruJRqPjUtZktGvXLrZu3QrAQ3/61zz6t/+Y4hoJMTOoqa6AEGLiuFyuQfsDAy8g8eErhBAitSQoE2IaG5hpGmp/x44dV7I6QgghhiFBmRDTXGVlJQCKolBRUZE4bts2jY2NqaqWEEKIC0hQJsQ0V1BQAMSDsv5tAMuy2L59e6qqJYQQ4gISlAkxzd1xxx1JP/sdOHAgFdURQghxERKUCTFNKYrC0qVLUVWVJUuWsGzZsqTnpelSCCEmF0eqKyCEmBiKopCdnQ3A+vXrycnJSXpeRl0KIcTkIpkyIWaA4uLipH0ZdSmEEJOPZMqEmGEGjrpcvHhxollz1qxZSed97GMfS2w/88wzV6RuixYt4pprrgGgqKgo5fURQogrSYIyIWaYgaMuDx8+zCc/+ckhz1uxYkVi+0oFQcePH+fhhx+eNPURQogrSYIyIaapC0db9jt27NiEveaSJUtYsmRJ0rGDBw9y8ODBCXvNSwnF0lL22sP56Ec/iqom9yCRYFOImU2CMiFmmPLy8gkru6ioKCmjBdDW1payoOyZ3Q/z0/npif0b09IIBoMpqcuFli9fjqZpScckKBNiZpOO/kLMQE6nM7H95ptvprAmo7d58+YRnfff0Vv551UOWnIjicemu+voKr38t73pvBi5ECJ1JCgTYobRNI0bbrhhxOfv2bNnAmszMa/ndDo5XNk15HOHK7uSglIhhJgsJCgTYprqX/NyKC6Xa8TldHR0jEd1rujrqapK0GsM+VzQawzqyyWEEJOBvDMJMUK2ZdF06kiqqzFihYWFF33u9ttvT2zv3r37SlRn3Iwkk6brOnMbhu7gP7chDV3Xx7taQghx2aSjvxAj1HTqCNFQb6qrMe7a29tTXYVRGUkmzbIsyk85ac5TibqsxHF3TGXBcR+WNXQWTVwZrWdraDl1BIfTgapqGIZOZtFcZi9amuqqCZFSEpQJMUI97S24vL5UV0OM0Aeyt/G5nib+9cwfJo6l11oYhgRkqRbsakeNdLHy6lWUlJSwd+9e6jtaUl0tIVJO2dVm26muhBCTkW1ZHHzzdzgcDmzL5uyRfWQVzObGPxh6ctMLnXh/C+2nDk9wLYUYX9FolHn/9V+YDgfWhQ9Nw3I64z8dDrAsVMNANU00w0DV9cS+ahiohkGgrIzYzTcPeo2CggJWrToflO3atQtFUVjzh3+K5pCBGGJmkkyZEBdhYxOoP82KFSvo6urCtm162ptHUYIyaM6uidA/O/9UVa1Ws1/dz0PGQ+NetqpWo6r7Mca57OXV1Szfv5+fPjT+db7SZs+ezdy5cxP7586dI+fIEUyXC8PlwnK50N1uLKcTw+XCdLsxnU5MlwvFsnBEo2ixGJquow3Y7j8ey8hg8QX/Durq6gb16ysoKMDj8VyRexZispKgTIhLsG2burq6UV+nKBMblP3qV78iEAigKMqor406o+xduJfjc49TvbiajVs3sm73ugmo5WAxO0a1Uc0zRvJEqdVUA1BIIV/wfIF0JX2oy4dl2zEMYx+G8asLnqnu+1mIx/MFlFGW7YzFKNu3j7t+lVzuX1XHy20tLOQ3X/gC4fTR1/ly/fVjf42lWSw7vIxF5xax9NRS0sMjr0djYyONjY2sX7+eRYsWYRgGusOB6XTGA7G+LJnpdMZ/9m2bTieKaaKYJtg22HZiW7FtTNNEsW0sTRv078CyLM6ePZt0LC8vj+zs7HH5nQgxVUlQJsQl2LZNIBAA4h8mo7iShoaGiakU8aBvLB9i37zjm7RmtNLhP99h3uf1XZEPxG2hbWzq2USb2XbRc5pp5iuRr1DuLOfx/MdHXHYotI3u7k1Y1sXLhmYika/gdJaTP8KyS7dtY8WmTWS0Xbzc/OZmHvnKV6gvL+e1v/5r7Cs55UZfTL5/8X72L97Pb/gN5fXxVRsef3Xkv7+2tjbS09Pp7u7GPSAAs/sCMGtAoNbfnKmoKpZlofQHYn3bpm2jWBambWNr2qB/B93d3YNePxgMxv+mx/6bEGLKk6BMiEs4ceJEYtseRRdM22ZClxcaaRDV5epie9F2flf6O+oz64c8x+vzTnhQFrEiPNXw1IjPP6YfY1N0E58q+tQlz7WsCA2jKFvXjxGNPk9R0R8Pe54WjXLrUyMvt/jYMW557jkOfPazI77mcikMzpQeK46vb/rwpx+muKuY+V3z+cyhz+A1vHjMoZsIg8EgBw8epL29nZIBAZg5TKZMNU1My0rKlJl92/2ZMltVB/076OjowO12Jx1rb2+nu7ub7Ilv8Rdi0pKgTIhLGOtkpsXly4n0Dj2r/FhYlsW//91jHD9+HIAf/OAHw57/QtELvJ7/Ontz9l6y7FevepXq2dWXPG8kvnPgO0Me/9jOj426rE3tm6jMqeTOwjuHPW/nGMpub/8tOTkVFA5T9nUfG325pS++iLFoEU333Tfk86/nv84LRS+MutyLMRVz2OfrM+upz6xn29xt5IfzKQmXsK51Hfc1Jdfv9OnT1NTU4HQ6mTUwIzZg23Q6sfu2bYcDU1VRhsiUMTBTpqqkl65Meq1e5Sj0JmcenZn5lFSuRL1gPVAhZhIJyoQYRiwWG1OfLQBfZja+zPHLPlmmSWtrK6dOnQIGZ8pCaoiIEuGfZv0Tx7zHOOs9O1QxQ2rwNdDgG5+m1mcqnuGR5keSjr1a/ypN0aYxlfds47N8vOLjF32+vv41omMsu7HxWSouUnbGa6/hbRpbuXP/53+IffKTQzZjPmA8wNdyvjamci9Xq7eVVm8re3P28p3y73BHxx3c0HsD63vW425wYxjx1Q6SMmIDthN9zJxOjAszZZaVlCmzBvQpyymen1SP7vZmwhcEZZ70jEHnCTHTSFAmxDBM0xxzUDbRBgZlP0/7Od/zf49659DNk1eS1zu4KbShduwB38nek8M2rdbWjv2ee4cpO7N+7OV6z54lKzMTHJP7LfbVnFd5NedVvspX+UjDR7iKqwCS+45d0I/M7gvUhsuU9W/TlykTQozM5H7HECLFJmtABvBe3ns8oz3Dc67nUl2VJF6Pl2w1OdB5+dzLl1Xmm21vcv/C+4d87ty5Vy6r7La2rSxc+KFBx72vXF65eW+8gfngg5dVxkTLJ59vxb5FuVVOt9XNFrYADJkpsxwO0DQsbXCmTOnLlDkMAxyOeEf//j5l0hwpxIhJUCbERTQc2x9vyhnViMsr5171Xvy2n4ejD7PRvTHV1UlQVRWnM3nyz6MdRy+rzOOB44PK7NfRcXnrkQYCx4YsWztyeeU6jx5FvUidU+3D5of5rPFZbuO2+AEF3tbeTjx/YaYsM9zBDfvO4rZsoum5vHrLGjoGZMq07g5u27WP7GgUgOMLKjnlcSY6+gshRkaCMiEu4tyhwQt1OyZRc1RXoItruAaAJpo4qB3kmHaMv8v4OwA6tJENUFBtle8Gvjtu9VpsLiZgBpKOfXHlF/nnvf885jL/dPGfJqYludA113yRPXvGXvbii5Sd9sUvkv7PYy+3/bHH4CJ1/p7re2Mud6Btrm38wvcLhhiAmcRjefDZPr7W/TXuj92PSjxQCnC+fuFwOLE9MFPmC7dy9+7DaK4MzhZ4mF97io9ucfCD+9ZjaDbpzTX8wRtv47N8NBcXoUfacdsqpkON9y2ToOyyGHoMh9OV6mqIK2TyfMIIMcmEupKDGk3TyM3NTVFtBrtwVOjsvv/eaXoHgO3e7TyT/QyvZr46bDkqKuub1o9v3UiuWzgSvsiZIyxvmBGwA4OJ8SxbDYe5nKlgOzs7sS8SxK9nfH7f61nPryt+jcHF1/P84dkfUqKXME+fByQHYgMN/D0OzJQtrK3FbcLbN6xj3ywf62KbWNpYQ0XXrVTnuli1730yYum8uPEOzjnspBn9pfny8p3e+y4Lr7syEzuL1JOgTIghHHvv9UFNl0VFRZjm8NMPXEkXyxz1qwhU8A+N/8Df8/e8lv0a23K2sStrF2EtTFSLJs4bODnuRPmjWX/EU8eeImJFRn3to6WPDlu/WbP+iGPHfoRlRS96zsWUln7homUH/uiPyPnRj9Cioy+39tOfprO3d9TXjYVt20mZssxYJqu6VnFL+y1s6NyQOH6xYKzf0JkyheyeIDhzOVPgw3K6qZ1dzNLGGvI7erHTdSoao7QtqKTL7GV5XSuBrHwavY5ER3/JlI3N+8//jIL5izAN/dIni2lDgjIhLmBbFm1nTww67vf7Jzx4GY3RzJ92bce1XHvyWgAafY20eFr48o1fHlNZY/W9iu/xmcOfGdU167PXc5f/rkvWr6Liexw+PLoJW7Ozb8Pvv3vYsrd+73vcNsqJYOtvvZUDf/AHcAV+pxd68r0nWda5DMWOR2kXZiyHc2GmLD4fmY4vBHg0dGc8UNMd8cyXikJGTycOG9Kaavjo6X19Hygqh5fcyHslfulTdhkKF5Rz7L3XmbtkdaqrIq4gCcqEuIChx4iGepJGXrrdbpYuXcrbb789zJVXVktLCy7X6PuaeANe5jGPn5/6OWeyztCQ3nBFgk03btb41rAzvJOYHbvk+X7Fzx2eO0ZYNw8+3xpCoZ3ApctWFD8ez+2XLDvg8XByzRrm7tyJM3bpcsN+P/tuv3S54+nzb3+e2b2zmR+Iz/HVxdgmLA6FQolt1TSxTRNV7c8Mx0dTqqaJ0pc8dkRj8dGWgOrO4Nd3340VbuLel9+i/PQJqouWoxtGfGSmGJOSihUUly9LdTXEFSRBmRAXOFP9Hg6HI6mp8pZbbklhjYb2y1/+kptuuumy+rlldGSQQcaoMiqX40HHg1SlVfFS5CV2Gjsvet6j3kcpd5ZDEDqCI6ubw/Eg6elVRCIvYQxTttf7KE5nOcEgBEdQ9ksPPkhGVRXXvfQSlTsvXu7/PPoo9eXxNSevZJasoqMi/pJj/H8YDocJhUJEIuebljVdx1ZVbAV0FxCN4dUNelUVTzR+XiArnZgaAAU6c4vpdGlodibdXoWMYAi/HiNgGPFFysWY+XMLU10FcQVJUCbEBeoO7UYb0DlZURRKSkro6elJYa0G03WdSCRC/WVMcnqhu+++m1tvvRWAl19+ma1bt47q+qqqKqqqqpKObd68mc2bNycdu43bmOWYBUCNWkNDWgNV0fh1eVYe2ZFsKm6tYO3atdi2zVtvvcVbb72VVIZlWRfp43cbDscslpYcxes+zsk22FAZf+bn7z5MT086MLrfWT1w5LbbWDYrXufyU6coP3WK5/vutTkvj+b0dBjF/4snn3wy6e8M4IknnhhVvSaKahhoqgqKi5ZsH7Oaulh8upUd89JYXNOArfo5l+clTC5dmkpOYy35wdno3U3khWyiGWn0miaarqNO0illJrtjO7bg8aVjmaYsPTWDSFAmxADnDu/B4XAMWng8MzNz0gVlU926nHUUz55FRI8xu2gWpmGiqCqW3ddB3LLYsmULtm2jqiq33nILlm2jAIoKoXCEzs4AR4eYT8wwKsn1tVN19fGk45aVf1l13l9ZmfRzukpkylSVw3OvoqLpAMv2vkX5ARVXzODYdeto1Ew0M503Vy/k/u3H+PCLL2PbBk6cvFe6AEvX0QwDRYKyUWutrcEyTYJdndi2BUhQNlNIUCZEH9u26e1oRVGUpKCsrKwshbW6sl566aVEpuzw4cMT9jqqqlK6sIz/+uV/YdgmwUgIl9vJypUrKZk7l8L8AsxIGNuG9NwsztbW0nCujl17dtMdDFLgz8WMGXzwrrtYsmQJBw8enLC6zkTnM2UKpiuTTTesZlZvN17TS3NBEaeKc1F1HcWyaJi3gl+58pjV2oEHaEvLpNOp4IjpqLqOKs2Xo3Zy9zuJLyYn3n+TiptuT3WVxBUiQZkQfWzbouXkoaQmJcuyJtXcZFdSa2vrhJW9YP4Cvvf0/6Fw5ULycjJZWlZBbmY2LpcTVdVwOh10t3eR5vVheB3MqryKgoUlVKxZSVewl70H9hEzTP7jl0/x5S/8zYTVc6YamCmzFYWI20dNUVZ82SW3G80wsBUF1bJQdZ2uzBx6vek4olE0XUeLxVAkUzZm3a2NQLzrxOyFS1NcG3ElSVAmRJ/j29/A5XIl9VO6sBlTjA9/ph/vVYXklhSy/OpluFxO6JusFIeDqG4QiITwFeSi2zoGNq40N2EjTFqWnzVr1nD0xHFi665l63tv4XG4J+1yWFNRf6bMVhRQlPi0Fv3bmoatKGiKEl9iyTDigZhhxK/T9fP7ui4d/Ufp7IH3E9uaw0Fa9sz8UjhTSVAmRJ/GY9V4PJ5UVyPlDhw4wNKlE/ftfMmSJby9410WVJSy7IbV2JaFrijoGCiWSbChiZM7DqAoGserD2JjoSga131wPaZDweFyENajLFhWSa8Zo/nccdatupGTJ09OWJ1nmv5MWX8Tpjoga6b2/RyYKVP7AjCtf7tvX5VM2ag11pzvNjCnYgWaY3KunyomhgRlYsazLYuXfv99/BeMcNJtg5qiAEtmWAf/9vZ2dH3iZhGPxWLUtzezesEyuroDqEpfFoZ4c01t3Vma29qhL0upoOB0OWlsaEBLd9EdCaI5HVixCPMXLWD/5h245INrXKm6nhR89QdntqLEm/f7smZJmbK+IEzT433J+o9LpmzkLNMg2NkGxP8tLL71rhTXSFxpEpSJGa+h5iC9na3kuQuTmsBavEEiTiNp/qaZ4tVXh18v83IogJWu4fJ40XXj/MG+luKC4tl4VRedLe201zeRU1xAVm4uhksh1jeBqxGNf9Bbis2yW1Zx5uzpCavvTKQZRnzNyv5grC9TpvVv9wVoimWhDMiOabqOYhiJpkvVMGRKjFFoOH4A7Pjvq2DewhTXRqSCBGViRjMNnd1ntpKBL/m4aRJK01FthZM9dSmqXWpMZJYMoK6pgQXLKrEMk6F67CmAtzAbX2E2msfFrIVzsRWFmB5LZNQGnqx6negOfdBapWLsLsyUqQMzZQP6lymWheNimbK+hzRfjtzRba8mVhJJy8lLcW1EKsiiZGJGq9n5FvV6PTmaP+m4bdvomoViQVtk8qx3eSVs2bJlQsvXMbG0eOBrmSaGZWIZZmLf7HsYpkne3CJ008QwDEzLwuo7J/EwTPIKC6htaWDhQsksjBe1L9s1sCkyEXAN7DOm64lMmTLg+f7zpU/ZyLWcOREPfvuUXnNzCmsjUkWCMjEjmYZOLBzkzdbNpEecg2ZWb3H1oFqg2goBb3RcZ82fydxuN0dPniCvqADDMNCjMcxghGh3L1YwghnV4wFY/wP7/HZMxwpFiXX1YoYi6OEohmFg2CZ7jxzCqUnif7zYDgeWpmFpGmhafPRl/0NR4hP49v/sP6aqiSZPW9POPy7MboohBQOtiaAse9ZcFFUmjJ2J5F1MzEg1O9/ipd5X6M6N8YHTV8GAQZe6rtPri6HYCoplE3UaBAIBMjMzU1fhK8iyLA4dOjQhZS8sW8hz215hkXUTjpjNsR37MUNRsG1swOnzUH7TMkzizZgDHX+/GqMnimLHu59pbgdFi+fjz8lizqIFhCKhwS8oRk3XdX54112JCXlv++CHueujD426HBswAGmEG5mz1TsS22mZOUlZMzFzSFAmZqSissUoe18hL+DB5XIlPdejRlBtBdWyUfsCs5g5sf2sJpuOCVpQu7GxgcJ5JZimSXttPUZvpK8PTTzrYoai2LqJ1fd5NKD/f/xcW00ct6I64Y4evBnp5OTnsv/IEdLdMqXJ5bJtm7a2No4dOwbAdbcb0ul8gtUd2YtC/IuJoqoy6nIGk1BczEiZ+bNICzlZ2JOPw3H+u4mu63S4QigWfZmyeADw2z0TNxpxJqlrqsewLcxoDMswQUnu6m8DPR0BrJiOFdMxo/GfVlRHGTQsQME2LKyYjubQmFs674rdhxDjqf5odaKD/+zy5SmujUglCcrEjFWZtYR0y53Yt20bnShvVf2W4yWdfX3KoGHRDl7a8DJnkPmWLlf+rCLS0nyYuoFuxKe3UFDQFJVZuXloikqwJ4ihG/GHcf6nU0/+/TsNk0g4AsEIrp4efvvzn9LR0JCK2xJizOJzk8WXNLNtm8Krpvdi92J40nwpZqxC3yyCvnDSNArbV7/I/oojOObpFD/1AK60c7x93TtENdi95TAFKazvdPD6W29StHQBtmFjmTaGYZC9Ip+W4hgnCgIUtaSR0a5iXzDh6Ke/8xMOuzz8+voVRKNR/u7Vt6nJy+bZm69h/d5DVDud+CIhNp46xebZs1N0d0KM3rnDe3C73ZimiW3bZOQVprpKIoUkUyZmrJ6W5BGVuhnj2LxjFLRchek5S3NujPqFB9BtP2VnFg4KFMRguq4TDoeTHv3zns2ZM4e6pvp4RlLXsU2LTE86Z8tCNBWEAWgqCFNTEsARjE+D0f94+s8+gWVb6OEoimnxD2tvwLZsYpEoL9y9lp0LSlgWM+l87LFU3v6oXPh7CofDqa6SSIG2szWJ7aKyJbKs0gwnmTIxY0W6O/H5zk8a22o30FrcyvW/fogTt3+fQEaQ7pI6ynfezXVH5xAIHabQNSeFNZ78tm7dytatW4d8Licnl/SsTAzdwLIsLDMenPl7PXT5zw+k8Pc6iVgGRoxEPxtd7+tfptioTidOp6NvrjIL0zCxsDFNg127diWumey+/vWvp7oKIsXazp0k0t0OxEc9z7l6VYprJFJNMmVixrFtm6PbXsXv9ycdi6S1ElQLyWlz4uv10ZPRSndmN3PqS1AtBcWeGh/2k0lmZiaPPvooAJqmYds23Z0B2ptbCfcGiRox8g6prKzOwanHfxbWOGnraCfQ2k5HSxvtza20NrZgawr0DcqwFQVFjY+Q7eno5BO7DvIfV5X0jeGMG/j/V4jJKBjoOP8Xqyj4c6WDxEwnmTIx41imQeDcCdLS0hLHwuEwPXMChMIZpOkKGSEfLVoXobR8soNhenxOHLZKV6ArhTWferq6uti0aRMAbe1tiY77atRAD4Y5tu8QkbfCrLr1BiqP+GkLnsPpdaO4nWiKikZ8RGYsGEbTNFQVbMPEgYqqaRimhR6JYRoGumXj9LrQI/EBBD0zbCF5MfWc3v0Wbrcb27aZtWhpqqsjJgEJysSM03zqKF6vN7Fv2zYBJYjpjH+Yq5aCw9SI5LYTQWPbHT+hLieDD//mD9Fbp+58ZQ6HA6czub+Krsdn0J/Ia2fPnk1bWxvn6urQuyN0nmzk3PZDYJhYKCiKwqEt72MqFvdv/BCLlyzG7XCBpoJugEPjI6EI/3OyA17axn7V5uMRnf2A2r6ToyUF/CYYxbAVVE3FMIxBKzQMvI+Jvt/xLi9V14qJ1XbuVGKORMMwKLt2XYprJCYDCcrEjNPT3ozD4UiMuozGorS5glhq/INKsQc2gjVSNwsgSF1BL+UtU7dJrKqqinXrkt/4X3zxRd5+++1LXrt27Vpuv/32pGObN29m8+bNF71my5YtaJrG+++/T3FxMatXrWLH61tJT0+PL25N3zRlSjww/ulPf8rm117jH7/+j0A8QzawwfiDH32QDw+c6FeB1159jb/54hf5/L/9G2tuvpn29na+8Y1vsGPHDo7u6+IX6QX8+WN/zorl8bmf1q3zDFvny7nf4dx4443cc889ScfefPNNXnnllUteu2bNGu66K3ky0bfeeouXXnppQl9XTKwz+7bhcDgwTZOMwjmosqySQIIyMQN1XdB0qRs6pttG7ZubND5xbPwnKHzguUeov/HnmBkBdE36fIyUx+OhoaEBVVW55ZZbuGPDBtL9/sTQ/4EUReETn/gEH//4xy+axVFVNek5RVH4wAc+wO69e7FtG4fDQUtLCzk5OTQ3N9Pe4STDP5sVt355QCljC6qEGE+WaRDtCeB0OLBtG29GdnwNUTHjSVAmZpTaQ7uSRlwC9ERDKC5wR+JL9Ki2ggp4Q2koFDCrPgNaCuhSQnR5YzSfOiITPI7AjTfeCMQzdNdffz3d3d3ouh4feTlgbrgLmZcx9UhTUxPLli3jYx/7GFVVVVRVVY25LCEmSsPxA7hdLizLwjAMKm6Sv1MRJ0GZmDEs06TjzFHcmna+6TIaxa24UADFdIArSkyxCbpiOIMuQAPbRrVUbMUi6jIIdXem9D6mIkVRcDqdnDhxgvnz5yfmLhsvmqYRi8VYuXIlqqry/vvvj2v5QoynllNHEtuZhTLNjjhPgjIxY9i2hRkJQV+mzLZtMotLyXa6iB3YRpPPR5qjl5DXJpgWwnsyFw+9RHwQ8kawDQ+WzIoxJqqqomka8+fPxzRNYrHYuJbvcrlobm4mLy9vXMsVYiL0tjeTlpaGrutUrLo51dURk4gEZWLGqNm5FX9fnyaIB2W+7DxKKldwpno7nu5cMmId1FQe41xBNze1z6Wpq4dTV52ldXYD+bszsVWbd0/8ngUrbkrx3Uwthw4d4qqrrqK+vp7MzEwikQjRSDS5J/8g/aMASDqvf9fGRkFBVVVycnJoamoiLy+Pbdu2TeStCHFZTu97D7/fH8/WKwppWbmprpKYRCQoEzNGuKMJn/P8CKdQOMzyq1dhWSbd7iiZkTxyWzLZdvv/QHQehR0u2puK2bb+GcBHZXsmVl+MIEbnH//xSQoKCvnmN7/JoUOHmDt3Lo2NjSiKQrzPv923baP1NS+rqoqiKIP6mNm23Tdrfzw8KykpIRgMsnr1algOApYAACAASURBVL70xJdoaW1h/vz5KbhLIS6t6ehePO74KOLskjJZVkkkkeEeYkaoP1qN+4K/9sxZ8wBQVY2li25BV22u378KZ8zFor0r8dkKi/euJi3mpODkdeQFVWwV6nK7ObN/RwruYupaunQZDz30EF/60pfIyckhGo2Sk5NDZ0cnnZ0ddHZ2UltbS1ZWFj09Pfh8PsrKyli8eDEFBQV0dgbIzs7m9OnTtLS00NHRQWdnAK/Xy7Zt2wgEAnz1q19lydIlg6aPEGKy6Kg/i8sVD8J0XWd2+fIU10hMNhKUiRmhq6UhaRLNYDDIvJVrks7pTAtTWl3Fwz9+hLu3LcZWwNlWzkee+Tx3vLMaRbGxFRtZbWn0fD4fpaWlPPLIIzz55JMAnD59moLCArq6ugiFQqxdu5bCwkIqKyvJysoiFAoRCARwOBwsW7aUoqIiNmzYgN/vJxAI4Ha7OXbsGNdeey0//vGPufbaa7nrrrvo6OhI8d0KMbRQdweOvomNTdMkq3B2imskJhsJysS0Zxo6sY6GpGOWDWkZ2Yn9WWVXo5kqAU+E3O4sUMFSbSwV1JgX1QZLjT9MzebNE7+70rcxpWVlZbFr1y7mzZvHl770Jf7pn/6JlStXEAgEKCkp4YYbbiAYDNLW1kZvby+RSIRwOEwwGCIajRIKhmhpaaazs5Py8nJuuOEGmpub2bBhAz966kesX7+eDRs24HK5xn1kpxDjwTQNzu55u6/pHfKuWpziGonJSIIyMe01njiYNDeZbdsUVV6TdE5GfhEuU6PLEyHNcCUyYkk/1fP7w3dQFxe6+uqr6erqwul0Ulpaymc/+//w/PO/o6enB8MwOH36NL29vViWhWmaKIrS16eM+DHLJBKJ0t7ezvHjxzl+/DherxfTNFkwfwFVVVW4XC7effdd5s2bl+rbFWKQusN7yMrKAiAWizFr4ZIU10hMRtLRX0x7wc5WXE5nosN4TzDI4mXXDzpvQVEl1YF9dLuj5ER8NPl7+7Jj8YyZpfRlzmy4rfz+K30bU5qiKFRXV3PvvfeiqiqFRQWohzQUReGdt9/BMA1cLhe2bWNZFoqiJDr8D9w3DAPTtLBtKxHE3XDDDUC8j86pU6coLy9P8d0KMVhXwxn6hxm5s/Lx58jqIGIwCcrEtBdqrsXV9w0V4iOehpKTUYjdZdPtieIyNDymkx5ndFCmrKQ9g7m3rrpS1Z8WbNtm5cqVvPHGG1x33XXYlg22zcGDB3nq6acGLbs0LAUUFD71qU8RCoVJT0+nt7eXuro6TNNEleVqxCQU6mrH37e8m8ubLssqiSFJUCamtcNvvUxOTk5iBn/btvFl5gx5bmbpXGqVUyw4XUq3O0ZWxEOXL4qlxgOy/kzZrQvuvJK3MC0UFBTg8/nYtGkTL7/8Mhs2bEBVVTZu3MickjlomoaqqYlpMCzLwgYcmoZh6ESjMaLRKLFY/Keu61xzzTU0NzfT2NjItm3baGlp4e677yYajbJ161ZZYklMGnVH9pKRno5t2wSDQW68V0YIi6FJUCamLcs0sEKd4PUkjnV0dFC+4Zohz/9c6QaKO+diny0l5jQwDAtfzEnUHcXqy5TlBTwULpd1L0crLS2NYDDIgw8+yOnTp3n66ae55557mDVrFn/yJ3+Cqp4PyCDe3Nm/3R9Q9//sb4b+9Kc/zauvvsr3v/997rrrLqqqqggGg7z//vucPFmTgrsUYmgtJw/h6UuM+WVZJTEMCcrEtGXoOhg6EA/KbNtmzoo1g84L0csnM6+lXjtFMfOwFBtFVQh4w8zq8tOZEYk3XWIzqz0N34BRm2Jk8vPzaW5uRlEUKisr+dd//VecTieaprFx40Z+8IMf4HQ6iUajiUlk+4Oygdv9+2vX3orL5WTDhjtYu3Yt4XCYcDiMruuUlZWxefNmdu/ek6rbFSKh7dxJnLaBojiwLAuPPzPVVRKTmDRqi2nrzL53E6OdID6Df96c0kHnfTxrOWccR1FtjQc6/jDRdyzsMgmkRcjp9SYyZb6YfI8Zix07dlBbW0tBQbxzs6qqeDwe3G4399xzT2KkZX/fsv5RmKZpYlk2pmkmgjNVVXnooU/i8XhxudyJLFtRURFvvvkm9913HxUVldTX16fyloUAIBhox+12AxAKhViwcvAXQyH6ySeMmLYiLbX4cs73HzMsG096RmI/RC+fzIpnyCDeeXyuspCjyvHEqMumrBDlDdk05oZY0JYhC16PQSwW47333uPAgf2oqhrv62XHM48ApaWlHDlyBMuyEhP89jdlJvqX2XZSwGYYBgAejwev14tt23z3u//G8uXL0HUdRVESozKFSKWWY/vIzPAD4MnKR1W1S1whZjIJysS0VHtwF5mZyc0EeaXJ8wJ9PGt5IiDrV3btWnac2Ey39/yoy/aMCHndHm7MWkIgEJjwuk83//Ef/4dAIMCaNWvYu3cv+fn5eDweyhYuxDQMVFUlEomgKMr5iV8vWIQ8YcBx27ZRVZXm5ma6u7vx+dL46le/yu2333GF7kyI4bXVniQtLT5HYjgcZtG6DTLqUgxLgjIx7di2TW97M1lOZ6JzeEtLC9evfwAAE4O/9N83KCD7QOwjie2B85PZis3cFj9L1yzl7bffvnI3Mk34fGmcPHmShQsXUVZWRigUIhgM0t3dDcCSJWObRLOuro5QKISiKDgcDlavXs3cuXOJxWIyLYaYFBqO7MbrcGDbNqZlk56Tn+oqiUlO3rnEtGOZBgTPr39o2za5C86PmNRwMN+sGHTdImMZAAtnLz8/k78KWUEPy5fLwsFjZyeaE51OJ+np6WRmZuLz+fD5fBi6gWHoGIYx+KEPcazv4fen43a78Xq9ADidTgoKCjBNk1gsluJ7FgJCna2JQSoZxVeluDZiKpCgTEw7zaeOkp6enti3bRtvZm7SOX8R+vZFr8/y5SQyZQAew8GyZcsmprIzgK7rVFVV0djYiMfjITMzE7/fT7rfT2FhIS63C5fLjcvlGvxwD3HM5cLhcKA54gFeWloamZmZZGVlEQ6HcTqdvPLKK6m+bTHDnT3wPoWFhQBEIhEKr5KpdMSlSVAmpp3AmSOJ0U4AnYEuistHHlTNXriU9IgTW4Giznh/kIGjOMXoVFZW8oUvPJoYOZmRkYHfn0FmRgZ+vx+3243b7cbj8SQ67nu9Xrw+X/xn33GPx4Nt26T1zYqemZGBy+UiPT2d7OzsxIAAj8eT+DAUIlW6G04ntnVdx58ryyqJS5M+ZWJaMXUdjChwPlOWW7Y06Rwbm2+l/SnYcG/0YV5x/4KYEuFTkScA8GXm4DBVbAUyQi4WLlx4JW9h2lm9+lqysrLIysoiEAgkMl2qqhKNRhMjKXVd57vf/S6qpkHfzOe6ricCNUVRuP/++8nLy8PlcmFZFn6/H6fTmThv6dKlBINBent7yckZeuUGISaaZRrooV5wxQcbefPnoDmcKa6VmAokKBPTyrH3NpOfn5/o4N/R0cHC5WuTzokS5lnP99FsB38ffIpsq4Cf+L6RdE68P5mNR3eQm5vc9ClGJz09nXA4DIDb7SYUCg153rPPPssbb7wx5HOappGWlsbu3bv54Q9/SDAYxOV0JabV6BeJRAB44403eOCBB8bxLoQYuYbjB8jJzsK2bUKhEFddc1uqqySmCAnKxLRhmSZKrBe88TmBbNsmZhh4/clNj3+UFV9m6bHgPwPwaPhJ6rTzy/KoqsYNc9bzfu2biU7k4vL4fL5hpxNRVZVf//rXF33e4XCg6zo9PT2cO3eOvLw8orHokOf+/ve/l+ZmkVINB7ZTVFSEaZpo6Tky6lKMmARlYtqwbQvFiA3YtymqXJ10zjPuf+OsdgyAP4w+BoCKyjd7nx1UXlbILf9CxsnPfvYzPB4Pt95665DPnz4d73/jcDgSnfndbjeaphGLxTAMA8uysEyTLVu2cO+99w5ZztatW/n2t7/Ngw8+OGH3IsRwms8cT8quO31pKayNmGrkI0dMGyd3vpnUdNna3s7Km+9LPN+jBHjG+29gw98E/33YssquvZVzh2XtxPHidDr5l3/5F1577TX+7M/+LLHEUr+ysjL+8z//MzFzv+ZwQN/2wFn9VU0jEg4TjZ7PkhmGQSwW42c/+xlvvvkmDoe8rYnUCXfFl1WyLIuuri6W3nLfpS8Soo+8e4lpw+pqgfzzzQT+ovlJz//A+/9Sp53EbXv5aPTRYcuq2fkWC1beSMOhXRNS15lG0zTcbjc1NTU89thjZGVlMW/ePAoLC/nIRz7CD37wA959993zM/r36V9aSQFUTSM/L5+29ja+//3v88ILL3DkyGE6OjppampCURTcbnfiGiFSofPMEfL7MmUOf44sqyRGRabEENNC3dF9Sf2IOjo6mFV+fsLXMEF+6f0XAP4i+P8PW5ZtWbSeq6Fgnoy6HC/9QVn/IxQKke7309zczCOP/AlvvfUWtm3jcDiSHk6nE6fTicPpRFVVenp7SE9P5/Of+zy1tbUsWbKUQCCQyLz1P4RIhbojeynoWx/XsiwcXr8sqyRGRTJlYlrobmlkdoYH0zQBCIVCpGXFv63GiPJA1vkZ/B+I/smwZdnYhAIdpGXL4uPjxeFwDAqWcnNymFVUhNPp5NChQyMqp3+m/rXr1jJ//nwMwxhUrt3XfC3EldZ59hi5GWnYtk0gEGDFh/4g1VUSU4yE8GLKi0XCuPWexL5lWeTPv5reZ36C2dmBCzff6vlvsOErvT++ZHk1O99i0Q0yhH089fcVG/ioq6vj0KFDnDhxYlRlxWIx9uzZg2VZtLa2Di57gu5BiOGYhoEe6kksq+S7oPuEECMhmTIx5Z3Z9y5FAzr4d7a04Hjs47T3LXid/5P/4ep77mdD7ONsjH7qkuW1nD7Gqns+PqF1nmksyxq0HmVHRwculwvTNC/ZD0zTND73uc9x6NAhSktL2bt3L83NzQCDypWgTKRC3ZE9FBcXY1kWvb29FF97Y6qrJKYgCcrElKdEusF3vj9ZW10dc/oCMoDu734L3z3382TvL0ZUXrinC68/E8syx72uM9VQi4RrmkZ5eTkLFy5E13VisRiWZWEYBpmZmXR1dbFixQoeeeSRpOs2b95MbW1tYn/Q4uN9mQohrqRQaz2etHhTumGY+DKzU1wjMRVJUCamPDsWSdpPe/nlpP3YweoRl1V3ZB+zFy299IliVEzTHDSyct68eXi9XoLBYKJD/0DZ2dmUlZVdsuwLyxVTQ2trK++++y4ej4fu7m4y51z6//Vk1Vp7knTX+d5Aaka+LKskxsRxQ5H84Yip69577+XP//zPE02XtbW1pB8/nnSOHQnz5QKN10cwCuqee+6hvb2d7Q/eh6qqfPOb3xx0jvybGT2n00k0FqM/h6UoCpmZmQSDwcsuOz8/n/r6+sS+x+O57DLFeS/98ml+9u//X6qrManddNNNPPHEE9i2TU9PD3/3pS8l/U0KMVLS0V9MWZqmsXbt+XUtLcuKL3jd1jam8lRV5frrr2f79u2JY9FolCNHjrBp0ya2bdtGV1fXZdd7Jvr85z/Pj59+Gp/PRzAY5H/9xf8a3Ow4RsuXL6eqqopoNMqSJUtYv379uJQr4trb21NdhUnvE5/4BGrfl75oNCoBmRgzh3yrFFPVsmXLqKysTOy3t7fzwm9+w58Pca6bS2dQKisrOXToUNJ5X//61wedN1n+zZSWlqa6CqOydu1aDhw4AMT7hdWdqxuXctPS0khLS+MTn/jEuJQnkmmaNqhpWZy3YMEC8vsmrbZtm+eff37SvEeIyW2oAU6ORx8dfmZzISYrn8+H1+tNmpvsDy+Sffljy6LyEn/r/bPBy78JIc675pprLrpmqYC5c+eSnp6OaZp0dHSwaNEiFi1alOpqiSlKOvqLKauioiJpv7GxkdzLmDjU7XbTPWDUphAz1erVq2lvb6empoby8vJUV+eKy8nJYe3atVx//fVAPAt/7ty5pHNeeOEFYrEYPp8vcax/mhYhxkp5/PHHZVofMeW4XC7WrVuXmOeqvr6eo0ePojY0sOyppwad37RqFbVVVRctz+l04nA4CIfDE1ntlMrLyyMnJyfpWEtLC4FA4JLX5uTkkJeXvMJBW1sbHR0dcu0IZGVlUVBQkHSso6ODthH0f8zOzk40j4322st5XQGLFi3ik5/85EUXud+7d2+iz51pmnR2drJy5crE8z/+8aUnqxZiIAnKxJSUnp7ObbfdlpjXas+ePbS1tWFZFtcNMWLy9IYNtK5YcdHyPB7PkBOcCiFmtry8PG666SZuvPHGxGz9/Z577jkyMjKwbZvGxkYeeuihYcu6WMatvwsGgGEYMs3LDCbNl2JKWrx4cWLbtm2i0WhiWoyxcLvdMrJSCDFIW1sbzz//PIcPH+azn/1s4vixY8fweDwoioJt24Myq0PJzc0lNzc36diKAV8Wn376aTo7O2ltbR2/GxBTigRlYsrx+XwUFxcnvl3W1tYmNTsGFiwg6/TpxL6lqnTPm3fR8pxOp2TIhBDDqqmp4Vvf+hZr165l5cqVdHZ24vP5ME0Ty7KS+paNhK7r6LrOCy+8QEtLC3V14zMaWUxtEpSJKWfeBQFWe3t7Uro/kpMDA4IyVJVo9sWXPFFVNan5QAghhtLR0cFzzz3H66+/TklJSeK9qL29nQceeGBUZfX29tLa2kp1dbW8/4gECcrElJORkZHYbmpqoqenB9uOAi4Azq1dS8G+fah9b3Rnb7tt2PJGOuryzjvvZN26dWOv+AQzTZMvf/nLqa6GmCaefPJJNE1LdTUu6p133uGFF15IyWuHQqGk5sqsrKxRz+WWnZ1NdnY2Tz75ZKKv2aZNm6RP2QwnQZmYUjweDyUlJYn+Yz09PWjaLtLStmJZBYTDD2A7nRz81Kco3raN1mXL6F6w4KLlOZ1OeQMUQoyKqqqkpaUB0NnZednzuPX3NVuxYgWdnZ288847bNu2bTyqKqYYCcrElDJwuLllWTQ21qIoL6AooKo9OJ070fVrieTlcfK++y5ZnqZp0nQghBiVsrKyxHtHOBzm29/+Nvfddx+rVq3C5Ypn7Pv7jJ08eTKxkgXAxo0bcbvdifMulJ2dzcaNG9m4cSPV1dWJ66fzdD3iPAnKxJThdruT5mtqamrCtl9MOsfjeQNdv3ZUZcqoSyHESLlcLsrKyhLZ+lOnTgGwadMmtmzZQmFhIQCBQGDIUZT79+8nIyODwsJCPvOZzwz7WsuXL2f58uV8+MMfpqamhh/96EfjfDdispGgTEwZLpcLj8eTyGzV1Z0FTg46T9NOYpojWxdyqLXHLkbXdUKh0IjPv9Ik4yfGUygUmtR9ylLV7aCoqCix3dXVRTQaTex3d3ePqH9q/3lPPPEEeXl5zJ49+5IZtLKyMr7xjW/Q1tZGfX09L774IpFIREaOTzMyeayYMq6//nrmzZuXGIL++uu/x7a/Mui8SOS2EWXL+te6lDc1IcRILV68OJEp2759+4hWRygvL2fNmjUAHDp0iB07dgx53kgzaP16enrYsmUL77777shvQExqkikTU4LL5UosF2PbNocPH0bXY1xk9ZMRcTqdkzrzJYSYXDweD2VlZUC8T6tpmni9XgBKS0tZunRp4tylS5eiquqgMlpaWi5a/mgzaH6/n3vvvZd7772XgwcPcvbsWXbt2iX9z6YwCcrElFBRUUFaWhqWZWFZFk1NTWjaviHPdToPjChTpqrqZa0CIISYWa666qpEB//GxkYef/zxCXuttrY22traRtwHbcmSJSxZsoR77rmH48eP87Of/UxGlk9BEpSJSU9RFLKyshL7zc3NAMRiTbjdg89X1c5LlunxeIhEIuNWRyHE1KVpWlIm6kMf+lBiOy8vj+LiYk6ePMmZM2cSxwfOlzgaN998MzfffPPYKzsCixYt4mtf+9qornnuuecu2qwqrhwJysSk5/V6mTNnTqIje09PT1Ln2rFwOp309vaOR/WEEFPQH//xHycGMmRlZSW6R1xMe3s7GRkZiez6xTrkT1WzZs1KdRUEEpSJKWDBgMlfTdOktrYW0zTR9bW43bsHnR+NDj+Ro6IoiUWEhRDT1/z581m+fDkA+fn5zJ49G4fDMaaA6syZM4n3ooaGBu4bwTyIQoyWBGViUnO5XFRWVib2jx49ClzecHi32y1Nl0LMAGfOnElqcgTIzMwclBW71GjHmpqapEySx+MZ83QhBw8enJTNhIFAINVVEEhQJiY5l8uF1+tNdPC/cPFx29ZQlOT5uWx7+D9rh8MxplGXTqcTx+UM97wCZNSVGC/9owonq7GuEdnV1TVowugnnngiaT8nJ4eSkpLEfnp6OsXFxYn3oMrKSiKRCD6fb9SvHwgEOHHixKivEzPD5P6EETPeqlWrEtu2bRMOhwdMkupE15fgclUnXWMYKxnOWEddfuADH5AFycWM8bd/+7eTevLYiVyQvKOjg46OjsT+kiVLEkFaKBTihz/8IUBieox+FRUVE96JX0xvEpSJScvtdpOXl5fYP3TiEAA//NwPueXVW7jq+FUYxtKkoCwWWzqonIFk1KUQYjRcLhdLly5NfBk8fPhw4rmampqkc2tqagYFiitWrEBRlMT+cPOUCSFBmZi0HA4H6enpiazWnu49nF55mqaSJp59+Fkef+JxTLMYwyjF4TiJbWvEYjcNW6aMuhRCjMbAZsyOjo5Rj/zet2/o+RSFGIoEZWLSWr16dWL73Llz9Kb3Uj+rPnFs55qdXLvtWsLhB9C0ekyzeNjyZNSlEGI0NE2jvLw8sR8MBmWNWTGhBq8BIcQk4PF4KC09v6h4Z2cnc+vnsnv5+SkwDq8834xwqYAMZNSlEGJ0VFUlMzMzsb9///4U1kbMBJIpE5PSwoULE9u6rvOO/g5tFckL/7YVXHoh4IHGOuqy3yuvvMIrr7wy5uuFmEpk0AhUVlaiaRqWZdHW1ibLFokJJ5kyMSkN7OB/9OhRCs8U0lDYcFllylqXQoiRcjgcSRNXHzlyRJouxYRT7AnoYPPss8+ye/fgmdZH6xvf+MY41GbijNdaYZP9Pn/3u9+xbdu2yy5npPf5xhtvMHfuXCzLwjRN6uvr2blzJ//7S/876TwNjdd4jfWsv2SZ1dXV1NbWsnHjxoue8/LLL7N169YR1VEIMfmM53vpjh078Pv9mKaJYRh0d3ezdu3ayy7zueeeu+y6TfbPjH379vHMM89cdjmT/T6PHDnCT37yk8suZ+B9SqZMTDqGYSTtnzp1iu0rtw86z8TkOMdHVGZDQwOFhYXjUj8hxPRXX39+UFFdXR033TT8yG4hxoMEZWJSqa6uTgRPtm2zf/9+5s2bR8usoef2ceK8ZJm6rrNv3z6uu+66ca2rEGJ62rt3b9KoS03TJvVEumL6kKBMTCoNDQ34/X4gPkP9okWL2L9/P8uWLxt0rhcvD/PwJcs8ePAgK1cOP8u/EEL0q6+vR1XPfzwqipK0L8REcYx2IryRGK/OkBNRt/Ek9zk6l7pPwzBwuVyJ/aamJmzbpqysjGPmMbjwi6oN0dilf3fNzc3k5uZe8vWlE68QU9t4vZeGQqHEnIY1NTXcfffd41L2hV0zxmqyf2aM1yjVmXKfA6dqUh5//HGZSVNMCh6Ph49+9KN4PB4sy+K3v/0tvb29WJbF8/c8T/X1yWtcOmIO/urv/+qS5WZkZNDd3T1R1RZCTCMul4uHHnoI0zSxLIv//u//JhgMprpaYoaQecoEim7gwMbyObFtBzaADSjnf8ZXblNQ9RCKAqalYY1zOn/RokWkpaVhmiamadLd3Y3X66Wrq4s7n7tzUFB26+9vvWSZTqdz3L7N3HnnnbIguZgxnnzyyUndj2qiFiRftux8V4m2trZJn60R04sEZTNMTU0Nj97SzIG5X0Z3OHDYCp76BmbrNt0fmEM0Uoxlm2CBnYjIFGxFRXOq+E9tweHU6O4uIJDuxqnCnu07yTcuPxM1cG6yffv2Ydt20hti6ZFSTlaeTOyXHSm7ZJmapkmzpBBiRBwOB/PmzUvsB4PBcWtyFGIkJCibplTNwLBdmHmzuX3REiION02ZfkoNg1+8/iqu3sNoFpw6dBifz4OqqcTeeRPTssguyMefkQUK2DGDzq4OeoJBFEXFdjooXVSObvXgzMlk6arruP6+OSiqg46mFjS3G7cT7F/+mIas9BHX1+PxUFlZiWVZWJZFXV1dIqCysbFUixu33EjtVbVYmsXS3UvJ7si+ZLlut5uurq7L+VUKIWYIh8NBVlZWYv/9999PYW3ETCRB2TRzqKWZuz7yKdzZtRjKKo6++y7//e67KKaJaak4LINbbrqO4qIczp2r45ZlFXjT09lVfZTd721HU1WKC3JYMH8+dl+ubEHpAurr6jFiBqbTS9gwOXn6HN1nzvHK+ztZcffd5C4oJbsgFyMaxao7zYJ77ia9tYnjx0c2j9iSJUsS26dPn6atrQ2/3093dzeG0+DQykOseH8Ff/mVv6Qzp3NEAZnT6ZSmByHEiC1evDjxZbCpqUneP8QVJ0HZNGCbFuHsYq4tmMXcD1Zw7tBBet6uJdCxj7klc6lcNB+HqpCT5ScvJwe3x01LcxO5aS5mzy6ksbkFr0tDVRWwbTxOhbwsLwC5ubmYZpRMjwZeB740L+keD/P9Gm29EbYfUNnx3G+57mMPklc8B6fbjWPhYo7u201ZwSzuKi3lxRdfHHY4uaIo5OfnJ/Y7OztxOByJvmBHlx5l/+r9rHh/BcCIAjIY/6ZLwzAm9Zu0NNOK8RSNRid1n7LxblbUNI3S0tLEfnd3tyzLJq44CcqmMKdpsrSghFjFCqKF+Wzb9BznXn6Z0opFrCxfQE7m4nhf/b7xtbMK8wmFQrS2NmNZFiUlJbS2thKLxbBQE53558+bG99SFNLS0mhra0NR4s9mpPvp6OgAxSbH7+a2a5fwnxVVDgAAIABJREFU25Ymdv/qWe77m78mapjolkXGspUcPXKQDQvmEI2G8XrTLnofPp+PhQsXJoKKgwcPJgVUzbObaZzbOOrfj8vlGtdRl5s3b2bz5s3jVp4Qk9lXv/rVVFfhilq4cCG5ubmJQKy6uvoSVwgx/iQom4KcNizKmYW2eBmt/gwOvfIKLbW1LKpcyC0P3ovPBY2dYWw7PnzS7/eTlZVFJBIhEAigKAoej4fOzk4ikQgKNpbqwDB0HJqGP8OPbRpkZ2ejqiqhUAiwSUtLR1VVwpEItg2WbaMYFmlOjbbuKO/98hdc++DHMK14FJi1qIJX9h7n7g9+iJ/+5GkKCwqT5iHrN3D5kpMnT2IYBn6/P9EXbPfNu9GM0X1jH89Rl0KI6S87+3wG/vTp0yOaBuPC97P58+cPmqh6+fLlSS0FEzVqVEwPEpRNIUfr6rh/4RJ61lbR6/Zw5LVX8To0HLOKKKu4Gqs3RG1HL+WFGWT6/TR3h6mYk0tGZhbNzc3EYrFExkvX9UTQYls2nYEuFEWNp9UsE9MwyMzK4vTpM2x+/W0cDieqw4miOqk5d46YolL1wXsI2zD/A1WU2Bb5BbPQDQNdN3C73aiag5yKxVTXn+O6ux/gO//wv/nYh+9LuieXy8XcufHMnGVZ7NmzB03TEs2Ee27YA0DV81Wj+l3JqEshxEi5XK6kqTCO/t/27js8jus++P33zMzuYhe9d1IsYK8CKVEWFcuWqGLZYqxrWbZjyzVvEifO8/pN7rWunFiJbFnO+zo3zhNb8ZO4yVZcIlmiiiVRVqFFSRRFEgDBToIdHUQHts7MuX8ssARIsIBEWQC/z/PQ2pmdcmYNDH575pzf7+DB87b51Kc+hWUN/5O5ZMmScW+bmFkkKEsipuugvRamZbKh9wTVN95HUbnCbUqlp7iEORqiKLoOH6T6pd9hR6NkzJ1N6ez5ZGZnc/T4dpYtKiEYCtPQGSa9qBQ8KZw6fRo7ZmMYBo7jgmkRCYbZXVNLFI3X6+NMd5iUFD+uYfAfT77ImpvWs6/6CBgmOWvWM3vhIlxD4SrFwoFEZkopMoi/BoVGo1DEYiF8Xi9ah1nx3Ou4ro02PPzjxnvI7AqxPdOLjseGeL1e0tPTcV0X27bp7u4eNuuyuawZwzaYfXT2hT62EcmsSyHESAzDOC+4mjVrFoZhoLXGdV0WLVrEX//1X4/L+RcsWMB99903Lse+GnV1dezatWuymzHjSVA2yW64QRPbl8upJcspDgeJLsonEivgIIqAC12uRhVpDNx4aggM/Blp2I5DitdLz+l62o8do6e3n3nzKvjdKydAmaT5PXiOnWBzYz1R12b1+9aTX1xCv+Pg2grL4yWz8n2EHJvisnKWpqdjaxcHUCjU0DoPCgaHuxoDy2fTyULIibJv/0HKS8ooyM8jOyuLmB1D4ad91TKu3fx7AqdbWJjipXPVMlrubOD4pvjjyPe///2J09TW1hKLxfD7/YlZl3vW7MGKWmS3X97gfiGEGHT//fefty4nJ4eioqLE8pEjR4hEIgNfWh3q6uq44447xq1NBQUFFBQUjNvxr1QkEpGgLAlIUDYJWtrOcN09H6fU8FC6YgUp1xssdWIc6Qvj2g6GqYnFoijLAG0ABrYTA6VQKFJLSrjzr/8nHS3NhHt6cBWgTBxHU1JaREZONv1oTBdWakApLNfAVS6BRHb+uMHE/TEdf5UY+aC4LI7jcKBmLz6fj5aGBnAd8nPz4t86gYZryqn7s8+zYN8+lr/+Lum1e1l1PJvjJZCamsqiRYsSjxlPnjyJx+MhrON1wA4ujz9CuJzM/UOlpKQQCoVGtY8QYvr5+c9/nnidn59PaWlpYvnuu+/GNE06OjooLy9P3Ic8Hs+Et1OIQRKUTSDbtkkrKOAv/uR+FhYXYaX40R6Lt4/W0xyOEXVcdCIaGqxxpIn3U52NkpQLWBZ5ZeUjnifigjW4/cB/HMMduphoz95DBygpKCI/Lw+vx0NslNPMDdNkdWXlsHVnzpwhPy8PreJhXsvhg4Tzi9j5iY2UFBZScOwE7HqDpUuXJvY5ePAgLS0t+Hw+tty8hXXPr6OlpAWAigMVo2qTZVlSq04IMUxbWxttbW2J5ZqaGgDWrVtHefnZe+nBgwe55ZZbJrx9QoAEZRPGMEy++Keryc+7jTPRGG+39dAd7qA35gyJlC6ve0ophWkYOFeRQycUCtHX20t2ViZ2NILtxGg/c4a8IfnCRktrjdaazMzMYaUzZ82aRX9/kKL8AiKuS31pCY2vtSXKKmmtaW9vR2uNz+cj6AQ5Oe9kYtZlVkfWxU57HqUUWutLbzhKpmkmdd4mgGg0OtlNENPESDOlk8lgjdyrYZomc+fOTSwfPnyY06dP88ADDyTWDe1hO3d2pc/nG/U5ZfaluBgJyiaAMk1KNnyUd/ozaW04ilYGWoFHaTICaYy2rLfruoRDIVL8/ituk9/vx+/3J4IniN98riaU8VgWtuMkZngOMlP8ZKQEiLguUdsm7ERY80eLWbp0Ka7r4jgOe/bsSWTgdw2X1z78GjD6WZcpKSnjluB1w4YNUpBczBgPPfRQUn8JGYvgxjRNcnJyEsvvvPPOedsM7WGrqalh06ZNifcWL1487PV11113Ve0RQoKyCVBqpdCjFT09vTCQr0YBtla09/Xh93hITUkh0tdN9csv093UgOWxiFop3PbpP0F5fJjG2ZujMZBnbCxc5tCxi+rt6yXd7+d3TzyO3duFgca0UlhYWUnxkuVYPh/hWIRIzMFGo1zF/Jyz08+PHz+Obdt4vd7EN9+24rYrmnVpWdZAXjUhhLi4yspKLMvCdV0aGxtHndvwwIEDw14//fTTieUVK1Yk8pMN7WGTAufiYiQoG0eGYdDQ0k6kPJ9cNTCj8ZyB9gpFT28/b/3n99nz7tv09nRjWCbK1diOze5Xn2P+imu552+/jml5QKn4v3F4PKe1jh/7MtmOiz/F4s0nfsKJqu00NZ3GsnyEYzaBFB9vbPovCotLufsv/5bsxctwBkbMGe1NVF5/NijbsWMHrusmMvDXLa4DiBcdH+WsS9M0pTSKEOKSvF4v73vf+xJfBLu7u8c0t2FtbW3i9bk9bEJciARl40hrTVNzG/a85RRoi5btf+B4zS7m3PRBCpYuQ2uwQyGef/TvaDlWh3aiLC/LwaNtPF6TqGtxqLWPqq1v4AT7ufcb38L0jE0P2bkGp4OfG5JprYc90nQdh2AwiD8QQGmX7/z5nxFpbaSn6wzrKsrJyQiQmZFGc1s73bEsdh0+zS++9XXu+9pD5C5diQI80WAiN5njOHR2dg7LwN+dG88vtm/1Pu545vKnpifLrMv9+/dz9OhRTNNEKYXjOCxatIj58+dPdtOEEAOGjiUD2L59+yS1RIizJCgbR1prwpEQaNDKoaOzmbLSPFoP7iFv6VKi0SjPPPL3dJ4+xqz8VD64cjlvbN2OqTS5BSV0tp3hA/OL2XYwzL7qXXj/9yPc8+DDaKXwWBYx2z5v/NaVamxspKCgAKVM+vuDOI4dn/upFN09PfT39WMoE1dD1LEpmzOLPa88Q6Slkf6eM3xhQyWnmlo5VHeUOcV51J9uIz3Nw12rZvNi9Ule+vd/4aPf/BdSs7NZW342R9C2bduIxWKkp6fT19c3rE2O5XB8wXHmHJ5zWdeQLLMuW1pa6Ovro7KykqKiInbu3Mnrr79OdXX1uJ5Xa00gEBjXc4iZ47e//e2Y3V9Ga+7cuVSeM6t7rOXm5iZeNzQ0jNtYVCFGQ4KycWaoeNpXtMs1K9YQ6ekhMzUdAL8dw++EaA6FmJ9XwNYde4n09bJqzRq01pQVZlFz8DjLrynkzcNN1O3fQ93hg5RUVNDc1kpBTi5aawzDSNw848n2B/u24rMQlYoHV2hNX18f7kA6/b7+PmzbIRqL4sYcOnuDKGUQCoUG9jv3hhzvycooK6LXtjn81laCwX5uWFTOtpoDZPgs5hQXkpWdRUpKCgcPH8Pq7mFxaR7dKOp3bmPhihXMXrcSiI+tGAxUent7z/vstKHpzrr8rPzjNety0Msvv8zLL798ye18Ph+LFi0at3ZciFJq2MBjIaaqF154gSeffHLMjuf1eikrK+Oaa64hNzeXEydODLu/9fT0yFgvkRQkKBtnSxbMJ2fxErQCX8k1+EpUPFWE1rz6m1/T2thMttfET4xV80vxr1zA1gPNRGI26+bnUrlwNv6MbA619tLUH6KpqQFvSTn4Axw8VU93RyfhcIi0tDTSMzLw+XzxMVVaYwzMnPJ6vThoYo6DQTxm02iUMtA+E6/Ph+3Y8dqXhiI9MxWlwXFd1EDC2vj2YJgWhuVBAx31jURjNrNyM2isO0Q4PQNPXgmv7D7Jp+68iWPHT9DecJLZC5dTd6iFM3VHWTx3LtnZ2TiOw+HDh4nFYonenWg0OuzGaNrmZfeSjeesy7FQXl7OwoULJ7sZQkwJ+/fvH/Nj+v1+ysrKKC8vp7+/f9gXwa1bt475+YS4EhKUjbOMdD+RA9sJ+QKsra5l12c+QyQSxVYe+gyHtMxM2ho6Od7SQXtfkDUL5zC3OIdIJMaphhaaWtuZVVqM6fHiMSI0Vu1g8TU1VP7OSzyprAdjIMesq9z4RAKlcTUYmGhXxb8RDtSrjG8Xf2kYoF0wTMBVaB0DNMqN96xpQ6FcDUZ8XJmhNWhFfzTCN72aaDSEdjVd/RGUPx3H8FCSnoJvQTl2bwcxbRLIKaK5rZOSkmJKs1K4ZfnZcVWDuckGx5IFAgF2rtyZeH951XIyuzIv63NO9lmXgUBg2OMSIURy2L9/P+FweLKbIQQgQdmEMHt7MHt7qCkvwNyymcFRPx8oysba+GEee+wx/GlppMcidPSEsDwRYtEInR0dpPu9OJgcOFkPTpQ3fvM4i3K+TE9R+ji09PImEbiui/+dd2iuP0Vaehq7jjbx/mWLCEXCvLerijmFuexsbSTU3cOShXN4bW8DN6yfy+zyUpYsWZKYHVlVVQWQCMpisRjH8o4lzvPx1z4OmfH8W4P7XCjwSvZZly0tLezbt2+ymyGEOMfQtBZCTDYJyiaZbdt85O6NvPn671lRWoCLQzTm4vMGKCgpIxyOsKu+nZysTMrLylmzppLU1NRJbbNhGKxfv56SkhKOHj1KMBxh+6EmFpVmcs2cWWSlBnB7QpSUFvNKTR1LVlzLnDlzWLJkSeIYb7755gWzzxu2wZf+5Ut0d8fHkw3WovN4PGRkZABnA7lQKJQ0sy4v5vTp0zQ3N092M4SYEsZzbOhQruvS0dExIecS4nJIUJYEiosKufX2O3n62edI81qkeRSmadIejNHR1cXnP/e5RDCSTObOncvcuXNRymDz5lf4XdURSvLzMM0wHd19ROxmbr9tA7NnxxPAFhYWAvGer7q6ugsed/nO4fnJhvakQTwoNAwDr9cbL+mk9YgTBZJJd3e3lEASIskcPnw4KWZsCzFIgrIkkZuby5c+/zmam5vp6+tDK8VKf4CSkuJJm5Z+ubR2ue22W9mw4RZOnTpFJBolNS2NkqJZKBUPpNLS0li9ejWu62LbNl1dXSMey7Itbn3+4qWVXNdNHEcIIa6UDCkQyUaCsiSilKK4uHiym3HFlFKJXrG4syVLbr/99sTr995774LlTC4VkAkhxFg4efIk9fX1k90MIYaxvnPvP012G8Q0t695LXmzvppYzo98m+/ce37h36RX8igUP3DJzd54443zxo/dddddXH/99ePVMkAKkoux9cgjjyR1QXJavgf1X730dkB1/Vr29lQMW9ff18m3/69Hx6NlQlwxY7IbIKa/1v4SsrKygHg9uAX5MttJCDG5ri2Xskoi+UhQJsbdwvwaTp06BUDHmUayAp2T3CIhhBAi+UhQJsZdfmojXV1d2LZNqf7fk90cIYQQIilZv3r3I5PdBjHNudog6Kuho72VjvoiDtZPzZ+5pWuvYWHOpUs5OY5z3jrbtse9DNRI5xXiSkUikaQeU1ZXP4vay/z7daLnBsrKhq873DSX1o6peS8S05e1+/SSS28lxFVKT2+lr6+Plpap+/O2+3QNPF1zye1GKki+efNmnn/++fFqmhBj7uGHH57sJlyGy7ufZI5Qra21N5uTrVP3fiSmJ3l8KSaEYRh0dspYMiGEEOJCJCgTQgghhEgCkjxWTIhgMHjBhLFCCCGEkJ4yMUEkIBNCCCEuTnrKxITxer3nrZMi3UIIMbZcV+NzHEAD8drJCp14Xw+sa8/JoS8tlVmnTmOg0cP2AIUaWBP/3w6dQ3+xH29M0+EGWNRxBKUMMA1ihvTxjAUJysSEOXc2l+u6HDp0aNi6bdu2cfjw4YlslhBCTA8aYodP8+EjdSzq7aIhPYMdTSfpDkcI40lsdI3XJCc9g3fa28nAwdUm2oDVa2/k5js3ED3VTPOzv6XY40HfdAO1B4+z/pYPYtsOtHTjao12OjGNdCKGye9feJm2VYtomVUwqZc/HUhQJiaNYRgsXrx42LpzlwFqaoanoaitraWurm7YOtu2cV137Bs5hGmal5W3ybLO/7Uaad14kJ5HMVZG6tlOJo7jSG6+IbTr8pE3t7O4sYmujCz6/u17eNeu5QZD4QCutkEP9IS9spk9Tz3Nf+zcjWXB//vtb7Pu1ltwFBzUGoUm5X/+GaGf/ohoYSk/sTykfvlzaK0403qGxlOniIQj+NLSWLR8GSVf+Szqd5uJvfU2bbNLMcf5XjydSVA2Dd1///0opS694bl+9CN47jn40pfg7rtBa/jBD+Cv/ursNlrD88/H358gq1atuugyQFNTE11dXcPWPf7441d+Uq1h6GeoNRs2bODmm28G14WLdNWPVJD89ttvl4LkYkp56KGHkjp57FtvvcULL7ww2c1ICl3Ky2dff4u5Z06jrr8Z6/uP0GP6GQyNTMBQZvy+pjU73tlBZ1s3y5cv5X/9499TMu8a0jw+bA2O6xKNRHHS/HR/5StY3/8BnwsEyPRlEjIiFBfmUVJWhG3baK1RSqExKf7wnRTPLuTJfSfJbG+czI9jSpOgbBrq6Ohg/fr1o99x3jw4cgQefBAWL4aqKjh0KP4a4r/QX/4yLFx4dl2SKC4upri4eNi673znO8OWGxoaOHPmDLZtJ75hj9TrtmrfPtL7+9l63XXDlrnzTnjiCTBNyM2F224bxysSQohL67Es7nu3miVnGmhevhb37/6WfgeMWBSUO9A7ptFK4TVMfv7jnxA4cYpsv4+//caDFM+ezcmDR9mx7V0cxyEjN4db77gNn2ESwcD6088TufcL7Py/v0rd4lWsvmEl5bNn4TEN0BqtNYZWGIaLb9l1fLSlk0MHD9KQlz78i624LBKUibP+4i/ivUBZWfHla6+NB2qDfvYzeOABeOaZyWnfKGh9dlCrbdv813/9V2K5paXlwolstSa3s5Po4KObocuxGLS0wFe/KjcbIcSkK+jo5m9efRtiIZ7LTufF3ExSfvFLUnw+bNvBdTXGQG+n1jamaaK1JieQQuXKZXjLitj0q19z5OBRUjKyCKSk0NffzE///adcf9M6TMPlv378cxa/fz23bN+BY5m83ddDelaA99/xATxeHw4acyDwi+ognhvXUW47uFvepqlcxpiNlgRl09AV11m0bXjqKcyFC3EG9rccB3vgte/UKcjOhkiEWDCIO8pHGz6fb/Rtumhz7WFjSn77298mXtfX19PR0TG6A2rNh7Zs4eU/+iNu3LXr/GWA//5vKC2FvXvhW98ai8sQQoyzUCg02U0Yc/mNLSyp3osbDfK71FR+YPnQR44yy7ASsygNbaC1C0phO1Esy0JrTUEwSCwaQ8ViuK6mqbGRPAxiA2NSlVLUnzhJaqqP08dPkF9QzGN++Mt3d7Er7QDVpeVYOkZHdyd33XsPtguo+GxNF036mlUUHDtOSXqAXd3d8iV2FCQom4ZefvllXn755VHvt/jIEQ5UVHD7H/7A5m3bAPjozp0889BDACyqq4MvfIEldXW8fuIEXSMVlLuIcx8nXq6hA/jffffdxOzMi/Z4XQHDdVl47Bj57e3kdHXRnZbGgqNHE8vGwYPoe+9Ff/zjqB070KMYzKq1HveJCEN7B4W4WhPxM3s1xvrnffHhw6ytreWXf/zH2JaVWD4wfz47Bsexas21e/dStXz5mJ57tHLaOrh363tkRiP8wmvxPVzcYBBC/XiOePD5fJgD4161jk+qGsxuodFE+nqIqQieYIz8jDRaWk/jy8og1hfFMBTadak3j7Hxo3fh9nXR1tLE15dW4m14nXv7orwT7iXc048VdXhr04uJ3jhXu7gK3GiE6++6hZSXdrA6NZeqYAcSll0eCcoEHk98qnRZeztL6upoyc0FYMWBA5Q3NbHxlVd49rbbODJnDhtfeYW8jg6yenpGHZRdiNZ62KzB3bt3DxvnVVtbOybnuRQzJYXv//mf4w+FqNyxg30LF1K7ZAn+UIh1NTVsPXmSP9q+nbcbGrjlnXd48cEHRzzOSAXJX3zxRTZt2jQRlyHEmPi7v/u7yW7ChJrV1MTPP/Yx3r9tG3+44QZKWlv5+cc+xo07diS2ub6mhvz29gkJyloxuGPrLjzYeIx4SBMyLAIYrDh+jHTHxjYN1vf1UGYMPKJEo7s7sTyeeCBG/EutoRSuVphG/PFlwPRS8Oo77Hp1BzmxIP/U2U1aTxUug9uCxsT7+ha+2dlP2s53Sd1fTUowQr7pJXfnKfoOHqLPowADpUBphUbHXzsKfv0CVsDPtdEYnoJ8cmIOjnJAgeEqlDaI961pwo5Nq1/RsmgBrakBjAmarZ6MZu6VCyA+7T0Wi6G15vfr1mEYRvyX2bapXbyY2iED+h3T5Ok777zic12ox8t13aTITaaUIhqNsqihgab8fDJ7eujIzmb2wHJGby+v33gji+rqeHf16slurhBiHDgDAcFr69ejtCZlYPjG4sOHOVlaSlZPz4S045P7d7DgyH6i2kE5CldrLAMcpQm6mn4FKY6J39AsdBUmMQzDg+OCNxTCNkFrB6VNFA5amYN5YLGVgxn0sCbqYKBI0RqnLQhaDWSO1YmZlWVodJ+B2R3FtmLYbh+xiEuJ7eAO5NgwLB9oF4+O7xvTGhMLbZn4XMXa9laab3kfbUtXMnfOHB7+h28QjoRBgXY1Sise/T/f5Qff+1c+uX4t35lTweLjxyfkc042EpTNcIZhDHsM4LruuOXUevACPUvJICUlhXA4DMCe2bPxer2J3ruD8+cP2/bcZSHE1Nfv93PPSy/hse3EuuUHD3ImJweA8uZmjs2ejek4WLaNPc69Oe99cjGVKkzXtqNEdbxNYTs+PkwR75nqVxG82kOwMJc/hPt4s60VpQzmeVP4+DWzSD/ehKNj4GpcYhjEe7NipsK0bUzHRWtNyFCoxJ8BFX/myUDANJjpX0dxDS+xhdfwxKEDnAj3Y2m4a/Y8bvSa6JOniRg2yjFBGaCi5N6yGBULEapqxrN0Jf4b1tGdmsqmU/XxPHhKYxD/GxRasJAv/cdj5Pz2OZwxHn88lUhQNsONNGbkinKcCSHEFPbW2rWgVOJx5bV79lC1fHli+URZGXNOnyarp4e8jg6aC8Z3ZmHnq6307DpGQHvxeXyY2NioeOkjpdCOg6MMqpes4tNvbsb1+ykqKAStea6xiceqa/jGtdfxx6eb8DkRTOUZ6CnTxEyNYRhYSqPj/V3xgE3HHz/GNzMShZmU4UBWLt/UYX6xbRsqxU9xcRGhcJBnD+2lwB/gH+ZX8MctZwgPJJ81MIi8cRRXp2A5Ua5ZXUlRxQIMn4+IYxPtC8ZjPxXP3JGZkYE/PZWmPftZFu4b1882mUlQJgTnB6eG1HETYkbJ7ezk/du3s31gaEIgFOKel16iKyMDgMNz53LPSy+R3dNDcWvruAZlhfm5zM9IZf8nSzEjmuW79uE9dRyvduIZ+RVo10NNYQmf3raF7JISvCkpFBUVYVkWyjLp6uri61Xvkr1sFR/p6MR0SfSGmYYHbSi8WuMoFwYeVSoGnl4qhdY2CnAB5cvgycwMflx9lJLSUlL8KcyePZvW1lb8/gCtbW38rz27ufEDt5FXV0ef5YnP9ESjtUEUP7Hnnsf57//GysnhH5Yvpw9NWW4hp9tbSTctot/9/9CRGO0nT2Etnos9pMdyJpGgbIYbKfiQWXxCiJmmPSdn2JjZtwaSRw91NWNqRyMYjpC7YBE9+w6Q6onhmVeKrzgTYhoMhXLi48V8eXmsD/jYvreW//zXf2XRokWEw2F+85vf8JOf/ASUxTZT8yfvWwP9DoOlxl0Vr1hiuBqUgTYNVCQK1kBYpuPr0S4oiKR6SM3MZEV3F8da6vnxT35MTk4OlmXxmc98Bm04RLXBj4/s55777uPInAq0oUAZGGhsw2Te7Fn4LA9u1OHOe++LNyUa5XMLKqjdu5szHgs8Bv6w5u5UH08//fSEfNbJRoIyIYQQIon09vbx3K5d5OTkUFd/EsMDvrwswkWlZIdDhHw+uqwAa/o7WZJVydaaXdTU1FBQUEBnZydbt26lv7+f+RXzCCxbwQ8iNmaqQ7rW/ObVLYRCoYF5jwqPZWAYig233IwyjERPWXwQf/xxqWkbnCwpY+6Kxex/vo7XXnuNtWvX4vP5aG9vx4k43Pj+GzGzc6g9cozQ0aO4rmbXK5uJxaK4rhvviVPgNS2+ePdGaqM2EeXye9ND0OMld+UymscwxdFUJUHZDBeNxhMKDnYVD87GFCO7nPF2I20TvyGN/1g96eUUYyXZx5bOhJ/1jo4OcvLyE8v+cDwJrj8SwR+J0AB4fT4+fNeH+e53v8ujjz4ar0WpNRUVFWzcuBGA9oH9W4HZH03j8Z/9HHfg4/Npi0/9yafozj97npGkhULMnzePlStX8t3vfjcx5MPn83H77bezcOHN4zEfAAAWJUlEQVRClFKcGrJPXmkxv/jFE/T19scfuxqKT37so7w6a9Z5x5eALE597Wtfm/4/2eKiTNPE6/Um8oUlc8LI8TJ0tiUMn4056I477ogXJL+EwYLklZWVFBUVsXPnTlJTU6UguZhSHnnkkWlTkNzr9VJRUUFlZSXl5eVUV1fzxhtvTLtM//39/fH6lQPj4C4mFAqhlMLn8406ANda09XVhWmapKenX3L/WCxGOBwmPT19VOeZiazx+DY0Vt9gZso3tcm+Ttd1hwUg57ZnulznxZw7tm4mBqZCTHWjucdMVO/1UON9L01LS7vsYwQCgas6f85AqpCRnHudHo8nkaR8tOdJZuPx/6f16KOPjslBh3ryySfZNVgr8CqMR9vG0jPPPMP27duv+jjJfp3PP/88b7/99lUfJ5mvc8uWLVdUmkoIkTwudI+prq5m7969w9bdeOON3HLLLRPRrITt27fzzDPPXPVxkvleClBTU8Ovf/3rqz5Osl/ngQMHePzxx6/6OEOvU+b9CwHcfPPNiYLpPp9v2KNMIYQQYiLIQH8hBtx4441s27aNyEBZlXPZtn3eOLOROI5zxfteDXnkKsZSJBJJ6nx9MzWPlZjeJCgTYoDjOBcd+Pvqq6/y6quvXvI4IxUk37x5M88///xVt1GIifLwww9PdhOEmHGs8fj2PlJPwZUY756FqyXXOToz5TqFEJPjQveYkXrVHMeZ8HvSWPXuJfu9dKzSKs2U6xw6XEZSYggxxgZ7yoamxNiyZYuMUxNiksyUlBhi6kveAQNCCCGEEDOIBGVCCCGEEElAgjIhhBBCiCQgQZkQQgghRBKQlBhiQl133XXMnz9/2Lrdu3dTV1eXWB6swZlsTNPEsi79KzPSNpZljXvJkGT93MTU5PV6k7rMjeM4kqtMTDsSlIkJVVpayooVK4atO3fZdV327NkzbN2OHTs4evTosHVjVXfscm3YsGFUBcmHuv3226UguZhSHnrooWlTkFyIqUKCsmnKMIyk/JZ7OW0yDIOVK1cOW3fuMsTr2Q3lOM55deVc153w4E0IIYS4EhKUTVPFxcV85StfmexmjKvVq1eft27NmjXDluvr62lvbx+2bqRCuRK4CSGEmGwSlE1TDQ0Nk92EpFBWVkZZWRkQ70nTWvPNb34TgKeeegqIB2S7d++etDYKIYQQIEGZmGaGFuV2HIcnn3wysdzY2MiZM2eu+Nha6ysu+n01+14uKUguxpLrukk5BGKQ9G6L6UiCsmnsV7/61ai2H5w1uHLlShYsWDDiNrt27eLYsWNXPOtp7dq1582+HC2t9bA6lUMDr5EeV46VzZs3s3nz5ktuN1JB8hdffJFNmzaNS7uEGA9///d/P9lNEGLGkaBsGhvtI7kVK1awZs2aiwZNlZWVrF69mj179lBdXc2hQ4dG9Y117ty5lx2UDe35GTr70nVd9u7de9nnFEIIIaYCCcpEQm1tLbW1tSilWLFiRaLH7Ny8W4OzIwdnRNbU1CR60Ib2YF3KuT1eNTU1HDlyJLEs47yEEELMJBKUifMMDnwfDIpWr17Nvffei1JqxDEmq1atYtWqVYkerKqqqgv2oL333nuJRLFaa+nxEkIIIQZIUCYuqbq6murqakpKSsjPz+fee+/FMAwMY3iVLsMwWLFiRSIZ7Eg9aA0NDTIzVAghhBiBBGXisjU2NtLY2Mju3bspLS3l1ltvZcGCBRfM+j1SD9rhw4fPmyU4GNx94hOfAMC2bZ566imZTSiEEGJGkaBMXJGGhgYef/xxID5bs7Kykrlz545Y93GkHrShVq1add4+1157LT/72c9GPZFACCGEmKokKBNXbXD8mVKKZcuW8YlPfOKiZZ5GCsJG8rnPfY76+noee+yxpOg1u9CYupG2O9dIj3vHQzJ8TmJ6mIif16uhtZYvbGLakaBMjBmtNXv27GHPnj2UlZVRUFDAPffcc1UBSVlZGd/61rf46U9/Sl1d3aTehG+//fYrLkh+5513SkFyMaV885vflILkQkwwCcrEuKivr6e+vp6qqirKysq44447rjhprGEYfPGLX+TUqVP88Ic/lN4gIYQQ05IEZWJcmKbJqlWrWLBgQSKf2dWaNWsW3/72t9m1axdPPfWUPLoQQggxrUhQJsbUmjVrqKioYNmyZYl1WusxraFXWVlJYWEhr776KgcPHhyz4wohhBCTSYIyMaZ27tzJzp07h60rKSkhLy8vsWxZFvfcc8+wbUY77qysrIz777+fPXv28Otf/3pCes1c172smp8jPV693H2vxmiqKQhxKbZtJ3VvtAxjENOR+trXvpa8v3VixigtLSUnJ2fYusG8ZYMuNKOzsbGRl156aViJpsk0WJC8srKSoqIidu7cyZYtW4hGo5PdNCFmJK/XS0VFBZWVlZSXl1NdXc0bb7xBKBSa7KYJMYz0lImkMFKm/z179gxbvlCPW0FBAZ/97Gepqqri6aefnpD2CiGEEGNNgjIxZQxWFBiqqqpqklojhBBCjK3kzg4ohBBCCDFDWDI4WIjxp7Uel4H4yZzcU0wfU/3vxIUmBUz16xLTj/W9731vstsgxLSyYcMGFi1aNGzdm2++yTvvvDPm59q4ceNlJ+UdKYC73D9Ksu/V/QGfqtfhui4vvfTSlE89s2bNGhYuXDhsXVVVFS+++OIktUiIkcmYMiHGmOu6NDc3884775CSkkJnZ+e4pRZ49tlnufvuu6moqLjkto888siw5dGUZTp3X4AHHnhA9r1MIx3vwQcfvKy0Dg8//PB5wdXVXMflnhfiKW6mekAmxFRiebzeyW6DENPKm1u38ubWreetH+vftdhAio0XXniBr371q2N6bCHq6urYOvBzbBgmpjV1H5WbpoXWGtd1cRwHrTWmaY7576QQozFSiidr66n+SWiKEOJqrSvyTHYTxDTW3t6eeP2J//EV/vof/s8ktubqBHs66Wlr5mQQTh5uAn8BX3n03/n6fxZOdtOEGEYeXwohhJjWAhnZBDKyJ7sZQlySpMQQQgghhEgCEpQJIYQQQiQBCcqEEEIIIZKABGVCCCGEEElAgjIhhBBCiCQgQZkQQgghRBKQoEwIIYQQIglIUCaEEEIIkQQkKBNCCCGESAISlAkhhBBCJAEJyoQQQgghkoAEZUIIIYQQSUCCMiGEEEKIJGBNdgOEEGKq0Frjum5iOS0tDa01oVAIpdQktkwIMR1IUCaEECPQWhOLxTh69Cjf//73aWlpIRQKceLECWzbRilFMBgkLS2N8vJy+vv7Wb16NYFAQAI0IcQVkaBMCCHO4TgOX/7yl9myZQumaRKJRMjNzQUgNTUVx3Ho6OggGo3S1dVFf38/Wmt6enrIyspi3bp1GIaMDhFCjI4EZUIIcY4PfvAD7Nu3n7y8PNLT0/H5fHR1dRGLxcjKyqK/v5/09HSysrLweDwAuK6L4zg0NTXx0ksvsW7dOrKzsyU4E0JcNgnKhBBiCNd1CYcjVFZWcuzYscS6YDBIXl4ehmHQ29vLmTNn6Ovr43vf+x5+v5/u7m42bdpETU0NlmWxf/9+8vPzuf/++yf5ioQQU4UEZUIIMURNTQ2pqaksXLiQ3t5ebNvGMAxKS0upra0lGo2itcYwDFJTU3n22WfJysrCtm0KCgq499570Vpz8uRJdu3ahdZ6si9JCDFFSFAmhBBDeDwe+vr66OzsZOXKlbz44otkZ2dz/PhxTNNk48aNmKbJ3LlzgXgv2mDgpbVO/CstLaWhoWEyL0UIMcVIUCaEEANs2yYrK4vjx48TDAbxer3MmzeP1tZW2trauOGGG5g1axZaa4LBIHA2EBtMlTE0MJszZ86wFBpCCHExEpQJIQTxYKq2tpaMjAwcxyESiRCNRikoKKCjowOlFLZtJ2ZaDvaOOY4DMCwoG+w9C4fDvPfee5N2TUKIqUWCMiGEAGKxGG1tbQAopYhGoxw+fJgFCxZgWRZer5djx44xb968YUHZYAA20nI4HObUqdOTdk1CiKlFgjIhxIwXCARoa2ujv7+fYDBIbm4ujuPQ19dHU1MTlmVRWFjIqVOn6O3txTCMYY8pYfhjS8dxEoEdaGzbxrLkdiuEuDhJoCOEmPGCwSALFizAdV1s28bn8w08qgzS2taOGYqSmZ2KxzCorq6mr6+PYDA47F9XVxf19fU0Nzcn3u/s7KQ3EuHfv/WPk32JQogpQL66CSEEsGfPHjo6OhI9ZADaY1Di9XJ9sJ2wMmkuLKSpqYn09HRycnKG9ZI1NjbS2dlJMBhEGQrLtIjFYswqLaNq+xtE7RheyzOZlyiESHISlAkhZrze3l7effddKioqCIVC+P1+2tvbycrOZHZ7A3/pNrNL+6gqXIRyHA4fPozf709k67eseAAWDAYxTZPU1FQyMzNJTU0lJT1AaUsjf3jql2z4xGcn+UqFEMlMgjIhxIx35syZRLmktLQ0YrEY+VmFrD+5l6/nxcgMa4o8Mf4t1cOcOdckCpAPzrj0er34fAEMw0Xrs8XMGxoacBps9lUuZGX9ycm8RCHEFCBBmRBixuvr6yMjI4OSkhKampqwbZuG3laeKw6Q0d9CR2o2XSmpLI9GebM/SlNzE0qpYTnKbDuGHYNoLIhS8YkASikCvhQq5ixheXraZF+mECLJyUB/IcSMV1tbC8Brr72G67oYhkGeN5sfRhRKK17++F9R/NY+lt99dyLbf0dHB52dnXR1ddHT04PPm86nP/UXpPjTho01y8vJRW96htzHvjGZlyiEmAIkKBNCzHiDY8NycnIwDAPbtvEEDDZ7i3CVyXVvPIt1pptMv5+ywhKUMlBKoZTC0CloNL19vWx69hlM8kBZWJZFXl4eyvRQlplOSjQ2yVcphEh28vhSCDHjxWLxgGmwh8vv9wPgpHppd1O4pn43PR9cwlrDg/KVUlJSTFdXFzk5OXhS0mnu/CJhnUc06xoy0xSLfP8PyrUJhUIEfB7+29XsaQjyo0m7QiHEVCA9ZUKIGS8UCgHxHjPHcc6WSorEOKbB1Iosu5dT/SHCKR4KCwspLy+nqKiI9IIsjIzbUGm3Eu2fxZ/+2UpiTi4APp8PbVqc6e2jdtY1k3mJQogpQIIyIcSM193dPaxweGtrK0opcFwO9MXYn1HIY30e/tnMwXAtTNPE6/UCoGyTjR/KIxDoQ/u7OV7fAE4ahmEQCoVQKDLzcsD0s2nTM5N1iUKIKUAeXwohZjzDMAiHwwQCAUzTJCUlBQDLMXkkmE5eTzZmWTERQ2Gqs/s5jgOGQ319LwErRGpqlANVfWirl87ODjIzswDo6ugiJzsbr9c3GZcnhJgiJCgTQkxPbnj4srrw7S4lJYWenh4KCgpwXZfU1NR4oGbaRFNSiOWm47g+opFe/PF4DZ/PRzgcxjRMeuv/ilKfjR3ro/1gL1j95GYXxpvhuvT19pKVmcnu3bv50Ic+NF5XLISY4iQoE2KGeOKJJ4YtDw5qv5J9r+a8E7Uv1f5hi7VtHwUWjLipbduJQEwpRUdHB7ZtU1hYhGEaeBwDbQTxp1j09PSQkZGR+Pz6ezqw6MXwKGzHJTs3FYc0XNfFNE1aWlpITU0F4MjhI4lrGvq49GJ++ctfxh+lXoGRPr/LPa8QYuJJUCbEDLF3794Zte+5WltbuVBQNvj4cjDYikajA4P9nXi6DFODNtFaE4lEEkljvV4vHo8nETQppWhvb6erq4tIJBIvu2RZLF+2jGAwSEdnx6ivad++fVd8zWP5+Qkhxp8EZUKIGc+2bWzbThQjV0phWRZ9fX3k5ubS3NxMYWEhSilyc3M5dOhQoqfMcRxisVh8fNkA0zQpKiwiPz8/EchlZGQkJgcIIcRIJCgTQsx4ubm5NDU1UVBQQDQaJRAI4LouGRkZAKSnp9PR0UFWVhZaa/IL8omEI3i93kQvWXt7O7FYjLKyMtLT0+nv7yc9PT1xDtd1R/XIWAgx80hQJoQYM6ZpnrduaA9SsqqoqKClpYXW1lb8fj/Lly9n27ZtmKZJeno6fr8fr9dLQ0MDoVCI1NRUAoFA4hFmIBAgLy8P13UpKStBf2kOacccjj7x3rCSS0NN1c9KCDF+JCgTQoyZRx555Lx1DzzwwCS0ZPSUUtTX11NaWoplxcsk9fb2kp6ennicOWvWLCAePA2WZhqktaa0tJTur5TQkxGEQlikrufw49twXZeOjnbSAgHmzZsHwMMPP3xeYDZVPishxPiQ5LFCiBnvhhtu4POf/zyGYdDS0kIkEiHF5ztv1uPgAP9zA7LB99LS0uhNsxPrnCIvtbW1VO2q4p9OnOAbe/dy3/PPx9985hn49KchHE4s3/f886y6ioH9QoipTYIyIcSMp5QiLy+PJUuWEIvFaGpqIjWQiuO62LaN67oopRIlmLTWxGKxxDix1tZW6urq0JVZ6CFxXFN+kMVLlwDQ5vXxj3Pn8puPfCT+ZnU1PPEE/PM/x5erqvjNRz5CZk/PBF+9ECJZyONLIYQYcOutt3LgwAE6OjrIzc6h7UwbXZ2dmKaJz+PFUBrbVcTsKNFoNJE6QykV/29JAFQ0cby+VJv8gnwAbopEmXf8BG/aNo415NY7ONYsLQ2rrQ1DJgMIMWNJT5kQQgzwer3ceOONpKen4zNMYrEYoVCIYH8/f5kS4kHLprenk76+PqLRePA1NEdZ5++PoobEVMWtfvbW7gEFn0TzyOJF/NF778XfTE2FT30KDhyIL1dUsOjoUTqzsibykoUQSUSCMiGEGGLdunVUVFTgHah/CYDW/LAxzLfO9OK4F37A4NT3w5CgLC3oobWlFYAVwPLly3EHx6n9zd/AL38Jy5fHl6ur2btwIZnd3ZfVzpHGtQkhpjb5rRZCiHM4jkNnpD/R6+UCLZbBGa3BjI64z0033cTJkycprY+Xd1Ia+n5/MpEKY4HPx/94/XUOzp8f3+HYMfjkJ+Guu+LLqal88tlnsS4zLcYtt9xyxdcnhEhOMqZMCCHO0djYSIrpGbZOOQ6g0ENjJg2GaWBZFlVVVYRCYbr+spOPfPvzBLoU//ajHxPwB+gPBam67TbCS5ac3XfBAvjVr84uP/AAv+rqGtfrEkIkNwnKhBDiHFlZWezZs2fYusGxY5ZlEYvFME0L7Trcf//9FBQUcPToUQ4ePEhWVhbZB+NFv7/whS9Qu3s36RkZLF68eMKvQwgxtUhQJoQQ51i2bBnd3d2cOnUKgAULKqioWJB4FPmFL3yBl19+mczMzEQC2Hnz5iUSww7Kycnh5g98YFzaePPNN/P73/9+XI4thJgcEpQJIcQ5tNbs2rUr0TtWWFjE0qVLE+/fc889vDc4i1IIIcaIDPQXQogRlJeXYxgGHo91Xg8YxHOaTZabbrppxNqZQoipTXrKhBBiBBs3boyXWxqaGoN4WotksXr1aqqrqye7GUKIMSI9ZUIIMQKl1HkBGUBhYeEktGZkxcXFk90EIcQYkqBMCCGEECIJSFAmhBCjMJhJf+jA/4m2cuXKYW0RQkwP8hsthBCj8MEPfhCY3EeHZWVlAKxfv14CMyGmEfltFkLMCBo12U0QQoiL+v8BGVkLEyFN0KIAAAAASUVORK5CYII=;" vertex="1" parent="WIyWlLk6GJQsqaUBKTNV-1">
          <mxGeometry width="320" height="145.64" as="geometry" />
        </mxCell>
        <mxCell id="rD-4-QpMipcTkR7Zfb2P-1" value="" style="shape=image;verticalLabelPosition=bottom;labelBackgroundColor=default;verticalAlign=top;aspect=fixed;imageAspect=0;image=data:image/png,iVBORw0KGgoAAAANSUhEUgAABP4AAAMhCAYAAAB4z3+0AAAgAElEQVR4nOzdeZBc53nf++97Tm/TPd2zD4R9IUgAJMEFlMXN1EJrjZQoWpLIVYody66rihP9kcoe5Vp23bLKiSt1q+xKqXwrpbKU6IZWLJm5l5IdkUquKdKSSIKEQQLERmIbDDADzNrTe5/z3j9Od0/3TGM2zEzP9Pw+LBTR3ed0P6cxmBn85nnfx7x2y1pERERkVQ2/8zb/49v/ke985zvMzMw0Pebxxx/niSeeWOfKVt+HP/xhPvzhDy94zLe+9S3efvvtdaqouVQqxT/+x/+YVCq15HNeeOEFXnjhhTWsauk2+vv84Xtf4sP3vbykY98ePsi3Xv7cGle0+hzHIZFIkM/nKZVKrS7ntn71V3+VI0eOLPn4t99+m29961trWNHWlMlk+C//5b/c9mvAb/yz/53f+Ge/tc5ViYjIVuO0ugARERERERERERFZfQr+RERERERERERE2pCCPxERERERERERkTak4E9ERERERERERKQNKfgTERERERERERFpQwr+RERERERERERE2pCCPxERERERERERkTak4E9ERERERERERKQNhVpdgIiIiIhsLg+fOsVDp0833NffOQGdQBfwzyr/B3gL+L/mPEEvcN9aVykiIiIiCv5EREREZFn6JibonZzkjftm07vQoEff4ATEgXDlzleB14EHG88fmB7jAz//OT97+GEKkcg6VS0iIiKy9Sj4ExEREZFlu9Xby/984onabeden7vuu9x40BvAGeD/bLy7/ycTPPnfX+ON++5T8CciIiKyhrTHn4iIiKxYIpEgFou1ugwREREREWlCHX8iIiKyYp/61Ke47z5t1iYiIiIishEp+BMREZEVi8ViRLRUc0vaPTzMl7773drtvr87OX9gxyeA969rWSIiIiJSR8GfiIiILFs0GuWxxx5jYGCg1aVIi+RiMS7t2lW77Z716fvhBPyNuoN2NznxVbj5815+9qgGe4iIiIisNQV/IiIismzRaJQnn3ySVCrV6lKkBUb7+nj9/vv5X48/XrvPueZz16nL0A08AkSbnPgm8AbcKvTy8nvfu07VioiIiGxdCv5EREREZFlOHjky/86PAOPA/wF8G6hvBvWBMeAZguXAnwJeXusqRURERERTfUVERERkbU0AXwE+BHy2xbWIiIiIbCHq+BMREZFl2b17N5/4xCeIx+OtLkVa5OFTp+ibmOCFX/zFxQ9+i6AD8H8DHgZia1ubiIiIiMxSx5+IiIgsS2dnJwcOHCAU0s8Pt6q+iQl2jow03vkacAr4VSBRue9V4CXgGPAY0BPcPTA+xgd+9jOixeL6FCwiIiKyRek7dhERERFZltH+fuL5PPefO1e7bzA/BgeAL9Qd+AbwV8CvAT+fvbv/9ARPHj/OG/ffr8m+IiIiImtIwZ+IiIgsWSwWI5FILH6gtLWThw+TjcX4/J//ee2+2K8Wgm6/ep0EAz/+Q+PdJS/EdDKJb8xalyoiIiKypSn4ExERkSV73/vex9NPP93qMmQDuLh7N3/4q7NJ3wceeoX317f1QTDI4xNNzh3ZzTOv/E1yMW34JyIiIrKWFPyJiIjIkkUiEWIKawTwXJdM3YCXYrM9H2M0Hebh5VyyHR1rV5yIiIiIABruISIiIiIiIiIi0pYU/ImIiMiS7Nmzh8HBwVaXISIiIiIiS6SlviIiIrIkH/rQhzhy5EiryxARERERkSVSx5+IiIiIiIiIiEgbUsefiIiILCgej/O3/tbfYvfu3a0uRURERERElkHBn4iIiCwoFApx4MABOjs7W12KiCzBG2+8wZUrV5Z8/NjY2BpWIyIiIq2k4E9ERES2hFKpxNmzZ+no6FjyOaOjo2tYkcjaOHnyZKtLEBERkQ1CwZ+IiIjcVjgcpqurC8fZ/NsC53I5vve977W6DBERERGRdaPgT0RERG5r//79fOELX1hWl5yIiIiIiGwMCv5ERETktlzXJR6Pt7oMERERERFZgc2/bkdERERERERERETmUfAnIiIiTQ0ODrJnz55WlyEiIiIiIiuk4E9ERESaeuCBB/jQhz7U6jJERERERGSFFPyJiIiIiIiIiIi0IQV/IiIismLPP/88b7zxRqvLEBERERGRJjTVV0REROY5duwYBw8eXPS44eFhjDHrUJGIiIiIiCyXOv5ERERknqNHj7Jv375WlyEiIiIiIndAHX8iIiJS4zgOyWSScDi84HG+75NOpymVSutUmYiIiIiILJc6/kRERKQmkUjwpS99if379y94XCaT4Zvf/CYXL15cp8pERERERGS5FPyJiIhIjTGGjo4OXNdd8DhrLblcDs/z1qkyERERERFZLgV/IiIiIiIiIiIibUjBn4iIiACQTCY5dOjQovv7pdNpzp49q/39REREREQ2OA33EBEREQB27drF5z73uUWPGxoa4nvf+946VCQiIiIiIndCHX8iIiIiIiIiIiJtSMGfiIiIiIiIiIhIG1LwJyIiIhw8eJBjx44tetyFCxd4/fXX16EiERERERG5Uwr+REREhH379nH06NFFj7t06RJvvvnmOlQkIiIiIiJ3SsGfiIiIiIiIiIhIG1LwJyIiIiIiIiIi0oZCrS5AREREWusjH/kIDz300KLHPf/885w4cWIdKhIRERERkdWgjj8REZEtbseOHfT19S163PDwMGNjY+tQkYiIiIiIrAYFfyIiIm0mFApx+PBhksnkqhwnIiIiIiKbk4I/ERGRNhOPx/nsZz/Lrl27VuU43/eZmpqiVCqtZpkiIiIiIrLGtMefiIiILCiTyfDNb36TW7dutboUERERERFZBnX8iYiIyIKsteRyOTzPa3UpIiIiIiKyDOr4ExERaVPHjh2jVCpx4cKFeY8NDg7y2GOPEY1GW1CZiIiIiIisB3X8iYiItKmjR4+yb9++po/19fXxxBNPLBr8pdNpzpw5o/39REREREQ2IXX8iYiIyG0NDQ3x/e9/v9VliIiIiIjICqjjT0REREREREREpA2p409ERKSNPfzwwxhjeP755xvue+qpp1pYlYiIiIiIrAd1/ImIiLSxvr4+duzYseh9zVy4cIHXX399rUoTEREREZE1puBPREREmrp06RJvvvlmq8sQEREREZEVUvAnIiLSRsLhMN3d3TiO0/S+zs5OOjo6WlihiIiIiIisFwV/IiIibWT//v382q/9GolEouG+L33pSyQSCT71qU/xvve9r4UVioiIiIjIetFwDxERkTbiuu68jj7XdYnFYhhjiEajhMPhRZ/n+eef58SJE2tVpoiIiIiIrAN1/ImIiGwB0WiUD37wgwwODi7p+OHhYcbGxta4KhERERERWUvq+BMREdkCotEoTzzxRKvLEBERERGRdaTgT0RERGp832d6eppSqdTqUkRERERE5A4p+BMREZGaTCbDN7/5TS3zFRERERFpA9rjT0RERGqsteTzeTzPa3UpIiIiIiJyh9TxJyIiIguq7g8YjUabPr5v375Fn+PYsWPs3bu36WM3b97k+PHjd1RjO9D7LCIiIiKrTcGfiIiIAJBOpzlz5sy8/f0cx6Gnp4cjR46QTCZX9NxHjx697WNvv/22Ain0PouIiIjI6tNSXxEREQFgaGiI73//++RyuYb7c7kc3//+9xkaGmpRZVuD3mcRERERWW0K/kRERERERERERNqQlvqKiIi0iWPHjvGLv/iLrS5DREREREQ2CAV/IiIibaK3t5cdO3as6NwLFy7w+uuvr3JFG8tiwzOauXDhAhcuXFjDqkRW3yOPPMLAwMCSj9fgFxERkfal4E9ERETI5XKk0+lWl7GmotEojz/+OKlUasnnlMtlBX8rNDS5l5lC8yElQ5Pb1rmareX+++/nyJEjSz5eg19ERETal4I/ERER4ejRo4RCIS5dutTqUmQTK3lhMsVOAJ6/+iHemTzQ/MCCh+MUAbDWYq1drxJFREREthQFfyIiIiKyKq5O7OP/efMLALx07xTDh4ebHrftVge/cLIfgGw2S7lcXrcaRURERLYSBX8iIiKyJM8//zy5XI5jx461uhRZptdff52XXnppTV/jresPc8Ip8j8fmAZgKlmiGPabHjval+el944CcPhcksRImFKptKb1rQbf98nlcnie1+pSRERERJZEwZ+IiIgsyfDwMOPj460uQ1ZgfHyc4eHm3XerIRKJ8E7S5UpvltG+7KLHFyIeo305AMIHDHucOD03IhSLxTWrcbWoO1FEREQ2E6fVBYiIiMjGkEqlOHLkCOFwuNWlyCYTCoWY7C9zbdviod9c17ZlmewvEwrp59EiIiIiq03Bn4iIiACwc+dOPvOZz9DR0bFur7kVpgkvVzqdJpfLtbqMJXMch0LMp3SbZb1LUQr7FGI+jqNvTUVERERWk767EhERkZZ55ZVXeO6551pdxoby3HPP8corr7S6jCUxxpBIJDh97zQXd608wL24K83pe6dJJBIYY1axQhEREZGtTcGfiIiItEypVNoU+7qtp2KxuCkGXQC1kK4csniOXfHzeI6lHLINzykiIiIid07Bn4iISBt45JFHOHjwYKvLEBERERGRDUTBn4iISBu4//772bdv3x0/Tzgc5vDhw6RSqVWoSkREREREWknBn4iINOWVS+RnprB25Rv2y+bT0dHBZz/7WXbu3Nn0cQ3j2HzWcliItRZrLdGCQ6S08m8rIyWHaMGpPZ+IiIiIrA4FfyIi0tTE9asc/+GfUNxE00Vl7WkYx+azlsNCrLVkMhnuO5Vi/1Byxc+zfyjJfadSZDIZBX8iIiIiq0jBn4iINGV9n3KxAOgf4TJLwzg2n7UeFmKtxS0bHH/lQzkc3+CWjUI/ERERkVUWanUBIiKy8Yxdu8TwuZOtLkNENolSqUTfSJi9HZ1c3jGzrHP3DnfSNxLeNJOMRaS5crHAlVPH8YqFJZ/Tu2s/fTvvfH9aERG5PQV/IiIyz+SNq4xcPEs03tnqUkRkEyiVShzMT3FgOs//dHsAuNWdJx/1mh4fK7j0T8YA2HcxTvwmCv5ENjmvXOLqqeN4xTyRSIRoNNrwy/d9CoUChUKBYrHIzMwMTiik4E9EZI0p+BMRERGRO3Z425scHLxB+NRnAPjJwRDXupsv/x0Yi/HwW71AMDCmVC6vW50isrY6Ojro7e1lYGCA/v5++vv7GRgYoFQqcevWLW7evMnY2Bjvvvtuq0sVEdkSFPyJiIiIyKrY03OJX3vsPwKQOv13uXDm7qbH+cUyMzPBkmDt6yciIiKydsxrt/TdloiIzLrw2osMn3uL7PQEHZ0pHvvsr63bkt/h829x/dyb6/Jaa62QyzB2fYgbN25Qvk03U3d3N11dXavyetu3byeRSKzKcwFcv36dTCbT9LFEIsH27dtX5XXGx8cZHx9fledaTCgUYteuXYRCS/+553rWV6+3t5fe3t5Vea6F/ixXU29ikt7Oydrt0fR2ssXmH5PWWjyv+TJguXPL/XyQyWS4fv36Gla0NXmet+DXgJ17D7Bz7/51rmrt+J7H1M1hEvH4kjv+SjjEk9215zj43vfTtW1nC69CRKT9qONPRGSLyUyOMXz29oM7Ri6eJTs9gbWWcqnAu2/8FXvue4REd9+a15abnmDyxlWi0eiav9Z66OnpoaenZ11eK5PJrGq447ouqVTqto+Pjo6u2mst9DqrbSUh3nrWV1Uul1ftPV7sz3K1lEkxmtsze0cI4vpOsyVW8vmgFR/n7apUKjEeyXJlexZzbwowGEvlV/B7gKt2miH71xhrwIJh9hiYc3z1cd/UjgOonIo1wQG2+ov627Z2HPW3Td1zVJ6w/viB8RjbpzqX/DXZWov1/WW9V+Vchly5iLWWfD5PMZ9b1vkiIrI4fTsmIrLFZKcmuHTy54RCoYZNt13XZXh4mHK5XFt655WCjbr7dx1Yl+APIBwOr1tYJiIistqmp6fJRKc4v3cKYw2Ob3D82RDP8StBYOU+xwen7jHHD1I6p3ps9TgbBH/V/0MlpHPAd4Kwzq/ervy/ep/vNLltaDjXGovvzP7f9Q17skv/AZbneRSLxWW9V7FYjFQqtaJzRURkaRT8iYhsQcYYEolEwxKcWCzGD37wA0qlEtZajGm+Kf9ai0Qi9Pf3t+S1W61QKGj5o7QBH2OmqfQXYW0YaI8J4cb3CU9PQ+WHI344TLmzPa5NFhcOhwmHw4se53kelE0t6Kt18dV+T2OYVz3Or+vua/g1e79TfxwQtPBZjA844GDwfYtxqf4VxFA931bPwLEGHxu8VuVcMDi+xXNnX3s5X5PL5TJjY2NLf0Oh9r3ISs4VEZGlUfAnIiIbylYO/t54441VXUIr0grGzBAKfRuoDu+4i3L5c60tapWEZ2Y48O1vE6oMJknfdRdXPtce1yaLO3jwIHfdddeix6XTacx0fWg328Fn7GwHX3XJbn2YV7tdd25DAFg9DmrBHr7BOMFSW0MQ/gUZX33QB75vwMyGgrWQ0DG1ULC6LLl67nK+JhcKBRzHWdqbWRGPx+nv71/RuSIisjQK/kREZEOJRCIMDAy0uox18e677/LOO+/UbqfTaVzXbWFFC3v+qee5svMKAPFcnE//6NPEc/EWVyWtYu0VrH2+ySNlPO8mUO1ePY8xf9zkuDiO82lg430Mxa5cof/5+ddmymXcmzeh0pnbcf48e/94/rV58Tijn/40XnzjXdtGVf/5peojL36EPcN7bnPG+hsZGSGdTtduP/TQQ02/Xo2MjMBUfScfjZ19VEI/f26YN38vwOCYuu5AqJ0b/K4S7tlqFx9AtQMweNwBfGtwsPgEwaN1wGBxKh2DfnXDPyyOD74TbAK4nK/JuVxuRcHfwMDAis4VEZGlUfAnIiJMTU1x/vz5DbG/TjQa3RLB3+nTpxkeHm74R6QxZkMNNjm75yzndp+r3X7r0FuM9QRLsVIzKdy4S9TfOPXK+vG8s5TLPwXeXcLRWYxpdlwE+DHh8FM4zrbVLfAOxM6eJfnTn9L57uLXFspmmx7nRyLYH/+Y9FNPUd62ca5tIxvdMcq7Bxrfy5dLL3Nm4gwAsWKMp/76KWLFWCvKA4IlvPWfsy9fvkxnZyd79jSGk/FK4Ntsue7cpb612zSGfHPPdeaFgUF4WB2lEXQVVkK+6m3f1sI/KsGiU/k9tnIc1JYWU/dcjm8xdnlfkzOZzIqDv5WcKyIiS6PgT0REmJ6e5syZM/i+Xxvs0SrGmCXtobTZ3bhxg6mpqQ0V9AEU3SJndp2h5JY4cfcJTtx9oulxxgSdIButflk71hYplc5gbQlrT2DtW3f4jEWs/RmQAHbjOF2EwwdXodIVKJWIvP02plSi48QJ4m/d2bU5xSLdP/sZbiJBcfdu/K4uSgdbdG2bRLPQ561Ds38O8UKcrnIX8XwQqnVluzh4o7Xv6cjICDt37py3/Nd13dkJvf6c5bpzO/iqS379uR1+s+c2LhGePRcqy3UJQjp8A44NAj4bdPdVw7/gdn1Xoa07t3ocwRHWVo5c3tfkUCi07P2BXdclHA6v6FwREVkaBX8iInJbrRjyUSqVmJiYWNfXbJVIJNLqEgCY6piiECoAkO5I88yHnyHdkV7wnGrwFyltjGuQteP7GXw/g7VpCoVn8P2FPzaWq1j8MQDh8CGi0S8C4LrdGLP2H1smk8FkMjjpNKlnnsFJr+61JX8cXFvp0CHSXwyuzXZ3YzfI3/2NZLFur2w0y3ef/m7t9qFrh/jii19sOCZajtKV61qT+m6n2desfD5f6aKb27lXCd78uWGeqdvbzzC/668yGAQazsVSC/pM9Yd2vsFxLF51H8Dq8A87uzC4Gio2DwmDx6vb/C3na3I2m8X3/WVtWZHP55mYmKidKyIiq0/Bn4iINGWtxfM8QqH1/VKxlYK/jdIt971f/B4nd56s3c6H80s6LxKJEC1vjGuQtZNOv8D09HMAWLu0j42VKJUuMDn5dQD6+n6TaPTomr1WVeSFF4g8F1ybya/dtYUvXKDn68G15X/zNykfXftr22wcd3nLPC9sv8DXP/f1hvseuPYA//DFf7iaZS2q2desXC4HVPf2m79vnzM32KvfA5D6QR9zB4PQEPpVu/wcJ0jq/Gqy5xtM/fSP6utig4eroWDlXN8SHF/p/DOmsiT4Ntd3O/l8ftnBXy6XY2JionauiIisPgV/IiJb3PXr1xkfH2/6mLV23Zf+bpXgz1rbsuDvxb0v8uK+F2u3r/RcIRfJLes5akt9PQV/7Wxs7E/IZF7G2uV9fKyMV3udqan/hjFZUqn3r9mrOX/yJzgvv4zJrcO1eV7tdaL/7b8Rymax71+7a9uMHLO84M9zvHmft05vP83vf/T3a7fff+n9vP/y2r7PCwV/Ti3oqw/5TC2Iqz7WEOY12efPmXNuNQisdvNVgz5TW65bmeJb7fHzK8Fe5baxlWCw6bl1S32tWdbX5EKhsOzwrhr8reRcERFZGgV/IiJbXC6Xa9isvNW2SvAH69vxlw1leW7/c+RCOc70n+Fs/9k7er5a8KfhHm3N84Yol2+u++uWSleA8TX9O2KHhuDm+l+bc+UKzvg4ZoN0/G4Uy+34ayYdS3Nq+6na7XK4zHDPcO3201efZvfM7jt+nXq3W+pbDe6qnXmze/bVBXm1zr36rr45ewLOOXdu1x9O3Ws0LNedneJLdQ9AoBrsBVN/b3du9cjlfU0ulUrL/mFhdanvSs4VEZGlUfAnIrKFZbNZCoVCq8toUCgUGB0dbXUZa667u3vNg7+3ut9iLBpM4Z0Jz/DcoeeYCc+s2vNHIhGiVuFFO/L9AlNTb1AuT7ashmJxiGLxPMnk/av6vLZYxHv9dbzJSVoVMzhDQ7jnz+Pev7rXtpmtxUTXs/1nG37IEQqFuGsqGMQR9aM8PPbwHf/wYmZmhkwm03BfJpOBMA1LdJuFftXuvvrQz2kI/MyC5wKzAz3qg75asDd7X3A7+Ig3PhhnsXODupbzNdnzPDzPW9b7l8lkGB0dXdG5IiKyNAr+RES2sJs3b1IqlTDGbIiftIejHbjRONPZjRVGrkS5VCSbnmJmZqbp8qVjx46RTCZX9TXToTTp0Gz35n89/F850dt8Ku+d8h2f8eQ4Ntr6j5vl6i31EvNirS5jw/L9PJnMFa5d+0NKpdYFf1NTL2NthkTinxKNDmKWuRS0GZvP4125QvEP/xA72bpr819+GZPJEP2n/xRncBDuMPSa+3d/MyqGimv+Gt87+L3a77uL3fz2id+mp9hTu8/BYbAwiGOX/ueRy+UYHh5uuM8YAz314d3cff5mQ7/5QeDc4R6z52JNsGy4clzABkuHq9N7sfi+wbgWWx0mUu34s5XuP2an/DY/l9pAkLLnL/lrsrU+y/1WolAq41eeP9bZhbvECcIiIrJ0Cv5ERGTD2HXkIXbc0x4dMDcunuPHz/wnvvvd787rBgH47d/+bXbt2rWqr/mnu/+U7+z6Tu12zl27vcumIlP8m2P/BofV79JZa1878zUenXi01WVsWBMTJzh79mt43nrs67ewdPpNzp37Kg8++AdEIr13/HzFEyeY+drXsOuxr98ivDffJPfVr9L9B3+A03tn1zb37/5mtJafr5pp9jmst9jLH7z5B/QWl/7n4XkeMzONndTRaBTD3MEedber+/hR7fKrC/PmDAFpCAZr5wZDQKju8+dbjEMt6HMIQj8H8KmEf7WpHkEoSLXLr9r9V3mu6rnVmcA923fzwC99eknvRSGb4bXn/u8lv3cAu448zP6HHqvddkOaeC0istoU/ImIyIbhuCEctz2+NDmhML7vUygUyDeZFuo4zqos9Z0KTfF7e36PqdAU12PXmQmt3lLehVgs2VB2XV5rtf3R/j8i3ZHmk2OfbHUpG5LrGjxvY/zZWuvh+1kikdCq/H2xxmCzG+Pa8DzIZomEQrh3eG0fn/44zojDN3Z+Y5WKa3/NPocVnAK/deS3CPtB19nRzFH+4bWFpwS7rjuvY756u76Tz6nv4KMSxlUDwLowb+703vouQMeaSgcfs0t9g1eqPF7p4qtb2lsL/2phXrCU1zqzISHW4FdqtnXnGsA4DqHI0jqkvXJ5ScfVc1x3yc8vIiIr0x7/uhIRkWWx1pLL5fB9P1iSJOsuHA6vOMh4tvtZ3o2+C0DWyfKz3p+RdTZImLEJXEhcYDQxSnRG+xPONTr6U65f/0Gry2hQLme5ePGPOXDgl0km71rx82R++lOyP9hY1+Zns6T/+I/p+eVfJnLXyq9tv93P4eLhVaxsayo5JU6mTtZuj3SM4LuzCdvjM4/zeObxhnNc173t8y20bLdxeu9smDe7z1/jOU6Tcxtfi9kuvurt6h5+1B/fGBKa6r5+lWXADkHnINUJwiIisukp+BMR2YKstRQKBYV+LRQKLb2D6XzkPOfD52u3v9v/XU53nF6r0rYEN+Su61TlzSKdfouRkf/V6jIaeF6Wq1f/lN27nyYavXfFzzP91ltk/9fGujabzTLzp39Kz9NPE7135dcGwQ8TZHUNRYf49nu+Xbt9Y/oG2anZH7I8kn+EUKj5P6eaB3zM7+CrLvmt3u/PPbbJEuHqVF+gskY3uF3Zq89gcWzQ6YdvMM5ssAdBN6E/LyQEnEr4Z+u7BEVEZLNT8CciItIC4XCYSOT2exl5xuO6cx3PeHyv63t8q+tb61hd+wu5oQXf/63qdiHGRhAKLfx3ZjHuBr62xT4fLOk5Qgr+1tqPUj/iR6kf1W7/7s3fZSA8cNvjmw73gMalv3ODwXlTfU1t8u/s8uDZY/1KWFdbyutbHMfgWTB1oaCxlupS3/qBHo0hIcF9lXP1o0ERkfawcb8DEhERaWOLLfW96d7k1/t+nVF3lILZ/FOONxp1/DW30LLFVruT5fEAoTa+tupzyPr63b7f5bHUY/wCvzD/QQvGN3XDOWbDPKc+zLMG488PBhun+Rm9olkAACAASURBVM7ZI7D+uXyL71SCPUOwPNe3BA39sx18VMM9DNYGk32rIWEw88MGDYE+GAMOptogKCIim5yCPxGRLcpxgkmGczcll/XRbKnv1zu+zquhVwEomiJXQlcommIrymt7rqvgr5mNHfzd2YCPjXxty1n6f9vnCOvb+vXSa3v5/czv02t7GSoOMcTQvGNmB3WYxsm8PkGgZpuHgo2h35wlwXO6A2E2/MOA7xOM8sVUuvgqXX6+xZjZpb2ODbbwqw8JjW8q584uC1bHn4hIe9B3CCIiW5QxRqFfC4XDYV7ueJkfuz+u3fdc5DkuOhdbWNXWEXJXZ0psOzl16j9z7dqLrS7jts6de4ZotJO9e59e9rlD//k/M/nixr220WeeIdLZSf/Ty7+2Ki31XVt/3/v7HPaDASoJm+Bv8DdIkOBFXmwa/AVDNEylq6/ZhN75S3yduSHgbfYGrP/lO8y+TrWtz6k8H6YW/lWX+jpY/NpSX4Jlv03OBQ33EBFpFwr+REREWiAcDpOP5TnhnuAn/KTV5Ww5oVCIqFHwV+/SpR9y48bPW13Gbb377nNs3/4w99zziWWfO/7DHzL18417bTefe46ehx9m5yeWf21VYUfB32rbwQ6e4ikA/pH9RzxsH559sLIl44L7YtrZrr+mE3v9+tDPYGwZGy5TCvmVcA7CpRjhYoiQN6cL0A9CuWCpb11Y53jYcJl8pIjvgHUs1hh8E8LNh4LX8S3GqQ4DmRMS1oWCiv1ERNqDgj8RkS2kVMhRyM5omu8GEAqF+LTzafptP1/myw2PZchww9xoUWVbg+M4CkrmcJyN/3nBcZwV7WW3GT7nrfTaqkL6tv6OhQix0+6svZdP8zR/xB8FD7qVX3NUt82Yq/mgDmbDwIZ9/XzK0Twld5pCKkMhWSBXeSyeGSAx3Uk8HaUjF8WthH6zE3cr3XxOgWKsSDGRp5hMczOZoez4lca9EPhxOm4m6CjFiJYjuJ4b7PNnbbD82KmEf77FuFSWI6/q2ysiIi2i7xBERLaQobdPcPHEX+G6rpb5tlipVKJQKPAoj/IyLzc89iP3R/xK+FdaVNnW4HkehbKGptTzfb/VJSzK8zwKheX/ubXztVWV3BIoy74j/baf/17877zHvgcIgsACC/+ZeJ5328dmu/saB3LUQj/AsWX80ARXj77CuR3XmerIY42tZW7GOpjcNgaH7uO9bzzIjonZc6nsxef4hmzfWc4fPcW5/SNMGtvwHNXePeMbUmP3sf/8EXYPbSMK4BuMQ2XgRxD+Bd8eaI8/EZF2oeBPRGQL8b0yXqm0pE3ujTG4rrspOmU2o2rwBxAj1vDYk+ZJns0/W7v9TPQZnok8s671tbuyV76jkKUdvfe9/5pQKMXZsxvzY+3RR7/KXXd9fkV/bvv+9b/GSaW48czGvLYDX/0qA59f2bVVlcIK/lbiq7mv8gvlYCpvhAg77A4iNlJ7/E6CP9NkKIdTndwLGH+Gme7LXL73r7kyOMV0RyHo0pvLvcHoviI/T0xx/189xt7xGJ21uU9B+EdimkximvFIgfIC9U71n+NsKMtE4hD3nL2LJLNLjYNXrnYAaqqviEi7UPAnIrJFDJ87ycTw5dsuS2pGod/aKZfLFIvNJ/YmSfIET9Ruu2WXg4WDtdt/0vEnnA+dX/Mab+fu8t38vdzfa9nrr4ZHy49SLGticr2urkN0du5udRm31d19mI6OHbf9e7OQ6KFDRHZv3GuLHT6Mu2Nl11a1v7yff+v921Wsan2kTZpvJr5J2qTX7TXrP4f9zeLfZL+/v+HxIkv/cyiXm8dszZb6Nu7vB8XuYcb2vcmlnTeYDlcm7ZaTdKS7GZhwKQ4OMdFRpuAWKcZvMbrd59T+g/TmBkkWIvWvhnHL+I4HXoyufD+p6W5iuRKF6DRTXVNMdWaDesMzpHuvYstREhO7uGcsgmuDJb8OwXwPU532q+BPRKQtKPgTEdkiRi6eZWp0GMdxFl3ma4whEomQSCSYmZlZpwq3lvqOv8U8VHiIh3iodtsre5wMn2w45rWO1xhxR1a1xtvZW97Ll6e+vPiBG9xinTxb0e1CjI2gVLqzLk1vA19buXznHag72MGXc5vv7+WUM8Ute4sX4i+s2eewmI3xZO5JYn7QXf1A6QG+nJl9r+7kc8HCHX/VvfzMnCEfYNwMM4PXuLF7mMlqhlfupmt0L7uu7Gb3zRD5iRiX919hpCtL1i3jhaYYvutdxoYT9E1HiNW9tJPtont4LwemonTn3kPvRB+xbJF8bIKxbcOM7LjCtd40nuODmyGfHOP6thnuHu/B+CZIHR2LweBYi1/rSxSRuSZuXCUcjdHZM9DqUkSWRMGfiIjMY4whkUiwc+dOLly40Opy2tJygr+5fr3w6/Pu+2r/V/lpx08B8IzHjdANPHP7f5DeCd/ztUy2TS0UYrTanfydASi38bVtZjFi/E7ud7j+nuuMJFYv+BsoD9DhdwDQ5/Xx9dGv0+f11R5freB/obB87t5+VJf5+gYS15joGWMkNXt8aOYg+8/fzwNnBumw4FzdQdL9C+zdl7iU8MEpwcA5hvv20n+zm13TDr4T/CDPubmH/aMHuTvfRdSx+I7FGrBmL7tv7CQzafh/H32bmaiPBcqux0xHFkvPbGefb3Aci1etUx1/Ik1d+uufkep/D52PKPiTzUHBn4iISAus9j/0//n1f45HEGzcDN3kH+z7B9wK3Vq156/nWwV/7WojB3/l8p39ndnI17aVg78q367uAJZ/eeNf8tTMUwAYDHEbp2BX/z2+3cfV7N5+phb6Oba6nx7ke28y3TlFfU/94NAuBm8O0OFXOwST9N3qJ7XtJiTSBAtxbzI6OMnU9W3snurA8Q2+Y4lnBohVB3r4Jpj7Udmkz5TCuOkkPdahCHWRp6nV41e2CsQ3mLpzRURk81PwJyLS5kqFHG//5H8wMzaiab4byGr/Q9+p/AcwYAb4vXd+j5IpAXCy8yTf2PGNVXstdfy1r23bPka57HP+/Op9vNypcLiL++77VyQSR+7o4y72sY/R7ftMfmPjXJvT1UXfv/pXOEfu7Nrage/defB3NHOU37z2mwAcKhwiXJ6ddrKcffuW4/aBcuM032roZ3wD1lCITVGKZirxWgjYRd/NJKmpxr0A46ODdO+8TnJ7mmAXRMtUIksmWgTiGBtM9Q1a9AzWAZ/q/nyVqb91z1cVLodIzSRwfaeyBNlS+RISBIEYdfyJABdefZF4Vw877jla+556amSYVP97Wl2ayJIp+BMRaXO+5zFx4yp+qbCkYR3GGPr7+xkcHFyH6rauhYZ7rIb7C/fXft+f7ccUZ//sX+1+lVe7X13xc/u+v6a1S+uEQoPE43e1uowGjhMmmbwfiN/Zx93gIO5dG+vaTDiMe//9ePE43hb/O+X7yw/+El6Czw9/noSXAGBXYRcPTz5ce3ytwr56Cy/1nfPLNxhrMbZAIZanGKmcax0o9NOZjRIvNgaG7lQXiWycTqA6/qSUyFKIFij5EHYqS3Iry3PxwXHA2koLXzhPvmeEkf2XmA6VKxN/o0SLKQbGOnG9ymsRDPTAqQwiwWqHPxEgPT7C+PXLgKVv1wEmblylmM+2uiyRZVHwJyIiDYwx9PT0MDg4yM2bN1tdTttaz6V9g4VB/t707BTewcwgiUKi4ZhLiUtc6ry0pOfzfXX8tTNjUvT0PM7U1HF8v7VhVCTSR3f345TLBlZhT7ZyKkXo8ccpHz8OLQ7aTF8f7uOPUzQGR3+flhz83T95P/2FfgCS5SR/5+rfIVlO1h5f76E9Cy71bZjiW11WazF2hnxHmWJ1qIc1UIgR9lxCcyYBm0KESClE/QxfIkW8UJmyhWhlqa+xBqJpcskpRrtKWGPxwwVKHdNMDwwxvH+IdAg8IkQzO+kd3c+uWzFCnsUYcKgM9LAW4wNO0JkostX1vGc3w+fe4spbx/E9D9/buIOiRG5HwZ+ISBvzyiVy6alWlyFNtHJPryeGn+CJ4Sca7nt297P82e4/q92eiE2Qd/NNz1fw194ikX3s2/dPOHfua+RyF/H95h8Ha811k3R1PcrevV/B88DzVuFjbt8+Yv/kn5D92tfwL16EfGuujWQS99FHiX7lK5QA9PdpweAv5sXoyfcA8CsXfoWHJh5qeLyVE7qXNtxjtoMv2OsvRyHqUQrPPf7258yL4KrHEIR+jm/xO28wfs+b/OTeieCA+CSZcIGgN8nglqPEitsYuHyU/ecPsWPGYh2Dbyw4QZef7xuMa7HV1xbZ4vY9+BheucQ7x1/i9E/+otXliKyIgj8RkTY2cf0qJ3/8LK4Bx3G0v98GUi6XN1R49uF3P8wHLn2gdvvfH/v3HB883vRYBX9bQYwDB36HS5f+Hel084+DtdbX9zG2bfvC6n+sxWKEfud3KP+7f4d/vDXX5n7sYzhfWINr28QWCv7uG7uPf/H6vwAg6kcp+BvnfVtoaEx1bz9nXvdf81BtbujnVAaD3LbvrrJE1/EtfmXJb8ktcis1WnnC2ffU8cL0XH+Yu84fYdeNXrpylUnDvsU4BEEfQfhnZ7f7ExGRNqDgT0SkjVnfxysVcSORxQ8mCAePHTvGwMAAuVxujavb2jbiFE8Xt/b7X/7rX+aTkU8CkI6k+U+P/CfSkWCHKQV/W4VT2SesNXzfoRS0w63+kzvOkvY8XSue4wR7renvUU198JcsJvmN479Bshgs4U0VU7iZ4PNTufLfRrFQ8GdNMIfXGMCAqYzysA5NWviC44NfFjD4WJzqpN568WCPv5yBhLF15wXnWjM/RLVOmemBtzmTuMKN8bvYcfUe9r3bQ7S6ordyrh8MINZMX5EmwtEO7n3q41x+85VWlyKyLAr+RESkQU9PD52dnQr+1lipVNrQAzJ23NrBDnYAkA/l+Zz7OfKhYFnktpltG7p2WT3x+JOUy3ny+bfW9XUTifcTDh9Z048z8+STuPk87lvre23l978f78iRlu8xuNE8ef5JDl4/CECsHOPo0FFi5Vjt8fUY1LESCy31pRqiGQvG4BPspWfNbYI1YyvBnWl4DuYeXw7h+m4QCtaHftl+uq4e5b3uYO2+UnyKdNcIN7vGyUYnKcYmySbyzERLpO39PHAtRcg3s6Ff9TkdbfEnMpfjunS/ZxfGGCLxxOIniGwQCv5ERNrUzMRNJkeGcF138YOBUCjE/v376ezsXOPKBODMmTP09PSwffv2VpeyKFMwfOD0Bxrua+WeWrJ+wuGH6OgoYm0Ma0uUSqextrQmr+U43YTDQfATj38Ix9m3tp2lDz1EqFjEjcUwpRLh06cxpbW5Nr+7m9LB4NpKH/oQ/r596vab46F3H5p330b/PJPP52/7QzJrwDcWBxMEaI4FP+j582+zeV59iBdEfabWgdegGMH1QoQbuvwsNt9N6lonD0/sxXeDIK+YHGOy7zJXBy5y9e4R0mGPUnSMsW3nyJgkuyeO0J0L4VB5Hqeu61Cb/Ik0Nbj/UKtLEFkWBX8iIm1q5N0zXHnzFSKRCNbaRff3i8VifPzjH6dUKmma7zr48z//c6y1fPzjH6/d57puS5cfijTjug+STD6I76eZnv4Gvj+NtVmsza7K8xuTwpgI4fBhkskvAsF+Y+uxnLzw4IPw4IM46TTJb3wDZ3oaJ5vFya7OtXmpFDYSoXT4MDNf/GLdC2/sQEua832/YUnyrVu3FuyODzr7LL4xwZ55jsX3wTVBulZZ0Rv8cn18Y/ErHXfBnRbreviOpX7xruu5uL5TW55bHxg6XoiOmQSeG9wfy8RJjvQz0DlAZMcLnEtlmHYsRGbw+s9zresgkXKIRHm2E9E6tnngKCIim5KCPxERkRaZnp7m2rVrtds9PT1Eo9EWViSykAix2JcBKBafp1h8YVWeNRb7DK57L8Y4Lds70kQiFL4cXFvy+edJvrA61zb1mc+Qv/derONgFfZtejMzM8zMzNRuL/wDtaALz8fgmCDMxgAOWNtJLO8SKQJRgiEciWly4RIFAx11HX82kSUfK5Cpe+au0X56plJ0VEI/32ns1Gvc7w98J4br72TfO9u4dvc1plN5oIB1bjHT6VOatlhvNjysLvkVEZH2oOBPRKQNXXj1L7l56SzhcLjVpcgCrLUN3SPT09M4zuadpRiPx/nbf/tvk0g03/fm+PHjvP766+tc1azF6mum1TXXO3bsGI888kjTxzKZDM8++yzZVepUW4zvH8KYItHoiyt+Dms7yOc/SqHQhzGZxU9YJ+OHDtFdLLLrxZVfW7mjg0sf/Si5vj78zPpf20c/+lH27t275OMvX77Mj370ozWsqD2Uy+UFpw/Xq1+yG+yZV5n0gYNvEsTyodngjzKYi4z33Ut6fICuqWpKaMkNjDLRNUm67rnjmTjRfBSqoV9lWXEtuHPsvE5A30A+NoHn1u+VOP84WxtBrD3+RCD4nnr4/FtL/rsvshEp+BMRaUPp8VHyM9OEw+FFl/gCdHV1cd999xEOhymt0R5XsrjN/t5HIhG2b99OKpVq+viZM2daOg04Go0uWF8zra65XiKRYNeuXU0fm56exvO8day1E8c5AnWToO/edpG7t12iUIZXL0OhMvOgvxMe3Nl49uh0H69efATPO0C5HGZNJveuVGcn3pEj2Cb7o7qFAtuOH8etvM+5vj5uPfDAvOO8cJipAwfwwuGWLOvt7e297cdKM+l0esN8nLeTanBWXfJLJfyzxiUx3UcsexOSMwTdfRlubh9hbLyXgXSKqO8DU4zuHGG8L03w1cEFBugZT9A541Q6/TzoGOF6r4vJd9I13UFozpRfQnnKiWGuDeTIRavhRQzjD5KadgiVZ0O/xq6/9X/PRDaa9Pgo2elJrLUUCzneff0l9tz3XhI9/a0uTWTJFPyJiAjJZJJDhw4RCunLgogsje93Uyy+r3Z7e7LIY/svkS9BtgT5So69PQWP7W889+3hHv7q3MPrWO3yFLq7uf6+9827P5TPE8rlcPPBhOvstm1NjxOBSvdcdWIuBodguq91IDqxk9TULTr7ZpipfOmd6b/Itd0OsfJ76C4byu4V3t0xylhn0KVn/BDRqbsZHE+SzFeCOcfH7xjl2oFpsjZGaixFrBylwwtjgHIoT7FjjJneIa70lMhVv8x7cZzsHvrSLhFvNvTz6wND7fIn0qBUKHD19Bv07z6o4E82Ff0LT0SkjVjrk5+Zxi+XNSRCRFoiFoZP3NvqKtZGORbj0kc/2uoyZBOoLfU1FmuCZbs+BsexWM9Aejt9YzfYPXCdcz0FPIDoFa4eGGdsWw/bcjFmEheZ6ixTBPBDuLkutp89yOBMorIP4OxE39x7znB+1y1mylHcmV52ZVK41qEQvUU6cZPpeH1xYdxsF53D20n5Lq6ZHexBdcCIo44/2dqq31N7m3w1hggo+BMRaSulfI7X//y7+MXckpf5ioiIyOqzJljeawnmd9hK+Bf8XK6DrpF97IjOMNJzikkqWwBGM+QiWS53G6zxZsO3fD/Rq0/x1Kk+UpnQ7AReA9Yh2BIQIFTA6xrhamo0uG38+X17xR30jt7PI6e3EfadoNuPuqW+joZ7iFS/p85Ojbe6FJE7puBPRKSNWGspFwsY34cm+1M1O3779u3cdddd61CdtLtsNst3vvMdPvnJT7Jnz55Wl7NlXLlyhR/84AfrNthDRJamfriHbwzB6Kagmw7fYAoD9Fx7gGN+JxcOvsGNZJG8OztwI5Cie+wAuy/ew8Fz20kU3GDsRyWYs9ZgZzrpSfeSLGaZiWTB+PjzuvUcoIu+S4fZeX0P28d76fQdjLHB8t76ISHYWqgoslVVv6eeO9SjXC5z7pX/j1Ihx457jraoOpHlUfAnIrLFxWIxkslkq8uQNuB5HpcvXybTZIrpa6+9xvnz51tQVfs4f/483d3dvPe97224P5PJcPny5RZVJSLN2LrhGNUlv8E+f9W9+Sz4EULZAfqvRjH5BNtiWQrhAsWopRyOEs3HiObiJKcG6L3Vx8BUBGMNvmNxKsmeNQ62PMC28w/i3NrPnmgWGy1QMAUKMYvxQ7jFCJRihOmgc+w9dE+niJfcuom+8ycDN3QRimwxmYlbXDl1nHKpOO8xay3psRFy6ckWVCayMgr+RETaRCGT5uaVCzgGjOMsery1lng8TiwWW4fqZKs7deqUwqk7dPnyZeLx+LzgT0Q2Jlu3D18w0ddiMfgm6L8Lwr8QTq6Xwct9bLMFPDdHKWYphTuIZTuIZ4Kpu8ZvDBN9x2IsWGOwJkVqKEnnsMWGPfyOHDknR67Dx9gwbj6GLUaJOAQBpDMn5KsP/Zy6icAtet9EWi07PcnV06+3ugyRVaPgT0SkTUzfGuHtl/4HiUQCjLPo/n6+79Pf308qlVqnCkVE2osxBqfygxZjDL7vz1sWJluVrSzHNbUlvzgG37e4JliiS93wj2BxbRS3HCU8bTAWHGtqgR8OQXBowFjT0E1YHfBhDVjPhUwnUTdBODcb7vlOcIxf1+E391xMsA9hbY8/7fMnMo8xhlgiSTja0epSRJZMwZ+IiIiIyApEIhG6u7spFovE43EymQyTk1r+JUG3XNDZZ4P9/SxBkOYYrKXS7ReEf9YEgz0MFteYWmDoY3HqQ0IHrKW21Lca3PnOnE696mTeapjnWKxTDf3qhoJUp/dWlvX6c5b+KvYTmc91XQ4/8REG993T6lJElkzBn4hIGxg+9yZDp44Tj8cxxmiar4jICvX29tLV1cXU1BRnzpzhnXfeYWJiglKphLUWay2+7+M4Do7j4Ps+yWSScDhMLpfDcRz279/PsWPHKBQKFIvz94iSLaAawGGC8M6hMrbXVgJBUwv/qkEfBOGbYwxB7FYJ9xxbObcuFKws9fUd6jr5ZsO8ajdh9f7q/zGzHX21/zdd6mu1x59sScPn3uTyyVdu+/20MQY3FMZZwhA9kY1CwZ+ISBvIpSeZmbhJPB5fUuinpWgistVFIhGy2SzXr1/n2rVrdHZ2Eo1GSSaTdHR0kMvluH79Oul0mkKhgOd5teDPWovjOBSLRSYnJ9m5cyeO41AulwmHw4yNjXHmzBmKxSJTU1O1MLCzsxNjlKZsFbUlvgYslY39/GqHnw3Cv8pS38agj1pIaJuc23BsJaBr6OCrhXk0dPBRu6/xONsQ+tWd25J3TaS1culJ0uOj+lwtbUXBn4jIJjdx/Soz47eWfHy1W0VEZKvJZDJcv34dYwzhcJh8Ps/IyAhXr16tBX7unC6OcDhMd3c3QMMPVqy1FAoFQqFQw16pjuOQz+c5d+4cnucxNTVFKBQiFovR0dHBtm3biMVi+jzc5uoDvOqSX6gs7a3eT9DdZ2v5gsU6ButXh4E0CQkr99diuSZhXsM+fk596FcfCDYO92gaBCr3EGkQCkcY2HMX0URnq0sRWRYFfyIim9ylkz/j1pV3CIfDrS5FBIDp6Wmy2SzxeLzVpbS9bDbL9PR0q8vY8DKZDNZabty4wV/+5V9ijKFYLJJIJOju7qavr69hUMdCXNelVCpRLBax1tLd3U0+n29Y/ltlrSUWi+E4DpcvX6ZYLPLII4/Q1dWF7/vBMCZpW0E3nqnbL6+yx59ng2WE1HXjVdbV2uqegMyeC5XwzzFYr3YoBhrDOxOMCKmFgU6zoM/OCf1sw7m27lwN95CtppCdoVTIN+32M8YQ7Yhz71MfJxpX8Cebi4I/EZE2EIlEiEajrS5DBIDnnnuOXC7HBz/4wVaX0vZeeeUVfvzjH7e6jA3vpZdeolAo0NfXx549e/A8D9/3a8t9z5w5wz333EModPtvja21eJ6H53nMzMwwMzNDNpulUCjUHotGo8RisYZzjDHBnlCuy+HDhzl//jwjIyMkk0k+9rGPrcflS4sE03grgZpfDRKCpb3VLj7rVEJBv7J8t9IY6ANO5VzjByGhj8U0hIRzJvNS17nnzA7omBv+1S8N9utDvznnimw1Z3/6AjcvX9B+2dJ2FPyJiGxSpXyO0y/9BZMj13BgSd+k+L6POz5O8tIlpo4cWZ9CZcsplUqUy+VWl7EllMtlSqVSq8vYsIrFIsePH6dUKuE4DplMBsdxakttjTHE43H27NnD8PAw/f39JBKJWrdHdd++dDrN1NQU+Xy+tpdqNBplYGCgtmTXWks4HCYcDgefa123IfiDoPPw1q1bTE5OMjExwQ9+8AN+6Zd+qSEslPZQ7ear7sXnG0vQC2oal/pWB3Y4BvxgKa/xLRYTTPpteu7sMJCG7r36pb7VGhzmdPnNhn0Ngz/mnWu1x59sOV65hO+V53X8GWPo3raLQ48/TTja0aLqRFZOwZ+IyCY0M3GLoRM/w/vRDzCDAzAwsKTzrLWYYpHo2Bip8+dJVzayH1ji+SIim0UoFMJxHC5dukQ2myUUCtV+DQwM4DgO1lpc1yWVSmGtZXp6GmstiUSi4fexWKwW9lW7q6PRKJFIpBbuua5bW+Zbfd7qnqq+72OtpVwuE4lE6O7uxvd9stksJ0+eZM+ePSQSCUKhEB0d+kdlW6jtkVftsguCPAfqgr5KwFYd7lHZ3y9Y6lsXHjY9t7J4eM5S38b9/W6/l9/slN+Fzm3FGyeyMUU6OujetqvVZYisiII/EZFNKDc9ydCp4/SmpwlvG8TO2Yy+GWstbiZDeGoK4/skhoYYGxggu2/fOlQsW1WpVOL8+fPah26VTE9Pc/r0ae6++27t67mITCbD8PAw6XSadDpNKpXCcRzGxsZIpVJEo9GGzr7BwUHefvttjDG18M3zvFpXYCKRoFwu1wLDapCXz+fxPK/h/vrgr1wuNzxefU1jDJ7ncerUKaanp0mlUoRCIZLJJAcOHJg3ZEQ2n2pwVl3yi2+aBH31AVsl9DP13YCN59b2/3OC1rz6pb6NQz5uP+ijFurVBn7MPXd2SbDIVuCXy9waukgx1BFfHwAAIABJREFUm9E0X2lLCv5ERDaZUiFHcXoSt1Ri7KGHiHd2El5gX6qqcrlMx8gI8aGhYO2QvrGRdZDP53n22WcV/K2Sa9eu8Wd/9md85StfUfC3iOHhYX74wx+STCbxfZ9du3bR3d3NyZMnyWQyuK5bew+ttZRKJYwxtaXq1YEfvu/X9gSsD/48zyOTyTA+Pk42m6Wvr4+Ojo6Gpb2e52GtrZ0zNDTUsAzeGEMkEmFsbKx2XjQa5fOf/zx9fX0L7jkoG19D8AfgWHzfUM39MEEIWF0SDNX7AOqDvtlzXUNlH8DqMuImgzoIQr75Qz3m7vPXeC61c6kbSCLS/krFPG+/9BeUC7mmW+dEYh1E48kWVSdy5/TdhIjIJjP09glu/PBP2f7aa1z74Aehc5mTxYwJ/qGxNuWJiGwIXV1dPPLII2zbto2rV6+yY8cOtm/fTjgc5rXXXqvtxwfB/qfj4+O1/f9KpRIjIyO14/P5PJOTk9y6dasWDFaX71bP/63f+i0+9rGPEYlEcF2XUCj0/7N3ZzGSZfed37/n3C32yMzKpfauYndXL2x2NzmSyCEpjkaiZyRBHgoceBYbGNkw4JcZ2AYM2IYf/WYbfhEE2H4Zw8DIMuUZAT0LaEnkjLhoKLZIsbvZZHVVde2VVbln7HHj3nvO8UPkvRm51NbdVZlV9f8Aicy8cW/EjaiqqIhf/M//T7fbZTAY0O/3uXLlCv/kn/wT1tfXd5yn53nF0BCtNWma8kd/9Ef85m/+Js8999xjf9zEJ2NcRTeu2rPKoZ0aZ3vajYO7fKmvmqjiYxwK5kuELePqv3zgx+5jmazk0zuX9NrJME/vWvZLXum3fSxq7/RfIcT4A5qTr3yWT33uSwd9KkJ8ZBL8CSHEE8aaDJOmKGMe/uCt0A/AaS1Vf0KIp9IHH3zA6uoqL774In/+53/OSy+9xNGjRymVSpw9e5Yf/ehHOyo6PM8r+veVSqWiQu/ChQvFfsYYhsNh0bMPxkuEtdZYa/nd3/1d/uAP/gDf94tlvHmVoDGGOI7pdDqEYQhQBIej0aio9rPWFsNazEd5jheHisuX7Co1DtcsgMIqiuW61m7neLpY6psnfXk4t7UD7DgWt718106EfuMgb3eY53ZcvuP75H5awj/xbGktL3Lxh/8WmyV3HZSnPQ/Plyp78eSS4E8IIZ4gixfeY/Djv6C0vk7r1VeJ6vX79oEqGsqvrBC02+OwT2twjsriIv2LF1mcmpIBH0KIp0a/32c4HNJsNmm1Wmit8X2/COO01sVy3DycK5fLRSjX6/VYX1+n3W4D21PT80nAk28MtdbUarUdwzvCMCyWDucB39TUFEePHi2Oz/v9WWuJ45iNjQ2Wl5fZ2Nggy7L7TmkXh1y+nJaJ71vTfJ3aqubDbbXe2KrCA7RyO4K+cYWe21khWBy7e7jHXcK8++zndoR+21/S4088C9J4SHt5UfqqiqeaBH9CCPEEGDcdvsLav/sm6i++T2gtK6+/TqNaLd443osxhvLGBn6/j9uqLHFKUVpZoVursXr27GO6J+JZsbS0xNWrV5mdnT3oU3lqXb16laWlpYM+jUMnCALm5+eLibt5sJck42qOJEk4evQo1lpGoxFaa0ajEfV6nSAI6PV6bGxsFEt/YWevvkajwfT0NKVSqVjSW6lUOHv2bNHnr1QqFRV7+XfP84pKwDz0y8PHfr/P8vIyFy9epN1uS/D3FHCA1Q5t9+nhtzWVd7yU121V8ant/nqW7YEeu0JCpymOVeQB384KPrsnzNvdB3Cf3/XucNBJSxAhgOljp6jNzB/0aQjxsUjwJ4QQT4Bx0+E/5sj3/h3Rxgb9554r3pA+KAfjZb5boZ+SAR/iEXr//fcxxvD1r3/9oE/lqfXd736X8+fPH/RpHDppmnLs2DFmZ2fp9/uMRiOMMSRJAkAYhnz2s5/l7bffptPp0Gw2i559eS+/zc1NYBwilsvlYulvEAQ899xzvPbaa8zNzRXDN/IKvvzn0WhUnE9+WR74TW7PeZ7HwsICcRxz6dIlBoOBTJZ8CmxP1t3u4YcGZ8b//eYTfvOqPpWHf3lQqLYnAFsUWjuc2eoVyO7hHtv9+9jqL7hf6Gd3B4OTYR/bQaDNJ/9K+ieeYmk8ZDToAtx1me+Z17/A3HMvPO5TE+ITJcGfEEI8SZSi8/zz9N58k0ajAfDgVSFa76j2c8jreSHE0+df/st/Sblc5nOf+1wxaGM4HDIcDvE8D8/zeP755/nxj39MHMcEQUCtVsMYQ7vdptVqkSQJWmump6f5tV/7NRYWFkiSBOccnucVS4LzMDE3OfBj0mQouHtb/rPWmnq9zpkzZ7h165YsO3vS5UGbHk/ldRYmw7pxFd9WlR6Mp/0yHgKSD/dAj/+vVnYcDNqt4R85xz7BXdG/b7tqz06EfsXAD5VXB7o9x1ot/f3Es+HWB+9w7Z0fEASBVFmLp5oEf0IIcci1lhe5/J1vMvutPyFaXyeemcFtNY+/34sUay3pcEj5xg28wWCrl9DWuwatx19SVSKEeIq8+uqrGGNYX1/n9u3bvPzyy0xNTRVDOYwxKKU4d+4cS0tLaK2pVqsYY1hcXKTf7wPjysAvf/nLzMzMoJQqJgArpciybN/b/jjBH0ClUuGVV15hdXVVKv6ecOPqufFP42BOFZfsWOqb75cv7dUOZyf2VWxVDObHMk7y8j0mK/f0RJg37gxYLOG1+4R9O77r7esqPhZUTj4hFE81azJMlkrwJ556D7dOTAghxGOXxkPad24QLS+jR6OHCuqcc9gsw+v3UcZsLSlSRfWfU4poY4PkZz/j3XffLaZJCiHEkyjLMhqNBtVqlV6vx5UrV6jVanieR5ZlpGlKkiQMBgNOnjxJrVaj3W5jjGFtbY1+v1/019NaMzMzUxybh4b5V5Zle74mL99vv8nf9/vZOUepVCqWJ8sb0Sfbnp55O4Zr7LftLoM4imq9/fbbudTXTl5nvlx3sq9fEQS6YoDHfudYLPUV4hnlBSGf+tyXqE5Lr2Lx5JOKPyGEOGTyQR7WjCtKBjeuUrt5E2Utw/l5zMxMUXlyz+uxFjca4Xc64NzOZb555Z9ShK0Wo8uXuXD8OF/84hcf9d0TQohHIssyLl++jO/7+L5PkiRF9d5kiKaUIo5jGo0GWmva7TbVapX19fViOW8+eCMP5GBvH79Jk5dN2q8C8F5Vf9ZahsMhcRxz8+ZNGo2GDMh5QpVGHieWKyinUI6tr/FADmW3tjFexrvjMrd1OYxX+26twy32mfgZxgeMB4lsL891ehzs5dOCi+Ed7A342BEC7gwUG70Qyo/9oRPisdi8c5N+a/2uPbM9P+DUq58jqtQe85kJ8cmT4E8IIQ6ZfJCHWVtBZxmV5WUW/vIvsZ5H6+WXcc8/T6Vcvm8liDEG2+1Svn0b2B7ukYd/kyGgkyVl4hFIkoT19fX7Tp0W4pOQJAk/+MEPeOmll5ifn8dai+/7xWCOfInvZO88z/MIgmDH9jz001qTpim+7z/QUt27hX/7bc9/3/1vwxhDHMcAvPPOO5TLZQn+nkDOORptn8++M02n09nn78X49+b0DI3pI4//BB9CdKR+0KcgxCNx7b2/YHPx2o7neCGeVhL8CSHEIXX0hz+kuriI03p7Iu9HMdnTz7kdff4mJ/0K8Um7evUq//Sf/lNZQi4eC6UU9XqdKIqArQ8/rCVN02Kbcw7f9zHG0Ol0OHHiBJVKhTt37nDmzBk+/PBDWq0WzrlieW++BDc/Pvcogj+lFFEUEQQB8WiElTejT6QkSUjTlH6/zze+8Y2i8nS33/kv/zv+1n/+nz3ms3s4WklnKCGEeNJJ8CeEEIeUMgZlDDiH9byP3F87DwzVruo+pzVqKwyUij/xKFhr90w9FR/fYDDg93//91ldXT3oUzlwjUaDixcvcuHCBcrlMsePH8f3fbIs2zEAKV+uG8cxnU6HZrNJpVIhCIIiCNw9MCmvAszDv9xkCDi5fx7i5UM58t/vNexjv2rY4XA47keYJCggCAIJz59A+d+PJEkYjUb77mOdww/Cx3xmQjzb0njIz7/3TfrrK/tOT3fO0Zg/zrnP/ypBJGvdxdNBgj8hhDhk/CDkU5/7Mq2lZfpv/4Dy8jI2DNl8+WX0/DxeeP83CVmWQauFv7mJ2+pd4raq/ZxSqK2lb8gyXyGeOMYYrl+/ftCncSjcuHGDRqPBuXPn+P73v8/Zs2eBccAXxzG+P36pmwdsw+GQ5eVl4jhGa40xhjRNMcYQBEFRbZcPAvnxj3/MmTNnqNW2ezw9aJ+/B9lv92V5WJ5vv3LlKvV6nVdfffXjPVBCCCEAsNbQWl7EZcld+/sFUYmphROP+cyEeHSkdlsIIQ4ZLwg59epnyT7zBoP5eVAKGwR0nn8efeRI8Ub2XrIsg14Pv9sttk0O9HCT3wGdJPh37nDpgw/oThwjhBCHldaaK1euUC6XefXVV9nY2CiGeHS7XTqdDuXyuFpjsvKv1+uRJAlxHNNqtWi1WkXVR14J6JwjTVPef/99Njc3953g+6Bfd5sAvHsKcP57PlFYKcX6+hq3FhcP7DEWQohniXOO6vQs00dPH/SpCPGJkoo/IYQ4zJTC+j5pvY72/WIJ2b1Ya1FpOl4mvHUdk9eXD/ZgYulv0O3ivfsufxqG/Mpv/iZTU1OP6A4JIcTHp5SiVCrR6/XY2NjA933iOC6m6LbbbdrtNs1ms3jezAd8pGla9O/b3NxkfX2d6elp4jhmamqKwWBAu93ecUweyE0uB86n8N7NfpV9k+dyt+PN1nO3c47m1BRHjy58Qo+aEEI820yaMuy0xlOz93lNba1l/sw5zrzx+cd+bkI8ShL8CSHEITeYn2flK1+hOTuL9rx7Th5zzjEcDolu3sTvdrFaby/l3VreW/T6g+0XPlrLgA8hxBNDa02z2cRaWyzTDcMQpRTWWuI4xhjD3NxcMdV38tgsS7HWUqlUikEM+QTg/Lsxpvieh4r59Mc8ANwd6OXBYz4ZeDLYs9bibT2H56Hf5OX5dQ6HQ9I0xTpHMkoYDoaP6VEVQoin2+bSDd779luEvjcenicDlMQzQoI/IYQ4xNxWKGd9fzyI40GOcQ6sJUpTlFL0tpa67Tfcw2lDmFj8TDHw+cgDRIQQ4nGy1rKxsYHWmnK5XAzoyMM0ay1KKcIw3FN5p5TCGMN7772HUoqpqakigFu8dYssy5ifny+Gp1y4cIHBYMDx48eLyr/8unL7hYD7TfrNg8G7TfrdcZ5A3O9z5WcX6K2s86Wv/iqlcukRPJpCCPFscNZh0gT88p6BTkI8zST4E0KIQ+rES2+wtrxC68OfP/SxJ29f4fTVG1Rdhd7MKc6fnaGvFVYpUBbPxRxfusPCZov6IMPpCpvzx/ihlRdAQjxOYRiitZYJyA/JOcdoNOLll1/mxIkTRYVf/kYun8i7uzJvXNmsaLU7ODSe9rAWcI5wkFCvlLC+IhmOWLcWqxS9bq9YNhxF0dbVqD3ns1/1H2z3Fex2u5w4cQJrLcPhEGstpVJpR9/WJEnY2Ngors8EPsa3BP11lDOP9kEVQohnmLWWEy+9zpGTnzroUxHiEyfBnxBCHFLzZ87RXV9mmPYpRdF9+/tZazHxkKnrP+fFSz/nhWu3qdoqo+mEdKrKpWZITyuUSah07nDu+hVOrXapJBkmqNBOYPnmMp1rN3DPSQAoxKPged6OKYKdBUtSsYQDqC8FxfZ8CevDOnvzJsNSiaW5uY+039HVVRbW1vY9JvV9Lp09S/oAA4YelyAI8Lf6n+6u3MiX2k5W0TlrcTjuLN5memaWMIowgHLgr20w0/BJwhLtzCf0A4ZZhmM8LGR9fZ2Fhf377d2tChCg1+vRarUYjUasrq6SpinD4RDnHKVSiSAI8DwP3/cZjUasrKxgrUVrRVCtUG7WieIu0oxBCCE+ut7GKq3lm/sOycvbL8w9d06m+Yqn0uF55SaEEGJfvu/TaDR2vIHdjzGGrL3Jp7/zFidvdKiOAPoEm1d4/epJNs7NMqj7eKMBjaWrnF5pU07HFSleOqC5fJkv/sUU/7ZaofWVL3DshLzwEeKTpLXGVT1sdfvl14Vz66zOxMxtlPhcdqTY7voZunfv4RG5ME1pbE3j/ur3v8/VU6f2Df4eZL/XLlzgK2+/Tade33nsVjXi7/3O75DWag94jx+9Dz/8sHiOBOj3+wRBQJZlpGlKt9tFKVVUVcZxDM6xurZCtVolCkNA4TmY6a/heinthQX6tWlqM0cYri7j7HhYSL4sePfyYeCuS3cBut0uo9GIubk5zp8/T5ZlRQ/AvDoxDMNiAnG/38c5h+d5NKIykRdxq73MZ/o9wigCT16+CyHEw1q++gE33/8RpVJp3+dsIZ5m8spBCCGeIr6BF29DPd7eptOM+gfXOHa8QqfRpH+XykHPWhaWVpmNR8iCQyE+eaVSicuf6nPh7GqxzXjjYG9tOubbX7hTbH/paoPnL1YZDAb3vd6zN2/yH7/1FgBBlnH11KmPtd/VU6f4v7/2tR3bXrpyhd/69rfvey6P29e//nW+973v8c/+2T8jDEPeffddPM8rJvG2Wq1ioAaMP0gpVypMPX+ckoqIMkuYOmou4R+/Mkd9qHjLq/Gvy1Xmz1ZY31grwtdWq8V7773Hq6++WoR/+WW7B4gARa/BOI5ZX1+n3W5jjNkx4MPzPByOJEkYjUbFsc45tNaUjKOuFd7RMvbd7+Le/DJq9thjenSFEEII8TSQ4E8IIZ4iCmg6CHa8/3Qo06EaG6JUjYO//bI/a1G9FvOdhN5on8uFEB+b1ZD5e6v4nNq53T7YLB8Abh47xv/1d/8uAH/7u9/9WPv9+DOf4f2XXmIUhsW2v/bTn/Lc7dv8/m//Nv2tqrTD4q233uLChQuUSiXm5+fJsozNzU2CIKBWq+1okTAcDjHG0Gw0qaZljA9tP6MZdzi3uMTLRwyRClkoK+q2hDE+C3PzrK2vFf0X4zjm4sWL1Gq1Pf358uo93/eJoqio7MuXbWdZtqNye3Lq7+7+gNVqlfn5eRr1OpkHFa/Ol+hRjZe5kdS4Fe6syBRCCPHRWGtRXsDrf+O3ZJmveGpJ8CeEEIfU4oV36a3eplKp3HffLMvwVhY5+pPvECUxiibtZkgSJcytdIA2M90BtXiKdTWe6EtlhvVqmSztUum0qI8cZB2avQwXw/3rjIQQDyJfynnz9JCVI8MHOmblyJDSac3xqxFJktxzSdKgXObK6dPFzx9nv81mc8+26Xabeq/H9UO0/N9aS7vdZmVlBaUUc3NzVCqVYvms7/tUq9Udx6RpSpZlRKUI51nc2hpnPMfnAsMXKiMa1qBdykzXMjOybFbmOTIzQ6lUYnNzk3anTZZlxdLdKIq2q/e2bkNBEf7lFX2DwWBPqwatNb7vEwQBWmvCMCQIgqJnoed51Go1CD0yHHVX4bTZgJVVlktzMCvBnxBCPKjFC+/SunOTIAj230EpphZOEJQO14dbQnxSJPgTQohDauXaRYYbK9Tr9fv2ITHGEK4vc+Knb+OlkNXPcPv0NBulFl6nzdRoyFS3T3WY4ioBxmuwcnqGO1M1RoMV5hZTXlzq45NQ2txgdGeJzWP3DxyFeJKkacrPfvazopfag1haWvrYt5sHf0tHO6xPPVg57frUiDD1OHu7TpqmB9aL6OzNmwB3XRZ8UIwx3L59G+ccjUaDSqVSPEbVanXfYUj5AA1nMqJBh9ODTb4UKr4YaE7XFWEGThnOpDEvZzHfCR0lVaJcqYzDOH+8hDhNU9I0JY7jYsmuY2chtdaaKIoIw7D4nvcZzHsOep5XDPYol8uEYVhUCyZJgrWWLM1AKYIgYrmfUHIenXaPjlulcY8BLlevXt2xdPh+bt++/cD7CiHEk2bl2kW6a3eIokh6+4lnkgR/QgjxhLPWQjoiHMbUeuPplP3j89w+e4Lraglv8UM+t2wojRLCLMPpEnHlBO8+f4wNIB5q2i5mYeUK0xaC5eusX3yf60c8ThyiCh8hPq7hcMhbWz3uHqe8F1wp1oSpJgkeZGCHphRrjDEH+iblK2+/zeLCAt/9pV86sHPYj7WWlZUV+v0+YRgWgVqapkVFRx7KKaXGbRAaTbI0Q/W7fObWIr91rMKbVcNc1sUfOcBhq/BaqcRqUOWPK5owVjhraTQbNJrjASLdbpdut8tgMCBN0x3nlYd6YRhSr9epVCpFFV8Q+KRphlLg3PbkZqUUQRAUvw+HwyL4M6ME3/fJFmb4/ijks6+9Rnelx8bli/cM/r57jyXfQgjxrHDWMuy1sVmG1vv30NCeT7kxjVIP0WNDiCeMBH9CCPGEGw6H6NsfUr96nnpnHPwNyiXiUo2BbnLz+Ayvr60TjhehkVarbDz3HG1rIctQYZVhrcFSDRo9KKUpYZYd9N0S4qnhnGMwGPDpnzUJM48LZ9v3PebsrTovXqgxGAykOmEfSinK5XIxQCOvoMuX+TrnSNMUY8y4Wk97kAVk7RYsXuUfn6xyWoNOU1IsPh54jmFmCbI+C2nAXH2WoReQuXQcHmoPaw21Wq1YRpwvLc4DxsnzG//uMV4HbMmyFOcsoFBK4/vjQDDber4dDAasrq6yubkJ5MEl1BoNopkq5oW/zmt//z9l4WfvYP7Nv2Jn5CiEEGK3JB7wV9/8Q8hG+y7zNcbQPHqCN77623j+XZYBC/EUkOBPCCEOmTQe8vPvfRM76D5Qfz/nHC5J8EdDak6jqTEoh8ShxlmF1VtvRocxUZJS1prh1qeeWmuU06AUbms3tRUQCiE+Oc45tAFtH+zflrYKbTiw0K8yHPL1P/5jzj//PJfOnj2Qc7gX5xxZllEul/F9H2MMo9Go+BnG4ZvneWitaXU2sTrg1ZkSv9N8gWPxNUoZYDLA4ZQhDiBwGq0VYTJk/vJ1rhw9ifXUePrKRMiYf+XBX97DL58mnA/zcE6RpglJMiLLMrIsIUszrHXj592t0DBfBpyHlfl9zG83RNE4cw43NUelVGY2DLhz94dHCCHEFpMmeOz/f6lzDqUVXhDue7kQTwsJ/oQQ4pCx1tBaXqRaCvGi6MEOcg5lHT4KaNAvBcShIkt9+uUyTinoDYnihIpSDLUev6lUCld8ja8qCQIyz3tk90+IZ1WaphxZDng9mym2XTvRpVNLafQCzixuD2xorHt7lpE+Tr4xnF5c5MevvbbvwI+DlKYp7XYbay2VSgWtNTMzM5w5c4Yf/vCHwLifXx4GlkolWq0Wqlqi3oz4bBZSHhnQBm3BOY9hEDHwAtAlBhh6TvFaqcEtD2LtMewP6HQ6DOMYb+L5cbLiLw9p8yBwPLHXkWYZaTIO+8bLeScr/1RxHfsplyLqQUA0SPn85z7L0Shgc9BnOssk+BNCCCHEA5HgTwghDpFRv8vq9UuEgb/jzeV+nHMkSYLudNCDPsoYAqVQYW0c/AWKzHrEYWkc/MUpfmoIt4I+lX+H8eVbwV/qexL8CfEIpGlKfSVgZnN7uIh1lnYzpdkOOHO5vGPfgwz+DrNut8vFixfJsqxYupVX921ublKv1ymXy9Trdc6cOcOVK1fIMkvkFN0k4a821vkKUNMOHGzqgA/qU7z4i38TVW2SeYaGsnw+9vn3775HOnL0B0NWVlYYxvGOsG+3ySpArTUoi1Y+UVih1pyi0aizunqHbq+NMdmO4C+/vsklw7VymemohFtdx314iSwdUvn5O8zEvcfyWAshxJNq1O+ycv0SnlYot7fa3hhDdXqW6WOnD+DshHi8JPgTQohDpLO2zIUffIu5uTl0XpV3F3nfsNKdO/hra3jpiKpS0KgwDHwSpUBrnOdhUONFDkrt+HJK4XAoawgMgMYqjTIpDIeMRiPpLybEJ2h3oHf2w0rR520wHBzgmT05Wq0W7777Li+88AIwDspu3brFj370IzqdDmEYUiqVmJ+f55d/+Ze5dOkS1UqNaljnVi/jf1tf4eVmSNWzKOW4oRTfqFX5H/+r/57G0XlmA41KU9auXaf03/y3kCUko4Q4HjL5dDgZ0OU9/iYDPGMMWiuiSoUTx87y6itvMnOkydt/+T0uX7nAYJBtVf7tNPmcWy6XqJUisitX+N7/9D9TOnOEF8uG2Zm7D/YQQgix9Zr63/8ptVoNpfytKuxtWZYxe/oFzrz++QM6QyEeHwn+hBDiSacUaHa25ctDvSDA1up0laKS9+4rAr+tQ7IhpX6Xha7Gc3WGkY+3egf97ohrxux5oSSE+OQMh8N7LvUUe+WDO2A7fMuX9W4P1YDz58/zne98hyAI8LSPtkC5ROe546yGZY53buFnA/q9jFuXeiSlKVq1JoGyVCOFmU+4ffEKcXUKz9P4gUea7v98OBkCTqrVakRhlaMLp/jVX/3b/PN/8Qesrq0VAz3uxfM8grBEKSxRCzz+4SvnWOjfohH3GXizH+GRE0IIIcSzSII/IYR40m0Feah8KIfCsb3NaY1T4BhQSkeURwrnM96uU2Y7y5xdW6SORtePsFYt0fEpGtkLIR6tjxv6Pbe4yK9/5zsALKytcXR1ledv3GBQLvMvfv3XGZTL99yvXy7zRxP7HXZaa8IwxPf9IjStVCqcPn2amzdvAhSDNpIkYX5+HmsNKnB4nqKcTvG/Xr7G/1Ad8QuB4mUN/3XZoxJmhFjAw2pNSYf80suf5r2NDlRCUBnXry8+wBnmf56KeDRCuQqLt9b41//qT0lGGc36FMNhj1EyGrdaYP9xSsYY0tRiAihZy9HNFk1/hHIpWSzLwIUQ4qNwzjEajXj+F77CwqdeOejTEeKxkOBPCCEOifVbV1m58nMajca4N9Q9GGOIez3CO3fQcUyQZURpsnXpVr++IhAsjkI7i28tnh1w4sMPON7uM7+5xuxGjKdD4ukjtEsRQ50HiUKIw65brfLzF18EKL56WtloAAAgAElEQVTD1qAe33/o/QDiKOLbX/oSy7OHr7IsD/Umq+zyMBDGlXKe5xGGIUeOHCEMw3HwpxVOK7IgYnl6gQErOHpMe47XXZ+Lv/u/cObv/H2aL38aVa/jFPTiLhhHOSpRrpSL6bv7Vfg559AuQikPQx9wmCxlaHssLV+j3dkgDC1ZGpAlEVr7WJsBEagMT4Pv+0RRRBAEjEYjtOdhooBsYRbtwMOREZDZ4DE92kII8eRZv3WVpQ/fp1Qq7ft8bYyhOjVLuX64hlcJ8ahI8CeEEIdEa/kW6zcvMzs7e9fG8TljDKPBgOraGsoYfGsIs4kKkB29/CaPVDjl0HbIwo0PeGVpyPQI0AFZZZqbR6dolQNS5cahoXgqHT16lKNHjz7w/mmacvHixUc6bCIIAs6dO1cMa3gQS0tLLC0tPbJzgifnser+yq/su++rW9+XlpZYAr73i7/4QLeRBAE/fPPNj3mmd9doNvj0pz/9kR4ray1ZlmGtLT4kycPAfKhGHgROTU3hnMPzxtWBFsUoUPhH5kkHfdLRkMhLqdgu/f/n/2QzddjP/iK2WWej16XaWiJK6yReidAPmJmZYX19AwCtVXHbSimMMXhao5VPhoeyAdYGWEokWcBgCBWm8L3jlBsBZZYx5jwaD4VFqfGfbblcxvd9kiShEpUwJZ/2/Czvrq9zLlCU/IhweoE37/PnI/8+DtdziRDi8Wkt32LtxofUarX7vqYW4lkgwZ8QQjxhnHO4LEOPRhMTeXeGdC7v46cUTk00AFQK1D7VhH6ZrHGSi3MVuoECY1DG4A2HmFLpkd8n8Xi99tprfPWrX33g/TudDr/3e7/3SN+sl0olvva1r9FoNB74mG9961uP/M26PFYPwZ+F0ksPtOuJuV/ia29+7SM/VnnQNzn9fPewjclteQhkjMHi6NmEtu8TZx6RG+Ery2c8x8Y3v8Htb/8rhkrRSxN+wwvpuSEXRo5qpcypU6dot9tbgzt0cft5JWDgadAhafopXNYEKrjgCJSP4Ffq1GZfphQ1qHrzlLiNtf87JdXFmABrtwc6JUlCrVYjUAqDYy0I+UY84MuR5oQLWTh+kn/wD/7BPR+jZ/XfR7lcPpz/PoQQj8Wo3yVLRvuunnHO4YBKYxrvIT4cEOJJJ8GfEEI8YeI4Jllaonr16jj08zwc212ldkzs3RriMWnc7283g3IDajFseIoMCDodpt9/n4033ni0d0gI8XSY+y/gla884M4+9JL773YPeRVHHu7lFYCTlR155Z8xBmNMsW16YYZhe8DAtGhk449GpjxDM2njRl1AkaFYKdWZqkSgYJQ5MpMVbyZLpRLVapVarUa5XCYIAoyq0Is/TavzHxFTw1hDaks4VcMLAnq9MmvrFymVNDP1iGYQoJIKqPFSZN8fT55cW1uj2WxSq0ZYrUgJuPH8Z/g/rl/H3erxKy8lyDOzEELs9cEPvkV3+SaVSmXPZcYYrPL4xV//e5QbssxXPDsk+BNCiEPg0tt/RnfpOlNTU/fd1zkHzoG1OM+bqOyb2If9l/ruHAIyIY0JNhd582KV9Nw8i7WA1FqQ4R5CiAelQtC1hzjg4wd/eeinlMLzvPFy3onBRHlloNmaUJ4PA+l3urSMpa80FoW2GjBYz2KxWK3ItI+tlUlQpGgcPoFWHD16lDAMCcOw6CeYLy+2fgnDNIPeHJXGaYbdGJcGOFXBpA6yFl/4wkt8/osltM345h/q4vwd+UCPtKgoRHt4SlFxPrdaffTULOHULNnC3Md67IQQ4mllTYabeL7fjxcEqP1WwAjxlJK/7UIIcQj0NldJh/0H70k02cMPdg3x2BX67a76UwrreQxm5ticm6JdDRk5gx71aa4uM98fUbX7VwsKIcRh4Jyj0+nsWDI6GfpNvtnLfy+WAjuHSgxrcUrLGOzWU6VFoaxDW/AySDP409sdFmOLUR5KjcO9vG+gc44oivB9f7vXoB7h/B5OJcSDDs51UX4GOsAZD5cu4ZKEuemQkyeqONsgVRUsXnHOURRx5MgRoihCocGBSgdsrK+gtSGo+biyvIQXQgghxIORij8hhHiCpGkKvR5er4fTemJy764qvmKZ72R4F2K8gNT3MLrC6qkXYarL8toaR+6scmatRxBvcqQX02jW2Axlsq8Q4nCy1rK5uUm1Wi0+MMkHbEwuAXbO0W63i4EZAAqF7xSbg5h2lmCVAyzKjZ8ztVUYPPoEfK8HK40AnI9GoZSiVCrR7/eLqsJJnk45MmM5Pl9j6VZMd9DGZj5JOo0iww+vcWS6zMZKRnvzNpgmme7gqfF5ZVnGaDSiVquNg0qncM5gGBFEilB7aDRmd9W2EEI840yWsX7zMjaJi+f7SdZa/FKFqeNn0J7EIOLZIh8XCiHEAXLWMuhswsR0ynsZDoeY9XXCzc1xuKc1TimsVtji+O2Kv3wZ8FiZURgxKPsYv8HSiXP87IU3+OEbr/Huyydoew5Hj+negFqcFcd5ccyo2yKNh4/mQRBCiIdkraXX6xUVf5N9/iar/Ywx3Llzh8FgMLHdoZylO4jpJYbE84mDgNgLWVc+i2guo/mpDmgdPY6JanjOw5sYGDI9PU21Wi2WD+d8FXL2+Cxf/9qLvH5uitkpR6gtOIXyR/i1DX7hixHt7h3+5Jvvgo1Qug+MeweORiOuX79OkiTjYNEBKIgCFk6fJKxOk6kanYHj+vXrRd9CIYR41mVJzPk//xPSfocwDPdenmWUGtO88qW/RRDJ4DrxbJGoWwghDlASD/irb36DWhRQr9fv2otk0mh2FhOGlG/cGIdzWhNHJXqlMtDb3lEp0Dt7/BXb8yXCgAvrDOsz3GnCVAvK8YgwSUH5KGOYev99rgLpryWc/ewXP6m7LoQQH4u1tujdlw/1iKIIYE/4B9vhoAPSzLDWy1iuRtxuNhj6JdpG8VfLq3y43udqP+WiZ2m+FOD5CqXMnusbjUYYY2g2m8W2eOBotR2bccZ7H1wn9jYgqOFGKUmQkHVe4b0PGkQVzcLZc3Su3iEYzeL8FmhDvV7nhRdewPf9rb5/42CxpKs443BugI/ipz/6c37nd37CH/7h/8v8/PzjeLiFEEII8YSS4E8IIQ6YSVOIHrC3HxTBnQLU1pI2nNsb8OXb94z13drOVgtAFxBHVW7PNzjX7RE4UG68n7IWbS02TbFWKkuEEAcvH+Rhrd0xCEMpRRRFBEGwo4I6iiI8z9s+3imiNOBmpnhreciPWild7aGrZUbRFOnsHMlcQD0sE1aiYunwJGst/X6f0WhEtVrdHjLiZTSmEz79GZ9f+/WXWO2knL9Yov9hCLZBpXKan/9sxNS0wtlZMu2T6hhPGXrdLmmaMj09veP2siwjHaaEYVjc90+/+ir/6B/9IxqNxiN+tIUQQgjxpJPgTwghDkhvc41bP/8xtWr5vkM9nHP0+32yLJvciNoK58ale+Nt9IaU0ozQOVSWoYcDKs7hVUokYUC8dVxxvAOrPUahP84I0xSyFOWiYnqwEEIcJs45tNbFxN4gCIr+e2EYFhWA+bbdrRQ0ig3n0680aTcbGKOxgY+ulPB9jfI9oiAgGSXFtODdqtUqpVIJa20RLGo0K4sx/+afX2N5qU67l9Df3KSkLaVQE0Vd4k5K5ntEuo+neuD1cM6SJAmj0WhPyJimKa1Wi/n5+eI8+v0+H374IZ///Ocf0SMshBBPjt7mGjd/9mOiwMfTe5+vkyRh6uhpjr30+gGcnRAHT4I/IYQ4IMNOi8UP3uX48ePFm9S7cc4xHA5pLpwkHQ0ZDodkjQZevz+u+tMa5/kkzhEMYqIsI3AOZQxqFFPC4UUBWeCRFIHfROXfZGVgmkJmimCQe5yXEEI8bs65cZN23yeOY5IkoVQqoZQqhnjkgz322waOTCcMtMXW62RHj6GNw1jItCMDfAWYlNbmJvVGo1hCPKlSqWCtpdPpUKvViirElTsrXLvyZ2h/hjTtY22H6SihHPlof0iIwos9YJ2IZTxrAFVU9NldPV+TNKXd6TA3N7c18AMWby3y1ltv8fWvf51arfaYHnkhhDicxq+p32F6enriuX5blmXUZheYP3PugM5QiIMlwZ8QQhxyzjmMtVQa0zz/177M5p0bXN5YZXjyJOUbN1BJAr5PFkUMgAYGbRzajqsBfZONwztPYRXYHdV+Wz9bh86X8mo1Xk08vnEJ/4QQh4pSCt/3i0roer1Oo9EoQr7JD1K01lQqlSJUc87hlGPop6Q6peTGw0BGfoJyoG2EtiHOgjNDet0e5UplT/CX38ZwOGRzc7OoKrQ2wVM3mZ76Y3ABJonR9PH0EI0FZfCsJt5Mxpcph9MVlA/1er2YTJxzzmGyjOFggDEGz/NwjG83HsX7ThYWQgixzVpLVKkRlCoHfSpCHBgJ/oQQ4pBLkoTBKOUXfus/odxosnnnBgDO9xmeOUPp1i30CJR1gAW6VOOU0sgRpglTnRbaOaiWiUsR/TzMs7YI9vwspT7ojPeLQvB9lLVFH0EhhDgswjBkZmaGbrdLlmU7grLd1dN5SJgvxbXW4lAYQpTTaAfKeVgifOtQgNUOi8L5Hqeeew69z7Kx/Lbq9TrVarVowxB4Ab5zeMkSgQYCD6c0Fk2WjTCxYph2aW106XZ7BI2Y6bkGdf8IoSvtW/md9/XLew0qpQiCgMZWUCiEEGJ/+QT4z/zq15g78+JBn44QB0aCPyGEOAC3L77H0oV3WVhY2NN7arf8zZ4XBCilOX7udbTnc+ntP8NtHau2Kv56OOpsUhsklGJHaEZMdTbR1jIolxhFIxr9EaeWQi4fDbE4lB0RpkMafYcqikfcjv5+zYsXaYX/H5eM4cVf+pVH+MgIIcS9pWlKu90ulvdOPodOLvHKfx6NRvR6PaIoGh8DaOcD4ypoB4RZgG8t6BirEowCpzJQ4/32M9lz9ebNm8zNzVGphYAmcA207dDqbrLZjxnGKY6EklenVg9pHikxNVfH+g6no6LSzzm3YxDJaDRiOBwWS5VzWmt8P5DgTwjxzLt98T0Wz/+EZrN519Y52vPR2tvnaCGeDRL8CSHEARh22wzaG9QXFvadGHkv5XqT2vRc8Xs6NYVjQBbcoVNzLPRTppdXOTITEHurfGoxwTPQLZcZBZpSZ4kT59cIg5e5US+RDjeYXlvidAd8B6MgIPO87WW+1hJ0u8QrS/Q2Vx/FwyGEEA8sn+YbRRHVapVyuVyEfPl03/x51RjD2toacRwzPT1dDP7wPUe4Nf3XuQyNw6pxxZ8jn3jugfZotVoEQUC1Wt1xHpMhY71eJwgCet0+/V6fcjCkVvXQfkit6lEqWawz+DqkVAqIwhJa+2TOYp0/XgbMONDLq/uSJKHdbtPtdovJwXnQZ63FWLN3arsQQjxjht02g9Y6zWbzoV5PC/EskeBPCCEOsSzL0EHE/PFPob39n7KzRgM96pP5Ed0GuCHUVm5yOtik4fc4vaHwiRiUI0ahh9fuUlv8gPmKT7VRZjRc4ejyMrPx+PqGUcjI94segMq5u9S7CCHEwQrDcM8wjzwcy4eAtNttkiShVqsVlyllqNdrW5OBU5TvcApgq3pw672jUqqo7MuvPzd5WzMzM2itGQ6HpKnB84ZkqkFUrlPdOr+8oi8/1jmHB3gqw1pLlmXFl7XjKb+bm5sYa5lvNPZUh6dphpPkTwjxDNu8c4O4s0kYhnsus9ZinGPuzDmiav0Azk6Iw0OCPyGEeMzifheTJvj+/Z+C4zimNLPAK1/6W3svdA6dJLggwHkRSblGqx5gVzLoL3LmYr6jB/4s3UrIIBy/SfSylLnzP+HYjitUgEc/ChgFGsWuyb7yKaoQ4hDIAzfP83YEZbAd9k2GdPllnufheV4RwE1NTRHHMXEcF6Hg7moRYwzNZpM0TYnjmHK5vO855RWGjUajmLIbBMGOyyb3nTzn/D4MBgM6nQ6dTgdrbXE/G81mUfGXb8+nEwshxLPs2ns/ZLi+RLVa3ff5OzWOl7/4HxBVZPq5eLZJ8CeEEI/ZhR98i7S9ypEjRz7W9egso37pEoNTp0inp2k9dwa9chJz7SZM9J5CezB9nOVGiXZgaNw1wNPAUTaqEd3Igdlq+DfR608IIQ5aHqTlU33zJb95sDcZ/sE4gPN9v+gNmO+fpimbm5vEccyLL764IxTM5VV2KysrDIdDXnjhhbsO4ACK2w2CoLiuycpApRTD4ZCNjQ02NzcZjUZ7QsH8d+ccnu8TBNu9/EajEfFwXJ49P78gPf6EEEIIcV8S/AkhxGNmTYbbUbXx8KaOnuD13/h7XND/gsxZUAoXlTFH5rijFzkJlLb2dZ6mf3yBdhQRuz6Nu9yk8zz6J46xXCnR2RruMTnZt379Oum//RPe0R6f/uXfICjtX/kihBCPUh6k5ctj895+MB78MRqN0FoXS7+stbz22mv0ej1WV1c5fvw4N27cYHp6munp6WJ7vlx3N601zWaTUqnEcDi86/N2XrmXpilJkmCMITMZJjNFdZ/WeseS3nybtRZrLZ7nUSqVmJ6eLoaXZJlhdWWVYTxkfn6e5lQTpfSOQFAIIYQQ4m4k+BNCiMckS0Zc/+lfok1CpVK57/6DwYDa3HEWXnhtz2VBVKZ59CS23iC4eR0bBJhyneGpV7h0+ipTNzYpDTMgIvMXuPLcNJ2Kj3URw3KDmyeqHFsa4JutN7BeibQ+z6UTTTZKHsZZ9MQyXwUE/T7Z6gqt5UWsNZ/sgyOEEA8pTdMiPPM8rwjPBoMBYRgShmERCmZZRhzHjEYjjDGEYYjneYRhSJIkrKysMD09fdfbqlQqOOe4ffv2XYO//PaNMePzUuOlZtbaYlVuXgGYX4fWGq01tVqNcrlMGISgKIZ7eJ6H7/sEvk+5UqZcLhdLiLWW0E8I8WzKX1PbeEAURXsuT9MUv1Ln1Lk38IO9lwvxrJHgTwghHhOTpdw6/xNmmnVKW28i7yWOY45MzzF/5tw99wtaLUylQtY4Rjx3hmuffZMj0VUGGwOUrtFvnuHCQpmer8CEDCtHuHbuU0wF60zFGb7VmKBKZ/ool6dCBgpUNhH6Tfb3kz5/QogDpvW42i3vk5dX+eVDPvKqvLznUz7dF7arBZvNJp7nobUmiiLCMKTdbtNoNHZUCgJFeKi1ZjQaMRgMdizHnRwmAuNuqWzdjsOhUMW04Ty4y8O/PCgMw5BKpUKlUkFrTa/XI0kSlFKEYTgOBSfPS1r8CSGeYflr6koUEEXRntfUWZYRlSqcfOXNAzpDIQ4XCf6EEOKQyRu/h5UaQen+lYHKOXSWodMUG0S0Xv+b/FX9KM31TbRfoT03RxfAGJRzmFKDjZNv8GdTayz0U6qJZuSFrFU9tDEoO6722zoZsHZn+CeEEAcoCAKmpqZYX18HoNvtEkURc3NzKKVIku3hSfmbwSNHjqC1ptPpEEVRsaTXOUelUuHkyZNcvnwZpRTT09N4nrfjNp1zhGHIsWPHWLy9iN3qgbp7ijCMgz/H9qCRnNaa6enpHeFikiR0u116vR7dbhelFDMzM/tWsGQTvVuVUsi4dSGEEEI8CAn+hBDikLHWsr6+zqf/5n/I3HMvPtAx4doaZBmDs2cBGERN4ukQt7X8zTEOCIsvpVHladYCw6YxKGPGAzzyQR67+vvl4Z+S8E8IccDK5TLHjh2j1WphjGEwGNBut4vgL4qiIvjzPI/Tp08zHA5ptVpYa/F9f0cgl1fVnTlzhuvXr9Pv9zl27Bi+7xdhm1Ljqr1qtcqpk6eK6/Z9H8/zUFvLbhWqqDJUStHpdGi32wwGA7Is4/bt23S7XZrNJvV6nXK5TLPZJEkSsix74J59zoExMnRJCCGEEPcnwZ8QQjwGreVbfPj2nzE7M0W0VelxL+OlZT5ae/fdF+dQxuD3epSvXyc+eZJ0dhav3Ub1+9vLH/KqvaJ6b2eVit7q5VcEfHlImG+zlvLqKt63/5SfBiVe+JXfYGrh5Ed7QIQQ4iNqNpu88cYbXL58mSRJgHFP1GvXrnHmzBmiKCr64AVBwPPPP0+32+XOnTukaUq/3y8GZ8D2c2AQBJw+fbro+dftdotltvlU4F6vVwwWKfr3sR0eRlFEuVymVqvh+z7NZpNGo4ExpuhJGIZhERjCuBcVsKfK8N7kQxghxLOptXyLSz/8d9QqZXxv70CmwWDAkefOceq1XzyAsxPicJLgTwghHoM0jums3qF56hRa6488zXeSH0Q8/wu/zJ1BTHrpPH6vhzcYgLXYMET7/njJbr78zO3t21dUAE4s590d/k329/PimHB5meWlm6Rx/LHvgxBCPKwgCKjX6zu2ZVlGf+uDjvwLwPd9jh8/zuXLl4uhG71ejyiK9lTXaa2LkA8oBoWkaVrsq5SiUqng+/6epby+748HcQRB0T8w7+0HEEUR1tody4wnv9+t2i9fTmyM2XEestRXCPEsyl9Tz87O7vuaOm+XU5uePaAzFOLwkeBPCCEOEWMMSZoxd+YcpWr9nvt6QcDJl99k9folhrdv4He7KGsJOh3SRgMXhthSCbVVEbMn7NsVCu7o5Zfvmy/7nQj/ZLmvEOIg5YHb5Ju9fIDHxsYGvV6vCAbzoC5NU5IkwRhDr9djenq6COByeagWBAGNRoNyuUy73WY0GuGcw/M8SqUS1WqVIAj2HH+3c508z8ljHnRZ7+S++RJipRTeQxwvhBBPg+7GCu2VW5TL5Yd6DhXiWSfBnxBCPGJpPCQZ9opJjvfcN03pDYZ84de/SlSpPfBt5FV6OsuI7tzBhiFZvY5TimBlZbzTrsBvd/g3OcgjX+Jb9PrbtU0IIQ6bNE25du0aSqliKW8euuUTgK2xO6by3o1SiiAImJ2d3RG6WWsfcknuJyMPOicDz1GSfCLV40II8aRYuXqB2+d/wuzs7J4PgGD8AXpUqT/QcDwhniUS/AkhxCN26/xPWLrwDidOnNjxRvQTlQd41oLWO8O5fCna7h5/E9V8k738dmxn73APqfgTQhwWk8tl8wEcuy/TWnP06FEWby2yubFZ9NS7l8nryp+3J/v5Pc7ALb8tYwz9fp9Op0O322F1dfWB7osQQjwLrLW0221e+9W/88DD8YR4VkjwJ4QQj5i1Bmuy+/b26/f76HKDN7/0mwRR+aFvZzKoC1dWUNaSNRqkCwsEq6soY+46tGPPtn36+2Etw9lZ2n/9i3zmt/4hU0dPfKTHQwghPq5yucxv//ZvMxwOuXjxIhcvXmQ0GhXhXK/X2zHpt1KuEAQBxhqUd//lYZNLdCcrtR+2R6vWelxpuFWZ4vt+cX35cJC8D6DWGm9rEnscx7RaLfr9Pmmajvv7WUdKRphmNFPD8abl8dceCiHE4fVQw/GEeIZI8CeEEIdElmWEnkdz/vhDHXfi5TdZanfopinBxgZqawhHliQ4rXHlMtnMzPiyLNsb7E2Ef/st+50c+GHCkNH8Ao1jpz5SOCmEEJ8Ez/M4fvw4WZZRLpcJw5B33nkHYwwwnurYbrdpNBokSUI8HGKMwfM9PP/hXv5OBn0P21Nq97F5FWGWZcRxTL/fL4aOjN+wbl/e7/cZjUaYzGCdRaHQ2vEL9QavH5uif/IEwUPeFyGEeFItfvAu/bU71Gp7W+EYYxilGZ/63JdlqIcQ+5BXC0II8Qht3L5B0u9QqTy6XiPzz71Id22J9euXCNfXx0venEPHMd5ggKlUMI0GQaez70RfYM8gj93TfpVzjKamcGefZ+HsS2hP/vsQQhy8fGpvkiScP3+e4XCIc440Tel2u2xujpf29vt9rDWUohKPs1nB5JRhYwxxHJOmKWmaEscxvV6PLMuKqj5gx9RfW3xAA1YpNI6jlRJnm3V+HgQy2VcI8cxYuX6R0eYqzWZz395+SZpx4uU3HqpHthDPCnnnJoQQj9D1n/4Q29tkdnb2nsvDjDH4YYn/n707j3Lruu8E/71vwwNQAGrfSRaLRRYXc9FCihKj1XJiLXFkR47SJ1Ycd5LOiXPc5zjpHs+cMz0nM+lzpmcy8UwmiXvSnbajY/ekncSJ49D0JJZkRYlDUpQoaqOK4lYq1r5jBx7ee3f+KAKqBahCFbFV1fdzTkkFvIv3figWwYsf7v39TH9w4xdbtopPi0YBKeF2dEDqOlxNg1QUwLaXrvZbo5FHNiEY27ED6oOP4PCpn9x4jEREZeDxeNDW1oahoaHcFtpkMompqamFxBsWttl6PB4k0ylIYMVrcr7VfNnagfnuX/64bO2/bD3A7Cq+xUm/ubk5xOPxJcdUVc116l3eBRgAJAAhAEUCDoDr6STSE2MYmZpFJmPf8c+OiIiItjYm/oiIasDc3Bza9h1D790P3NF5hOtC3G7uIaSEmkjAHB5GaudOWG1tEAC0iYkVq/mWNPJYvN03+//sVmAiohrU3t6On/zJn8S3vvUtxONxAB914Y1GowgFQ6irq4M9OgLHtmHbNpRFCT0hBFRVza22c10XjuMUTMxlj2Xr8mUfn03wxWIxTE9PL2zVvT02G9PyxF62LmHWioTk7f8rcOFA4FI4icsyhZ42T0VXLxIREdHmxMQfEVEZZFJJvPePP4DhZmDW1685XkoJoYg72kIrsl+331gu3q67MEAsfC1b0YcC9f0Wj5s5dgzBTzyNrhOPbjg+IqJyEULA5/Ph/vvvx5tvvomZmRkAC0m1WCwGQ9fh3k7YuVIiGolAUdWF17nbSTvDMGAYBnRdh6IouUYe2QRithafZVlIp9PIZDK57xevDJSQcJ2FBh3Lk3r54i6WBAApoLkKNKiwVROSe32JaIvLzqmRiuet75dMJqHXNeDYww+z/jRRAUz8ERGVges6CE+MoLWpAbqur6sL5EY0d/di+BO78bd3fw8fP70PnvTtzpNSQjgOjKkpZBobYQcCyKTT8ExOLq3zt7iRx7L6fpASVigEra2DBZOJqGapqlkV6eEAACAASURBVIq+vj7cuHEDc3NzuU66kUgE9cEQdFWDrulIJlOYmZ1ZSLrJheSbUAR0TYeiatAUARULiTapAK5UIB0X0nXgyIUtvLZtw3GcJY05pJSAABSx0KU3W7MPWH9TkHxcIQABuHBgA7CFwhp/RLTlZefUQb8XqmGuOO44DgxNW3dzPKLthIk/IqIqklIikUgg2NqFQGPrhs8z2TmDi7uv4h+Tg/iJH+6GJ2XkknjSdaHNz8MOBODU1SETDMKcmFiyyi/v1t9lCUEiolqmKAqCwSA6OzsxPz+Pubk5SClhWRYcOwNVUeDRDbjSzW0HFhBYqAAIKEJAERrqpAuvY8MBYKtATOpwJKBIF46ydKvu4vp+AHL1BLP3FaoReCdsOJBCAmpJT0tERERbFBN/REQl5mQsJCJz0HUtVy+qENd1MTMzgyN3PYyWXX0but6Ecgt/bf4n/Ln5RwglzaWJu0WdexXLgmvbgKLANQxoyeTSRh5YVOMv+8ZWCFh+P4z6Rhhm+ToTExGVyt69exGNRhGNRiGEgNfrXVh957rQNW2hWUa2skG2Sp6QkC7QZGrYIxx02g5cCEypKi5bKiJSQggJKdeox7coAbj4dmlIwJUAJIQqoOtKyZOKRES1xMlYSITncrVUVxx3HGieO2yOR7QNrP6OlIiI1m1u/Bbe/vu/REdrC3y+8ifLvur/TfyV+Z8A4KNOvIsTf64L4brwjozAmJlBJhBAtL8f8nZ9qyVfi5p4CCnhGgZGH30UOz/1L9B94K6yPxciojvV3NyMtrY2+P1+KIqCrq4uCCjwqDrqA/nfHAoIeBQVjzfo+HK3B//7bhN/sLMOv9DaiZ2GAqhpZPQa6qCbK8nK1dhEtHXNjd/Cpb//CzQE62CaK7f5RiIRNO7sR//9j1chOqLNgyv+iIhKTLoSjm2vuRIjnU4jHIvjyOOfRn1717qvMy+m8e/rfhVv6q/CRmZRAHLlF/BRUk8IuB4Pwvv3I3j1Kjxzc0saeeQagmS7UKoqFE1f6BZMRFTjhBDYu3cvHMfBuXPn4Pf7ETPCMHQdhq7nLYsnJAAp8e5cElbYxTm48GoWzsDCdccCXEBzgTtN/ZVq629zczNOnToFj8dzx+ciIqpV0pVw15hTLzTHY+0DotUw8UdEVCWO4yCTsRFs6Vh3F7Ib6nv4M/P3cV7/IZIivuRY9g3s4lV/C/dLGPPzgKoi3dICOxCA1LS8W4OFlLACAUT27oWr66V6ykREFeH3+7Fjxw5EIhFomgZFVSAVAVs6kHl74Qq4kLiVcjALiUtwoWrAsJRIuSokNAAuAGfFI9cipYSqKtA0DZaVgdfrhcfjgeM4iEQi604ESgns6unBF77wBfj9/nXHQ0S0GUwP38DkjctoaGhYs3QOEa2OiT8iohKKzk4iOjWKYDBYttpLV9W3cdrzAv7a/M8rjklFgdXYCJlwAMdZaO5x+5iQElosBuV2nT+roQFWfT30RAJGOPxRPcDbX3ZdHcJ79pTlORARlVsoFMKhQ4cQiUSQylhwVAFXzf/mUYiFlF5UAjG5kOJzHUCVAooUcIUCVwAbSfx5PB7U1flRVxeAqqqIRqO5jsPrTvoBaGhowOHDh/Hggw+uOxYios0iPDGCuZGbaGtry71mZkkpkUqlEGq7s+Z4RNsFU+dERCU0efMKJq6+jY6ODqirbDtwXRcQCnyhRghR/EtxtpHHf/V+dcUxn6xDt9iP1O69sH2+FSv4st/rsRjqbtyAsG3Ed+5Eqrl5ybbg5SsFiYg2I4/Hg4aGBgwPD2Nqehq2AAyfF2LZer+FEgeAIyQc4cIRElIIKBLIqC6EkoEmMlA2kPQTQqCtrQ379vWjo6MDx44dg2EYmJubQyQSgSLE7Zdeebsj8CJ5X4IlDh06hFOnTq07FiKircJ1XYTDYXTuvxutu/urHQ5RzWPij4ioCiKRCBzdh3ueeA6Gt/gGIIsbeSx3l/0Q/iDy/6HebV64Y3HDjmzNvuV1/27Lbfdd1tyDiGgzc10XU1NT+ODaVcyG52B4VxaHB27n2ATgaiocQ4ejabfr+UmkVYmU7sDWNrbN995778UDDzyAixcv4o033kA8HofH44FhGLdrpy7aerz45TnfYkAJPPjQg3juuefWHQsRERFtT9zqS0RUIldfewWpmVG0tbWtOVZKCQhA0Yp7GS7YyGMRRarwYGE1y/K6fQCW3FYsCw3vvINIXx/iXV2AEGi4fDnX3CPa0wPrrruwa9cuDA8PF/0zICKqJbZtY3BwcGFbre0iE09CuEsX00lgoe6fi4UPSeDePiI++nYdOT9FUWAYBtLpNAzDwMWLF/Hee+9BEQomJydh2zZc10VnZyceeuihhRikxOjoKK5evYqRkREIKOjq7kI6ncb09HQuTgHA0A029SCiLe3qa68gNjGExsbGaodCtCUw8UdEVCKxuSmIdBJmKLCkDsmduq6+hz/z/l95G3kUtEriT0gJxXWhRiJQMhlkQiFk6uqWrAbM+HxwGxvh9XpZUJmINjXLstDV1YU6nx9zc3ML+3rzvUTL3H+W3VeEZav0HMeBEAJSSkxNTS/UTXVsSAeQrgMpAdM00d3dvfBwKREILPzbMTY2Bikl4vE4bHtRH2Epcd/Jkzhw4EDZasgSEdWC2NwU7FQCgYaGFXPqTCaDZNpC792nUNfYXKUIiTYXJv6IiCosmUzCqAsh1LlrzbFX1bdx2nwB3/X8SVHnVlQNbb37ER0bg53JQEmlPjq4qIZf9v/m7CxcjweOaSLR0QH/6CjSjY3wdHfD09Cw0adIRFQThBAIBoPo7OyEbdsIh+fX9djllrwBFYCAyN0nFIHW1la0tLRASglFUSCEwMzMDKampuA4DkzThJWR0BR1yao9IQTq6+vR29uLyclJ3Lx5E+HbTZeyx03TxFNPPol77rlngz8NIqLNz7ZtpNIWOvuPwuOrq3Y4RJsCE39ERHdIui6S0TAUAGoRW3fn5+fRvv8u7Dp8YtVx2UYef27+UdGx6B4T+x/4BN6MziMeDcM7MvLRm9LlNf6kRN3Nm5CKgkhfH2YPH4ZvchLz+/ah4+670dXVhcnJyaKvTURUa1RVRUdHB7xeL0ZGRhZW30Eg31K+bLJu8fdyUeJNCAHHWbTnV3zUJkRCIhQK4ejRozh69OiSpOEbb7yO+fk5uK6LtrY2hMNhmKaJ1taVnShbW1vxiU98AmfOnMHszMzC9YSArhvo79+Hxx57DH19faX68RAR1ZTsnFpIN2+TPNd1AUVdd3M8ou2OiT8iojtkpRK4+INvo6UhhEAJa5F81f+b+Afjb+7sJNmGHdnvF3+57pIGHotXAhIRbQWapqG3txdXr17F4OAg0ul0wW2yCyv0Fr4XQoHrunBdF0IIGIYBRQhkMhmoqgpd1+E4LhzHhqoocBwHp06dwt69e1ecv7OzC3v37sONGzfwyU9+Ejdu3EAgEEBvb2/eOEzTxKc+9SmMjY0hkUgAAJqamvA7v/M7RdWQJSLarLJz6qDfRF0wuOJ4PB6HHmzGPY9/uug62UTExB8RUUk4dgZrFYNyHAcTExPYceQkWnfvzzvmLe2f8Ye+/x4AcEN7r2Ajj6Ks0txDyNtdJBcddzwejD/wAI4+/DAau7pybziJiDYrv9+PX/u1X8Pp06cRi8UwOzubd9zCyj4JVdHgSrmwquR2Ak9KmUv4eb1emKaJxsZGNDc3o6GhAX6/Hx6PB01NTdB1fcW5m5qacOLECRw+fBh1dXXYt28fVFUtWD9VCAFd19He3p5bYRgKheD3+/OugCEi2kocOwPI/A2M1tscj4gW8G8MEVGFSCmRSqXgDTbCrFv5KSYANLvtOJF5HP/V+1XERLjoc9+f+SQ+nf6V5RdckthbXuNvSQMQAFJRkG5sRKC1FX6/n4k/Itr0NE3DwYMHcfPmTZw//xo++OADACvr99XXh/DlL38Z9aEGXLlyBQNXBhYSf4tWQCuKAlVVoWkafD4f6urq4PP5YBgGNE0ruJLQMAwYhoH6+noAC8nIYhiGkfveNE029CCiLS02N43h995AKFDHzuVEJcbEHxHRHUjFo5j+8CoCdf4lb9I2qsvtxTPpX8FfmX+8rsTf4cxJPGR9asl9Agur/HLNJpcl/JYkBYmItiAhBDweDyKRCOLxWMExdXUB/Mqv/Co6Ojrw4osv4sUXX6xwpERE21syMo/RD97Gjh07oKrqwsrrRdLpNDyBBjQU0RyPiJZiRUwiojsQnZ7A1fMvo7W5CV6vt+A413Vh2w58wQao+p0nCNdi+oPQAkG4hrG0rt+y7b6uacK9nbBUFAWNjY0lSWASEdWSc+fOYWBggKvmiIg2qUgkgkBb95rN8YhoJa74IyKqgGQyiem5MI5/6nMw60Jlv17//Y/jhuHBiOsgODCwcGeeBODMoUNI3S4W7/P58Nxzz8FxHMzMzJQ9RiKiSsmWLvD5fIjH41WOhoiIiKhyuOKPiKgCpJSQUkJRC9eByqp3m/G70b/CUfuBDV9PUVUIVYXM1qgq9KUoC2Nu0zStYMF5IqLNStzuyJtIJCClhIDI9WNaeJmUtxt8EBFRpY1ceRu33jmHzs5ONjEiKgO+uyMi2qDpWzcwMziA9vb2kk5SdBj4mH0fgm5TSc5XaJvv4hp/9fX1OHbsWN6OlEREm93nP/95PProo7kuuVJKCEVACIGDBw/ht3/7txEKlX81NhERrZSKhZEMz+ZtZOS6LsLhMNr2HELzjj1VipBoc+NWXyKiDQpPjmB+7EP09vauuloknU7DVTS09e6Holb2ZXfx1Glx0k8qClItLXBMEwAQCASwb98+aBr/WSCirefpp59GOp2Gz+dDJBJBc3Nz7g3msWPH8Mu//MvVDpGIiPKQUiIajWJ3126EWjurHQ7RpsR3eEREG5CKReDamaIaYUSjUQh/PQ4/8IkKRPYRw/TBE6yHa5pQU6klNf5cXcfcxz4Gx+OpaExERNWgaRqeeeYZnDx5Ejdu3MCxY8cQDAa5pYyIqMpSsQicjMVdJ0RlxMQfEdEGXDn7IpRUFF1dXdUOpaDuA3fB8Prxrm2h8eJFqJnMyhp/RETbhMfjwc6dO9Hd3Q1FUdjhl4ioBlw5+yKc2CxaW1urHQrRlsXEHxHRBriuAyFdKIqyakH4yclJBDp60HXg7qLPPS+m8e/rfhVv6T8uavyXEv8bfir98yvuF4oCRdVyzTtW1Pi7rbOzE3v37i06PiKizUoIwVV+REQ1xHUdSNeFEGLFnDqVSiEST+DI459GfXvtfthOVOvY3IOIqIwsy4Lq8cLf0Fz0YzLCwnvaa4iI2dx9dTKEX0v8z9jjHFoxvtc5gHZ356rnXNzcw66rQ3jfPri3t1SYpgm/3190fERERERE5ea6LjIZG8GWDugeb7XDIdq0uOKPiGgdHNvG9K3r0AVg+nwlP/+kMowfGX+NlEjk7mt1u/Go9Wn8fOpfwyfrcNp8AVfVt4s+pwCWbO+1vV7Edi4kCv1+P8zbDT6IiIiIiCohO6dWpQuDc1GisuKKPyKidbCtFAZ+/PfwqhKhUKjgOCklLMuC4fXDMItPEF7R3sTv+v81omI+d1+/fRf+bfz/RkDW4xdSv4lH059Zd9wCH3X1XVzbr7m5GcFgcN3nIyIiIiLaqOycWpcZBAKBFcdd14UUCnyhRgjBtAXRneDfICKiMnAcB0NDQ9hx9AF0H7ir2uEArvtRV99qx0JEREREtIpIJAJX9+GeJ5+D4S39Lhui7YRbfYmIysR1XQhFhVCK+4zle56v45ve31ty36fS/xLPJ39r2X1fgAde/IHvK2ues769C0ee/hf4AAr8b74B2+9HdPduCCHg9/uhafxngIiIiIgqZ35iGNdeewXtLc3weIy8Y6SUgAAUlXNVojvFv0VEREWKzU1h+PJFtDY3westbYHhvzb/M/7G819wU7285P52Zyd2OweX3ufuxOPpzyKDNL61LFG4nO7xItjWBbuhAa6mwTZNZOrqoAgBTdMgBNf/EREREVHlZFIpRKbG0NzbC1VVV3TzjUQi8DV1oHXPwQJnIKL1YOKPiKhIyUgYYx+8gwMHDkDTtBWTlKxMJoNYPIHWnn6YdStrluTzqv63eFc7v+S+ezOPYq9zJO/4Lnc3nkt9CfPKNFrd7qKuke3qS0RERERUq+LxONp37EPLrr3VDoVoS2Dij4ioxFKpFKZn53DyM8/A46tbdawDGyPqDSREdMWxX0h9GQ9aP13wsQFZj38T//2i43K8XrhG/u0URERERETlZqUSsJIxeDyeaodCtG0w8UdEVEVzyhS+FHgCY+qH5b/WwYMAt/YSERERUZUMv38Jkx9cwq5duwCg4A4aIioddvUlIirCyJW3MXb5Avbu3btqQ4z5+XmkoOHYTz0L3Vy7DqCEhCVScOHk7quXzfg/on+No5lTJYldN7049lPPItSxE5KJPyIiIiKqEuk6kK6bt8604zgYGxvDjiMn0dV/tArREW1NTPwRERUhFQsjFZ2H3+9ftSGGZVlwIRBq6YCiqKue87r6Hv4f3/+EmAgvuV+XBg7ZJxCUjSWJXVFUhFo6oJtmSc5HRERERFRqUkqkUil4g40w64LVDodoy+BWXyKiNcyOfggnGUMwWLoJyFX1Lfyt+QL+xvNfltzf5nbjUeszMKWvZNdy7Aymh64jFYsi0NQK3ePF/Pitkp2fiIiIiGgts6MfIpOIwu/3VzsUom2FiT8iojV8+M5rMOwkurq6Vq1DYlkWVN0DrS605jl/ZHwX/6/5f664f59917oadhTDttIY+OcfIp2IYc89P4FgcwcTf0RERERUUR++8xpEMoLW1tYVc2rXdWHbNnyhBqg6m9ERlRITf0REJTI2NobmPR/D7rtLU5uPiIiIiGg7SCaTmJ4L4/inPgeziA/Riah4TPwREZWIlBIQYs3afn/g+wr+zvPfVtz/qfS/xPPJ3ypXeEREREREFZdJJfHeq2fgFQ58jflrWEspIaWEomqr1tMmovVjcw8iogJsK41rr78Kn6agvr6+4DjHcTA+Po7m3fvRvGPPmue9ob6PcWVoxf3tzk7sdg7eUczLxeamcO31V2FbaXTvP1ZUfEREREREpeK6DsKTo1Agoet6tcMh2naY+CMiKsCxMxgZeAseFasWIXZdF7Ozswi170KotbPguJRI4CXjLzGpDK84dm/mUex1jpQk7sWSkTBGBt6CY2fQsmvvqvEREREREVVaOp2Gq2ho690PReWmRKJS498qIqIKSIgoLmtv4D/4fwNzyuSK47+Q+jIetH66CpEREREREZWHnbGQCM/CMHSoav5yONFoFMJfj8MPfKLC0RFtD0z8ERFVwJv6P+Lf1n0GGWFVOxQiIiIiooqYH7uF9370PfT27oau6yu6+RJR+XGrLxFRHvPjw3j3pe9i966dCAQCBcfF43EMj43j8MefQX17d8FxhzMn8b/Gvo2QbFpyf71sxu9Fv4ujmdJ3Ah658hY+OP8ydNOLYz/17KrxERERERGVmpQSrusUbNgxOTmJuvZd2HffoxWOjGj7YOKPiCiPTDqF6MwEfF4TmlZ4cbRt20il0gg0t0P3mAXHBWUjTmQex5fi/wF7nEO5+3Vp4KB9HEGZv8PZnUjFIojPz0BRVIRaOlaNj4iIiIio0izLgurxwl/fXO1QiLYsJv6IiJaJzkwiNj2GxsZGKErpXia90o+fSf8yOp1eAECb242PW8/ClL6SXYOIiIiIqBZEZyYRnRpFfX19SefURLQ+/NtHRLTM5OAVTN94D7t3715ztZ8LAX99E4Qo/uW03d2JBrcF++y78G/iv4+ArC9F2EukYhFYyQQ03Vh3fEREREREd2py8Aomr72Drq6uFY09pJSwLAuGtw6G11+lCIm2Bzb3ICLaoJmZGWR0H+5+4jkoBbqU5fNb8a8iKBvwgfpW2WK7cvZFTH54FU3du3HsEz+7rviIiIiIiMrJcRwMDQ3h4MNPo2XX3mqHQ7SlMfFHRLRB2a5k602qaTDw6dS/QlLEyhEWAMB1HUjXhRCCST8iIiIiqjmu60IoKgS3AROVFRN/RESLDL9/CU5sDu3t7auOm56eRiQSga95Y1sT2t0dG3ocEREREVGtG37/EqzwNJqb2bSDqNqYWiciWmRq6CqcRAQNDQ2rjguHw1BMPxo7eyoUGRERERHR5jA1dBV2PIxQKLTimG3biMUTaN3dD7MuUIXoiLYXrvgjItqg1p592HX4eLXDWEK6LhLReTgZC4bXB7Nu5WSLiIiIqFwcx0Emk0EymUQsFoOu61AUBbZtIxwOIx6PI5VKwXGcaodKZZCdi6oCBZvkJZNJTM/O4eRnnoHHV1fhCIm2Hyb+iIi2ECuVwMUz30YqFsbuYw+g955T1Q6JiIiItpFEIoFkMonx8XEAgBACQohcbWQpZe6Ltp7sXLSztRmhxhb+ORPVAO1f/fTD1Y6BiKjqfH4fnvmZZ7Crsw31wcLbfG3bxs2bNxGPx3H2z/4Ul3/7f6xglGvzmh489uAD8JoenP72C7j8v/y7FWM62lrx4Ml713XeP/yd/wFjE5OlCnNbsFIJzE+NI5lMVjsUIiKqQTffeR3f+t1/h1dffbXaoZSE6zqIzUzCdYtfyWf+tz+H6Q+WMSqqtOxctKtt9dp+87Mz+O8+/xkkU+kKRUa0fWlvX/jnasdARFR1gUAADx6/C3072mEYRsFPJ6WUiMfjOHfuHC5evIjh4eEKR7q6QCCAh07eC5geTIzcQr7X+HR//7oTf4NX38eVK1dKFSYREdG2d/ntSxi89gGuX79e7VCISiY3Fy0gFothYGAAf/d3f4d3330XlmVVMDqi7YlbfYmINuDKlSs1l/QLhUI4ePAgdF3HjRs3cltsiIiIqPaMjY1VOwSikgqFQvjYxz6G1tZW6Lqed0wikcDQ0BAuXrxY4eiIti8m/oho2/N4PGhpaYHf74eqqgXHOY6DZDJZs7VK2tvb8cQTTwAAzp49u+YKPcdxYFkWkskkotForgBzLBZDJBJBIpFAOp2u2edLRERERLWjvb0dTz/9NPbt2wdN0ziHJKoRTPwR0ba3a9cufP7zn8fdd98Nj8dTcJISjUZx9erVLTGJcV0X0WgUsVgst3JRCJE7vrwANxEREREREW0+TPwR0bYnhICqqlAUZc2x8Xgc3/3udzE0NFSByMpjaGgIf/Inf7Kux0xNTZUpGiIiIiLaDsbHx/HSSy/hlVdeqXYoRNsKE39EtK3t3bsXDz/8MHp6elbd5hsOhzE5OQnHcTAyMlJznVr37t2Le++9F6lUCj/+8Y8xOVm4A28ymdzUicut4siRI9i9e3e1wyAiIiK6Y3v37sWDDz6I7u7ugnPqVCqF6elpfqBMVGHaoUOHqh0DEVHVHDp0CEePHkV7e/uq21pjsRjm5+ehaRr6+/trLvF36NChXFzxeBydnZ3o7Oysdli0iqNHj6K1tbXaYRARUZW0tLTw3wHaMg4dOoQjR46gpaUFrusumVO7rotwOIxkMommpiYwB0FUWdonP/nJasdARFQ1Ho+n6LFSSui6jkceeaTm6t5ln4fH48Gjjz4K13WrHBERERGtpq+vDw888EC1wyC6Y4qioK6uruC82nEcjI6OIhwOY9euXdi1a1eFIyTa3rjVl4ioSI7jIB6PVzsMIiIiIqKaYZomuru70dXVVe1QiCgPJv6IaNsyTRM7d+7Ezp07Vx1369YtTE9P19wqvyzTNKHrOhzHQTKZ5Go/IiKiGmCaJp555hn86Ec/wsjISLXDoW3G5/Ph2Wefhd/vX3VcPB7Hd77znZJ8uC2EqNn5MtF2xsQfEW1biqLANE34fL5VJynJZBKWZVUwsvVRFAWKoiCTycBxnGqHQ0RERABUVUVbWxtOnDiBS5cu4ebNm7ljR44cQW9vbxWjo63Otm1cvnwZhmGgv78f/f39ecdZloUnnnii6Lnu+fPnMTExUXQcqVQK4+PjiMfjnKcSVQkTf0RERXAch5MVIiIiWrfe3l64rgufz5e7jw2eqNwsy8Lrr78OAAiHw9A0DXv27FkxzjAM3HvvvUWf13VdjI6OAlhILl67dg0NDQ0FVxZaloWZmRmk02nuSiGqEib+iGhbUhQFXq8XhmEUHCOlRDKZhOM4yGQySKfTFYywOIqi5LZVcGsFFSsWi63r0/pYLFb2xLfrupiamlpXx+xYLFbGiD66Bn9WxV+DP6vycBynJp9HLf6Z1+rPqq+vD319fWW/DlE+7733HpLJJOrq6gAA9fX162pwt9hP/MRP5L6PxWL4xje+ga6uLtTX1xd8jKqqaGlpWfW86XQa8/PzG4qJiFYnvvKVr/CdIhFtK0II1NXV4ciRI2hqagKAXOJs8Vc6nca7776LdDqNVCpVc4m/7PNQFCUXI1ExstvDiyWlrMiKV1VVIYQoerzrumVfPcCfVfH4syqvWnwe/DMn2jyEEFBVFQDwuc99Dvv377/jc+ZL/Ekp4bpubj4dDocxMTGB559/Ppd4zGdgYADf+ta37jgmIlqJK/6IaNvJvhkQQqxZhLiWV9EtflNTy3FS7anVN7m1uJ2eP6vi8WdVXrX4PPhnTrR5SClh2zYA4MyZM4hGozh+/HhZrzkzMwNd1/Hss88iEAjkEo/57NmzB7/+679e1HlL2ZCEaDtg4o+IKI9kMomRkRHYtg3LsnITJSIiIiKizWxychKvvfYaxsbGYJomHnroIZimua5zTE1N4eLFi2hra1tSv3Ixy7Kg6zo6OjrWPJ/X68WuXbuKuna5G5IQbTVM/BHRtqIoCjweD9ra2lad4KRSKUxOTgJYKFxca6sHFEWBrusQQsC27ZpccUFEREREtenWrVu4desWvF4vfD4fDh8+jFAoVPTjw+Ew3n33XRw5cgS6rld0LrrehiRSA19qNgAAIABJREFUylxDkrWMjo5ibGxso6ER1SQm/ohoW1FVFYFAAPv27YNhGJt2i6yqqrnEpWVZyGQyVY6IiIiIiDabZDKJ06dPQ1VV9Pb2wuPxrNqoAwASiQRisRi8Xm/BepqWZcHj8awrmVgup06dKnhseVORs2fPMvFHWw4Tf0RERERERETb2OnTpyGEwP79+/G5z31u1bFvvvkmLl++jIMHDxaslz08PIxDhw6tmnSrBTdv3lzSVIS7aGgrYuKPiLYNwzDQ2tqK/fv3wzCMguMmJycxPDwMKSWSySTr+xERERHRlpYta3P9+nW88MILePbZZ+H3+/OOzTb2URSl4O6Z7P3r6fxdCfF4HH/5l3+JRCIBAJzr07bAxB8RbRtCCHg8HgSDQUgpC05U0uk0kskkpJRwHKfmtgNrmpbbppxOp2uu/iARERERbU7JZBLXr1/HD37wAxiGgf7+fvT391c7rDuyuLmHZVm4fv160Y1BiLYCJv6IiDYZVVWhaRpc10Umk+GWBCIiIiIqGcuy8PrrrwMA5ufnEYvFoOs6Dhw4gJGREcTj8YK1+1zXxdzcHDo6OtDW1lbJsHOWN+g4f/580c09iLYiJv6IaFtQFAWmacLr9a46Lp1OI5PJQEoJ13VrbrUfEREREVGlXL58GZcvX4bf74ff78fZs2chhMDOnTvzzpMdx8HQ0BCeeeYZ9PX1VSFiYGhoCOfOncvdnpubq0ocRLWCiT8i2hZM08Tu3bvR29u76rgbN25gdnYWjuMgHo9XKDoiIiIiotoVj8fx9a9/HaZprjmfrrYTJ07g+PHjudvf/OY3MTAwUMWIiKqLiT8i2jaEEAU7j2Vla//V6ko/0zSh6zocx0EymSzbNt/jx4/j3nvvLcu5aWM+/PBDnDlzptphEBHROj355JPYtWtXtcOgRV5//XVcuHCh2mFsOmvVvo5Go5icnMQzzzyD7u7uCka21PKGIk8++SQeffRRAAsJzO985zv8gJ+2FSb+iIgA2LaN4eFhJBIJ2LZdswV/FUWBoijIZDJlbeoRCoX4JqXGZLvPERHR5tLS0sJ/U2vM1atXqx3CppNtktfd3Y3Gxsa8Y2zbRiqVQnt7O0zTrHCEhbW2tua+tywLTzzxRG6uPzExgfPnz1crNKKKYOKPiLY0IQQ0TUNzczMCgUDBca7rYnx8HJZlwbZt2LYNIANNuw7H6YKUhR9LRERERLSVCSGg63puTl2ru2PWYhjGkl0to6Ojt+f9H91e3BiEaCtg4o+ItjQhRK6+X3Nzc1GPUZQEFGUWQiRgmj+EZZ2Cbe8AYMB183cwqwRFUXJblTfrZIuIiIiItp5s8qypqWnFVtta1tnZic9+9rO52+fOncO5c+fgui6mp6fLVlaHqJKY+CMiWkbXL0HTfnT7lgOP5yV4PAK2vQfJ5KerEpMQAn6/H4qiIJ1OI5VKVSUOIiIiIqLlJicn4fF48Nxzz0FV1WqHs2HZxiDRaBR/9Ed/hGg0Wu2QiO4YE39EtGVpmoZgMIgjR46gvr6+4LhwOIxr164hk8lAyh9AyrcBLK6ft/BJn6oOwev9DlKpJyGlt7zBLyOEyH3P1X5EREREVCmapiEQCODgwYMIBoN5x0gp8eGHH+KP//iPASw01Ojp6alkmCWRXa0YCATwS7/0S7ma2oODg2yyRpsWE39EtGVl6/uFQiHoul5wqb5t24jFYrdvTQEIFzhfCqo6jqVJQSIiIiKirSs7pw4EAtA0reCH0IlEAtPT0wCAV155Bffffz/6+/s3dM0rV65gYGBg1TH33Xcf2tvbN3T+taiqiq6urtztQCAAXddztwcGBnDlypWyXJuo1Jj4IyICAGQg5QCkzJ/0+4gNXR9AJtNfsYYfiqJA13UIIWDbNmuNEBEREVFFqKoKv9+P1tbWgrX7wuEwotFobnUcsJAYUxQFsVgMuq7jwIEDSxJni+VrqPHee+/h8uXLq8amKAo6OzsBYM1r3KmGhgbcf//9udvBYBB1dXW529euXUM4vNb7CKLqYOKPiLakbOexurq6Jdtkl7Ms63a9vCSk/D6AyBrnTcHjeQmuWw/brkziT1VVmKYJYCHeTCZTkesSERER0famaRoaGxvR19dXsMHc2NgYJiYmkE6nl9x/+fJlXL58GX6/P/eVz2uvvYZz586tO7Yf//jHue+XX8Pj8aChoWHd5yzWoUOHcOjQodzt733ve7hx4wbS6TTm5ubKdl2ijWDij4i2JMMw0NnZibvuuivXCTefsbExDA4OVjg6IiIiIqLtIR6P4+tf/3rB46WoX738Gvv378fzzz9/x+ct1tNPPw0pJQYGBvDNb36zYtclKgYTf0S0ZQkhoCjKqpOJQp9cEhERERFRaSzeBlyJa9y4cQNf+9rXcrePHz+O48ePl+3a2W3Qvb29+OIXv5i7/8KFC7hw4ULZrktUDCb+iGjbGh0dxezsLIAJSPlPAFJFP1bXLwFQYNu95QqPiIiIiKhqDMNAe3v7kiYXi9m2jZGREczPz8O27QpHt7pkMomhoaHcbSklRkdHc7fL1RjE6/Vi586dudtCiFwdQgA4f/48xsfHS35dotUw8UdEW46maWhoaEBTU9Oq42ZmZhCJRCDlHKR8Y53XuA7HaQdQ3sSfqqpQVRVSyoo29hgdHcXrr79ekWtRcZYXvSYios3h2rVriMfj1Q6DFlmcAKLCNE1DfX09mpqa8u6QcV0Xk5OTiMfjFVnRdydu3bqFW7du5W4rioKOjg4ACwnOcjUG2bFjB3bs2JG77bpubk5nWRbef/991u+msmPij4i2HMMw0NXVhZ6enk2/jVfTNHg8Hriui1QqVbHEX7YYMxEREd2ZxQ0IiLYKx3GQSCRg23ZZ59uKoqC5ublgR+FYLIZYLLbu8y5vDOLz+XJdesvZGOTUqVO57+PxOBKJRO45bOR5EBWDiT8iIiIiIiIiKlo4HMbly5cRjUbL+sG03+/HF77wBQSDwbzHX3rpJbz88st3dI14PI5vfOMbuduVagySfW5AaZ4HUSFM/BHRtpPJZHD58mXMz89XOxQiIiIiopoihIDX68X+/ftXrYNXioTfk08+iZ6enoLHVVVFMBiEqqp5jxdaCbhe1WoMkn1e9913H/bv35+7/8yZMxgcHCzLNWn7YeKPiLYMIQQ8Hg92796N1tbWguNc10U0GoVt27BtG45joQwlPe6YYRjQdR2O48CyrE2/bZmIiIiIap8QAqqqoq6uDh6PZ8Nz0P7+/iXJrHz2799ftm21G1WNxiChUAihUCh3+5FHHsHc3BwAIJVK4R/+4R+QShXfiJBoMSb+iGjLEEJA13W0t7cv+YdzsVQqhYmJidyneguJv0xNJv40TYOqqshkMrAsq9rhEBEREdEWpygKPB4P2tvbYZpm3jHxeByu6+Lo0aOrJqMOHjyIgwcPlivUilmtMYiu6zh48GDJG4MsTpgmk0nE4/Hcz3p+fh7Xrl0r6fVoa2Pij4i2hOwnk4FAAJpW+KUtFovh6tWruduKkoCU4Q1dU1ESUJQwXDd/kpGIiIiIaDPJzqf7+/thGEbe1X4zMzPQdR2f/vSnqxBh9S1vDOL3+8vaGMTr9eLpp5/O3b5x40auEcjc3BzS6XRJr0dbDxN/RLQlqKqKhoYGnDx5cl1bEnT9EjRtY4V0df0ShIghmfzMhh5PRERERESbVzwex9e//nUIIQBUpjHI7t278aUvfQkA8M1vfhMDAwNlvR5tfkz8EdGWIIRY8lVM4i+VSkGINHR9o4WJ5e2v0soWVNY0DZZl8VM8IiIiIiqpQg0rhoeHce7cuSpEtDHHjx/Hvn37qh1GjtfrLfs1sjudAOCpp57CY489VvZrLsfmI5sLE39EtG3MzMxgeHg4d9t1XQhx593ISi37j7kQAq7rlqRjGhERERFtD+3t7bjvvvtWHdPd3Y0dO3Ysue/69esIh8Po6+srWDpnbGwMDQ0N2Lt3b8nivRPLm2JsNy0tLVW57iOPPIKzZ8/iypUrVbk+rQ8Tf0S06WW7jnV2duY+/conHA5jenq6gpEREREREZWOrus4cOAADMMoOKajowP333//us89OjqKkZERHDt2DFLKvDtoZmdn0dbWhr6+vnWfn7aO/fv3Y3h4mIm/TYKJPyLa9DRNQ0tLCw4dOlRwkrKc67qQUuJ2OY6aIYSAoii51X7F1iokIiIios2voaEBHo+n4PG6ujr8zM/8DPx+fwWjIqLNjIk/Itp2pJSIx+NwXRerfFhaFaqq5iZyyWQSmUymyhERERERUaU8/fTT2L9/f8Hj2Q+JiYiKxcQfEW0LH3zwAcbHxwFgySq6TOYoAAMez4/Wfc5M5ggsa/X6Keslam0JIhERERGVRKGGGou1tLSsWrqmXF5++WVEIhH09/fnPZ7JZDAwMIB77rmnppppENHamPgjok3NMAx0d3ejp6dn1XHxeBypVGrF/VIG4LqNG7q26278sURERES0tZimiYcffhimaeY9vmPHDnR3d1c4quLMzMxASgmfz5e31IzruohGowiFQggEAlWIkIg2iok/ItrUNE1DU1MT2tra8k5SHMfB5ORkLunnui4ymUxN1s5TVRWqqkJKCdu22c2XiIiIaBMRQkDXdei6nvf4+Ph4bgdKVmdnJzo7OysRHhFtU0z8EdGmpSgK/H7/qgWQbdvGwMAA0uk0gIVEYL6Vf7VA0zR4PB64rotUKsXEHxEREdEmkkwmcfr06XU95uTJkzh58mRRYz0eDxoaGjYSWkGu62J2djb3AXQ+tm0jlUqhqalp1W7C1RCLxRCLxaodxrbEn/vmwcQfEW1KQgj4/X4cO3YM7e3t1Q6HiIiIiGjdzp8/jwsXLhQ1dv/+/Xj++edLev1EIoFvf/vb6OvrQ0tLS95dMeFwGDdv3sQv/uIv1tw23/Pnz+Pll1+udhjbEhcpbB5M/BHRppRtgsFmGERERES0WUkp4ThOUWNv3LiBr33ta0WN9fl8+OxnPwu/37/m2LUSOFJKSCmhKErNzb3X8/Mj2q6Y+COiLSsajeLmzZuwbRvAwjYFy7KqHFV+hmFA13U4jgPLsmqyBiERERERVU8ymcTQ0FBRYw3DwJkzZ1bdmqsoCgzDwK5duwqu5JuZmUEmk8EjjzyyankdIqpdTPwR0aajKApM08SOHTvg9XoLjksmkxgZGcndtm07lwRczHWDsO0DUNVrECJTVAyO0wPXbVt/8AVomgZVVZHJZGoiOclC07Vnfn4e165dq3YYRES0Tn19faivr692GLTI6OgoRkdHqx1GWVmWhTfeeGPVMbquo6GhAadOnYJhGHk/eI5EIojFYtixYwfeeuut3P319fXo6+sredxEVHpM/BHRpqOqKgKBAA4fPgyPx3PHq+NctxWp1GPw+28BKC7xZ1n3wLa37mTn4MGDePzxx6sdBi3y/vvvM/FHRLQJnTp1CgcOHKh2GLTIiy++uOUTf6U0Ojq6Yg6ye/fuorYRAwtz96ampoLNQ4iovJj4IyIiIiIiIqKiDQ4O4g//8A+LGhsIBPDFL34RwWCwzFERUT5M/BHRljQ8PIwbN27kbv+g5QcIRAM4PHG4ilGtJISAz+eDqqqwLAvpdLraIRERERHRFmcYBtrb23H48OGCdQCvXbuGoaEhpFKpFcfW01QjGo3ihRdeKHrF35NPPomenp6ixhLR2pj4I6JNRdM0NDc348CBA9B1veC4VCqFeDyeuz1lTOFa8zWMm+PwOB7cN3YfPM7iAsUepNMPwTAuQFGmCp5XSg8s6z64bkspng6EELkOaa7rrtlVjYiIiIjoTgkhYJomQqEQXNfNWzonHo8jmUze8fzUcZwldbfX8sorr6ChoaGosbdu3dpoWETbBhN/RLSpqKqKUCiEXbt2FZykTE9PYyA9gJu+m+hLfFSHb8w/hjH/GDyOB17bi/7ZfgSthS0HUurIZA5D0z5YNfEHLIyTsq7UT42IiIiIaNsbGBiodghEW4pS7QCIiEptcHAQr0dex0DdABzhYNKYRFr5aAttWk3j5Z0vY9I3ueKxrhuClPkLFUvpges2o1QvnctX+91pkxIiIiIiorUoigKv1wuv15v3uJQS8XgcmUyG81OiLYAr/ohoSzoxfwIAENNi+Eb3NxDRI0U9Lp3+OAAThvHjFcccpxvJ5GdQqsSfqqq5bmjJZBKZTHEdhYmIiIiINso0TfT19WHfvn15j1uWhTfffBOzs7OcnxJtAUz8EdGmYZom9u3bh/7+/jXHCggAgISEFBISKz+t/NHOHyGhJ3Bk6siSR1rWUdh2L4RIwjS/D8s6CcfphpQmSrlQWghRsnMRERERERVLCAEhRMEVfVzpR7R1MPFHRJuGoijw+XwIBAJ5JyOZTAbXrl3Di8qLMPwG+uOrJwhnzVlEjJUrAaUMwHECECKDdPpROM5OuG6oZM+DiIiIiKjShBDweDzo7e1Fa2trtcMhogphjT8iqnlCCOi6jo6OjlU7fDmOg+HhYURTUbjCRVgL4+3A27AUa0PXzTb8KEfST1VVaJoGKSUymQy7+RIRERFR2WXn1PX19XmPp1IpjI+PI5VKcX5KtEVwxR8R1TwhBEzTRH9/P9rb29cc/8DcAwCAgboBnGk9s+rYhJ5A2BNGKF3ZFX2apsEwDLiuy4kVEREREdWEWCyGgYEBxONxzk+Jtgiu+COibe1S6yW8tPOlaodBREREREREVHJc8UdEW8Ls7CzOXT6Hb7R8Aw9OP4ieZE9Rj8s2/6ClLly4gCtXrlQ7DFokmUxWOwQiItqA73//+3j55ZerHQYtEomsrPG81WmahmAwiHvvvXfV0jlEtPUw8UdENU1VVfj9fhw+fBihUOHtuJlMBon5BA45hxCyQ7jiv4Lz9ecrGGnxDMOArutwHAeWZdVk17RwOIxwOFztMIiIiDa96enpaodAlKuZXV9fnys3s9z09DQGBweRTqdrcn5KRBvDrb5EVNOynXx7enrg8/nyjolEIpiYmIBIC9w1fxcaMg0YNodxxV+bK9Y0TYOqqnBdt2YTf0RERES0vYTDYUxMTHB+SrTFMPFHRJve2NgYrl69ilQqxUkKEREREdEiQggYhoFAIAAhRN4xyWSSc2miLYpbfYmIiIiIiIi2KMMw0N3djfvuuw8A8ib3BgYGMDQ0hFQqVenwiKjMtN/4jd+odgyb3muvvYYLFy5UO4yiPfXUU+jpKa7xAVUGf4fyu3TpEkZHR3HPPffA4/GsOlbTNPh8PiiKgjMtZ/B28O2ir9PT04Pf+ETlXgtfeeUVDA8PY/fu3XjkkUdKcs7N9jtEREREtBn09PTgqaeeqnYYd+Ttt9/G5OQkhBAFV/RJKXH8+HEcOXKkwtGtXzwex1/8xV8gHo9XO5SibIXfoa1mu/0OaTt27ChhONvTZut82dzcDP651xb+DuU3ODiI2dlZNDQ0QEqZd6IyODiIQCCAe+65BxcvXgQATBvTiGjFd2u7Zl3Df4z8R3xl31cQ0gs3ELlT6XQaZ8+eRTQaxZ49e3DPPfeU7Oe42X6HiIiIiDYDr9e76d87DQ4OYnJycs1xwWBwUzzXSCQCVVWrHUbRtsLv0Faz3X6HWOOPiDa1iYkJmKaJPXv2bPgcg4lBvPDhC4g75f3EJ5PJ4J133kE4HEZHR8cdxUxEREREtJabN28inU6jtbU173HHcTA2Nob29na0t7dXODoiqgQm/oioJs3Pz8NxHPj9/jXHxuPxhfHCwYRnAmklXYEIiYiIiIhq2+uvv57bbZJPJpPBwMAA+vv7sXfv3gpHR0SVwOYeRFSTXnrpJRiGgbvuumvNsZcuXQIAJNQE/rTrTxHRi9/mS0RERERERLRVMfFHRDXJdV0AKFiEOJ1O44033sCxY8cwNjaGt956CxISUkhI5C9aXE23bt3CD3/4QySTSTz22GM4ePBgtUMiIiIioi0qmUzi9OnTaGhoQHNzc7XDIaIqYuKPiGpKtgFGfX09GhsbC46TUmJ+fh6BQACxWKyCEW5MOp3GxMQEAKCpqQmBQKDKERERERHRVuU4DsbHx9HS0gLTNPOOiUQiGBkZwalTp9DS0lLhCImoUljjj4hqSrYBhs/nK5j4SyQSGB8fR39/P2ZmZjAxMYFgMIiDBw9C09f/ecZO3078/I6fh0/13Wn4RERERESbQjKZxMTEBA4ePIhQKFTtcIioTJj4I6JNJxwO44MPPsBDDz2EoaEhXL16Fa2trfj4xz8O05P/E83VHA0dxe8d/j3U6/VliPaj5iOKoqC5uRmGYZTlOkRERERE6XQaMzMzqKurg67r1Q6HiKqMW32JiMrszTffxD/90z/B7/fjueeeQzAYrHZIRERERLRF3bp1C6dPn8Zjjz0Gj8eTt142EW0fTPwRUc24desWXn31VZw4cWLV+n6bjZQyN+FSFC60JiIiIqLyys49CzXKu3XrFtLpNH7u534OXq+30uERUQXxHSgR1Yx0Oo2pqSmEQqGC2xLGx8cRjUZx//334+zZs5iamsKePXtw9913VzhaIiIiIqLNKZlMwrZttLW1QVXVaodDRGWkXbhwodoxbHqjo6PVDmFdrl69uim6oG4n/B1aMD09veaYubk5TE1Nob6+Hu+88w7S6TSampowOzuL6alpZDKZdV93fn4e5Xot1DQNExMTcF0XiUQCly5dgsfjKfl1NtvvEBEREdFmUM55YjmoqopkMomdO3dC0/Jv8JuamsLc3Bxs295Uzy0rlUrBsqxqh1G0zfY7tB1st98h8ZWvfIUb/omo6oQQ8Pv96OrqwqlTp2AYRm6LbPYrFothYGAAV65cQTqdht/vh6IoSKVSSKfTiOkxvPCxFxDT15eU7Jvvw89+8LNleV4+nw+6riOTySCRSJTlGkREREREAODxeNDb24tTp07l5tCu6wL4qPzM+fPnMTg4iHQ6XeVoiagSWOOPiGqCYRjYuXMnHn74YQDIW4vkrbfews2bN5FKpVgrj4iIiIiIiGgNTPwRUU0pVIA4S0oJTdNgmmZutV92e6/X9uLZK8/ixV0vYjgwXNT1jk4dxYmxEyWJfSs5ceIEjh8/Xu0waJHBwUF8//vfr3YYRES0Tk899RR6enqqHQYtcuHCBbz22mvVDqPkTNNEf38/Dhw4UO1QiKiGMPFHRFVnGAZ6enqwb9++osYLIXJFiF3XzW1fUKWKtkQbTMcs+tp1Vh0aU6XvICyEgMfjgaqqsG17U9WQAIBgMIgdO3ZUOwxahLVZiYg2p+bmZv6bWmOuXLlS7RDKQlEU+P1+BAKBvB+kZzIZfPDBB5ienoZt21WIkIiqgYk/Iqo6TdPQ2tqKrq6uvJMUx3EwMjKCSCSSS/LVOiEEdF2HoiiwLIuTKyIiIiKqKsdxcOvWLUQiETiOs+TYxMQ4diXT6HeBdCoNVdOQfthCquUgMtZBuI4D5/YH7rnZupSABCCWXSh3n4AQC3cIIaAoKhRFg6aPwyNfhfZ9Dc59GRgRA74BE66m4XJHKzLsMkxUUkz8EVHNsywLb731FmZmZmDbNnRdB7AwecmXKAylQ/Bn/Ijr8VXPW5+uR12mriwxExERERFViqqqCAQCMM21d75o/joILNTLzubsZm5+iKOzYdyfASJzYXi8Psx/LIL5jz2IeOTjsK00MnYGtuPAlQCkgHSdXJJPfpQOhJBi4cRCQAgBoUgIoUDTdGi6Ca//IoL2/8/encfYdd0Hnv+ec9e3114sFotkcdNO7UtkObZlybJjZ0WCdHc6jSQNzCD/DDAY9Mz8McAAGWA6DQwwwGQwa3oCJJmkYyeY7p6Js9iWLMeWrJWWRYqLuC+1L6/eerdzzvxxXxWLVHGRxGKRyvlApMhX993tUdSp3/0tf0bxjwvE93aoXigx/A/9pIUCF/bXaPt+b5/5bmSv2qe+XKfdbFAr3nx1j2VZNvBnWdZdxvd9wjBEa02n09kwA/DL575MmIX8aPxH193X8+efZ9/yvs06VcuyLMuyLMvadFJKisUiTz75JGNjYzfcfuDhp3FHtiOkxFV51t72L/08CMHfIxHK4PseqYnQ5w3QwBiDlLIXjFvN9HPWAnSgQaxGAS8P4TNGYJREY9BZhoxbyPY+pvi/kf9GgBCYEYN52CCMQ78jGTIa5RiUNLjaUHAd+vv6+da/+xavv/Yuv/T0g5tyHy3rs8oG/izL2jJCCIrFIk8//fQtbXotPlJvcI3tjLjpbT+Oaw0fsSzLsizLsqxb4XM/+IDJF36W4sE9pP/LH/I3n38qz667xqC8xcVF3j96FP+hx3BLfThZRmtpkVPvvc/UubN4UuK5Dsheea5SiEzjCAdtDJ24S6lYREgBWrN2CAPIy+tpIQTSSBzp5L240QjXIVUKISUZmnYc00li9txzgAcef5LqwDCZMGRKgdAoAZkALQxCQJIa5ut1Dj71OJP37KVaKlJ2S8zPLZCpjMD3EeLyOWihERLKzQaP/Ov/jrcef4jpHeOb+4FY1h3MBv4sy9oyea8PSa1Wo1gsbrhIWVlZ4ejRozSbTZRSSCk32NNH7avvo+N1ODRy6CNfC1TAM1PPMNwd/tTXsJFrDR+xLMuyLMuyrE9qfqXJieklfvU3fx297QAzOydwRwYxX/kGyjSv+940TVmYX2Bmto4jPSSCuN1mfnqGlYV5PMelUCoQFIK8R3WUYJIMkym0zvv7JSsrIKHa10+11t/bs4F1QTcM6Dih2Vgm0xkG6CYJWZLiui5GQKIUmcqYO/EhTqtDWCyhDWTaIKRECUFQKzM8Ps7OiV0kaGKlKFVrlKo1NCBlQFm6dFotlNaEYYHMzc+j4Elku8nKmeOcOLCHVqWyKZ+HZd0tbODPsqw7WqfT4cyZM3S7XaSUOE7+9DBN0ysChY2+Bhd3X2T/kf14qce29jakkSiRNy4+WztLIS2sTf0RlzrFAAAgAElEQVR9dO5RAhVs1WVZlmVZlmVZ1nU5XsqO+0/T6jxKnI7RabQpBktU997P8j0Oc2mG6nQx9+xjPG1QLBavv0OtUY0WSrhkSUoURXiux9DIGNVqlWKlCBJazRZhyaXbqBO3m5BpfNcn0xojwC+UKA8MAVzOMFw35CONIvxaFeFKjIB2t0tjsY5E4kiZl/cag9GaxakZCoWAcrmMEJJLl6boxDHFaplkfh65tEKEYWDXboJyGa01QgpSneIXPJQJyNIMr+DSbTbJGnUGRoYouJqLcxdZue/A5n5IlnUXsIE/y7K2hBAC13Xp7+9fG9ZxtSiKaDab+fQwY/B9H8/zSNN8obLe3Ngcr/zcK+w8vRMvzfc30hnha2e+BsD3dn2Pwe4gj8w9sunXtZqVeK3hI5ZlWZZlWZa1njaGehQxNDRMEBTyLLZSh3uen2Z6/hdodp5gUDociDPmZxYRGCQa01jAnTrLwy+9RBiGG6494zgmjmMGBgbYdv8eMg0r9RWaKw2MVhSLRUZHR/EDl+X6EufPXEA7RbqdCEULIVjbrxQCRwgcVgdvSLTRGEzeQkcKCAvs2TVBqVxEGUWSJlw6dwmdGqQQGAEKcISkm0TU+qqMDA+DgcVGi0yvoLtdZk9+yPTR46Ra88iXX2T0wH6cMETo1YNLiuUy0pEgoD23QDI9h+9KagNl+vr6EELieS6dTodWq3UbP1HLunPYwJ9lWVvCcRwGBgZ48cUXr1nme+rUKQ4dOkS7ff3pvDfj+XPPf+p93IybGT5iWZZlWZZlWetFWca3Txznd7/4NSb3P0Cj20UYxbHTv4wQDq50MVHM8rnT/Og//r9Ikw/ZqFUKPP7Q/uvu+8yZMywuLvDMU4+jkSwsLNB1PMTgIK7nsb03EKQdxYz4Vca87bxzep6o2yKNY3wpMMJgBKBSxgZCHr7n2kNEDIaR4RqFYpEoilhc7LJt8nKGoEKSGJewUqUbJbQ6EUv1FaZnFyj3DVMbGsWREqMVWafB9LkzvP+9vyeO2ux55hmU0mttdQC00ghgYOcOzI7tTJ06zvKJk7z4wku4jsv28W28/c7bvPrqq5/6c7Ksu5EN/FmWtSVWmw+vb8R7NWPMLcuY24whHpZlWZZlWZb1aRz88CzjXoH3f+u3+O3Pf52+Hdtp6xRtNI426JUVjr97iPr8LFJpTJphjGB0fAd+oYgn1U0eSYCQLM4vkMQxAvA8j3K5jDEGz/PQqksURXmGH/mDesdx8im+a/JfX2sJ7zgOQ0NDvf0pVJZhtL5ize+gKYgE0V5grG8Ab2iQdrvI9jJoA9IvcH62zqXZZdywhsGBTHHqJ+/RiGIOfv5zgIQN1vdCSkZ27SWZLfK9V1/ncz/7FM1uxLFjJ3n//aM89NB9N3m/LOuzwwb+LMu64wkhCIIAx3HIsowkSa74+ql7T3HomUPEYcyrX32Vp37wFMMzmzO4w7Isy7Isy7I+qfl6mxNTdX7+V7+BF5ZQOx9gWToEAyNMCAcVd7l07BgLZ8/hqhSVpkxduIjjONSqNWQx5IlduxnsrxHHHTwHHnngwDVb56xK05R6fYU4jtFaI6XE932KxSKO49BsNmm3W3m1ihDA5Yf0gsulvmmSkqXZdY/l+z4A3W6Xdrv9kQf5BhBSUKlUKBcDVJohVUy1EObHdTy29xXQaZe5epfq8Cjt5UXiZpOl06c4Wa0w+dBBPM/f8PiiWMQZGUU1mrx16CiPPuywZ/9+fj7wmdi1g3K5zLvvvsvs7OzNfGSWddezgT/Lsm47x3Go1WpMTk7iuhv/NTQzM8PCwgJZliGEwPO8fMJYkpBlVy42pndMc/qe0wAcfuww97x/z5YE/lzXvebwkbvNpUuXeOutt7b6NKx1pqent/oULMuyrE/gww8/tL3F7jCXLl267cfcPT1HNjpCd/ceyn6b6t778MMiyaThwkqdSz95D08YdBQzc+Y8yzMzVEo+2hiGB2oMDg1Rq/YhHcmObUP4EhbnY4LAY3Jy8pqVMrOzs0RRRBiGtFqttd7ZnudRKBSQUtLpdGg0GsRJCgg0As1qsG/9PgWFQoEg2Djg5jjOFQNG0jQljmOMMR+p8hHCoViu4Lou3XaHbqcL9FINVUpfwYGhcm/rYYwxRCtLJCsrXPzpYQphkaHduwlLRcRVl50ZjSkWqU5OMn/8BMfPTrF3YpTP75/ENTA0PMRrr73GysoKtVrtY36SlnX3sYE/y7JuO9d12bZtG08++eQ1FyknTpzg7NmzJEmyNizjTne94SN3m6NHj3L06NGtPg3LsizLuuu99tprW30K1hYJsoy+OKa5bTv3fniReN8g7pdf4CGnAEbTqC/iRhHL585z6O+/gyuhGJZxPJ/+oSHGd42TxW327d5BtVQArfCkxJiMNE3xPIdyuXzdczh16hRZljE8PLwW9HMch0KhQBiGpGnK/Pw8oIG8b54xecktmF6Z72rQTjC+fYzBwYENj+X7PgMDAxhj1o61UdDPkRLfc3HIh+Fl2pB3xTYgDAaQEvrLBQpBASObuFIwl0Y05udgfoHTr/+YYl8fhUoZofSVxchKgwC3XGbi8ce48PYhjISgHFLSinq9TrPVpNFo4Dg3voeWdbezgT/LsizLsizLsizLusV2Ly3yyydP8fe/8Bscf+GXkEh8I8m0Jsi6fPD9l5k7fRpXKUqeQxeX2o5xhgarbOsrs3dsG0rHefDNpHn8zWhAMjs7y+TkJA899NBNVZmsBuFWg4ClUoksy4jjGCEEWkOeOidAgJQOruuQCdk7Zm5s+3YGBjYO/K2WBq8e61rn5bou5XIZKSWLi4t0u92PbKN7oYqyl/HEPTs5cvIiM2dP0Wi16O8LaM/PUlGaiuvSMglcPU/PgDAGBYw+9ADnjxxm5pUf8XMv/SyLjRV+53f+JX/+Z3/K3/3d3/Lcc1+44f2zrLuZDfxZlnVbhWHIgw8+yMGDB29qe9d1CcMQKSVRFJGm6RVff/nrL3P0YZuZZlmWZVmWZd0ZXjh0mOyRJ5j+td/me52IZqWKEBA1V1g+f4FLR4+TRS0aK00EHl61xraxbdy/bzeBC1JoPFeiTYIUYIzAXDXI4kbBvjiOefPNN9eCbJCX4o6OjuL7PlmWEUURzWYz7+uHQBiNkC54JWABrTKM0Vw+lKZSKVEoFDDq8ppcCEG5XKZarWKMwXVd6vU6nU5nw0F+Usq1MmOlFHpt+Idcy9yTebFx/nPcYPfYEFNDg0ydO0vU7hAUAt78zt9yX/tn2PnwI7TjDIQGs1opdPn+CM9lbN9eWtNTfPvv/oFvfPkLdKOIzz33HEYIvvWtb/LlL32ZMCzc5CdsWXcXG/izLOu2klJSKpXWFgZXS9OUw4cPMzc3R5ZlSClxnLzsQGvdW5hctjy0TKu6tX1zbjR8xLIsy7Isy/psG11p8uj0PId/4RdpbtuD2j5OOrKNBW0wUZfZo8dYnp6itbxEc36RTCuqfVWGR4YYHuynUi4x0l9B6AStMxSCTqqZXW4yXC1SCjxWg1k3m+G3srLC0NDQWk9tY8wV/Sa11h/pnW2MQa3bvVIKY1hbj5teCfB6q8NCVo8jhFgL6F2tUChQqVQQQhBF0dp7pZRobTD0sgUBR7q4jkuj0eD8pQt0Wk1q1RpG58doLixw+t1DGG2YePhhutnG90Ug8EplStu2o5C8/Pb7jJU9xof7eeKJJ2m327zx4zfYv28/g4ODN7y3lnW3sYE/y7LuKFmWcebMGVZWVlBKfaz+fl7qsf/Ifqr16iae4UfdaPiIZVmWZVmW9dkV9g3S37+NPr+f2uS9zJZLICBpNlm6cAk36nLuJz9hZWEe4Uik62Mch6BapdLXT6FYRmnDzGKdvpJH4EpAkCqYXe7gCAeBIPQEUgoajQbDw8PXLLm9lvWBPyHEhutsrTVxkuSd/YQgyzKM0hQKBcBgtMZoc8X2xUKBwPfzrxtDq9UkzVJEr2wYo3qdAgW+7xEGAcZokiRlqd5gYWmZpFdyTK9UWBiBI12kdKiv1LlwcYZWp0tQKJBmikQppOOQaTCZwnccokxj+GjwTwBGSPxKlf6gyJkjh2lNr1BfWWF8ZJCf+9o3aCwtMz0zy6WpS1SrVXbv2v2x7q1l3cls4M+yrNvGcRyq1eoV077WS5KEer2eLzB6jYBXFyT508Z1iwxHszS0RBzGa68F3YAvfftLlBu2Qa9lWZZlWZZ167WTBNGNGFeaaOdOlOtS23MAvede3jQCkWlaKw1EGtOZmeX0G29RKxZotNqYUplitYLjB2RG4PYNshTDQmMZHEGlGBB4NXzXRQC+hFIYUu8kuI4grBWQAubn53nuuecYHx+/ZgVNo9FYezC93vrfb/jeLKPRTNDagAGte4M68jewWnRseu/PsoxKtUKpVEQI0BouTl2i1exgNEgpwKQYBMIIojil3YkQQtDpJhw/fYETJ0+zvLSM43mEhQKVcoXA9cDkE3pTrXG8kMJAES0FvpCIboQMQyYefZQ9Bw+S6ss9DIUQaxmKq0TvZ8f32f/oI5w9/FOOXTxPo5PwhWd38uu/8Zv89//69/nhD3/IjvFtNvBnfabYwJ9lWbeFlJJiscjnPvc5JiYmNtxmfn6el19+mVarhdaaIAgIwxCtNZ1O54pygU6pwzd/55s0a83bdQmWZVmWZVnWP3LvzUzjvXeEf7nc5YN/+4c0BgZQwiVGAhqtO3z44x/SPn+RopDUqmUmDj6I12xSGByib3Q7UTei4BcIpGDx/AUWzp/Hd+G+PeMUhQKjwIDnGB69bw+Hjp0mwSWs9kN847Xv/Pw8b7zxBrt3714rv71ZUTdiemqGlABtDMViEUfm7WykMUAKZHkgLR/Ci9JghIMf+gghuXB+hrfe+QnNZhvPC5BCghRkvaW8lA5CuiRJgnQExpGYoEQjjvFHajz20ouMTEyQGFBGYByB0hojBEiBFgaZGdDgOi5tY8iimCzL6HQ6+L5/jUQDgzSgpGDi/vtxHnwQX7oca3d45a9fpTZ5L3sWlknqSx/rnlnWnc4G/izLuq02avC76nrTvzbcXtz8tpvlRsNHLMuyLMuyrLtHsQi/9MsG5398n/ODT3L+pa+SaIPGoDPNS2mG94sJx1JNtzYEUuIiWJ6e4oPXX6OEQWYpaM1icwUviYnOnsUrVilrB1dBwfORwqCQCASBlFR8lyDrINw8U00CUhgcFRF6Llq4ZMJnsNZ/U61wPs6aej2tNVma4QSFdeNEDHnMzeXtNw9zyDuGFuQBPQGeG/bKevPBHq2VJt0YlAwIa4Psffgg99z/AFGa0Ulj0rxpIEYIJCC0QfV6eXu+T6GvRmScfFBvL71Qrn4PoQ0OAvDQUqMwCPRa651yuYzjOL2egR/tMaiFQRoBIg+FpEajQ4/Hv/oCUZSx79nPE8+ch4VLwLW/b7Gsu4kN/FmW9ZkwPDPM0z94miAKbutx15cSbDR8xLIsy7Isy7rzjI7CE/cmZP/bCc594SvUJybQSuMGkks+uJ/fQ7uwA7dvENEbNmG0oSgEEkmT/CF06DnMnz3Hhfd/SjI/R7PVynvPpXnwr+C5JFohDWRIMukgjASjOfKTt8jqTbZXa2wbquBKjUASJYpGO2K5FSO9NhTKuMUS8ytN2vESBw8epL+//4bXaAxoJKI3PANjWFlqMDs3x/LSMlEc4XgeSIkjHcAQRRFLK12Mu4yOYoQBbUBIh8wYFlsdYqPxy2V27t7N9okdGOGQZorM5P25B6THuDYoo/HCAgPbtuEPDSG1wlMKZQz0+vmtZg7mU0PMWpKAuuJC4KNBuHVzjs3l5ALXdWm326RpSn9fHxgwArRIKM/OsOutDxDCxaDQxmCMRDgORhgWkhUaJiPqtHGmL7F32x6KP/sUzvbhT/aH7DPu6NGjHDt2bKtPw7oJNvBnWdamk1JSKBTYt28fpVJpw22Wlpa4dOkSaZpiTP600HEctNZrr61q9DU4dvAYqX85u662XOOBdx/Y9GuxLMuyLMuy7h7bm02GSkusPJ7SbDxPpkKMEFS2CSp7I/RuQ23yHszEzryntHQ42wT54H15FltvDSoAIfPgUp7/l0ujiJXpKZYvnENHEZ12G63zDLRSqUQhDJmbnyeZnmNhYY7y+X6kNkijidstfOGTaYhTzdRiF+kFRLFipR3RihXFSsBwqUixVCRtLDM3N8cTTzxBoVDYMKtveXmZ8xcuMju3hNIOjhuAlCAlUghaiyvMzM4yv7BAK+qgPY9UaYaGh+nr66dY6md0YAxtQJkxjMgHY2gpyIxBG02mDWGpws7JXYxPTKCFJNMKZfL7IqWX36d159dJk7Vfr2XvrT9/sfbTNVz5NSF6vQY3CAqKdccwIi/v1ULgJSk7Ll7En1vKpycbgTYu0nFRRlNTdVZCj2RwiML993PPzvtw+0cpTOyisH3kOuf2j1Oz2bSBv7uEDfxZlrXpVod6PPPMMxQKhQ2z4i5evMgHH3xAFEUA+L6P53mkabr22qq5sTle+blXbsu5W5ZlWZZlWXcuKWFoCLjYIgmqxP39KKXXssn2dLrcX1nh3IsdLp1/nCjpQwuJkpLXmwrnnz+PowGV96nDgIv5yHTY1dDS5dfz6bONRgMkFMtlphaX10pOMQYpJQKYO32a5foyRis8R4KBNFV8/Zd/lUKpj/mZeVr1ZdKkixsUMDgIIaiWAqoFF9VZAaEoe5Kwr++6pb5TU1N8cOxD5juK+QuzOMLLA1wYXNchAHRQoLJtDE+ltDGoKGJgz152793PyPZxKrUqmVZ0swRNHvjLDCAFBnAMODq/I5HOM+rAQfSKcD9pmfGNaAxZmtKNIlzHxRiD7/v4vn/FcWu1GlJKkiTBCJBGIwjI+sdoPHGQ8rvvU2y3KHRjZFch0hQjDCWnxKhTINu2C/HiF4jLNRrvn6CUpgjfIxy6cZalZd2JbODPsizLsizLsizLuisVi/Ab/1wj//N3Ob37q5z6xq/QWGpA4CPRTBuHGeNgTublpQYNaBwjcIWDRqMleUloL6hntEEIAwhWk9NWY215axdA5MG5cv8AfQMDVIZGWVj5NjJu01eqkKUZcZoQRRGjtQH2bd+J40hSpUgzxfz8IsfeeofAc5EiDyJqY1CZxpESx3GYNZrjWYoGdoyP8DPPPMqLL754w77YQzt3ceAXP0dHZWA0AoEQ+Y/VLLur350n3AkUUE962XkmLxGWQoDRsO7Z/Ua9ts0tbom3ujshBEoYEpUyvTDD4SNHCLwQiWRy9272TE7iOpJEqd4AksukEWTCQRhNp1TknSeeQjz6NNunznLP628x9t5xUi3J3AxHSQrtLrzzPtk7hzlVLLP3v/gtugvLnP2rv+Pe//Sf3NoLtKzbxAb+LMvaVL7vs2vXLp577jnCMNyUYzz85sM8/YOnN2Xf1+P7PkEQYIyh0+mglLrxmyzLsizLsqxP5esffIB57ElOfOkloizjtSkB//QrdMIa3RhEUMB1HFSaB808V+AHAb1mcr3YlwahkdLF5JG8PDBoen3mTB4oM8aQplleBmwAJELC+vJSZaCybYxnf+VXIYlozE6zcPYs6fQUcaOJUBmdTov8qAaDpFAskBmItcEPA0a3j/Dgg49RGxgA1yFWGZFWpCIfX8HcJYC1c7oejSFC5wE74VxZCNuLZN5MjE5KmQcktV573+1mTN538Dt/+9ecPXsGZfKe2irTeJ7HifcOIYzBD3x+/Td/i3KpihDOhqcrDbjK0PQF57aPMf3Cl+nfOcm+H/6AWqtBQQlcnQdHHQnb0ibBH/4FP33mWWa/9Dz33v7Lt6xbwgb+LMvaVEIIwjBkcHDwmk8njx8/ztmzZ0mSBCEEQRDgOA5ZlpEkyRXbnrr3FIeeOXTFa+VGmf6F2596L4RYmximtd60sgbLsizLsqx/zKamppBhgS/80q+w2E2oT+yD0W0UazXGCkUmqhUYyTP2BBqRpXiuS0fBTDdiMYnJZ1cIVkt0lYIs00iR5/nl82V72X69DECgl4kHZl06m7j85TyUKAwycKmNDKLjFK9cojA8ynCriU4SDORZhb33CuGgAKXyIKTnuZQrJaojwwTFIkJKHGNwBfnUWgNxpwlJ67r36eTJkywkmnDHHjDmpoJ717MaZDRs3XxbIQSu67L/wH0Mj4whXAff91FKIYWD0YosS5GOzEus0SRJtPbe9QyQCZBGkXgB0UiBrFTA7y/ir6ywa3qe6tlpnPlFHKEJjCCZneLosROc27WLf3bA9vmz7k428GdZ1pabmppidnaWLMuQMv+ftpSSC8MXWHaXmTwxubbt9I5pTt9zegvP1rIsy7Isy7pd+rdvh0KRQqnCo488wWyziXfwERw0w45kqFxmrFYEnQ9xAIjTjPlmEyldhNPL2suyfJou9AJ/mizLMwDzfoB51p8xht6s2d7cWLNWBrvq6ke9a4ExAUhJodZHODCYf7E36GN1HIjsZRbq3iRb2Qs5CgyKjEgbMKp3PIkEsoVZ+jyH8eHx696r6elpGkGV4uBor3T5xtZvc3Vwb/Uht9niqhbXdTlw3/2AQEiJcPIJxb1Ry+s6MhowmiSJUUpTLBav2I8W+ZAPVxtOnDiKXyywY3yc6QP3kLbbHK+/zuj2YbbvncTXCldmVE6fZWBmBuf4h/DSY7f/4i3rFrCBP8uyNo2UknK5TLVa3fDrWmvq9TpRFG2YLXfyvpOcGzp3ReDvan2LfZSb5Vt2zjdLSnlF+YPN9rMsy7Isy7o10jSlG0dsGxvj3kcfo9Y3QEm47A4CdsiMsFDC9dw8ew5BahSdKCZToITLsjIcmloglk7enE/3stZEPlhjbd0mLg/JWAscifUDPDbuh7eeAEQvG1AIgXB7/14/zM4YnPVHuur3vfAjAmf9FJG1fnWd86fZtmOU++6774ZrztV93YwkTWlHXRxHYrQh8H1CP1j7uuM4lytbbnKft9IVQUnRe8UoTPbRQOT6fMwkzcjS9COBvzw7E6SRHD/8PpVSiX4vJPUCkjTh1dlZxvbt5YkvfhE3NdREix3feYPHphcYqHibco2WdTvYwJ9lWZsmDEMefvhhHnts46djURTx3e9+l4WFBdI0/UTH+PJff5l9R/d9mtP8RMIwxPM8siyj3W7f9uNblmVZlmV9Vi0sLvL+8eP817/3ezx9zwMsLM4ztzRPNFhjoFRES5dMGzQa4boIL+TQqSmmWhGZ65HoDFd4OLo3k6KXrbeZD2qNMWRZhuve2d9ir29Ts7C4wLs/fY9qpUKapuye2MneyT1A716tDgS5y3Q6HaJul/7+K1sBibzOGqkNX33+BaI0QSNIVAISnvzqVxio1ahqTZLFLLhllr/yAmVfsLe/iC30te5Wd/bfSpZlfSbcTBNiyNP4wzBESkkURSTplf39Xv76yxx9+OiVb/o4jzU3gc30syzLsizLunWeeOo9HnzQp778B0zu2Yc0MNTfz+jQAMWgQFcb3NDlzPwip+aW0UEBA7QiRSocjDY4vX59Wty+ZaIAHClvuN1miOOY119/nU7/GOHA6DW3U0oxfeE8rWaLJElot1rIToduHBPHMZfiGDodhkZHKPZXee+9Y1TKFXbs2HEbr+bTC4Ig//7jqtfzZXv+qjYGo7k8rhkoKoUbKxJfkwoHV2egoavg8PQl3vmrb96uS7grNBqNrT4F6ybZwJ9lWXcMIQSOkxc+rD6JnN82z6tfe5VnXnmG5aFlWtXrNzW2LMuyLMuy7k6Te/ayd89+dk0Msnv7A3STmFhrYiFZSVIWFqZRbgHptqm3OtRjDVmMWg3xrE2sXe3Rd/s4joPruiRpesseDJsspXv2OPsntrNz4tr9/bTWLC8v447swg/Ca24nhKBUq+GFBZRS9KmMoYntQB4UDByXcqFEUCwhpIvreWtr87uB7vVTLBaLhOFH74MgD/5pAQMjw3RaLVZWGiilKBQK9FUHkK5LqvPCa9H7HI2Bc9OzvPqd7/Dkvn0Eni37te4uNvBnWdYttzp9a9euXQwNDW24TavV4syZM3S7XfT6HihXWelf4fCjh3n8R49f8bqXeuw/sp9qfeP+gZtl9dqklCilyLLsth7/dhkfH2d8/PoNpK3bq16vc+LEia0+DcuyLOtjOnDgAH19fVt9Gnc00+6Q/fv/wPiTT1EdfZb5qMji8hLtOEK5Dl0Di52IuZUmIogRBlwh8aSDzCtSt7IABMgDf2EYkmbZrQv8KUU8fZ7t+z/P4ODghtt0Oh3OXbiAM7wdJyxuuM0qKSWV2uU/iwaDWp02bED2fkDeC29keATvDi5dXp2uvHq/V/tve553zYojQR7488KAUGviOEEpRRiG+KVingkYxWvBY23yvo9hX4OxB4/gqN2ADfxZd5c7979iy7LuWkIIwjDk4MGD7Ny5c8NtlpeXefPNN2m322tP52Qv1V4pdcX/qLWTZ/7FYbz2WtAN+NK3v0S5cXsHe6xe21o5cpLc+E13ofvuu48XXnhhq0/DWufo0aM28GdZlnUX+pmf+Rnuu+++rT6NO1aqNc2pGer/+x/RVJJlJ2BhpcOhE+dxfQ8lJTqfuIERDiKKAU3guuD5eDLPSFsNAm0VpRRxHN/2NjDLy8v85P3D1J56HnmdbL9VYt35CYDe83d51WlLQx6wNuaObG2Tt+sTq/W7GPK2QdlNBF4F0Gy1wUCxWlt7vd2N1m2VD/BLtUILGJ90ePhgjXf+WBDbAiTrLmMDf5Zl3RF83ycMQ7TWdDqdK7IAO6UO3/wd21PDsizLsizrs2YhSviHjuLUv/kDkiTFOXIORwgohKRrAZw862p1zITWhjhJQYMsFBAiz1jLp/xuTQBwZWWFqakp9uzde8cP+Fjv6oDfKkOecXgnD/eQUq6VIkdxfNPDAoUBNiwHF2uTf7Ux+T61QhlDnNxPZ/5/JeosxsAAACAASURBVMv+BujeuouwrNvg7vkbybIsy7Isy7Isy/rM+N77R/iHU+epjuyALMUVgOkNZbhO1pYUDiBItaDRjTAmoxSEBI6bR3I+RqzqY25+Tb7vMzAwsFbB8mml9QXU2eO8+KUvMTy0cZnvZpOOc8dl/K1WCeX9+gxJkuTluHw04CuFWKssuql9G0GcJnTTBC0ExoAxvUExRtBRastLyi3rk7CBP8uybinHcahUKjz11FPX7EVy8eJFjhw5QhRFn2ghMTwzzNM/eJogCj7t6X4sjuOsTQlLkuQz29/PsizLsizrdlDSIUYSJRlg8r5q4ibWhr1AjkaDzgNAUZaRKY0rJYHvoXsTXIVW6KhLe26Bt77/ClncxZUCR0qMAMdxSVJDJiXb9uzmcy+8QCNNEUjEWqe3G/N9n8HBQcQtCvyZLMV0mgz09+H7/oZr5kuXLnF6apbivgcR7q3vO2eu04f7thPQarfJMsVgXz9u4HD0nXc4f/w47eVlXEAKg5SiF6wEIRwc16MdRTz4xBM8+ORTtJIMLXtBwl7mn8bQjbqAJNOazOjen8bLaabGGDKdsbUF5Zb1ydjAn2VZt5SUkmKxyIEDBygWixsuUhYWFjh//vxaOr7rujiOk/fRuIlJaLXlGg+8+8CmnP/1SCnxelO8sixDKXXbz8GyLMuyLOuz4KcnzzBdb1Kq1nppd+tDbDcKrlxVoCkkaabIRB74cx2HvkLA4XffoT47jUgiGrOzHH71VZJOm4LvUyyECEfS7UR0o5TMdZg7v4eqJ2grQ6k2wND4OLWhIUDecH3qOA7ScW6qx9yNZM06Qdxh+7591y0bXlxcZGapTuWRzekheauyIT8tIQSZyjAqpTE3x9l336HoCY699y7njh+jU69T8Dy0SlAqAwOu5xEWShhtWGo2Uc1FTKdBM9Fknsvk/Q9QqvWTKY3C0E1TEDLPDhQfnQu9loVq437WXcgG/izLumVWB18MDAys9du4WqPRWBvoscr3fTzPI01ToihvqlsfrNOutD/y/nKzTN+SnYxnWZZlWZZ1t2m3W1y8NEWWaf7kb19mpVhm/N77kcZ8+iCTMWgD3W6H9tQUxb4Sb/2Hv+LMsaP4EqKkS+CFGCEwrsQphriOy1J9hSTNp7jOnDrCX354jGJQZmjXbg489ST7H3+CgdEJIpUihbhm2ajWOn8ofAt64iXz09SyNk+/9BJa6y0rtZW9a9mK45teSp6UAseRLM4ukDbrLBz/gL/5d39OVUBGRqwSpBS4rks7TelEef+9slfGL7g0Gw0QCT998x84+vaP8QpFUtfn+V/7Z+x9+DGccoXMGITc+HsXy/ossIE/y7JuGd/32bNnD1/72tcw1+gH8sYbb/Dhhx+uBfiu5Xvf+B4n7zv5kdcffuNhnvvuc7fsnC3LsizLsqzb47333uNf/Zf/FXP1iK50ePLrv8jk/Y+gtUYLjavzhCotL1f83kwYTRhQWmO0YObUKX745/+WeH6OOE3wPI8oSZmfm8ORHkYItNCYKYMwAml6k26FBEfguZCWUrpHW1w4foSpYx/wW//qv2FxpUUxKOF5DgiDuSNy4TbX2oP6LRjwkak84FkMXVxPcOS1Vzj6ox/Smp+l4Cqq/f2cP3+ORmMFgWCZJZQAZfLPpllvMXdpptf/T6NURhiGbC8VcJIOr/zp/4XotnnuV36NuUyTNdtoYzCf/Y/V+kfIBv4sy7rlhBDXfTL4aZ4avvfUeyRhwvP/3/OfeB+fhO/7BEGAMYZOp2PLfC3LsizLsj6mfFiCwWiDkeKKqkmpBZnJ8BEUtEAbhcRBuZIMUGrjIQ3GGNpRh6Ljcfy1H/CT736beH6O/r4K56emWGmuIAUgNMZEmDilEvqUi0V0BvVWExwXI1yUkSRKoBpN/EKBUiFk+uRR/vj3f48v/5N/itxRxEgQqYarMsRWH3rfrim4b7/9NjOZoHjgoVu+b9HLbNS9YRabcUWr92r9/RK9YRwAvmdACFZW2vzR7/+3qMU56EbE7Q71doPlehOVpEhcPAyDZYeH7j9A4Dr5ZF7HJc0Mr77+BrF2ENIhTjOmpqcJXZ8gLHDou39N0lnhc7/228wpk3+2m3CtlrXVbODPsqwtI4QgCAKcXj+UJElu+J5WtcXy4PJtOLsrrU4Q01pvacnFZ8nJkyc5efKjWZ3XEgQBzz77LEFwe4e6WJZlWZZ1a+zdu5ff/d3f5X/4n/5Poihem8wK4OKCUCwdOczCB0dIREZzqYFfLjN28BFG7n8Q4bq97UWvAV3+3oLjc/K1Vzn943+gNXOJqNUmibskiUJqzUApYPfkGCrtglJ4UlIq+lRKBabmF0E4OG6Aki71DM6cm6HbaZFEHbqdDlGkkH/5Fzz9i79C/65J8nDTlW5VwC+6eJqxos89E7uvu12z2STyKxSL5Vty3KttdgBTCEGWZcRxnAcBpcRxHDzPw/c8tBFcOHOKV//jv2fxzEmqgUuaxDQ7LVSa0YmXeGBygr7QQ2QxQejRH7pUSkWSLKWbJAhf8ti+cTIt0F7Icjfl5NkptK/pxhHduIvSPwLlsP+FryKLJdvCz/pMsoE/y7JuCdd1GRsbY+fOnRt+Pcsyzpw5Q71eX3uSJ4TA8zyklHZK7j9C09PTvPfee/i+TxiGhGFIoVAgDEN83yeKorUfnU4HYwxPPvmkDfxZlmVZ1l1q27ZtfOUrL/EH/8efILrxWnaVIK8mNQKWps5z+q3XUb5keWEJk2kUUJuYIOgfRFwxcEGg0oQzb7/Jsde+z+K5s6RxSjdO6HY77No+SjVwqAYOO0YHmJ+dRngCpTIqvsP+ndtod7oYlREELl5YZBAHJ004Pz3HSrtLmipct86RN98grPTx0BefZ2TvPtQGESIpZZ5t9ikeEKcLs/Tv2s7ExMSWPmiWUqKlXG22dwOXg4TGGLTJB/Zpc7kg+nJF0OVtszSj0+2QJAmO51Lr68OXEiME3UaL6RPHOfGjV6kVA4xOaUcdHEewf3wYn5R9Y/2ILKHZ6ICRLCwuUgl9uq0mU7NzFLyQopsHFIu1EiNKoloNzs2vkBhIlWb6/DlU9HeocomJR5+k2D8ICIQNAVqfITbwZ1nWLeH7Pvv27eOhhx7acJGSJAlvvvkmCwsLpGm6lkG3mtL/cRY2cRgzv22ewflBpJK38jI2JKXMF3LG2Gy/W8xxHCqVCkNDQwwNDTE8PMzw8DC1Wo3FxUXm5+eZn59namqK+fl55ubmaLVaW33aW6Jer19zaI5lWZZ156rX68zMzGz1adwxlpaX6auWyYCiFIh2A2MMShhSMoQH5ZF+ZBBCGLJ4/hLt+hKt5UXcvkHcvAsgWkjiKGbp/Fle/cs/xYlapHFEtxMhpGCwXOCJ/dsYrhZptTos1etMTU0jUChlMCPDOPhMLzRJux3CMKRWjRmulXh0chgRtzmXKTpK02418Gt9vPnyd3Adh8G+fkT/8JX94Hplq1KIvN/gJq0XtdbU63WU6+f3aBMYY+h2uziOsy7z7/KgD60NxujLr+f/5J+M1mRa0+l0SdIEo6+6D0ZcEUtMs5RuN8INPPqHPRCSdpIwc+4kyyePMuQHaCFYWl6mE8WMDfbx1H3jDBQKxEnM8TPznLkwnQ8LdH12jQ7Saja4cGGKalihqxK8gs+2LGXbQI2n9m+j1WpTzyRJpkjiLnHS5Uf/zzf5YrXGzoefwPGDvO/j1ffFBgOtu5QN/FmWtSUcx6FUKgHQ7XZJ0/Sm33th8gLf+p1v8S/+539BubE55Q3rhWG4NnW40+ls+vGsjXU6Hf7iL/5iq09jS5XLm//n3bIsy7q1vv/97/P9739/q0/jjvKlzz1x+Tfv/XAtB8wDJkOPyeeeJU4SfvTOu2zfPs7Q0BCu6/bSAgEEWsOlU6d59U/+CL/bxS2ExFGMVgm1SsBzj+xjfKhK6Lm0Wi0+PH0KR0rAwfckQcFH6RhjNEoIWp0InSlKgcQVCQ/uGsKVkqOXlskyl6X6MpVKjUM/eJl2u81X/5P/DOFKdC/ilWct5g+2VwN/m1EuG0UR3/3ud3H2P0w4PHbL9w+Qpinvvvsue/fuZWBgACEkjiPRGtI0WavIgLzqR2mdV16LPE/OcV20ESSJptVqkSQJxpj8MzQC1Rvc4ThOHkgU4Hgu090uYSaIdJcP3n+Hk2//CAFcmpolzhRFMiq6jaMidOYyNjpCvdVmem4RIxwwGqEVnivxAx+jDa7rEHciZi5NIdMu+/fv56vPPsTrxy9xYW4FPyhRqvShlxZZOnOSgbEJ+sd3bdDb0GDjftbdygb+LMvadNPT0/zwhz9kcXFxrZxXKbWWubU2MexjsE/cNtebb77JsWPHNvUYcRx/rO2FEJTL5dvWNNuyLMuyrK2x2vs5FJK2yVAqQ2gNRpNPYND4rqTiGMppk8wRLM8v0u12GB0a4NmH78GLlnjv8HEG+mqEnkNgMrqJBs+nWvAphj5ppvEdSNFM7Bhl5/ZRsjTm1PkpBvr72DsxRlis8Napixjj9oJfGXHWhSK4kUAJlWf+GUkcx1y4eJHR0VGKxWIe1EpiWkfexqQ37mUNoDot2LX9xhuKDX+5wXYCEFcMH1lde0spECKvaomiiCiJMVrjIKnV+ojSlKVGA9dxcVyfNElpNpt0Oh3SLAWTB/50LztOCJGXBvfKeld7Y68NC9EaEAhp8vaMRmMkhJUShWoZaRRKeAyGAf2+T+iFBOWAucUFFCmTY4PcPzFMJ4WTZz7kMS/ANZrQZMRphghCjHQohSGlQsBK1zBa8qgvdTHA4kqLlUPHmNg1xlMP3kPpzAyHT53nwvlz9FWrfPjjH1MYGGFgxwRSQybB1Vw+1/TjrV0t605hA3+WZX0qqwM6HnnkESYnJzfcJkmStaDfatmDMcZOxr2DNRoNGo3Gph4jCAIqlcpNby+lpL+/P39abFmWZVnWZ1a73abVjbj3iy8RZ4qw1tfrvZYHlQQOIYKCydAqpr+/n2azlWd4SQhJaXS61JsdGp0E34EoyTCZYsfELgYH+igHDp1uxPj2MeJ2k7GRfoLA5/T5i9TbEXG2xOjAAP0ln6FqyHIrJU0TwHDh5Cn+5k//jGd/7pfwiwUAhFEorRGOXAt8mXyMMaq1gi+gVCpRLpfXflQqlbWH4c1mk1arxULSvcm7tDoRV6Axaz30BKC0Jo6ifO0tJGJdma6UkjRNieKILM16WXr5ujxTCq01jhEYBK1Wh3YnQkoHISRKKZIkQfW2o3esj8esnj4aTVCtEJZLOJ6LMJBKePuVVzj/7k/odDp5WbNSjFQLjNSKYAwXpmZoNDscPn4Sk8YUCyFDxSJ+sYqWHk5QZPvYNgaUZCBQZHFMM87oZhKylE6WUVYJrkrQWYLOHAYHB2m22uh2C6kylHRwNBghcR1DqDSe0rSM4eOnLFjW1rLfPVmW9amsDuiYnJxkeHh4q0/nlhJC4LpuXrKhlB0+ssWklAwMDOD7/lafimVZlmVZm8h1XWaX64w88AjGDzDaoDFkeUEtQjhMnfqQE++8RaY0KlV5VpZSqLhLt9NibqlBN9Wk3S6oFCNdxrcNsWN8nLBYIoq61NtdgqBIJXBIlebMxVkuzC0jhCRNO5QLBfr7+pkcG6ZxaoZOp0NYKJItLPLT77/KgS++QNn3kasPtrXBL5dpdDo0W22M1pAmuFrjhQHlcpnh4eErehunacrCwgLz8/MsLi5e98Frq9Xi9NmzrDgFRDvClcusm57RCzSC0oo4inpBObFuVEX+c5Yp4jjOW+2slirLfEdaa4zSeJ6HTlW+z161xWrVxacqY+5NcnGkg+O5FEolnHVrOy3gzJEjzJw+g446vfth2DE4wGC1SBwnLC+vAJJLUzNgFAOVEttHR8i8MrP1Lp1OG89xGB8dpCAyZueXaGUdtHBwHId6o0VBuDgmoRR6pL1rkcbgG01gDG0kwvfQzUVKM/OUmy3qgcFom7hg3X1s4M+yrE3V6XRYWVlZG4qxOtDjah9naEYQBQzPDG/6YA8hBGEYIqUkiiKS5OZKNKzN4Tj501g71deyLMuyPttWs8kSBMKItcCTxIARSCl4/523eP1vv81otczc9DRJu4ujFR4KRxiiOCJwHUqFAEeA49S4d99uUuGz0IppdlKSborRHXYOl6nXV7g0u0i5WMB3PRzPoVwpU6mUmCgWef/MLN1ujBMU8B0XzyiiNMVNknxgBQAC1wtYXFwgbrZRSYpJI3ZntyZYtLy8zJvvHmJxeC+mmyK683kGpLx68Eae+ScdiRT5MA1tDEKAUhowSCHxg6DXPqcX2Ovd+0xkCMfBWT/YQ4qPruF7S3djzBVteARXtsO74n0ChJS4rkexVATXwxgBwqAkSAMFIXGMIdYGIyTojJH+Mn2lAvNRhFAaUGRJgjZghEOxXOFCS3Pq4hwLyysM1vJgoF8q44VF3FYXZTLQiqX5Nn2eS6UUMDRQ49x8k7n5eYSCrNNBtzvIUkCHCHX6KANvH4XlNpfuGbwln6Nl3W428GdZ1qY6duwYP/7xj2m32wAU/n/27jzMruus8/13rT2cqeZJVaXZmizJtjySxHac2CEmcZzkgmkC3Q258NzLhSbwwNNw6fs8NN0P0E03fenmNs0FQkMIDYQmhHBtJyaJ4nhIPCSeLWseSlKVqqSqUlWdeQ9rrfvHPlWSLMku2ZJLkt/Pk7JO7bPO3uvscyLt8ztrrbdQIAiCs9o1m81Fr/m28tBKHvj8Axe1n+LyNz/ir1gsLnVXhBBCCHEJNZvNbBTa674TVq2ATSWGvPYo5nK41NJsNrDG0NvVwZrhLoZLeXo3LCcfhpQ6ShRKRfACJmeqPLf7MCOTVWqpQnkexUAxPNzP+tVFrh3uolAoEIYBLt+BQ1GvVjkyPonCkcsHOGeJopi2bo9Qe3itqbauFXel2tHR10tSKFIrV4jmzEJweTFo7dGzbAC/2IbneVgciTF4nkdqzRlTb3Xr/FnnzpgOrMnW4nM40Ke+SPeUblUlzqb9Kq1RrhXsqexaDKUWRhnOvz7W2mydP9UqcMKpkNCRrc3tXLau33wfjDHY0wYEOMAp8Axoa9BK4ftBNvvGZSP1PAUqjbH12WzgoIHhgX5Wrh6m5uXYeWQflVoD4wcYP08thTXDa8gfPoo3NQlJA5PGkIJJemhr76KvO2RkYo56rUauWOLQvv0Ez3yPjR+8h6OPPkjz1Zc5bgwdy/qRr57FlUqCPyHEW+b7Pt3d3XzkIx9hcHDwnG0W1jd5E2EYnhEIer530foprg5aa3p7e6WyrRBCCHGVK5fLWOeYblSwafbF8OlXkz6KiotxXhYcxa11o6NGk5mZWcY7Qg4fncAqjfYUWIuPY+PG9XS0d1CqpjTmauQDn2XdXXhpwrGJOU6cmMSYNJuh4od0dXXS29VFkCuilCZNIgLf4WmNduCZ+VjrlGz0G3j5kLagh/a2Ero6/rbPyd69e3lpZJT65ltxuQKJc6jW83aWhcq6Dr1wsizZ1Fn0qT6q+eK081nkaZ23qGwEnfOykK/VTqkshXWq9QD3uodqhXanAsGzz0pr1N/8tGKl8DxvoQrw/GMsWWVnBSRxQrORVQ421mDTLNQ0OkAVO1DGgTFM15qEJ6a4tqODFb3dHI4s5XpE3KxRnRpnfMSnXi2TOk3qFXFeER2k+LkC5WqV4yfKoBWFQgHPOY6MHGCqWoNmlY/9+A+xr6eTmSOH8fyzBy4IcaWQ4E8I8ZbNr+/X19dHGIaLCvjiOD5rrbwwDPG8LOhr5po8dvtjHB84fs7Hr9+1npufvvntd/5NeJ5HLpfLLibP0WfxznPOEUWRFPcQQgghrnLZ2nMOVIJT4JzCOY3TGuMUTWVpkI1kw3P09PUxd3KGSlRjtukRG0elEZGorEiFMoair8gFAct6C+TyeeaqdZrNhL6uEjnf52StycT0HCiF9nwgQmmPjo4u/FIbSilMailqTTEXYKIm+596DC9X5Npbxrm+bZrCX3URhAHYbAwgSmF8n9eW90D+7a1RXK/XCfbu5wPjL7am7bZKdrSm8XoLI+cczoFWCuvmw7rTOPA8l53T06pUKJVV2wWHNSp7vEpRNgv6rO/Q6alRfk4prMrWxbNKnbH+n3YO52XH0iYbyWf97LbCgc7uwygIPOJGgx1pxBc7CuSUZuboflAGpSFpxvja42SlSTHwcUrjdBYaau3jBz6e5+OcY0V3Oz3FPM0oQWPpagsoBj4ahUVjlcbTmrauTsJcnsnpMtNzFcIgx8qVK2krFunu66etswuVVjnx2quYOMIvFN7WayfEUpNPT0KIt8TzPLq7u9m0adN5g5jR0VGOHz9+Rmh2vgBtPvir5Wq8uPVFKu2Vs9psOLiBW1+6lfUj6+G0aydjzEWvEKy1XhiBmKapVCC+DFhrmZubyz4MCCGEEOKqVa1WwRiCyXE8T2ehn1M4pTEoUmUZCBR67WpKvqars5vnn3+eiYk6sQoJ8kW6uzuZrTVpRhGFMGDVUD/FfJ6ZqVkK2qN3WSflaoNqrQJFH6zDplkREOV5lEoFCvkC9UbExMkJktTQ1taOrxW18izOOV7a/hV8L0ePtri1Cne0C4IwG4KHwymFy4Uw2HFxTkyjBkf3c9qyfNmIuWzpw+x3d2rarHNwrq/lrdcK8+ypVFAryAYLOpxR2eOVgVbwhwek2T4hC/6yY2QBpzst+HOt4E85cKbVV791G9eag6yy4M/XuGaD2uwM+8onSZImYZKgbTatub2tRLPRZOxkhULo0ZkP6OrooFJpMDzQQ6AsJok4emwCp3xWDC2jWXdMz8zRTBWBp3AmIY0jLD5BmKOzo51iqQ1zsk4zMeRDj5UrV9DV2cng4CClUpGJiQlGd+y4OK+bEEtMgj8hxFvi+z7Dw8Pceeed553Ou2PHDvbv3/+mRTFOv78ZNM87cvB9z7+Pa0euhdd96RbH8TmPkS1wbM/aLq5Mzjnm5uYWvRakEEIIIa5M1WoVZQzewf2o81zLbQo1m26+Ea01nZ2dHNi/jxOTk1jlUU9haHAAJmeYmmyQ9xwrhwepNprsO3iEjrY8m9YO09Pms/fAOL7OwqFQWRITk/OLDPR1U8rlGZ+c5Tv7joLyGerppVopc3xiHO0c5vhRBpcNMfrSrTwXb4Hbzu6n1pqS75N/G+ejUqlQq9U43l7g8M2b3saeLl8nTpxg+bPPMjo6TaVWwxpDe0cbfcPLOd6sMz5bpT0f0D3Uw4plg4zrKa7bdA3lmWle27WboxPHSR10t+WZmZ5hz8EjtPf30R741Gs1kkYd7YUU2oq0F0JS7RMrH+UH5MOQ7q5OisUilUqZSuX8lZWFuBJJ8CeEuOKFYUgYnj19IkkS6vX6EvRIXArWWmZnZ8/5WgshhBDi6lGtVhfd1lrLzMwMcRzhKcfU9Em+/vgxPvK+zQwv68HGDcqzc+w/OsHosSliC709XeRzIYWcwmqfPYdGcWlWIERZxUBvO6UwZKZS5dhcGRUWiRp1DhzYBy6bgpoa0E5zx+13sG7dukt4NuDZZ59l7969V/WXnwMDA9x77708//zz7Nixg7m5OWq1Onv27KFUKoGfY2x6jtDFXHfNCu64eTPtnZ0cnzlJxXqofDthGqMVaM/h+dBoRDzzyh5cEmOsR6GQY+01Q5RKbTz+0j6OTM6RL7YxOLhsYfaREFcjCf6EEBddo9Fg+/btHD58+E1H+y1GsVbk/v95P32jfVSjMy8E8/n8eaca+75/ViGINE2zSnFvIAxDcrkczjnq9bpM871MzE/1lTX+hBBCiKvbhQR/8+6++25eeuklXn7lFVSpk5opUIhSVvR2MVfIc3xqGuMStA5I05RGM8L38iincc6CF9Le08Hy/i7yuYD27jbGGobxqsHHsn7zZg4dOsjszCyFQp7ly4e57bbbWLZs2SU4A+9OYRiybds2tNbs3r2bEydOEAQB1157LcePH6dSazDnCoTFdqLEUj8xzcmTZdLEkAs9nOcTG7B4aC/AWovWYLVieMUyVgz2Evge3/jua5yoWVKn6ezs4JZbbpEvlsVVTT49CSEuWBiGbNy4kW3btp3zfmstJ0+epNk8/7Tdxeqf6Oc9j7+HFSMrCOIAw5khXBRF51zzLQgCfN8/69s7ddriw/OMMWcElNliwRprLdbat/0cxMVhjOH48eNnvX5CCCGEuLq8laJqpVKJDRs2kqSWXbtfY9foBHkTsXqwl4HePtA+qXNU6gnGWur1mK72ToIwpKO9SC4MCAOffC5g7Pg01ck64+UGcRzja8WJExPkczmuv/46Vq5cQWdnJ8uXL5eRYheRUopSqcTGjRvp7e2lVqsRxzFHjhxhcHCIfLnM1Nwcz+yZQEVlNq0dpqNUYPVwP34uxDpHvpQD3clyo3Cej68d1ho6u7owOuC7+45yvBxhlMf111/HjdtuoL29famfuhCXlAR/QogLNr++3+rVqy95KNY508nWF7ee9/7zXRiea30/z/PwPO+sb/ReP6JPLuAuT/OBsgSxQgghxNXvfGtIn48xhp6eXrZu2YJzKfv27aVZb2KCPIkOSBspK4cHKBZjXBK1qlQo+rrbKLW1EcUps+UaJypNDp8oM9tM8cOQocEBent6iaKI9vZ2Vq5cyeDgIFrrS/fkW9I05dChQ8zOzr6r1q3u6emhp6cH5xzNZpMoili1ajVxknDgwCH2jBzFNqsQhHQWfHzl015qo62QI5fL43sBfljAKI/R0TGi1FBXTapJk/0TszgLa1avZOuWzaxatYrZ2dmlfspCXFIS/AkhLqooipieniZJkrcd0LSV2+ia7npLj02S5KyRgOdaC1Brjed5FApnVgyZDw4lZLp8zF/8vZsufIUQQgixeEo5+vt7+cBdH6BWrXH8xCQT5QbjMxVMs06xs4e2MABnqUYJ+iirsgAAIABJREFUY9MnCYKApoEjUxVGxk7QTC31JGWwv4+hwWWsXLmStWvXLsnzieOY7373u0xNTZ1zhsvVTilFoVDg/e9/PwBhWKSvd5Dy3AyVqsfu0SmUTeko5VlnfIYG8kRJhLMOqzSRMby45yi1xOLl8hTb2hgcGCBJYm666UZ6e3sl9BPvChL8CSEuqvHxcR566CFqtdrbDmi2fXcbd26/8yL17NzVf3O5HPn82XXW0jSVwiBCCCGEEFeY+ZkcH/3oR3niicfZd/AQTWMhKPCtl/Zl6/k5C1hSaygERWKnsFg8ZcEakqjOx+77cVasWCHB0GUkjut0d5f4+Mfv5x+/8jVm5gyN2DJdjSgfmODFwyewxuFwoLIvjZVfwAs0OMtAfz/333/fW5pKLsSVTII/IcSiKaUoFovcc889bNq06ZIe60MPf4hrX7n2kh4DsjDwXP/4y0g/IYQQQogr280338yWrdeRpimVSoWnn3pqoXCI5wdonSdOUlJr6e/rZ/26a1i9ajk4KBaLVCqVJX4G4lxyuRx3f+iDpMZgXbYUzK6du5idm6OR1HEo8oUSnZ2dWXGQje+lp6tIPh9J0T7xriTBnxBi0eaLXnR3d1MqlS5pONY13UVbue3NG75Nzjm5ABBCCCGEuAq1tbXT1pZd73V1dsL73rcwZVZpDUphjcU6S6lYoqe7m87OjoVCYkt5jTg9Pc1LL71EuVyWa9XX0VrT1X1qOaD2tjaKhQLNZpM0TXGA7wfk8nk8T9Pb00MhH6JUJF/ui3clCf6EEIuitaZYLLJlyxY6OjrO2WZycpKRkZG3tb5fEAdsfXErnTOdb6e7QgghhBBCANmX1/l8ng0bNix1VxatWq2yb98+Go2GrG/8JgqFAqtWrXqDFg6I3qnuCHHZkeBPCLEonufR2dnJXXfddd7RfiMjI7z00ks0m823fJxcM8cHH/ng2+mqEEIIIYQQV6x6vc7c3JwUmhNCXBQS/AkhhBBCCCGEEJeJXbt2kSSJFJoTQlwU/s9//+eXug9CiCvA6Oxavjv+Y+e9/9vf/jalxl/xv9/5LZmOcDXo+2no/+lLeoiXX36ZnTt3Lrp9W1sbP/IjP0KxWLyEvbp8HTp0iIcffnipuyGEEOIC3X///axdu3apuyFON/lZmPrsO3KoelLiq6/9KHBhy9is7R/lng0PXZpOCSHeVfzl3RNL3QchxGVu/+S11Lw7ueuuu8jlcudsMzc3R5ueYKjz2DvcO3FJDGgYXn5JD3Hw4MELaq+1ZmhoiLa2S1/05XJULpeXugtCCCHegt7eXpYvv7T/pooLpDSYd+ZzcDXqQOsLL86RDyLks7oQ4mLQS90BIcTlb7y8nKnkVjZv3kwQBEvdHSGEEEIIIa5agx1jXNO3d6m7IYS4Ssgaf0KIt8Vay/T0NEXvGO2hjEgSQgghhBDi7Vjfv5tbVj6z1N0QQlwlZMSfEOJtaTQaPPjgg2xp/xNuXPG9pe6OEEIIIYQQQgghWiT4E0IIIYQQQgghhBDiKiTBnxDiTW3o382q/IM88cQTRFG01N0RQgghhBBCCCHEIkjwJ4R4U4MdY/SFz7Nr1y6SJFnYXqlUOLDvVTb1f4+O/OwS9lAIIYQQQgghhBCvJ8GfEOItm5qa4rlnt3PH6gcZaJ9Y6u4IIYQQQgghhBDiNBL8CSHeFrXUHRBCCCGEEOIy5Za6A0KIdz1/qTsghLgyvfrqq5w48Hd86pb/QTGsLXV3hBBCCCGEuKwcnVnD13Z9gnpcohQudW+EEO9W/t8//5Gl7oMQ4gpQbnQxV5njiSee4LbbbqNWq3HomCWu3LjUXROXwOZb1rF5eKl7IYQQQghx8e0aX8eud+BzcDXuYbI6eMGP231sPZOzwSXokRDi3cj/7sFtS90HIcQVQus6O3fuZNOmTQDM1DoYm5S/Q65GlZyhnD57SY8xNjZ2Qe2TJOHFF18kDN+dX5lPTMg6mkIIcSXau3cv5XJ5qbshTrN7t2HXO/A5OAgCisULf9zozDIOTHRd/A4JId6VZKqvEGJRlFJorVFKMTs7S6VSwVq71N0Sl8iuXbvYtWvXJT1GLpejvb190e0bjQaPPPKIvO+EEEJcUZ5++uml7oIQQoh3MQn+hBCL4vs+xdZXlo8//jjNZpMoipa4V0IIIYQQQgghhDgfqeorhBBCCCGEEEIIIcRVSII/IYQQQgghhBBCCCGuQhL8CSGEEEIIIYQQQghxFZLgTwghhBBCCCGEEEKIq5AEf0IIIYQQQgghhBBCXIWkqq8QYtGcc9TrdZxzWGuXujtCCCGEEEIIIYR4AxL8CSEWbT7wk9BPCCGEEEIIIYS4/MlUXyHEolhrSZIE59xSd0UIIYQQQgghhBCLICP+hBCLYozBGLPU3RBCCCGEEEIIIcQiyYg/IYQQQgghhBBCCCGuQhL8CSGEEEIIIYQQQghxFZKpvkII8TY4IAkCdm3eTBwEDB87xvD4+ML96g0ed777FnNMgMQF7GIz+YE6Jb+GnySARpl2KihioC2psbJyDKXe6tGEEEIIIYQQQlypJPgTQlywTZs20dXVtej2s7Oz7Nmz5xL26NzqaGYNbBsfoy1OKFhF4MC5FKUVKMUZ8ZsDjUVx7gImzoF1GuM5SB1KaZTnEwU+flgiDTyGx1vBX2sXGtc6RLZXaywOh1IKrTRKgcFhUotG4aFxTpFTHtpZDClWWZTy8Dyd9cEajHXELiCvfAozDYpBDT+JAY22HZSdoqEcxbTOyuo4vlMo7RNrTeJ7qFKBtq5ODmrN7KV9GYQQQgghhBBCLBEJ/oQQF+y9730vmzdvXnT7kZERarXaotoaYzhx4sTbKiQyl6R0NxO6YstMZNnyyk6Gag16jCaPokmK1YqmMUTGYJxFKYVLHVpZlDoV/J1RxdgplNXkSwGBUTQNVFEYpdj47afRJGgc2oGzDpTKgj9Aex65fJFSezt+LiQMAkLt4VLD3OwM8dwcQWLJKQ8fn7wX4IUBtujTcAnVuQrDK5ajPZ8kSUnTFIfiE4zCqCNLGrNjKhTWWWINRis0itAqnJ+j7nlMW0NZOzZu2kgz8KnlfJJc+JbPtxBCCCGEEEKIy5MEf0KIS27NmjV85jOfWVTbcrnMH/zBH1AulxfV/oxgDlAOnpmc45P7j/ELR8cxzTninCGnNUp7VPN5Rtt7KCcRrx0f5Uh5hnISYwz4KKrkSPDIxgI6DI75cYEBlj4v5b78cgZ7e3hqapJvjo0ROwXKgstGDzo0Gg9weMrHKEO+VOLajav4+KceYGj1Sjq7uikqn/rEFEe/+lXUzldQ08dpszErSj4H/Qjv+vV03HQb43NNvvKFL/Ez/+TH6OrrwzqHM6bVKwfGZsMRW+cjiRNwjrzyCJWHAyLP4TxNIbXUXtrBw3/x1/xAVKDLxPSuGWBi/fJFnW8hhBBCCCGEEFcOCf6EEJeVUqnET/3UTy16xN9DDz3EoUOHAMhFCbd+bycfLE8x1KzivAg/B4HKUc61U/yBu+m99x7Id2LCgEFlKNuEprM4p9BOk7oI615/7GxFvjzQNVOl/tt/QGQSbv+JHyTf28lv/Obv0I2l5pokWJTng/ao1Gr85r//bW685RbqSYzK5TAdbYwXckz7PjmnUSsHKG0YpsMlpLt2weNPYV7ZwVRfQPeHP0Tttg+wc8ceHmr/Eh+5/TpK3d3E1mJbM4i1U1ROVtj56g727dkL1uJ7ARPj4/hhQGdvL34YUGk2+MCH7mbt2rWY917PnT/yYfqGO3j8N/4Tevdh1tiAkY0DF/GVFEIIIYQQQgix1CT4E0JcVjzPY9myZYtuf/fdd3PTTTfR3LOf8ue/wKapUTqbMb51WAKqvs90MU/+Ex8lvftuZjZspJnP4fk+AdCFpbXqHqCxLsU521r5L5syq1q/aWfwJyegpEkbKbsO7mL7YY+5MIDAEaWKFFh/7bU88GM/RgKse9/7yA8PEZCtzRenCWhNE0XkHORBdZaooKC7j2B4JemWDfRu34557BnCjmW05z3qfoGkrZu4rZPIWSygXNYzr9RBr1LEvT0o51AO+hsNnFIEhTxhLkczSiisXE3c3Q3KUejtoKF9rvnBH8Y7NEJhYpL6nkNMrVuJ9eWfBiGEEEIIIYS4GsinOyHEFa1jwyHyr4yj9h4hOThCh25ScGBUSLxsiHDbNpKeEt7H7iVau46mF+J88HAo61BkPw5wyuCUBqVbM2cVkIVszoFzFpukNKgTKsOOna/xVLVKLtBEngEvx3Vbr+cHPvlxPvyDn8QLQ6qNJrU4QrfCtGzFPZ3N0HUOq8DTmmpioauL3LbrCAe6WF5NOfqtx2k88lXUQDcd2sOpgDRWGOVwgcZzCpwiVwgYXrWcnoFetFbY1OBpD+ssxjl838cYRxCG4BzGGYy11JoJK2++DbdpPfGrrzA4MUEydpyd11/PmlUruLFUuKSv3dTUFHNzc4tuH4YhGzduxH+XBpNLVSRHCCHE23OhRdHEpTc2Nsbo6OhSd0MIId4R785PT+Kq0NfXRz6fX+punHLsGIyNnblt+XIYHj53+ySBnTth9WpYzMXgvn1QKp1/f++gQuHSBkKLYUkom50cPfx7NP/6Zbr/Kkc/Fh2UMM5hhgbwPngnhX/2o/R3tFEJ85jAw1dka+ItVO5VrdF+2fqAC0V+FcwXy3DOoZTD1BOisVnqjSq+zaNdjnzg6CqGzMV1lq9cxQ//2Ke49+Mf42Sjip9Y8j7Y1GGTBHwfdFbJ1+HAOVRqyfkBqYbExTSBuYEhBj794wQmZe7bj1F/9jhbO7oIlAKrUJ5CeVlRYs+ASWLAEOZ8vCDA2mwMo3bgu6zohwYUFodFA4Hn4QoO5TT4PQRbrqMnibFfeoTv5dvpvmYD3792Be1DQ5fsNXzyySd59tlnF90+n8/z0Y9+lLa2tkvWp8vZrl27JPgTQogr0IUWRROX3vbt2yX4E0K8a0jwJ65Y9913H5s3b0Yp9eaNLzXn4Dd+A/7yL8/c/uu/Dj/3c1lCc3pb57Kg8D3vgT/6I/j4x994/9bCJz8Jt94KiyyScbWLzAmerN7Plt9qY/n2foyqMl2wdNRgxhUp/MBHCX7unzLWUcTGPr5R+M7hFBjPO+9+3WkvlXJZlWGNQivFkRNHePwrX+XWOAEvT29fH5t7OsnnckxWZvmF//NX2HzdVhpxk7wf4ClNe76Ah8YYg2mFiI5sv2maEtuY0PPIO0WiHEYptK/Z22Ho/aWfIN9ZoPiXX2ZbRw8r0oja8mFiQpI0oRZEBCbFRoYkVaAUQRiSJAl2/n3W+nFao5RayDUdDqMSjAKTatTgMkorv5825fG/Pfo01ce28/wdt/HBX/1XrQe09qXUme9nIYQQQgghhBCXLQn+xBXr4YcfplKp8J73vGepuwK/9EvQ3Q3PPXfm9gcfzO77vd87te2zn4U//uNsxN/k5Jvve3IS/vk/h2efzYI/wczLL7Hvv/zfXDPZT9eBCOuapIEip4rMFdpxd72f2s3XkxiIKwm+0iSeBgVeaw2883Gt0XjKgUJRyhdo1htMTZ5gZP8BpicnCbygNQnYkVhDwff4mc/8HEMrVtCMYxSKuNnkC3/7d/R0dFLK5YnjhMRYCoUCxlpKHW0MDg+zfHiYFIeHRVmLUioL7eYMJx30330Hw2nK6Oe/yL7/9IeMXLuW2YFlmGIJ4xkajRr5QoHVa1YzNDREPWoShAEKhcLR/uyzDP/X/4eD//W/kfT2nP5M0dgsx0PT8cx3WfP7v8fh3/kt0rwm+tpTeMcqp5r/0i/BE0/AXXed+X4WQgghhBBCCHHZkuBPXLFOnjxJpVJ584bvhIMH4ZZb4Kabztz+4IPZfae77TbwPJibg9/6rTffd5LAjh1Ze8HEN77B8S/8De0v7aVzLsW3ltRz1J1i1m9j6Kd/ksq2rcSrlmO8HFYpYmVRxqFcazW/05M/15p2O08t/AeFwrOWbz/2Lfbu2k11agbtFJ7O1umzzjIwtIx7772XtRvX4+dDcOAphTbgoyjPzlFljjRJsdYS5vM0o4hlDDG8fAjlKTzlspGALpuCbJSH5/l4NiRZuZL6TVs58vA36H7qKQpH9jN7/SZm16wlVgUq1TIr1g4T+h5h4OPprCAJQNc3vsHgn3+e/J7dkETgTGvtwuwZBtYj1Y7u7d9g8M//gsKevRivg2DT9YTHZqjvHWH/f/lj1ux9GX/dNfAv/gXMzsIv/zL82q8tboq6EEIIIYQQQoglI8GfEBfDRz8Kq1Ytru3NN2c/x47Bf/7Pb9z28OEsPHzggezPd7nHd+ym/PAjLN/+GL1BCc9EKOVIdcBsqYN9q1cxec1yTqqUdGwUPe6R6mwUn5c4rMkKdXi+BrIZq9kM1ix4s9aitM5+yPLBwPfZvXM3Y2Nj5Jyiv1RAOdAKVq9Zw7L338mNt9xMpB2+1kwdn2T6xCTOOEIdUK5WQOuFghRRlJAkKbVKnfGxCaqVOvlcjuEVw+TyISZNsMrgoTh66AipjUiaKcev3YSpvULn5BS9+6CpDc3B9bhYU6tGjB47Tq0REQQe/QM9BGGettdeo+OJx4mXLcNag7Eme95ZJROwGpyj7ZVX6W61SxOL6u8mv+0GvJlZzJ/9KYemxhn+/J9RuvfD8Oqr8Nd/LdN9hRBCCCGEEOIKIMGfEBfDz/7s2dv27cv+3LDhre3z2DH45jfhkUfg85+HkZG33r8rXZqSHhnlsS/+AwPffYmbUwhsjMJQ15pJP8/evgFeXr+a2RdeJDYGB/i+T+AHKK0wxpAkCc6BH4RoraBVz9dZh3UWayxaKbTWaK2zIFApnIPhFSvRcUL++AkwFqcs112/ldwH7ySOUyyOuJaw+5VXeeF7z5PPl9CeR6VWJygUKLWFYC1xHON5HicnZ5g6Pg1AsVjk+25/D4PDg2hPYW3MsWMjfOfxJynPlGlv66C4eg3NxLL+yFHaJiZZljSJS51Yr4vj48cZn5wklwtpb8tzw7aNrE0dKGisXo3XaGBMSmJScKBbP6mC/MEjOGupr16N32hgTQPj2glWr6Jn5XJW7X+V7bffDXNVVp6YIn/99fDbv72kbwchhBBCCCGEEIsjwZ8QF9N8AQSAf/kvs+m/v/u7b21ff/In8Pzz8NWvXrz+XaHMXJnyv/ltPvPcy/iVMgQ+NZVQSgNeay/wjTbNC2aK5m5YuWkDuVyRNDE4G1MoFEjTdKEIjLWWaiUiCIJWtd4s6HPO4XkezbSRVcv1vKwYRusnSRJcFINJMcrRiCNco04SNXHW4tC8/NwLPPvMM+zbs58wzLFl61b8IKDRaBLFCaV8jiRJ8H0f51xW8KMVSD766KNsuW4L11+/lahZ53d/93dpVhtop2nv7mbt5mupdLfT3raRNTsVwyPHaM+9yoGtq/BzPVSiEJNYkjTlsX/4Chu//GXij32UA//Xr7Lh1/8tiUlI0hjnyCr8OsBaNv2736KyZQv7f/VX2PRvf4M0jUmSOJsi7VJ0Pk/b/R9hz//4O+yJk2z62Z/MXhStl+z9IIQQQghxJXDuDRaWFkKId4gEf0JcTE8+Cb/4i9ntX/gF+MhHlrY/V4GDs2W+9twrfGjPbjpr0ygszigMitFCiW96ju8B00ajaxGVk3PYdkeYy6O9gGYzwphs7TzIQr7ACyjPVvB9H++0Cr9KQa1RJswFFItFrLULo/6MMWhjslAwCCCxGGtJ0xQApxy+n4WFaZqglCZNUlLriOM4q7irs6q+cRwDZH0JApIkod6sg7EUwhyzJ6eoliuYKMHTAXEjIqnHRIUSr/pVqr1Frp0O6HxlD7npUZ6eLTPe3kt+YDn9xvAfXnuOz0UNBjo6+FQYosjWHbTGYK3FALmTJ7nhX/0a4x/5AabuuJ3O13YCDmsMJk1IPUVMivJ88qtWsa78IAP/8TfgT/8A+vuzCtb9/e/wu0EIIYQQ4sphjKFWq1EsFpe6K0KIdzEJ/oS4mNasyQogALz2GvT0wCc+ceH7+f3fz/78zGcuXt+uQJPbv8XMQ//IhrFx8jOTeM5iUMx5PofCHI8FjhdUwLTxMYBSTU4cn6THOoqlNJvim5psDb/WPj2t8bRPo1HBD4Izgj9QxHGEselC6GetXbjXSw2VWhWMzQp4OFDWAgqnoL9/gPaODowxKJUyOzeLn8uTJCnWOcIzjpUFf0op4jjG2IQkjrPRiUB7qY2Ttams4IcxEEdU05hKs8ZI+SRHbJ2P93XTN3GS2/MhewtFpgp52pVm+ckZrv/E/Yz19rPzlR0sd4643sC1tWUjH51DNWNKe/cRf+qfEPX0ZMdxZKMXjUVb8BKLX6uy/rN/xNzWjXyvWGCk2mDm7rv5qV//ddp+5mdg27ZL/C4QQgghhLgyza8hLSP/hBBLSYI/cUUbHR3lmWeeWepunOm667I/n3ySFQ89RKlaZc8115zVLJya4ro45tCePcy8buTUpr/9W7o7O2FgAP7wD7ONIyNgLfzhHxIHATs2bSIOgkv9bM5p06ZNdHd3X9JjlJ/8DtUv/B1tX3+UlTbF91MMmtkgYG8Y8C1P8ZQ2zOFjjUG7lFQ5GrMpQcHHkOCANEnxfW+hWq9CoZUiTiIS66OVPq3Kr8Y6QzOx1BpVPK0B1fqfwksNuVoDl4BOHTqx6ESB8rAe9A8M0N3VjVYKm6ZMT03T2dUDysPhaKTRQhVhpbK+0Oqj52nqUcRcrYryfVatWU2tUqVWrhLHDZrNBk55NKZnqVQq5H3Hsa52OmsxNylFr1VM16usatR5fOVylt/5fvLLhzEH9hNHEU8//jhrP3AX/f195I6N0/vYE0x9/90kQ8vwMOhWJWDtDB4GLPitYiAucEzdfisTN9zA2KFjHNYhyRf+Bu67T4I/IYQQQgghhLiMSfAnrmi7d+9m9+7dS90N+k6eJA4Cyu3tpzYODfH93/42yx97jH944IGzHtNRrbK+2eSZZ55h19TUGfd9LIpY88IL8MILp44xM0MyMsLcCy9QKxb5yn33UVuiaQOf/vSnL1nw59KU+NBhpv/4c3jfeZZBY1HKoqzjJJq9vs+TvubrNqJJiLExyrqsTIdyQESzWgRnW8FfQj6Xw6ksZpuvRWusBRejFAvr/4FC+5o4jkmShDAI0J638BjfOGyaoq0PaYw1aTY6zoUQphSLBQr5HNo5orjJzIwlCHIU8yWUVkRxjLNZ0Y35tQNxkCaGXOhTLpeZnp6mp6eLazdfy+jhw5SnJ2lUNeVahWKhk1WlDno6e+lJDVGjQdzRQfuJE6wyCdsmJ7jhyH7+/W23cNdcmes7OmjLBaT1Ggf++q+4RoO66Sb0qzu45k/+O3t+818TxA16XnuV9iOH0WlC5+6dJMe7mCmVqM7NEBcLPPepB0jXrKDXC+nMFVjxhX8gF0UcNY6CdfRpqfArhBBCCPFO66hU6KxWF36f6u6mkc+/aTuAuba2Mz+7nMM5P+MIIa44EvwJcRF87FvfYmxwkO133HFR9veVe+45a9unv/QlxpYtY/udd16UY1x2nMNZS3pyhtFf+dfkd+3GtzHNwBIajZ94HCgEfC1p8lRkKRfa0Aay8XPAabFe43gZrwSFfAEfjR9lUyzmp/wqBV5rWqvWGu2dKlTheT6e1eRtgJd6pGm6ME1YqQRcFe2nuEDRaEtoBBUKjYh8OcHmEpqzM1Rnp4iUwZLDp51EK3KpT1jP/srVSpFljVmfSCIMFWbDw5S7u7imt4cb167jGWNx0zO4UkpzdpZCPsfP/Pg/Y9vTzxH9xReIvAb7AkV5WTc9xmP19Ek6k4T/+NQzuO883TorDuXgjw4dhd/8Dzx006280tfH983OseXnf3nheSvnUMDWX/gVAL58yy2M9PWxpdHkwS9/nS0P/C+s2bCOnhtu5P1D6whffIr/t5yysZbyv5Y8XGsK8aX2+unX7yYyTUgIIa5M89M9xeXjavg3VTnH9738Mvc89dTCtr/8oR9i17p12XXZG7QDePT22/nmHXec0fb1+7//0UcZHRy8ej9/CPEuIcGfEG+R7/vkW9+o+Z5HGIbk83mazeYS9+zKNPU3f8OJL3wRF3sMHhrBa9QxGAwKozTkfTxlKVZqdNaqpPlZUOe6iHakKGx7B7q9Y2E0n1YKpbPptc5ZtPaIogiUQvun1t5LjW0V3WhNA06ThTwrdIoO5+FcSHupyMEX97Pr+F/S8PNEpkkpyDO6ex9dc1VcHBNbw2Aa0NnRRGlN4sxCFeHTc7JsDUBFNary2sw0x195mSRq0jhyhEKzSd55BEcnYGqWb33uzxgpz5DPN3FRROqKRHEMgWbP5mX84yc/AEDj1ZeozZ5kdbXGfUeP8adbNzGrFDM5iBuz/JttW1B4rTMGm+bKfHJ0jD/atIFKEDCTD1l7YgJlLfnjE7z65S+zs6OdsFhkKHH8XKPOhz77Wfwnv80/rhzir1av4sbKFGFrevBiJElyQe+RWq3G5z73udNGaL67yN8tQghxZXr44YfZvn37UndDnKZSqSx1F962+x99lEYux3/79KcXtt3x/PO0V6s8e+ONb9gOYMu+fdz/6KM89KEPnbXvUr3Ojz78MCuPHWN0cPDSPQkhxDtCgj8h3oKgVRRivjrrt2+6iTXHjvHJhx8mPS3MmGtv56mbbz7jsZv372fLvn0EaUohirj9hRfYsm8f4wMDPHXLLWe0HTpxgtuff37hdkelQmelQiOf59Hbb6eZy13iZ3phDsWG8R176P2ff4dnDDiHrx2+Vq2autmPA1KliJQmQJOPDfa1HRT27EErjYubOCy+0/hoUg1GJ6yLY0rO8d6wQCMMWnvitL1mUixeavErtVPTarMbrZZuoVIvkAV8LdY6lNJ4ngY0diHIUiil8XVAvzJ0kpDb26Rj7ygTDlzex7qUdZUq96aKnPVJjaU0PUfbRCw/AAAgAElEQVSulgWMqU2yqcWtkYlu4Zjg0NlxR8fxwxDlLNuqMU2/gO8speo0NKDr1WlKOII4QRmD12zi1T2OrV/Nrms3MNGZTcHWN9zI8n37WPfaTgIL1zUMDa1xjfrCKZtf1w9gIHUEznFjZGkaA1GZ3maMLXbxqf37mZuYJs0VUWFIUSlyUczaI/thbpbGKyU+3N1JT9qkYHR2jpXFYVu3T/vW2YJns8BxdP0qjm8+e/3L82lYyyOzc2yMInovIGAUQgghltLJkyeXugviKtQzO8vYsmUcW7ZsYdtLmzezemyM259/fuFzxbnaQRb89czOnnPfnrUsm5wkH0WX7gkIId4xEvwJcYF830drjbV2Ifjbs3o1Kk0pHDiA8jyCICA1htGhIfatXXvG451SGM/DeB7PzxcCAazWvN58W4Dd69a9YdultqdRZ+TVndj/7xHa/+ZvcWkM2hG0wj1wKNcKvBQYHAkKFQY0opi8c7T7CktKSgJKZWGYA+1AG0uPs3SHOTblApTvAVlF3fl9zt9wuKxKbWrBWZSeDwZta7+0fletuh7zEZzD0Tq3aas9DlrbnHIkXkKdOnnbpEfl6E8Uo1FELpenYWPaHPTjUfIURrksxEyy9wn2DaaVqIX/ZHORXavHYQjOElhHai02qaFUgEKj8FHOMrF8BZOr1zDR2b3wnrz+5Aw3TZxg7cwcoTW8Z/wEztMkQZ4kyAJjrSBs1vFMgh/H5KzlfScmsVpjgxzGL0C+jW3VGVR9CpQGpXFakRTztNkEPTdD98wMvcdGafgaZyB2jkiBOe25zYedCtDW4ZRiurcNWHzw56WG5QdG6EmatGtIikWavX2LfrwQQgghxNVs39q1rB4bY8PIyELwt+eaa5jt6Fj0Prrn5ti8fz87Nm1i8/79l6qrQoh3kAR/QlwArxXqGWMWApZ5u9etY/e6dSilKBaLJElCmqbZcK5ztFuMif5+/uHeey9a/y+lb01OoL/2ELd/+YsM2iYNl+A0aOvjpa3g7LTcS2PwrEF5IU2doCwYo2k6i7ZZMGi1BaXJp5p8AlXfI/I0GvCMBWVR8wmZAqc8cGCxeICHAuOyQh+KrHqvozUObb6Y76nRgoqsIIhbKOehaMWIrd8cnk1BJxhlSQMNeY8ShnxaJ1SaHOA5C85hncFZMM5hHWh1akrxGVTWR8gyP5zCuYWoEqc8UhviMGAVGg+lwKrsHLy4bSP7BpcRn/at7Kq9e+mcPEGtkINGjaA6m420LHRiSn4W4CmHV6sSxA0AYuUR1MoAJIVObCFHqh2z7V20z04RRg1AYXyP2YE+QuvhjCVGoawDbZkmojEwgB0YpmkdIwcPMjAwQEdHJ/VGndGjR4htIwt/dYJi8Yom5Z+OHMF25KnUqxzLFxhfew2d1Spa1k4SQgghhDjLMzfddNa2vtYo1KnXFevrqFRYd/gwGw8d4ov33Uf33Nw70kchxKUlwZ8Qi6S1plgs0mw233BtMucctVqNYrGIUipbR+4qc65FqkeOjVA4tJPmiSNUKGFsSNqMsK7RGminsNYuLKa8UNU2ykInNx/gtfZvVDb2znOKulOgFYb5Ah2KVHmgLJ6yYFMU4HshznnEWLTS5FCo1GA0pPODJJ3FOUM22s9DoVDOgTJoDE75WHRWbMQ5tNZnLABtcdR8KOkAXIQ1hsBAAqAgAqZaU1vPtXC0c+6sNepObzd/Xqy1rXYuCySVw+LjWYXnFE45Ys9gNUQmPes4X7nnHnK5HGtGx3jPl/4ejSUrKOzQcQXthzjjqORLuFwBDQQuO7bRDmUsNCskypEqRzUo4PkllPJwnodXMzhn8HGgHIlO8Z3HnO8Y/tQDbP3MzzM5M8t//8mf5P/46Z/mznvu4YUXX+R3fvEXqdc9rLVcB5x9KXp+rlik+RM/yp2338rsl/6ekWee44lbb+Xe73yHwlX4/zMhhBBCiAsxX6ztfHTrmvO+VmHC1xcU/L6XX2b58eP8+Q//8CXspRDinSbBnxDigj388MN84xvfOGPbi0MRH76li03t78GbMIw9NUKQ5DBpQmQTWqkTwMJUW/X6wGthCrMjsK3xdp4jUQ7nDPOTdLXTFK3DaU3iKRrKkWhHUAzRfoCxCpU64sQyX8bXc5accQROkWqFVYrUcxilAI12Cm09FjK51rqAltP73Jp+rSwmiwezIXq6NTrPnRoZmC3md/all1IaZ7NxhbRCPq0UrhWKOrJpy06rLCR0oJyHpzSpB9ZTWOfQOJJSkRfuv5+J7u6zRqACxHHMaH8f6ad+hC1f+zqFWhM/tQSpxU8jEmUxqhW6KohQKAOe0dmUaN2aTG0dvjUonRJpS9VL0R4op/GMh2eBJMWzeZJiOy4MGRk9ypf/8et0LF/Ja2OjuBeeZ8/uPbx84CDWZZOAh6rVRb3f5nlBwPDWjRQKbUQqpCtXpKT1u7bYhxBCCCHE6e7/5je5YfduRoeGzrpv7dGjfLxVZOY7t97K3msWv9yKEOLKJsGfEOKCnWuR6uZwCa83JDfUjlYOfI2XWpTWWO0tFPeAVojWGlE3/7tS6tQ3lEqjyUa1WZ2tsxcY0Fah/ACTyxEVCnSvW8PBRo2XRo+ye+oE5ThFeWG2JF9qCdOUbqXZvGoVN68YgulpqkfGKJgAZS0+Dn+hwgYodCt8cwtFOKxzC+vTZWGYQuPQSqMVWQGLVqapFkr1qlPL9ZFtmz+MJtsHrfORTel1aE4FhQtxqFKtTTpbaVCB5xy+U2h8Eq9Ata+fWCvcOUahOueIg4CJ3h6eadRZbh23rVnL1mX9FMqzTB0cQTUjAmvwlCP1IdHZufBcdhoVCqU8VKBoEuH6i6y6dSPKzWbVkdMAO2doHJ2kOm3wewYgLJH3Qm647gbWrV5Hvpins6MTXwcYA2G+gFIK3wsW/6YDtKfpXtaHf7KMOlnGt5ag2TwjQBZCCCGEeDd46uabWT02xgOPPLKwbbK395yhH8BMZydPt9b9WzY1Rb1QYNf69Qv3zxcUfH1hQiHElU+CPyHExZEodKwxswmVIyfxDXiARqO84LSl9E6Ffc5k4+ncQk7WCs68bASeUbZVV8ORx5F4PmFfP5PFHI9NHSffbLCv0eCVKOZAlDIXJXjEKJ2FXp51dPkeu5tNjkZNOpKIZbkcdw+sYG5ykjBq4ps0m/6rFckZRSiyW6cHf0qB8zQhjlD7ZOVFLP5pAebCjdbgxSz4y6YI47LAcCEUdFnBENua/qsWgr9T056ztQuz5xMo8KwGT0OxSH54GOV5C+sDns//z96dxsh53fee/53neWqv3tkLm6S4i6Qo0YtoirIU21f0AjuSk+BeXCeOHSeZNUaMwb1A5lUGGMwEmFwMcDGDADEugjHiJclgJnYsRXHGkaUksiSLomlZlLjZFEmRTbLZTfZeXVXPcs68qOpiU6SoXlns7u8HKHZX1bP8q7qkrv7VOedfcU7/VCmrPXJ6pzKtU2FZ62S1ZWO/1luj7Oi4ND4m368/34lRqv6tM56c/HorESfPSynrPHlJSolzkvPrP8OUqp6nzg0blWtvUyad1p7du+TiRGEcy/d9tbYUZ37ymh2OzpWRlPJ8RZeuqnptROnytPoHBmodpAEAANaQX27dKt9aFaenG7f9YutWpcNQG65evWX7sdZWHdm3T5J08PXXtWFwUNbzdLo+8m/n+fMyzmmqUFDX669LqjX6MM7p4OuvK0yl9NauXQpT8/vgFkDzEfwBc2CMaXTyvd26bbczswbezH6rXThUVTRWVfX0uK4fPaNcXFDgjJzx5Pu1UMtZpxs9dZ2s8Rt54KwxcDKeJ+OMrGrr8zk5yTey63o0tqlfr4cl/Zc3BzRy5bImjWR9X0Emo1Q9lHNOss5oOnEaiWOdOX9R/3Lhorrk9LGePj2wsU9BJq3U4FX501PyXSIrKfatUjZQfeW/m3/WMw1EfKOMc0r7gQLVRvz5mukq7G7kWrVlAmsj+XQj+JsJ92bCxJnWITcajdRuM/Xnonazk4xVICPje4qyOU12dWh4fZcS36t1L74DZ4ymU4EuTU3oxOnjyv3ihPpzOX35wEf04UJRm3M5tftGQWlCvjG1s3v2puDPT4wyxpcbizXyz8cUuEChCWSclLKJjEtUMDkV7tuoVM+6Wkdjm8gLPPnGVzaXVSafVTUOVS1VZGRUDSvzeo05J7lqotLgsKbGxpWemtLO8+fndQwAAIDV4nZNAx88ffqm6+tGRhSmUppoaWnc9uqHPqRPvvSSDr7+eiP4u9bRoS0DA3r4zTcb27VNTipfqagwPa1SPq/T27YR/AErEMEfMAdBECibzapUKs05xKtUKspkMspms5qe9UncajV5YVRDv7ikiVPXlXNZWd8plfhKrBSaWpMOY6x852SUyBoneb6M8246TmPUW2BkXKKUSeR5RiORr8IHPqJnBy/o64cP621JnlfbvljIq729XYVCQZlMpjbFNQw1MTGha9euqVoNVTGeBiR979oVnXj1Jf2fn/23iiemFZVKKqZSMrFVYJ0C48lTfRSbZjfiqK+/50lp60u+kawUyMg3Rkl9ZOJMl+GZUXpGtTjPa3z3bjONQLxb7nfOyTOmEfwZI8n48td163w2o//rjTf0gQcekLvDGnczzUTa29pVmiopjp2qxujMdEn/y0uHtSGp6j/s26ff271T1Z8fUz70NOk5Vf3aOoa+c/JMInlSUq83pawCl8ialALny7iyJs2Uum1Gqa5+mbYeJUrJWis/nVWchPL9rNLZgvxMXjYq10YpuvkN+TPGKJUpSqVxVSYmNB0yxRcAAKxdM8udzLwXfPd1SfrVf/5nXert1Y8ef/yOx3p3ow9J+sp3vzunfQHc2wj+ACyJP/GL2mqKiry80llP1nOK0kYuTiRr5eTk29rIN2dqwZrvZppcqDEN2KieB1kpUErOeJrOpFR84qP6z8d+qh+cO6tLSSTf99Xf3y/f92WMke/7iuP4pq7BxWJR6XRakjQ2NqZSqaQojnVmbFT/8R/+Vn/86GPat65VyZm3lc8GSnm+XFxv0uFqXYVNbSG/+mA+I+v7Mp5kgpRqM5Ft7atRfdjeTIOP2SMZVZ8n7OrTe+s3zXQxNrp5nbqZKccz2xpPnjWKE6N4Xad+Gk/raODrgd/4DYW36bA8W5IkMsbo13/91/Xyyy9raGhIlUpFg4ODUiANyeivfnFa06Nj+tJ998kOXFIqDpVykjW+ZGbmLN94A2kkyfcUeL6M58mlM/Iy7ZqKM+pa36ZsV0FlE6k8cl2VSkW9921VMZPVzt4+/Q9f+E1V4qrknFp7uuf1GvOMUXsxp19cuqTBkVG5lsK89gcAAFhNDrzxhnquXdPff/KTkmrNPcrZrJ69TYgHYO0i+AOwKKlUoL27dig3XdLlfFrR5h5lAiPjPAWJkY1jZaZL2jw8puLJszJxVbGpjfjz691tZ2a5mvpXSbIzXXWzecVtRf3fJ0/oR5cHdL5SkZ/Jqbe9VYFfC57iOFYURcrn89q+fbviONbw8HCjCYkxRrlcTkmSqDw9rek40ptTY/r2yTf15fZuPdbTq/j6VZnI1Mf61Qqpzd69EXjVpr0GipyTbz2lnFHgPBk5OWPknK2vz3cjfLyx86wQsNH0d2bisyQlarQAaWShpt74xJOfSitOpZS6b6veHh7Qz6am9CudnSqVSnecfj4z4q+zs1O5XE6e5ymdTqu9vV1T0yWFkk5XqjqaWP3Gxvvkrg4p5aysMarWYk1Jku97MvUQ0MnJysoaX76tL0KYSLH1NPjcv8o/flqeSxSXpuWiWGMd7ZrI5TQ2PKSOo0c06hLFTjL7HpL6++f8WrOTUxr7T/+HUj/9ubJRJJPmVxgAAFi7Lq5fr0wYNhp8DHd16czmzRppb29s88rDD2vzwMBNTUAkabylRa/Um33Mtn5oqNHoY/3QkNomJ9U2OalKJqPnH3tMlUxmGR8RgOXAX00AFiWVSmnPnl06e/mihn3JrO9WOhXIOCPPeVKSqHVsTF2nzqn1zICcC5V4Xm3NO2tv9LDwvNq0Vs0MsHOKg0Cuo0Px+h798F9+pAvVihLfUzaVUiaVUrlSURzH+sAHPqB9Dz2kxFpt3rxZcRzrnXfe0dtvv61r167p+vXr8jxPmUxGSRypksSqOF//ev4dfWRfhz6xdYuiyoTCyVCBarN4bxqyN/PVGCVGSoyR8YwSa2RMrSOvNaYe/s3uVHxjLT/NHOKmw83u4us1vpvNSZLnS/mcvN71OutLx0tTuqL5N7SI41jValWSlM1lNVmekJFRWb7OVEK9eHVAHw/SSryUSj2dmuzpVFgPKH3PmxVkGiWekedqozhlnSI5yQQyhYzS5Sml68+jSQW6PjmhpDSlaZuof/f96m8tyHlGUx1dCudRv7VWo2MjSm3fppad29Xb06Xig3t04sQJRbfpagwAALCaXe7tlfU8dY6NSao19xjsvnlGxS+3bJGfJDc1AZGkgfXr9cstW245pjNGiV/7KHz2+oEztwFYeQj+gDlw9emUnufJOTenBh+eVxsdtdobezgnVROnYiqv0MsojqaViWNFiuTJKOuMWuJYkasqakvLuoISz0ixkcLaKDfnGXmm1gikcVybKMmkZXvXya3vU3tvj/rKZU1EkZIk0lSppGocq7u7W0899ZS++MUvamhoqLGe4sjIiM6ePas333xT//iP/6goimprxKXTqlbL8hKjKXkaay2o0r9OqYk+hdcmZZPGOLub5+rWp90mxskYKwWBZCUXWzln5GaakDh3o2+t78kl9qb1VtyNw934xkhGsx77TR2QnRR4ilvyMrvu0y/On1PJc+pd17OAn5VTkiSy1iqxiZSSgkRy8nRxZETfPfITPfrAR1TOZjX40P0aefB+lf1a4Gdu6sJr5IJAgas9NmeMEhPIBp76O9pVLLYoCtLynJHvpCiMlUjKpFJ6sJjX+o09yqRSev3oz3Xs2Ftzrz+f1fRvfl45L68gdtrS3qq+zRt19uxZgj8AALAmDXZ36/uf/vQdt7ldE5DFHA/AykLwB8xBHMey1qpQKKhSqcwpZMhms0qSRJXK/DqXrjTlclnf+94z+u3PfEYb27t14dwxFaJIldKkcsZTayK1Waf2lk5l96bkZ1O1kWPW1daPS2Ip8FVrq2vVGBPnEimymraeKtbXf/z3v6WfVyv6yenT+vnx4xocuSYZoz/6oz/SY489puHhYQVBoHQ6rVQqpWKxqI0bN2rnzp36/ve/r6mpKaVSKSWxlUs8BbmU0k6qRqGmndHmHdvVuSOUokCyM402TH0gnqlP33X1Rhv1B39jSb8az1fjTs+rhYPlihRHtZtTsz4pra/517jUOpVI1t64LtXOZyMlNtIVP9HBAx/Uzk/9G1300zo7z6YxnZ2djRGQlWpZfsZTUo3lrKdEvqrGU9uuLQp6uzTZ3afrXlGBS8lZVxvl6Jvamn5WcpFTMjM20xjJ+IqiWElbUc4W5GIjJ6fEejIK5Ntalxc7lejS2etKp9OaGJtnV18ZlfycEj8t4zkplZ5zl20AAAAAWIsI/gAsiR+88opMYrW+v0ePHTyoP/3f/1STY6NKJVaZxColpyCOlctllUmnNNm9Xhf37tcjl88rbePaQZwUplI6sXu3oikpCqt6sDyh//r6oF63ka4FnuKUX5tuW58mHASBvPo01Hw+L2OMoihSFEUql8saGhpSHMeNxh8usbVpqymjrnUbNF6q6scvHdWZaqwWL5ZsXBuFKKNIRlNxJOP5tSzOSKnAl+TVR+rN6s4hyVcsz9wYJmjrDUKSaqg4jGQ9r7avrDzj145rXH1twHoGKCtrE3nGl4yR75xS1ihlfU10ZPRPv/1binIF9Q9fk1Kpef2MMpmMjDFKkkS+HyiMYyXOV1d3h/oLBRWGh3Tx/3teG9IF5dOBWlOS9YyMMYrjRJKTHwQKgkChTWTrGadzTom1KkiKUimNBf6NNRtl5Hu+5KQ4iWXjRO0uo5KcpvftkfZ/YM71h2Gon/7kJ42w1fc9BUGgUqk0r+cBAAAAANYKgj8AS2J0clKSlIyO6KVjb8hv71Aum5NXH9EWS0qckw18VTxPYaGgTGlMQ76Rb26MhEuMpOvX5IVSKkk0mlT1fMrXNTlFRurftFGlSkUDVy/LJlbf/OY3FYahDh06pKmpKV28eFHOOQVBoIGBAT3zzDONde1mOtwW21r08CMH1NneoYLxdD6yuppYpY2TqTfocEbyndG2ONLTb53UL4aG5ZJEvplZqc/UmnpImom40im/Fi7Wp4XHcaiHH/6Quru6ZJOkNjKu0bbDzCwCeNO6gLWpwvX76//6TvLkKU57iitVyY6pkiTKzjP4u3z5sgYHB1Uul2WMkWcSbezv147tO7Wxp1u50rR+Fjv90vgKjTRtbGNtQ5vUpqxPXL+mt3/+c8laGTnVlvirj1o0M1HfTU2AFdSncG/v7dVTBw7oSCVW2VqFHa3zqt9aq1KptOqnzwMAAADAUiH4A7CkxsfHNT4+rraWVqnlvYOdnKS2idFbbvetVe/Q0E23zV4FrqW1Vf0b+9XT06Nrw9d0+PBhZbNZXb9+XdVqVQMDAzLGKJ1Oa2hoSD/+8Y9VLlcaQVRbW5sefPBB7d29R+l0WpJUql/eLSWpzVoNjI3rrdKkxkevK44SOVdf8+5Ga5Ja7amgHoJJhUJem7fv0NDOnXLd6+by1M1JMQylMJz3aD+p9rOZmJiQJGUzGW3sv0877r9fm+7brPZ697dL73eMa9c0UC7p3C/PKKxUZK2Vnb38n27Mhp65LfA8dXZ0KLN1q64+8IAGwlBV55TJZNQy70cBAAAAAJgrgj9gjmYafBhj5HneHUcd+b4/5yYgmJ84jpXNZPXg3gf11ltvaXR0VC+++KJefPFFGWNUrVblnKs1pKinfdZaBUGgYrGobdu26cCBA3M6VyTpuOdp3dbN2qNI585aXbk8VJ+SWw+2ZiVecRzL8zwVigVtvm+DnnjiY8pms0v9FCyY7/sK6lN1e3t79cGH92v9+vXzqrFt3Trt+/gndC2xunDhgqbqI/Bmj/Azqs+CrgeC3eu6tG7XLvk7d+qf66MvAQAAAADLj+APmCPnnEqlUmMduep7BBie5ymfz6tcLiuO47tc5dpQLBa1a9cuJUmio0ePqlQqNdauk1Tr3ptKyff9RiOWIAj0oQ99aM6h32x9fX3q6elR17o+PfPMP9QnuEqzo19jjHw55fNZ3b/zfh06dGjRj3M5zIR+jzzyiDZu3Cjf92+73ezg9N0KhYKeeuopPf/88zp9+peaLtWadDg30+xDkjEynpFnPD3+8Se0ffvWW4430/l6rmZqmu9+qwUfJgDAynSn36loDn6nAlhLCP6AeapUKkqlUsrlciqXyzfdFwSBMpmMyuVyI4TC8giCQPfff782btyoJEkUhqHGxsY0Pj4ua62y2aza29vV1tYmqfamu1AoLPh8nudp832b9Dtf/qIkp3K5oomJCVUqFWWzWbW2tiqTSTdeA/eij3/849q/f79SqZTy+fwdA7QDBw7okUceuePxfvd3f1eVSlU2SVSpVnXixAkNDg6qUChoy5Yt2rxls4xq06tnplXP9sYbb+j48eNzrr9QKOgLX/iCcrncnPdZTc6dO6e///u/b3YZAIB5evLJJ7V169Zml4FZDh8+rMOHDze7DAC4Kwj+gHmy1iqOYwVBcEsA4ZxTGIZKkoRPEZeZMUa5XK7xM0iSRJ2dnY2pvr7vK5PJLOlU20wmo56ebkm1ab3r1nU1XguZTEa+79/Tn+i3tbUpn8/PaduWlhb19/fP+dhxHGvLls0qlUpKpVJqa2trhK7v5e23357z8aVa+Nrb26tisTiv/VaL8fHxZpcAAFiAzs7Oef1OxfJraWGVYQBrB8EfsAAzo/nePYrJWtuYWoq7y/d95fP5OQdbizWzVl6zzA6g4zh+zzUnPc97322WQhAE6uvrW7bjAwAAAADmj+APWKAkSW6Z6gvcLUmSqFqtqlAoNBrP3M7MyMdSvQkHAAAAAGDtCNbqIulLaaUtDssCw/ceXkNYCH4OAAAAy2ux77cWsr/neWu2mdlcraQPtHnPfm9aS6+h4Gtf+9oSlrM2HT58WK+++mqzy5izp556igWG7zG8hrAQ09PTevbZZxl5CgAAsEy2bNmiz3/+8wvef+b92nwcOHBAH/zgBxd8ztWuVCrpb/7mb1QqlZpdypws9jWEpbfWXkPB+vXrl7CctWmlLTTf0dEhfu73Fl5DWIipqSk+DQYAAFhG2Wx2Ue97F/J+rVgs8l77DiYmJuT7frPLmLPFvoaw9Nbaa4i/GAFghUqlUnrooYfU1dV1219cvu/L8zxFUbSippIDAAAAAJYGwR8ArFCZTEaf+MQntGHDhtt2GA6CQL7vq1KpEPwBAAAAwBpE8AcAKxwLQAMAAAAAboe/FAFghTt06JAOHDigXC7XuG3m+0ql0qyyAAAAAABNduvcMADAitLe3q5sNitrbSPws9YqjuMV1aYeAAAAALC0CP4AYBVIkkRxHCudTkuS4jhWkiQLPt7AwIB+8pOfLFV573mO+YiiSEePHm08xrVmcHCw2SUAABbg1KlTGhsba3YZmGW+70EAYCUj+AOAVSJJEpXL5SU51qlTp3Tq1KklOdZ7yWQyamlpmfP25XJZP/zhDxnFCABYUQ4fPtzsEgAAaxhr/AEAAAAAAACrEMEfAAAAAAAAsAoR/AEAAAAAAACrULDci7evBSttcVgWGL738BrCYq201xAAAMBKMDo6uqiGZ2EYKoqieTUnuxtN1laySqWiMAybXcacLfY1hKW31l5DwdNPP72E5WAlYIFhLBavIQAAAKwFg4ODWszfzJ7nqVAozCv4O3XqlN54440FnxP3lsW+hoBF/39oCWsBAK8Tj9YAACAASURBVAAAAAAAcI8g+AMAAAAAAABWIYI/AAAAAAAAYBUi+AMAAAAAAABWIYI/AAAAAAAAYBUi+AMAAAAAAABWIYI/AAAAAAAAYBUi+AMAAAAAAABWIYI/AAAAAAAAYBUi+AMAAAAAAABWIYI/AAAAAAAAYBUi+AMAAAAAAABWoaDZBQBY2XK5nA4dOqRsNjvnfU6cOKETJ04sY1UAAAAAAIDgD8CipFIp7du3T62trXPep6WlRW1tbXPadnR0VKdOnVpoeVigTZs2aePGjct6juHhYY2Njc15+3Q6rd27dysI1uavLv5bAICVaffu3ero6Gh2GZhlYGBAFy9ebHYZAHBXrM2/ngA01a5du7Rr1645bXv+/HlNT0/PadskSTQ4OKgkSRZTHlT7GX3yk59c1nP8+Mc/1uHDh+e8fTab1Wc+8xkVi8VlrOredfLkSYI/AFiBHnnkEe3Zs6fZZWCWH/3oRwR/ANYMgj8A97QtW7boq1/96py2nZiY0J//+Z9rcnJyTttba+WcW0x5AAAAAADcswj+AKwaxWJRv//7vy9r7Zy2f+aZZ3T27NllrgoAAAAAgOYg+AOwaniep56enjlv/8QTT+jDH/7wnLe/cuWKXn755YWUBgAAAADAXUfwh1UhnU5r3759SqVSzS5lzclms0qn080uY0F27Ngxr+0HBwfnPJowiiIdO3ZMYRgupDQAAAAAABaN4A+rQiqV0t69e7Vlyxblcrlml4NVqq+vT7/2a782p21LpVLjMhfDw8Mql8uLKQ8AAAAAgJsQ/GFVKJVK+uY3v6mvfOUrdE3DPaFQKOgrX/nKnLf/9re/Pa+Orc65OY8+BAAAAACsTQR/AHAPePLJJ/WpT31qztufPXtWzzzzzDJWBAAAAABY6Qj+AOAe0NHRccttL7/8sq5cuXLb7cfGxpa7JAAAAADACkfwBwBNcPHiRQ0MDNxxmyNHjmhwcPAuVQQAAAAAWG0I/gBgiZXLZQ0PD99xmyNHjujIkSN3qSIAAAAAwFpE8AcA85QkyR3vP3v2rL797W/fpWqWh7X2fR/nYjnn5r1PkiTLXte9imYuALAy3Y3fqZgffqcCWEsI/gBgHkqlkv76r/9apVLpPbepVqt3saLl8dprr+nEiRPLeo4oimSMmfP2pVJJ3/jGN+a1z2qyGl5XALAWPfvss3ruueeaXQZmmZqaanYJAHDXEPxhVXn55Zf11ltvNbuMhgceeEB79+5d1DHK5bKef/55lcvlJapqaeVyOR06dEi5XK7ZpSyJl19+WZcvX37P+6Mo0oULFxRF0V2s6u6bmppa9jfFmUxGLS0tc94+SRINDw/zKT0AYEUZHR1tdgkAgDWM4A+rypkzZ5py3t27d9+2K2sQLP4/MWOMUqlUY4rI6OioTp06tejjLpXW1lZ97GMfWzHB3/s9fzTUAAAAAACsFgR/wBLYtm2btmzZIknyfV99fX3yfX9Jjp3NZvWZz3ymcf38+fOanp5uXB8fH9f4+PiSnGulS5JEg4ODd1xH5/z58/rBD35wF6sCAAAAAKA5CP6AJTA7SGppadFXv/pVtba2SqqN2PM8b8nOtWXLFn31q19tXH/hhRf0/PPPN65baxfUNGEleL/HNjExob/8y7/U5OTkXawKAAAAAIB7E8EfsMRmGhDMjPjbtm2bPv/5zy/b+Q4cOKAHHnigcf2ZZ57R2bNnl+18zfTss8/e8bElSXLHphsAAAAAAKwlBH/AErPWanh4uHG9XC7f1I1zKRp+zFYsFlUsFhvXn3jiCT388MONc9/LjUFmO378+Pt2kT1z5gzTmgEAAAAAmCOCP2CZjY+P6+jRo43rU1NTN4VXe/bsuW1jkIXasWNH4/tKpaLp6WlVKhVJ0sjISFMag4yOjurkyZN33Ob06dM6ffr0XaoIAAAAAIDVj+APuMveHXDFcazNmzcrl8upp6dnSc+VzWb16U9/unH9/PnzN43+GxsbW/QIuiRJNDAwoEKh8J7bvPPOOzTUAAAAAADgLiP4A5psJhDbvXu3vvzlLzduX+qmIFKtMcgf/MEfNK4vRWOQUqmkb33rW0tWIwAAAAAAWBoEf8A94ty5c/qzP/uzxvWDBw/q4MGDy3rOtdQYBAAAAACAtYbgD7hHVKtVDQ4ONq4fPnxYFy9ebFx/7LHH1N/fv6TnXC2NQQAAAAAAwK0I/oB71JUrV3TlypXG9SAI1NvbK0lKp9Pat2+f0un0kp7zXmwMAgAAAAAAFobgD1ghDh8+3Pi+UCgon8+rUCiovb1dbW1tS36+u9EYZEZPT49yudxt7yuXyxoaGlqS8wAAAAAAsJYQ/AEr0OyGGk888YSeeOKJxn2+78sYs+TnvF1jkBdeeKFxPUmSOTUGuV19n/vc57R79+7bbn/q1Cl95zvfmdc5AAAAAAAAwR+w4r322ms6ceJE4/rnP/95bdu2bdnPu9DGIL/6q796S30dHR3vuf3WrVv1h3/4h/M6BwAAAAAAIPgDVrypqSlNTU01rr/wwgs6evSoJCmXy+nQoUPvOY12Me7UGOROduzYMa+pyZlMRn19fY1zZLPZm4JOAAAAAABwewR/wCpz5syZxvfZbFb5fF7ZbFaS1NnZ+Z5TahdrdmOQ5bJjxw4lSaL29naFYahjx44pDMNlPy8AAAAAACsRwR+wilUqFf3TP/1T4/qWLVsao//u1FDjXrZr1y7t2rVLpVJJpVLplqYjAAAAAACghuAPWEPOnz+vr3/965KkL33pS43Rf8YY+b7fzNLmrVAo6Ctf+Yq+853v6NSpU3LOKUmSZpe1anieJ8/zlv0c8zHzOl3uuu5VvMYBYGVarsZrWDhrray1zS4DAO4Kgj9gjXr22Wf13HPPSaqt1/fFL35RhUKhyVXN35NPPqlPfepTOnv2rJ5++ulml7NqHDhwQI8++uiynuP111/XW2+9NeftC4WCfuu3fkv5fH4Zq7p38RoHgJXpySefvCuN1zB3P/nJT/Tqq682uwwAuCsI/oA1amxsrPH9yMiIvv/97yuVSkmS+vv79fjjjzertHlpb2+XVFvP0FqrH/3oR0z9XQLFYlG9vb3Leo75Bs2e56m7u/umpjJrycjISLNLAAAsQHt7+7L/TsX8rNX3EgDWJoI/AIqiSG+++Wbj+qVLl26aTrlp0yZt2rSpGaXNWVtbmx5++GGVSiVVKhVdvHhRFy9ebHZZAAAAAAA0DcEfgFtcvXpVzzzzTOP6Rz7yEVlr5fu+1q9ff8+uB5jNZvXpT39aknTkyBFVq1UNDQ01uSoAAAAAAJpjba6QDmDOfN/X66+/rr/4i7/QX/3VX2l6errZJc3JRz7yEX3uc59TEAQKgoBFtQEAAAAAaw4j/gDc0ewFqT3PW1ENQLZu3aqvfe1rkqSnn35aZ8+ebXJFAAAAAADcPQR/AG6yd+9e7d27t3F9+/btamtra2JFC5fJZBqLaR86dEj79+/X5cuX9dJLLzW5MgAAAAAAlh/BH7DGdXZ2avfu3Y3ru3bt0q5du5pY0fLYvn27JGnDhg2qVCo6duyYwjBsclUAAAAAACwfgj9gjXl3g44tW7bos5/9bJOrunt6e3v12c9+VtPT0yqVShofH9fY2FizywIAAAAAYMkR/AFrTD6f12//9m+rpaWlcVscx3fcx/M8ed7q6QVUKBT0O7/zO5KkF154Qc8//7ySJGlyVQAAAAAALC2CP2CNKZVK+sY3vjGvIO/RRx/VwYMHl7Gq5jlw4IByuZyefvrpZpcCAAAAAMCSIvgD1hhrrYaHh+e1z+HDh3XhwoU5bdvf36/HH398IaU1RbFY1AMPPKBMJiNJeumll3T58uUmVwUAAAAAwOIR/AF4X1euXNGVK1fmtO2lS5fmPJowlUrpAx/4gNLp9GLKW7S2tjZ9+MMfllSb9nzkyBFdvHixqTU128WLF/XKK68s+znmIwxDHTlypBHSrjWDg4PNLgEAsAAnT57U6Ohos8vALGv9fR6AtYXgD8CSunr1qp555pk5bVsoFBqXuejp6VEul1tMee/rwIEDjTUNkyTRlStX1uT6f6dPn9bp06eX9RyZTOamtSbfT6VS0XPPPSdr7TJWBQDA0nrttdeaXQIAYA0j+APQNKVSSd/61rfmvP2XvvQl7d69e07bLqYhyf79+7V//35NTk7q61//ukZHR+WcW9CxAAAAAABoFoI/ACvGs88+q+eee25O2y5FQ5JCoaDf+73f09/93d/p7NmzizoWAAAAAAB3G8EfgBVjbGxsztsuRUMSz/PU3d2tQ4cOaf/+/bp8+bJeeumlOdcAAAAAAEAzEfwBWJWWoyFJGIaLLQsAAAAAgLuG4A/AmjefhiQAAAAAAKwUC1v5HgAAAAAAAMA9jeAPAAAAAAAAWIUI/gAAAAAAAIBViOAPAAAAAAAAWIUI/gAAAAAAAIBVKIjjuNk1AADWoHQ6Pe994jiWtXYZqmkeY4x83292GQCAJnDOKUmSZpeBZeR58x9r45wTf6cDWCrBd77znWbXAABYgw4ePKjHH398ztuXy2V973vf09TU1DJWdfdt2rRJhw4danYZAIAmGBgY0PPPP9/sMrCMisWifvM3f1NtbW1z3ufYsWN69dVXl7EqAGtJcP369WbXAABYg6anp+e1vbVWIyMjmpycXKaKmiMMQ3mep49+9KPKZDLNLgcAcBccPXpUQ0NDmpqaEn+PrW5hGM57tsL09DSvCwBLJmh2AQAArGWTk5M6fvy4crmc9uzZM68RAQuxZ88edXZ2znn7kZERnTx5chkrkjo7O7Vnz5557XPy5EmNjIwsU0U1PFdzx3O1fO7Vx8HPfGGiKNKpU6f01ltv6dq1a3ftvACAtYvgDwDQNM45RVGkcrmsiYkJeZ6nJEk0NTWlsbExjY+Pa3JyUtVqtdmlLqtqtaqXX35Zvu9r9+7damlpWbZzHThwYF5/GJ88eXLZ/1jv7e3VU089Na99RkZGlv2PdZ6rueO5Wj736uPgZ74w1WpVr7zyyqpbtgIAcO8i+AMANIW1VpVKRZVKZU6jHtbCItcvvviiwjDUwYMHafgBAKvMTCMP51yzSwEArCEEfwCApvjpT386r9Ef1lqVSqVlrOjecOzYMVUqFRp+AMAqMzAwoOeee07lcrnZpQAA1hCCPwBAU5RKpTUR5M3X9PT0qmtgAgBr3ZkzZ/T6669rdHS02aUAANaY4Av/zdeaXQMAAGvOj3/4rC5fONfsMgAAd8HQ0JAuXLhw2/ty+YI+9etfUK5QuMtV4W4IfE+5fEFhGGpycrIxg+HatWsaGBhQkiQqlUqamppSqVRSGIba++ED6tnxYLNLB7BKBP/hf/3Pza4BAIA159I7Zwn+AAAqtLbqv/0f/2et61vf7FKwDKJKWcdf/IHCyrSspMnIaXJ0Uhq93eh+o2z7Ov2bRw5pw659d7tUAKsUU30BAAAAAFgGqWxOH/z0v212GQDWMK/ZBQAAAAAAAABYegR/AAAAAAAAwCpE8AcAAAAAAACsQgR/AAAAAAAAwCpE8AcAAAAAAACsQgR/AAAAAAAAwCpE8AcAAAAAAACsQgR/AAAAAAAAwCpE8AcAAAAAAACsQgR/AAAAAAAAwCpE8AcAAAAAAACsQgR/AAAAAAAAwCpE8AcAAAAAAACsQgR/AAAAAAAAwCpE8AcAAAAAAACsQgR/AAAAAAAAwCpE8AcAAAAAAACsQgR/AAAAAAAAwCpE8AcAAAAAAACsQgR/AAAAAAAAwCpE8AcAAAAAAACsQgR/AAAAAAAAwCpE8AcAAAAAAACsQgR/AAAAAAAAwCpE8AcAAAAAAACsQgR/AAAAAAAAwCpE8AcAAAAAAACsQgR/AAAAAAAAwCpE8AcAAAAAAACsQkGzCwAAAFgLkiSR53nyfV/GmMbtzjlJuum22bfPMMbIGKMkSeZ1XmOMfN+/5VzOOVlr5/04AAAAsHIQ/AEAANwFhw8f1oMP7tUnP/kpSVIqlVIcx43wzfO8RrhnrZW1Vs45eV5tgoYxRtlsVocPH5ZUC/FmgrzZIeHMcWaO0dnZqf37998U9OVyOV28eFHnz5+/a48fAAAAdx/BHwAAwDJYt26detZ1y5dR4ksdnR3q6OxQvpCTZ3wFvq8oiiXdCPeck4yRbD2k84yRs07OqDFasFQq3TTqbyb0S6VScrYeABo1gsN0KqV0Ol0PFWsjD33fV29fr7L5nGxiFVarunr1qsrl8t1+mgAAALCMCP4AAACWWHd3t/rXr1dne4cCz1McGPX29Un1UXpRGGlsakQjoyOamJjU9HRJ5XJFYVhVJptVT2+venp6lM9m60c08nyvERDGcVxLCCVFUajxiQldvnRJUxNTkpz8IJDxPLW0tKilWFR7W7va2jtULOZljKfEWuVzeeWzeSU2UaVSUV9fnwYGBjQwMNCcJw0AAABLjuAPAABgifX396uzs1OlUklDQ8MqR9Py5MnIU5Ikmi6XdO3asK5evarx8XFVw6qsdapWq2ptb9MeF6vYVpSf9uWslZHkJbUpvE610Xx+OiXjGYUu1ujkmN48dVwjw9dqU3yd03S5rLa2VrW2tqmnu1d9vX3qbO9UEKRknZUSq1wmra7ubqXTKd2/a5eMMQR/AAAAqwjBHwAAwBKaWWMvsVZvnz+nb33nO3rn/Bll0mkZ31fVxkpklcvllS/ktHPn/Tr4+K9o//79ymazCtIp+alAKT+QJ6Nr16/JxE6eJJnadGA5p9Z1nUrnsnKStj20S48e+pjknMrTZb1z4R0dfu01nTnzS524fFY/PvZTVSZLyrqU2ltbFVZDVSpVbd68Wf/+3/077dyxQ++8846Ghoaa++QBAABgSRH8AQAALJF0Oq19+/apUCjoX/71X/TPP35Rnet79MFPHZRJBYpMokRWGT+jLffdp66WdrW1tKi1pUXZYlHWWkXGKPasQsXyPU/57g6VxyZULldkEytPRplsRhXPqmqrsvWFAa1JZJyTywXq23afPrl+nX4ljnTu8oAuDw5qfHxUYVhRMZuTEqdoOtbElVH9P9/9W23o7dNTTz11SydhAAAArGwEfwAAAEvEGKNirqhn/v77Oj90Sf17tyrdlleuu01+KpDxPRXzea3v7FFba6tymUxtZJ/vq5qEtSm98iQryXhy8uT5vkw+IxtHSkKrfEtRnh8okZWsk3OSk5GziZy1cs7KGqtUJpAXeNq8YYP6urs1Nj6m8xfOKxUEip1V1JrIywaKVNXpE7/QE1Mlbb7vPlWrVV26dKnZTyUAAACWAMEfAADAEsjlctq4YaOCwNeZ829rKpVo95b7ZX2nRFb5bEb5XF5t+YLaWlrkGSlKYjkj+cbJN06B78t4kjxPxjdynqfEk4yfUTw5pdgmSre1KHFOMomckWrzf42clWxsFUeJoihSksQqT5eVTqeVyeclm6irrUNBKqWJ6SklrqxMa05d2/pVLpX0zqWL6ujoUFdXF8EfAADAKkHwBwAAsASKxaK2bd+mUqmk9g09sraiiouV8nwVCgV1r+tWW0uLMqnaWn/WSCbwpcCXCQIZ35d8Xzbw6+sEenLGSJ4nJ6NqEikKQ3m5tJIklpORjJOTJzkjG0ueb2RkZZNYiYxiIwWBJ+ecvFSg/g0blMlmNHz9moaGhzUWhvKzGd3/8D4d+9lx5TIZ7XtoX7OfSgAAACwRgj8AAIAlUGvokeitE2+qa2OfMl4s53nyM2lt3bldXZ1dKuQLCoJATrV1+Ux9PzW+OllJ1klKnFwYSb6RtUbVSlVRpaqkGimKYzmT1IM/IzmpUg3V1taiVCYlpQNNVcpqK+QVBL5knfK2Rb7vK5NOq7OnWwp8jU+X5EsKk0QXr13R9vERSZLv+0qSpEnPJAAAAJYKwR8AAMASKU+X9bff/656PrRdXev71N3RrQcOflC5TE6+8VRVomqSyDdevZGGUT33uxEAOiltfE2OjOnMmyclz8jKSJGVZ6WfvviyrKlFhLWLJPmKoli7PrxXHT1dUuDJelJoE7lESuJYURzLDwKVwoq8wFfv5k0KinldPveOhoau6v6H9mjrzh3q6+uT7/s6duyYwjBs0jMJAACApUDwBwAAsEgvv/yS3nrruNb1dKucxLJWWtfTo03bNiuVyShxiRJbG0FnJMUzaV8t+5MxRrXxf5KM08j1cV0/f0UTo+O1Kb+SPOPJSHLW1df2c3KuFvwZ48tICqcrqlSril0iOacwCuV5GXmBJyNPFRsqFQTynGRSnlo6W9VjN2jo+rCK7W069ctfqDIyqUcffbQRRAIAAGDlIvgDAABYpDCMVC6XJSNt3LZF+WJBhbaiCp1tKodV+a42Lm92wDcztbc26m9WyOY5DV8f1pXLl+RVne6Uv9UPK8/EymQymhyflMkG8nKBnHOyzqpSrch4Rk6SM7VGI7G1tenGnlGxvUX9mzZq1A3p9PE3NDJwVY999KM3gkgAAACsWAR/AAAAi7R9+3ZNTU3p+KkT6t+yUf66vPx8SpFixZFTys0K+8y7IrV3X/ecJksljU9OKOtSN9K9WeoDBWcOIOMZmcDXxPi4TD5Qzi/Upwg7VcNQ1lp5vq9UNq0wjmvTjJ2rTRM2Rpu3b9H09QlFShTLyTOeyP0AAABWPoI/AACAJXDq1Gn9b3/6n/SJL35WD23dpbZ1nYriUEZSZGeN6jOmvr6fbgn9jDGyxiqKI1WjSHEY3TZ/uzn4qx0nShK19nfLy6blAk/VMFSSJPLq3YIT52Tra/ZZaxvnk5ysS1RVpK6Nvdraul6B58n3fZnZtQIAAGDFIfgDAABYJCPJ942CjK9ETrGsrLUy9QYerraQn2oNeGshoLNWctJMrOYZUx/cZ9XV3S1tjnXx9Llbg7/6PjdNATZSuWKVeEaxcbJxJGetjOcpTpL6OoKe3Mw6g6bWCdjW70tkteP+ncomKQUTsUpTJX3wgx/UyZMnNTIysrxPHgAAAJYNwR8AAMAiGUktrS3a+YE9WrehT5lsVkZGzpl6sFf/19W/N7fO4LWNCNApncuqe3O/im1FRVGsqFJVpVxWaXxS5dFJ+cWcMrmMcvmscvm8MvmcksSq0FmUk1USucZIPScnOSNnkkbK6GpRZGMba4xS+axSxYzOnjqjv3jjuP77/+6rSqVSy/q8AQAAYHkR/AEAACzC9evXdXVoSJFL1Ld1k/o3b1Q2l1NtpN8sM2vqzXytm93YY2YKr/GM0sWc0i05xVGsOIwUViryB68pnCypa9N65VpyyuSyyuZySuWysjapTRV2VkpUGxLYmFIs6V1BYyNmrC30J+usYpfo6uiwLr5+XP9VHNPZFwAAYIUj+AMAAFiEq1ev6thbb+n022eULRbU1tUpP0jJWvvurK1h5vbZo+5mbvfqX62kRE7yJC+bVi6XVlQJNRIEWrdpvdL5TC3bk1HsScbz5OL69GLzriGF77NOnzG1df+cZ5TJ59Ta1Vkflcj6fgAAACsZwR8AAMAiBEGgI0d/qn988Xk9+vknFNpE6cSTk+Rut0CfpJnRgO++22lW4w4npdyNe4wkz0pe4Eu+kZc4mXeNHrSmfs6bbp8dM97ezCjD1rZWbd25Xb3ZduXyeQVBIM/zGs1AAAAAsLIQ/AEAACyCc05REqkaV5VYq8Qmss6vhXizZtq+a6/Gv7cbUzdzm1UtzJuRKua0YetmBc5T7Kyc3E3hovdeB7zpqLfe4tXP1dbeLtffr4vXppQv5LV//34dP35cZ86cea+DAgAA4B7mNbsAAACAlcz3ffX1r9eWHVsVpGufqVpXb65RvzjnZFW7uFn3uXdtN/u2293nZwLletrlvJnmHXfe9/0ut+xnJBcYlaNQ3/3e9zQ0NKQg4HNiAACAlYp3cgAAAAsQhqF+9rOfKQgCtXW0q3djv9q6OurL6906us5qVvMOd2u/jZmBe7fseXMnEJlMUO/U696zYcdtD1E/gbnNRo0Rhs4pkVM5quqHz/9I92/foUw68x5HBQAAwL2O4A8AAGABasHfUWWzOV0fHVGuWFBXb7eMMTc37HhXCOgkOVtbs89Itc4a9e65ztXX6FtoM92ZZNFJxjkZz5NNElnV1vCTJFM/uKvFhzd37jVG8oxim2jg6hWFYaR8JrfAYgAAANBsBH8AAAALkE6n9eijH9Wf/MmfaGB8SLse+7ByLUXFim9uhuEkxYmMdbU1+BKrJE5qHXw9T0HgywS+Er8eyM006FiAxmi+xEpRonQ6rfJ0Rc45+UEg4xkZr7bSS2ScEq82VbmxvzFK5GQ9o3QhJz/wb3MWAAAArBQEfwAAAAtgjFEqlVKcRKpEoSIbK4pCueBGamdkZKuxzp36hWwlkuckY51cPRi0qoV81kg27euBvQ/Iy6Rqa/gtoCbfSteHhjV05apcJZJvPLk4kanPCrayCtJpVaNILeva1bWhT/lioRE0WucURZGcnPZ+4CH19a9XPF1d9HMFAACA5iD4AwAAWCAjI6WMlJISOYU2VmD92j3WqTw5reELg5oenmis62dcffqvubG2nnO1qbjvnDqnvq39yrTmZc3t1+O71cz8XmnwwmWNXb2maqksxbVw0tTXAqy1AnGKK4kSa1WyY0oqodItBfVsWi8v8GWdkzFSJp+Tr5T+9eUX9eCOPXrooYf05ptvLsdTCAAAgGVEV18AAIAFMMYom8lo3fpeFTvaGimdq4/oK41N6PqFQU0OjciFiZQ4yUrOSrXUz8jUL76M/ESauDaipBrWOu1aO8fLjW0nRydUnpiSIivPGZmZIYUyMjLy5ElW8uUpqYQqXRvT+NVrSuJENrGyiZXvB2rr6FAiq1cOv6pLVy6rq6uric80AAAAForgDwAAYAGstRofH1dbV6da29vl6gPvrLNyzmlyZExjg0PyrHtXA433OKBRLaxzppYhWifn5nfxVB+FtIKDAQAAIABJREFUOIc1Ao2TTGKlam1NwtoxrFKplDo7O5U4q8uDgxoaHla1ynRfAACAlYjgDwAAYJ6cc5qentY//MM/6NzFC6rGkZIkURRFjRDNlydfnqxqTTxuCv/e+8CKw1A2iuc4zfdmvjHyzNzbAhsZeU6ySVIbNeikIAhUbCkqSKdkAl9e4N/UAAQAAAArB2v8AQAAzFOpVNLx48f1/37vu8ps7FB+XZviKJJLrKyMZrI3E3iy1smzdz6eq188SWG5orBSlZdNN9YBnMkA3x3pzb5PkmxSC+/mwhnJ1o+QRLFM4MsYI894CoJAzjndt3Wzuvt65nZAAAAA3HMI/gAAAObJWqtqWNXk9LgCW5Tne/ICv9ax1yVynlMSx4qTuDb1do6TLJykynRF6UqodDol41yj4+7M/bOTvsZ9buaLk5GTcXMZXWhUX12wNrowmYkBrRJbG3GYKWSVzecUBLxlBAAAWIl4FwcAALAAzjnlWgoKAl++78kPAilxcsYpsU6JtXLOyjNzX1nFSaqWK6pWQwU2L+NuHSp4pwF9zt3oBPz+A/9M42sSxTK+Jxkj55zCqCpnnUzg6+z5c4onynN+DAAAALh3EPwBAADMk3O1hh2dPd1SKlAQBEqn07LW1qb4GiNn32d+73uohqGiMKzvP7+F/pxzqvcYmcc+VmFYlVKefN+Xs05JktTWKjTS0dd/pmMVq4cefEhtbW3yPJaIBgAAWCkI/gAAAObJGKNMJqP1GzdopDyubDarlmJRTk5ytTDNWivrnLz5pHCS4ihSHCf1Y71H8OecZG6eA+xU6+w7z6xQSWIVhqGCbEbGePIk+V595F8ca2xiXKXLIzKSDhx4RJlMZn4nAAAAQNPwkS0AAMA8hWGoa9evazqqKrFO6XRG2VyuNuLOOTknWedkk0RJkmg+aZxNbK3LbuJq4eHtLu7W+9QI/ebW1ddaqyiqdSOOq5GsrdVpnZN1tdGDnufJ9z09+OAD+uM//p/U2tq6wGcMAAAAzcCIPwAAgHk6d+7/Z+9Oo+S4zjNBv/fGkpGZVZW1AFUAqoAq7ACJjQQI7iTATSIbokXb0ohsSy2yafuH3Z6WZM2Zbk97LB398Onu0z4+ctuiZY42y9ZIlCiZpnu0AAZEcANBUiRBggCEldhrr8ottnvnR2REZdaGKhBAYXkfO1mVkZGRNxI8bvTL77vfYTz9/zyNYVmGsAwYhgHTNICq7l5RCeFCrYFQwTCMKV1bKA2hQkAH0fQOMV7zbuVYvJ+fQDymI/kfIArvgiCAUiqKA4WAYVlQWietyFppFAeGkarLwjRtQGmEgQKUhlAKtpNCbnYTZrfOhpziPRARERHR5YEVf0RERETT1Nffh12vvQbP9wEdBWrSkNBK1z60hoKG0gphGEatuOcgAQitAa0AxJV88c/q36OfOjmuR0I/rQGloIIQ2g+g/RA6CKH9EL7rIgh8qHhwiNYoF0oI/SBZdxhEa9VKI53NINfcBMMwp7V3IBERERHNPFb8EREREU2D7/souS58KIhkn71KyFc10ENrBV1VmReqEABgSGPiTlwNCCkhhIBSo0PC8ULD6JjQgIZIgkWtNcIgQBgqQANG5VSlFbwghDSjKkVhGNCIqgLDuGVYRfcRty2nMg7qcvWwLes8vzEiIiIimikM/oiIiIimYXBwEN3dZ6FktI+f1tEUXN8PoKsCPSGiKblhJYyLwrwoUIvbfoUYlQBWOntHQsRJaux07XviSj9VqfQL/Sho1ALQlc+OW36VH1S6hQWEFACi94VKQVbCx2S/QmiE8eAQIiIiIrqiMPgjIiIimoYwDKEApNJpAJXqujBq5RWGHNl+TwPQEnJUYBbvu6e1hmmakLJ25xUtBDRQqfg7d9gm4k7fIISqtOkGvg9DSCjoaE1SJn/pc8vlqKovDAEBmJYVtfaquHU4GvwRhmElDAzh+j4Cz/+wXx0RERERXWIM/oiIiIimQUoD6XQGzbOaIYSAVhpCawhEoZ4AoEJdOQ7UlAGOkkzkBSArLb6QgIq26Ku5ZlLgN6pKMMoVNZQbIPB8KD+ADkMEhoZpWtBSxG8EANi2HQ38CBUQKoQyjMLHeOCHji4qpIzqDZXCiePH8aNnfwQ/CC7Qt0hERERElwKDPyIiIqIqpmliwYIF2LVrFzzPw9q1a2teF0LAsm1kshmEQQBoDc/1UC6VoKSARBTo+b6PybpjhRA17bNKKUgpo9DOD+CXPQhRCf6ESAI+UdnLr7KbHyqHERZKcMsugjBq8RVSAnIkJIw/SxpGZc+/AEqFUGEIw5bQoULg+xAaCIMASitopSA0cPr0afz84Cn83u/+Ls6cOYOBwcGae3n++X9GX18f1qxZg3K5DN/30dzcDMdxzu8PgYiIiIguCAZ/RERERFWklGhra8M3v/lN9PR0Y/ny5TUBlpQSUkbTc33fRxiGKJdLKOYLUBKQEFBaI/C8JLSbqmgPwGjybrlYqgR/cZVfPMG3sgegjluBRbQPX74E3/OgoKNwzzSjVt9R+wQqVEJBQ0JrBSgFAwZCP4BbciF0NMDEcz2oSrBZKBTQe3IQN9xwA17dtWtM8Pf6628gCEKYpgnHcVAoFBAEAWbPno10pSWaiIiIiC49ee5TiIiIiK4dnufh5Zdfxt69e3HkyFGcOXOm5nUpJaSQyT59Sqmk3RcaQKiBIJqOO53QLx6mISCgghBeuQy3VK78LFV+d+G5LnzPQ+j7CP0g+un68MpuNLxDSghTRh3G43y+hoaCBqSANAwIISC0hu+68Cqf55fKSfjnui6gNerr61AqlRBWKgqr/emf/ikWL16M5577p+TYgQMHcOLEiSnfPxERERFdeKz4IyIiIhrHokWLMHfunDHh3eDgIM6ePQs/8CGETPbHg4qmbGggapMd1ecrKo/qkR3jbf8nKifEe/+NvsZo0ZZ8lWEd8d58hgFVOVnG16y+jiFhVNqH4yEeSmlIrZKKwmjQR3Q8CBVCz40qBSfQ0dGOUqk4si5OASYiIiKacQz+iIiIiMbR2dmJ1ta2mmNf//rX8cYbb+BMfy8AGY/ujab6+tEefVAKIgwRllwM9w6gp6cH5XwJoRcAUiDX3IQFSxfCMAxoEU3RjYM2AUArDShAKhFNCpYChpDJOYaIwjchBMK44lAr+F4AFYQwTQEDlSZgETX6hiqEDhUMIWGaRjT9V0eVf4FWgJKwKgNJNIBQKQitkkBTCAk76yCVSo2ZQhxzXQ+lUil5LoSYVsUjEREREV14DP6IiIiIxnHrrbdixYoVNfv72baF4ydP4P1Dv4bd1BC19yoN7YfI9w6g59QZSBVNxw3KHkrDefT396OUdxH6ISCB0lAeliFRV1cHLQE/CKK9+fxK63CoIG0L0jahggBSGjVVhXGlnjCivQRDpSCkQENjI9xCCW6phCAMIaSEYRgIAx9hEEIrBakFLNuCHwZw6utQ15SDaZgwDQNSCcggagWWIaLNACsPwzCQTtnjVjLGpBQwKq3DRERERHR5YPBHRERENI6bbroJ9fX16O/vR2trKwDgwQcfwt79+/Hqr95AQ8qCIRSEEBg2BjB4pheH9rwPS0dTd4UGDAhAACIETGEAAEoDeRx8+320tDQDMgrvTNNEfTaLbDoNM2VCmiaElJAmIIWI9uoTgFCAUDpqEZYiavOVGoZlYnHnUvR19+Cdt9/G4cOHYZkmhBDwPS/agxBRNaFpGnCDAE1tszFvQQfq6urgGRLFfBHSkBAimupbHCogdKP3KqUhLAeu647bggwAbW1z0Nvbh/379yffFxERERHNLAZ/RERERBPYtWsXjhw5jOXLlyeDPAQE4CsU+waiUE4D+e4hGEJgVkMLDCCq4Ksa7mFICaWjaj2hFILAQ1AKUCgW0JDLYdV11+PezffgxhtvxLx585DL5ZB2HBjSiCrsZNQ2q0IF5fswTBPCkMn+fgDgBT4OHzqMr3/96+g70YNUKoVSqYS044y051ZahX0dQpQUTr17BMVyAaFpwPU92CkTaScFIYAgFDBUZaKw1PClBa01giBAGIZRq3JlarHWGkuXLsXJkyfxX/7L/4X//J//BE7KGf9LJSIiIqJLhsEfERER0TjCMERXVxdyuRy01iiXywCAxvp63HXrbfjfHv0UZjW3oLGxEZlMBqZlAiIayqGS4RiVoR5KQBqyUqUXtQIbhoHP//EX8Morr+DVV17F8WMf4LbbbkNDLodUKgVAQCEasBGGiKbwSgFhm1AAtFYAokBQArAg0dXegd//90/ik7/5W2idMyeaFIyq6cKV9SgRtQjvfOEF/J//6T9B+iEyMLDpljvxid/+bdxw4w0IKhOKy24JA4MDGBwaQnNTE15++SXk83msXHkdPM9DNpvF4OAgTp8+ja6uLvzVX/1PuGUXhWJhBv7UiIiIiKgagz8iIiK65u3duxd9fX3JQAqtNU6ePAkA8H0fP/7xj+F5Hj75yU/CcdJY0LkAd991F5xUCnYqBbPSVgtEe+RV/jcho0kbyVjeuHrw85/7PN5+6y3s2rULL774Il544QU05HJonzev5joielPVdUde0FpDAYAUsJwU5ncuQPv8DqQzmUnvWQPIpjNoaMhBhwpPPfU1HPj1r/Hc88+ju7cPj/3bf4v6ujoEQQDP81B2y8jnC/jEJz6Jbdu24eWXX4ZSCqZp4vDhw6iry1a+P4lSsYTFSxYjk8lg8eLFF+zPiYiIiIimh8EfERERXfO6u7tx4sQJAEgCvKNHjyZttLZtY926dQiCAG1z2uCkHbS0tAAYabWdaO87IJqREQd3Ma01brv1VixbuhTLli3DkiVL0NLSAkPK5Jo1gzR0JVSsppMYMGHZdhIsTkYIgblz5+I3H3kESil4vod9+/fBcRw05HLR9yAETMuCYZqwbBvFYgkbNmzA22+/jaNHjybf1ZEjR1DZzhBaA1JKXL/q+uQ7IiIiIqKZweCPiIiIrnmNjY0YGhpCPp+H1hqyEr7FD8dx8MlPfhLz589HU1NTTagWn1MtfiZqjtROu5VSQgiBlpYWbN68GZs2bUKhUIDjOONOzo0PJUNzxxwYWU/tWnRlLWPPiyscAeDRRx+FUqpm376Y67ro6+ur+W6q9/nTWgNCQFauJ4TAhg0bsHTp0jH3QURERESXDoM/IiIiuuatWbMGpmnivffeGxnIYURTeLXWyOVyWLNmDRoaGtDQ0IBUKgWlVE1AOJ7x40Ak160mhEBdXd2k14ved64D419/TLXgqHPiMFMIEQ0xqYR/Qgj09fVh165duOGGG2AYRrSvYGVgiBACtm3DMAwYhgHLspDJpJFK2RPeAxERERFdGgz+iIiIiAAsXrwY8+fPT54/8sgjWLRoEYCRUC4IAiilEIZhTUVgXCl3vkRV1d6Huc6HJUZVD1a3PX/3u9/F8uXL0djYiBUrVuDhhx9OznvkkUeSvfziir+2trZLt3AiIiIiGheDPyIiIiIAqVSqMk030t7engR/Sin09vZCa51UvAVBANM0a8K/qRvb+judsyqdtZOcGNX3CS3GXGDMeycRtyM3NzfjjjvugOM4EEJE+wA2NCTndXR0JN8VEREREV0+GPwRERERnUN1sBe3tPq+n7S7Vr8+WbAWFfPpyuvjnzS63m+i4A8AhIgHhlQHfCNNvULHk4bj8yfcGnBccTvz7NmzcddddyGVSkEIgY6ODgwMDGDfvn3nvggRERERzRgGf0RERETnIKqGVkgpUS6XcebMGXR2diZVf2EYAphqLd/lr3r/wnQ6jfb29uS1RYsWQUrJ4I+IiIjoMsfgj4iIiGgK4tBPa42TJ09i586d+PSnP436+noopUYq/nB1BH/xcBPXdeH7PhzHge/7Scjp+/4Mr5CIiIiIzoXBHxEREdEUxG29ALBgwQJ84hOfQCaTSdp8gzCAFJXW35la5AUihEiCv97eXuTzebS3tydVj0RERER0ZWDwR0RERDQF1cGfYRjJoIu40k8KiSAMIC5xvd+FrjDUWif3JaWE7/vwPC+peIxV/05ERERElycGf0RERETnIISAZVkIggC6Mh3DdV28+eabWLRoEXK5HADAc70rviJOSgnLsqCUghACdXV1ME1zTLVfzX0OPAuceX5qH5C9DUDThV00EREREY2LwR8REdE15PTp07Bte1rnX2zFYhEHDx6c9nsuttHfled5aG5uRjqdBgAEQYADBw6gubkZ9fX1yd538ZCPK1EccDqOgzAM8cEHx5FOO5g1a1Zyju/76Ovrw8mTJ0fe2PMNwP71lD6j3/kjnD778Qu99DEu13+vputyvQ/+3xIiIqIrg9jdo6/0bWiIiIiuOH/8mY9j58/Gr5BavHgxPv7xix+M0NRpreF5Hn77t38bq1atgmVZ8DwPvu+jWCzCNE2kUimEYYj+/n6EQSX8E6jZ8E9X/TM2tkIwfn3s8ep3Cl05RyCpQqx939i/4sVtyBq66vIivkmYpol0Oo1sNoswDPFXf/U/sXjxYjzySPTvo+d56Onpwc9//nO88cYbmDNnDgDg393+Q6ycN7Xg7xfv3o5fvHfHlM4lulq89NJLePnll8d9bdacufjm//cqZs2Ze4lXRURE1wJW/BERERFNIgxDFItF9Pb24umnn8aWLVvwwAMPwDAMKKXw/e9/H/PmzcO9994LpRQMw4DrugiCYNzrRRldFMpdrLbg8933z7Zt2LaNIAjgui4effRR1NfXwTAMDA0N4Wtf+xoGBgaQz+ev+JZmIiIiomsBgz8iIiKiSTQ1NWHFihX4+c9/jt7eXmzbtg3lchkf+chHkEqlcNddd8F1XfT29qKxsRGpVArDw8NwXRdAJdyrSuImCv601tBawzCMZLiG1hpSyuQ8IQQgBLRW0EqPqvSLXo+vAyEgKj9rVK+lsiAhBHK5HBzHgVIKSimEYYi2tlY4joNjR4/hueeew8GDB+H7PqSUyGazF/R7JiIiIqILj8EfERER0SRSqRRmz54NKSXWrVuHoaEh7NixHVJK3HjjjVi2bBlc10WhUEgGYjiOA9d1USqVpjX9VmuN7u5u9HT3wPVc5HI5tLW1ob6+HplMBo7jwDRNuK6LcrmMgYGB6PzeXoRBgPb2drS0tCCVSo0JBScSD/BIpVIQQuDkyZN488038cADD8BxHBw5fATbd2zHG2++AcMwsHbtWgwNDeHs2bPn+5USERER0SXC4I+IiIhoEmEYolwuIwgC3HbbbRgaGsJPf/pTPPvss8jn89iwYQM6OzuRyWTQ3d0N0zSRzWbh+z7K5TLK5TKAyv56VcV3ulJpF1cGNjc3wzRNeJ6H7p7uZO9AwzCQzWbR2NiIuro62LaNQqGAfD6PQqGAUrmMs2fPolwqoampCW1tbQCA02fOoDGXS6oAgbGtxVJKpFKppHrv5MmTeOedd/D+++/j4x//OE6fPo3tO7bjlVdeQa4xh3lz5+H+++/Hnj17LsmwBiIiIiL6cBj8EREREZ2DUgqlUglKKaxfvx6GYeCZZ57Bc889h+PHj+MjH/kIli5dikKhgFwuBwDJpN8PPvgAYRBCSJEEb1oDSitYpokzZ85Aa42VK1cil8th1apVlXM0LMtKWn2rHw0NDVChwsKFC3HbbbchDEO4roeoE1jgwIED+NWvfoVbb7klmjSsFAwpYZrxX/2ifl/HcZBOpyGlRLFYxNatW9Hf34+vfOUrEELg61//OvbseQetra1Ys2Ytbr/9djQ0NODAgQPJdGMiIiIiunwx+CMiIiKahGmaaGhoQCaTSYK3FStW4A/+4A/w1a9+FXv27MHs2bMxa9YsLJi/AINDg8jn89Baw7ZtzJ07F4cOHUoq/Kqr7pqbm9HV1YX6+npks9mkOs8wDACjp/UieX+0hx8QD+eNKvdshGEIpRQWLFiA333ySUgp8Z3vfCdZc/XAEdu2YVkWstksgiDAt775LcxfMB+f+cxn4Lou/vIv/xJHjx7F3LlzsWbNWmzYsAG5XA6HDh2CbdtYtWoVjh8/fin+CIiIiIjoPDH4IyIiIpqE1hpKqSQocxwnCcyeeOIJPPPMM3jttdegtcYdd9yB9vZ2AMDevXsxMDCAlStXYt68eeju7kapVMLw8DB6e3vx0Y9+FI2NjUin07BtG1JKBEGAQqGQBHhxWAigZshH/FocDEopIaWEbdswDAOpVAqWZSEIAmzatAnFYhFCCPT398N1XdiWjbqmOjQ2NqJYLGL7jh1Yu24d1q+/EaVSCf/wD/+Aw4cPo6OjA6tXr8ayZcuS4POtt96C7/tJZSMRERERXb4Y/BERERGdQzzp1nVdCCGQSqUQhiE2btyI4eFhvPDCC9i9ezd8P8A992zG7Nmz0draip6ebmzbuhW3VVpke3p6MDg4iM7OTsyePRuO4yAIAhSLxST4C8OwJviLjZ4AHP8UQiTBn+/7ME0zmQrsOA6WL1+OQqGA4eFhpNNpHDx4EJlsBsViEf5pHx0dHWifNw8bN25EuVzG1q1b8c4772DRokXJ8JJcLgfP8yClRG9vLwzDQHNz8yX/c7iaSClhWVbyPP6zJyIiIrqQGPwRERERnUM8qffQoUOYN28eurq6AERtwA888ABSqRSef/55vPjii7AsE5s3b8ayZUsRhgFeevElbLjpJuRyOTiOg6amJtx9993QWsP3fbiumwSK8VTgpCVYiGhDwDHrkQBGqgGhARUqlMNy5ZiG1tF5QkSTiR3HQXNzM4aGhuD7PgYGBpDJZDB79mx87GMfw+nTp/Gv//qv2PXaLsydOxd33HEHVq5cifr6evi+n7Qg27Y9pmWZpkdKCZ01MDxr5Jg1KGEOguEfERERXVAM/oiIiOiqN7q6aip834dSCkC0H951112HHTt2wDRNdHZ2JiGYUgp333036urq8Bd/8Rf4xS9+gVmzZqGurg7Ll6/A//1nf4YzZ85ASonbbrsNaScNIYBiqYQwDMe088a01tDRL2NCtug9tc8BAALQWiF+Mjg4ANM04TgOnFTUonzLLbfgqa99DYsWL8KWLVsQhiF838f3vvc97N27F21tbVizZg1WrlyJlpaWpKVYSllTYcjg7/wIIWA6FnrnhXh1zchk5OWHc1i6rw4qXxqzt+N0xUNhpkopBd/3P9RnEhER0eWJwR8RERFd9RYuXIhHHnlkWu959tlncfDgQQBRkHL99dfjyJEjsG0bwEjrbTyIY/ny5fjDP/xD/N3fPY0f/vCHCMMQDz30EKSUqK+vBxAFe57vJaFi9cCP+Pe44ksIAQ3AqARusZEQDtDQtRWBGslkX62RhHWu6yIMQ6RSKWit8bGHH4aTclAqlWBZVnLNdevW4Y477kBbWxsaGxthWRbCMIRpmiiVSti6dSuOHDmC9vb2Dx1OXascx8HRRSXsXzRUc/xwxzA8M8TaPU0oFAof6vvdsmULFi9ePOXzDx48iGefffa8P4+IiIguXwz+iIiI6Kpn2zZmzZp17hNHvQeIQjTDMNDQ0IB0Op0Mzogr4eIAMJPJYNmyZXjkkY/jZz/7GfL5PM6ePYv33nsPtm0jlUol++8JIWCaZjIwJN6jzzCMcff1q26tjasQAQ2tdFLhF+8RGAeKQRDA87xk7zilFMIwRBAECIIAWmu0tLTguuuuS8LGhoYGtLW1obm5OVlrLAgCvPPOO1i4cCE6OjpqJgTTuSXt4kuL+KC9gHKqtqXXsxROt5YgVgks31sHlffPu+23oaFhWv++d3d3n9fnEBER0eWPwR8RERHROVQHb/v378fu3buxYcOGqhAuCt4ymQyuu+467N69G6YZ/TWrXC6jp6cnCfcEBCCiSkHHcWrCwNHtmfHz0cFf9XCP6jXGrcNxyOe6bhLyxWGgChVCFQWAruti8eLF2Lt3L1KpFGbPno1MJpOsPR5qEl+/t7cXnZ2dyOVy6O3tvRhf9VUrDnv7mj0M1Y3fVltKhTjZWsTKQ41AMeR+f0RERPShMfgjIiIimoIwDNHS0oJ3330XWmts2LAhCdpicXhnGAakYaC+vh5Lly7FK6+8glKxBCAK6/wgCn5M00zCvTiwi9tzq6sJRw/TCMOw5rmUsmYwSHy9qAJQwzCqqgl1FOiVSiU4joNyuYxXXnkFzc3NaG9vh23bNUFhXCU4NDSEcrkMz/MYSM2QOd3dyJZK475WSKdxevbskQNHjgCHD488X7MGaGkZ+8YjR5DZtQuLjx1LDvXlcujP5S7UsomIiGgGMfgjIiIimkR1Nd6mTZtgGAby+Xy0X5/n1VTHaa2htEIQBnDLZUhDYs6cOejt7YXruslE3DAMk7AurgQEkLTkxmGilBJhGMKyrJoQ0PO8moAvPrd66EZc9Vcd0iml4LoufN9HfjgP27bh+wHOdneja+FC5HK5JPTTWifrHBwcxKuvvprcb7yvIV1aH/nlL7H08GGE5ti/wu9buBD/8Bu/ET0pFoHvfx/4H/9j5IRvfAP4N/8GSKVGjhWLwLe+hfn//b/jM1XDPV7YsAE7br4Z/jQH4hAREdHlh8EfERER0TlUV9L5vo9CoYDe3l5YlgXbtmtadAUEtBppxR0cHMT27dvR09MTHav8Q8STOEYZXUFYXfk33jnV5469WGUAyKj3GoaBLVu2YMvHtkBrBd/zYRpmEmLG14/38Tt16hTeeOMNPPTQQ8ixEmxG7Vq3Di+tXz/muFcd0n3+88A99wC7d48c+9KXgBMngP/wH0aOfe5zwLx5OPyDH9QM91j37rvYsm0bnv3IRy7GLRAREdElxOCPiIiIaBJx5Vtc5TZ//nyUSiX8/d//PR577DEIIWr2wQMAaRhRu2/ltaGhIQwODk7rM0cbXeFXfex8mKaJ5uZmeJ4HpcKkWjCuEiyVSpBS4sSJE3j7rbdRLBRRV1eXDDahqTMMA7LOwlsr+zHQ4E56rm8pvLmyF0v31yHTY8EE/rJoAAAgAElEQVT3a/cDLDoOepqaJv/Akyejn0uXjhz7/d8Htm0D/tt/A774xejYqVPAvHnwOjvHXLMhn5/SvREREdHljcEfERER0TlUt9m2t7djYGAA27dvR1NTE3K5HNrb2zF37lwASNp3o2q9KGBbuHAhfN9HqVRKhnvUVvJpACMh3sjwjpHX4lPjKsCJTPRadXAYhiFMM6rwc123shbA8zwMDw8n5x06dAj79u1D99luLF22NGk5ZvA3PVJKyJSJk63FMdN8RwulxsnWIrpO1EH2yUnPnZY774yCvxdeGAn+iIiI6KrH4I+IiIhoEr7vY3BwEC2VwQgNDQ3o7OzEvHnz8M///M/IZDK44YYbsHr1ajiOE7XCVoV6qVQK9957L+bMmYuhoSFIAYjKAI+ohTj6HCEqIU+cqQlAKQ2tVfREADKZ/KsRhqpmP754OEj1z+oHMDJAJAxDzJkzp2aQiNYapVIJfX19GBwchJQSL7zwAs6cOYOOjg6sXbs2qW7UWqNYLOL48eOwLAuuN3kVG104zYODWHz0aPL8dGsrCun0+V1szZro59tvJ4fmdndH160eFEJERERXLAZ/RERERJPo7+/H66+/js2bN8Oq7KPW2dmJT3/603jqqafQ3d2NF154AW+//Tauv/563HrrrcneeIZhIJPJYMuWLfjYxz5WGRIiIIRR+SmS6sDRE3yr9xQUQgDxxODK+UEQ1EzdHe8RhgE8z0/Oqx720dbWVhU8arhuGYVCAceOHcP27dtRKpVg2zbmzp2Lzs5OmKZZEyKeOnUKP/nJj9HS0oLfubUX6Lq0fy7XqjV79+K6AweS5888+CDeX7IEwbkGrhSLQLlce+wrXwH+/M8hv/IVOPfdBwC498UXcXzOHPzillsu9NKJiIhoBjD4IyIiIpqCMAyT0EspBdu28fjjj+O5557Dvn37UCwWsWfPHhw4cAD5fB4rr7sOSmtIKWGaJnbs2IHu7m5YloUgCJKW3+p9+kaHftXHK78kDcHxBGClVBI0xs/jqrw48IuPxS2+t9xyC7KZLLTS8DwfQhjYseMFWJaZDC/xfR/33HMPurq6konBYRgmrb5SSuRyORiGgfPfaZCma/Rwj3tffBEN+fy4Az9qfO5zwDPPALffXnv8934PC9va8Idf+AIAYOvtt2PfokUXetlEREQ0Qxj8EREREU2BYRhJACaEgGEYaG5uxr333oubbroJx48fx86dOzE0NIQwDCEr56gwGpyxc+dOvP3220ilUklQV13lN1ocAMYhW3W1nZSypp03Nvo5gGTwSNzma5ombrjhBjhpJwkehQCKxQKUUmhsbMRdd92FTCaDRYsWIZPJwPM8+L6ffO57772HHTt2YGhoCM3NzeCOf5MLwxBq2MW695rx/uJBDDR4E55r+xLX/7oJme6RqcqxX27ciGI6XTOIY9fatVh89CjuevVV/PLmm6ODX/xiNLjj0UdH3nzzzdGkX3dUW/a2bej+X/8Lv7zzTgDA/JMnEZgm3lm+/MPdNBEREV0WGPwRERERnYMQAo7jwDTN5Hmss7MTUkq0t7cnE289z0VXV2c8nQNCCKxatQqHDh3Ce++9B6B2uEf8++jQLj42+rXxnsfXqX5efV4c/EVrVMlanbSD9etvhO8H0Fqjrq4OS5YsgeM4MAxj3JBy3rx5uPfee3DddSvx/PPPJ+3DND6lFKQLzD2TxdGOAgYwcfAnlcC8sxmoogt/1Pd6eP78Mecfnj8fi48excLjx0eCvzvvBI4fBwqFkRMfeAAYHARef33k2LPPAu++i6GuLrwloz0mrSBAW3c3lBB4d9my879pIiIiuiww+CMiIiI6B6UUBgcH0dTUlOzzN7olt62tDVu2bIGUEr7vwbJsACPVeb/1W7+Fnp4e7NmzJ9kvzzCMpFV3vEm51aHdeMen+jy+B8MwsGrVKjQ1NUFKAaWATDqDTZs2V4aGoGbfwLi9ubr68MiRI1ixYgU+9alPYWBgAP39/cg1/ALA2Wl+qzRdc7u74do2+nK5c598//3RYzLf+Aawfj3w+OPAt74FANi9ejXu27kTG955h8EfERHRVUDO9AKIiIiILneu62Lbtm04evQIPM+bdCCHlBKZTBbpdBqmacKyrOS86r3ygiCAZVlJFeGl0NBQjy9/+cu4/vrrAUSDRmzbRjabTdZZfW/V9xR/D9/73vfw4os7YRgGmpqa8I1vfBM3bbzpkt3DteyBX/4SN77zTs0x2/cBAH4lkE64bjTQIxb/nslczCVOiW3bl/TfeyIiomsZgz8iIiKiKXr66aexdevWpOoPGLs/n9IKEEiGesTBmhACs2bNwpIlS1BfX5/s2weM7M0X7x0Yh28Akr38qj8vrr6rfq06pIuDuuq9AA3DgOOkYds2pDSQSqWQTmdqPqva6GPDw8P48pe/hM9+9t/h8cefqBl2QjNny9atAIDn7rmn9oWnnooGesTi3//iLy7Ryia2ZcsWbNy4caaXQUREdE3gf2ojIiIiOgfbtrFq1Srs3LkTpVIRbW1tSdVeuVxO9riTUkJIASlqq+Zc14UQAuvXr0dPTw++/e1vJ3vnVQd4QggorYGqY6PDwTjMi8I/QGuVfDZQGwDGgR8ALFiwAA8//DAymcyYir7q98TXBoB0Oo10Oo33976Pb37zG/i93/t93HnnncjlcjVDQ64V6XQaH/3oR7Fr1y6cOHFiWu/VWqNcLmPxwSykEjjRVhhzTuOQjZW/ziEYdqHH2Tdxx803Y8mRI3jsJz9Jjh1tb8evu7owXFdXe/K990Z7TH7qU9HzW28F7rsPmDt35JwvfhHYtg3tX/gCHjt8ODl8tqUFO+L9Ai+C+vp6DA0NXbTrExER0QgGf0RERERTIKXE5s2bEAQh/vVft+HBBx9CEAQwDCOa4islDGkAQsAwJKCjaa6GYQA6mgo8f/583HPPPUkYaNs2tNZJ9Vwc0gG1+/tVV98JIWrCudEDPeLfRw8GaWtrw6233oq6ujqYppmcYxhG0nqplEoeYRjCsiy8++67ePNXb2Dt2nV46KGH0NBQXwkbxZi1Xe0sy8LKlSvx/vvvn1fw5/s+Gs7YWCDTgNA40TrSitsykMKCD7JoPm7A87xxA9UjHR2wgiBp7wWAAwsX4mxLy9gPvP56QAggXuf99wPXXVd7zp13AuUy/GPHMNDbmxw+2tGBIx0d07o/IiIiujwx+CMiIiI6hzAMcfz4cTzwwEfw4x8/i69+9atobm7GunU3IJvNjpyogTiuCQI/CW9MKxrmkUqlcP3112PDhg1JxaBhGDWtw6ONHiIyelJvtbgKb3QoGId5cXVh9TUNw6gJHEd77bXXsHPnC/jjP/4ibMuGUhrRW0cqEHHtFP19aJ7noemUDSusg2eq5Pj84xnMO5pC2S1P+v4DXV040NU1tQ+77jrgv/7Xyc+5/36c7ejAv1SGexAREdHVhcEfERER0QTi/faklLAsC/l8Hkop7N27F08++SR++tOfYc6cOQAqIZsGNKIquHh4QXUbr2maSTttGIYIw7AmyButumovNt4E36kci4/HLcBTadEtlkowLRMHDhzAk0/+e/z0pz9Fa2tb8n7DMBAEAUytznktGuF5HjKnTdw51JYcc133nKEfERER0XQx+CMiIiKawLJly7B48WIMDw8jm83i3XffxcaNN2PJkiX427/9WwgIaKURqjAJ6Mrlcs3UUqUUisViMsFXaw3P85BOp5MQ0HXdSdcxUTvtdPfXi8+PP1eFCkJG7b5xtWD1eV/6sz/Diy/uBAA4jgMhJMrlKJyyLGsklLyG2n0vlDAMkc/nk+fX0l6JREREdOkw+CMiIiKaQCqVwqxZs9Da2opsNovm5mbU19fjV7/6FQqFIg4dOoSe3h4opaI9/ir75cXnxUGfaZoj7bRCJKFZTdijAQgNQNQegx4TrGloCFRXAY46RVedN04olwwjqQwh8X0fxWIRxWIR5XIZnudBSol169Zh/vz5OHToEH7ykx/jP/7H/x2f//wXsG7dOgghkr0JbcWKv+maatUlERER0YfB4I+IiIhoErZto6GhAdlsFjt3voAjR46gUCji/vvvg+u56O3tTSrfhBDIZrMIghBDQ0PJEA3f99Hc3Aw7lQKqJvMm4vxH6MqvIsoAq19M8juBqrMQZ0dJvleTJepRb41+K5VKcN0ywlAlAV65XE5CvyAIIKXEkiVLsHTpUhiGRBiGaGlpgW3bydrjNuhroeKvpaUF69evRyqVmumlXBU6OzuxatUq7NmzZ6aXQkREdFVj8EdEREQ0ASklhoYG8f77e+E4afzsZz/H/v37sGLFSvzO7/xOMp03Dv6UUpXwzK+EYxq2bSMIAjiOk7T/Tqgq7BtTC5ZUh1VV+lWdNVnxmB51UqlUwsDAAIrFaKrs6OEhtm1DSgnXdWEYBpqamrF+/Xp87nOfR2trK/zKVFnLsmDbdk314dWqtbUV99xzz0wv46qxdOlSBEHA4I+IiOgiY/BHRERENAHDMLBnz7v4/Oc/h0KhgL/+67/Bn/zJn6BQKGBwcDCZkBtPxg2CAEop2LaVVNLFbcDxZN2J9uubOj3O79O7pmmasEwraT+WUiavxfcTtykDwMqVK/HFL/4fyGQyyXviykDf92GGISaeC0xEREREM4XBHxEREdEkbrnlFvz9338XTzzxOEzTRLFYRH9/fzKsozo8s20bvu8nbb9xIBhTl8leeLZtI5VKRdWKlfDQsqxk0EipVEI2m03uQykFy7KQSqVQLpchpUyqF6N9/i6P+yIiIiKiWgz+iIiIiCYgpcSxY8fw9NN/h1KpBAEBKaJ97XRlrz7btqPwC1ElnZRyTFWfBpIATQBRgV5SrDdBtd44xXx67HZ/Vafpytuig6LmxNqLCSFgmAZMy4TWCmGokqo/wzCSUNOyLPi+D8/zEIYhzpw5g6amJqTT6WQ4hdbjtCUTERER0WWBwR8RERHRBKJhHRnMn78AQggM5/MolUtJC2xc8WcYBrTW0U/DGHMNWVX5p5N/VJxrsus4L4+e+1H7qx75px67f18SWhpR1Z5SIeJAUEoJy7KS8C8+Nw4tBwcHkcvlIISA1hqFQgE/+tEP8fB1R7GsbfLbuJqsWrUKxWIRR48enemlXFFs28aNN96IlpaWmV4KERHRNYPBHxEREdEEtNZobm7B5s2b8etfH4A0JIaGhyEQhX6pVGrCPfviIE4KgUw2i1QqVamq05junnzRWqKfYoIqvqncC4Ckik8KCdOyoJUBKcNorZXgTymVVC8CgO/7KJfLyTXi467r4tlnn8X63IlrKvhbv349+vv7GfxNk+M4uOeee9DQ0DDTSyEiIrpmMPgjIiIimoDrunjxxZ346le/ip/85Cc4ceIkhoeH4TgOgKiCCRgJ1cZjGAYaq6rkLrbqIFJrXWn5FQiCAOVyGY7jIAyjoM+uVPV5ngcpJQzDSKr74gpGy7IQhiGGhoYAIGkBBoD6+no8+OBDmDOnG8CvL/q9EREREdH0MPgjIiIimsD3v///4t1330VdXR2KxVJNpZtpmhBCJEMuJmIYRmXKr5ww+JvKpN+J6vviffbiQRzV14unCIvKMdd1AQDpTAYQAm65DFEJBdPpNBzHgZQSQRAk15ZSJpWNUsqR0NC2YVnWBZhSTEREREQXi5zpBRARERFdrorFEjo7O/GlL30ZuVwOhmEk4R8QhV/Jw4oelh094uNRddzE1X6jK/Sqj4/Zn2+CkG10+BaGIVzXRbFYhApDyKp1xz9ty6qpXIyrF5VSNWsvFAro7e2F1hphGFbd07Vj9erVuPvuu2d6GVed9vZ2PPLII0in0zO9FCIioqsWK/6IiIiIJlBXl0VbWxvuvvtuKKXQ1NSEVCoF13VRKBQwNDSUHJuIECKpkhtdtxcHfdVDN+Lf49fDMEQQBAiCIPkdiPbqi6fvxoNDwjBMzgnDEJ7nRRV9Ve/TWkOFIYQQsCwLWisAGrZtJ+3Itm1Da40gCOB5HoIgwKxZsyClhOM40TWUglLqwn7hl6m2tjZ0dXXN9DKuOg0NDVi5ciW2bt2KUqk008shIiK6KjH4IyIiIppAY2MTZs9uhe/7AIBcLoeGhgYUi0VorVEqlZDL5SClhJRy3FZbpVTy/sjIcI84+BseHsaxY8dGgj/DgCEllFLwPA+u68LzPHiel1zLcZzkYdspaB3ty+f7PmzbQlvbnKQdOQ7q4sEecQuwlLJS6SdqAsR4bVprWJaFxsZGzJ49O7me53kAgCAILsm+hURERER0fhj8EREREU1g1qxZmDdvXhJ0AVGol0ql0NHRkQzBCIIgmoJbGY4RB39a66TqbjxSSvi+jzfeeAN//ud/jrBSiRcHifF+e3GAODpkiwdymKaJIAhg2zYMw8DChQvxm7/5m1iyZElN8BevrbqyMK7ii9cbB5XxZzY0NNRM940FQYDe3t5rpuqPiIiI6ErEPf6IiIiIJhGHYXEbbXUrbRzGxXvqlUollIpFFAoFFAoFlMvlMe+tvoYQAj/72c/w1FNPAUDNHoLx+4DagK/6EVfoxesxDAOO4+D06dP49re/je7ubkgpaybz+r4PrTRUqJJW3mKxmDxKpVJyvfFajePHq6++iscf/yz6+vpm5g+GiIiIiM6JFX9EREREk4jbZy/09FqtNVzXRX9/P/r7+yc8JzbZ5wshkMlkYFlW0h48ODiIb33rW/jsZz+LRYsWJdV941UOno9MJoNly5afc6oxEREREc0c/k2NiIiIaBKDg4N45513sHz5hQ+5XnnlFbz33nsf+jpx+7FhGPB9H77vIwgC7N27F729vWhvb0cYhjBN80O35sYBZDqdxsKFCz/02omIiIjo4mHwR0RERDSJ/v5+vPnmm1i8eDEMw7gge9rF++tt374db7/99gVYZe1AEa01hJQwTBP5fB6FQgGWZcEwjKoJw+dHSokTJ05g3759F2LZV6zm5mbMnTsXp06dmumlXBGy2Sy6urpYIUpERHSJcY8/IiIionOIh3TE+/rF4dr5Pqrff6HWF1f6xYM7tFLwXBdHjhzBwMAAUqnUh1pz/Mjn83jmmWfwN3/zNxdk7Zc727bHDatuvPFGPPDAAzOwoivTggUL8NhjjyGTydQcr65WJSIioguPwR8RERHROQwMDOCP/uiPsHv3bnieB9d1xx3YkQzuqDwmO2cqlYPxFN7qKcFxWDh6z78gCJKf5XI5Ob5t2za8tus1FItFhGFQ9Zh8faMfcWD5gx/8AK+++ipSqdSF+nova1u2bMHNN98808u4amWzWTzxxBPo6uqa6aUQERFdlVhrT0RERHQOYRji1KlT+O53v4vf+I3fwO23355M5R0trribjOd5ePPNN9HT0wMgCvHiiifTNCGlTI5JKZNj8fHRk4bjz41fN00TAoDreXDLZbieW7mP829THhwcxLe//W3s3r0b3d3daGtrO+9rXUnq6+uRTqdnehlXLSklmpqaYNv2TC+FiIjoqsTgj4iIiGgKDMPA3r17kU6nkc/nMW/ePCxatAipVApCiJG99aoq9MYTv5bL5XDnnXeiUCgAiAIQALAsKzkvDv7in9XX1VonlYNaaYQqrK0MhIbnugAEli9fDgBT3t8vvgelFIQQOH36NLZu3YodO3Ygn88DlZCRiIiIiC5vDP6IiIiIzkEIAcuyEIYh3nrrLRw9ehSrV6/GzTffjOXLl6O+vj5p3R0d0I0mpUQq5WDDhg3YuHHjmL3+4oo+ABBSQo5q89VKQUoDEKit/lMhDGlEny0AISRUJejzPA/lcnlagz1M08TRo0cxPDyM/fv340c/+hGAaM+7aA0M/oiIiIgudwz+iIiIiKagupJvcHAQO3fuxEsvv4Qnn3wSq1ethmmasG07mZ47UfgXt+5W78MXB33VIWDc2jta0kqsUQn4ouO+HyTvNwwDhmlChSG00iiVS/A8L6kmrB4pIqquG4YhfN9HEASwbRvf//738eabbyIMw5r7EZUKRCIiIiK6vDH4IyIiIpoCwzDGTB4VQuCZHzyD5/7pOViWhebmZtx3331YtmwZ6urqaqb4CiEgpUQQBDh16iT++q//GgMDA1V7AgpUR3JJ2y5qwzmtNKQhoZSuvKohqhPApHowqvzzfA912TqsXbsWDz/8cFKRGE8njp/39/fj9ddfx+7du9HT0wMhBAYHB2v2Dhx970RERER0eWPwR0RERDQF8V57o+XzeeTzeUgpMTAwgH967p/Q3NScDCuwTAsLFy3E6tWr0dTUBNd1cfLkSZw6dQqe50EplUzknYrqtuBqcRAnpYRtWXDSaWQyGeTzeZzJn8Hp06ej86TEqVOn8Nav3sL+/fsQBAEcJwXX9dDT04Oenh6Uy+Wa6423BsNgxR8RERHR5Y7BHxEREdE5xIM2xgv+qnm+hyNHjuDokaNJa7BlWvjg+Ac4ffo06uvr4bpl9PX1w/O85LoThXljaEBjgnMFIBBVFUrDgGmacBwHs2bNQl9fHz744AP8y7/8CwzDQE9PDw4cOIBjx47BD3wYUsIwaqcJT1bRpzncg4iIiOiKwOCPiIiIaAomqvgbTUuNdCaDTDqdDAQ5e/YsPvjgg2QKrxACTtqBFFF4Fu/ZpwUgtB5p20UU9AlU7a8ngJG24Li9F9AiOk9rDd/3USwWIYRALpdDKpXCyZMn8cMf/hBaa6TsFHKNOSxevBgAEAQB+vr64LrulFp4o+Dv3N/Flcw0TXR0dCCbzc70Uq4Jc+fOxZkzZ9DX1zfTSyEiIrqqMPgjIiIimgJjGgMtVq5YgaVLl6K+vh7Dw8PYu3cvDh48iHw+D0BDayDtpBEEwcikXVGJ8UbvpVcV+iEJ/ap/Iqn2iyml4LougCiw9DyvJrhsmdWCm266CWvXrk0qA//xH/8R+/btm3L14dVe8ZfJZPDYY4+hoaFhwnMMw4DjOHBdd+pVm9cgy7KS1veJPPDAA5BS4he/+MUlWtXkLMuCEAKe5830UoiIiD4UBn9ERERE5zDVVt+Y53nIZDLo6uqC67qYM2cOVqxYgaNHj+L48ePo6+uD7/tQSl209QKA7/so5POwUyl0dnWhqbERuVwO2WwWc+bMgW3baGxshG3bsG17Wm3HHO4BdHV14fHHH8d3vvOdSqhL49m4cSM2bdo008uYlo0bN6KtrQ0/+tGPZnopREREHwqDPyIiIqIpmGqrLxAFbt3d3dBao1AoIAxDFAoFuK4L3/cRBMElqRDTWsP1PGgAqVQKhmGgubkZs2bNglIKBw4cgG3bkFJieHh4ylV8WmtIBn+wbRtNTU1XffXjh5VOp1FfXz/Ty5iWK3HNRERE42HwR0RERDQF8bCOqfB9H319fSiVSsjn8/B9H67rYmhoCKVSKdnn71JQSsHzPBQKBQwMDCCTyWDu3LlwXRe9vb3JedWTfKeCFX90tVq1ahW6urrg+/5ML4WIiOhD43+eJCIiIpqC6VTohWGIcrmMfD6PQqGAoaEh9PX1YXBwcMoDNC4UIaKBH+VyGT09PTh8+PC0Q77xcEc7utqYpomuri7cddddWLJkyUwvh4iI6IJgxR8RERHRFCilprwnn+/7KJfLCIIA5XI5ee66LsIwnJFqOaUUyuUypJQoFotIpVI1r2utp3x/WmsOs6CrzlQGuhAREV1pGPwRERERnUMcdCUTeM8hDvoMw0CxWAQQDfwIw3BkPziNmsG80DqqoquEgqLyufHE3iRm02MG/06ZEALlchnHjh1Dc3NzzWtKqSnfHzC9CkgiIiIimhkM/oiIiIimYLoVf67rJlNyc7lcEvwFQRCdNDo3i4O/mkMjR/SYX2oJITB79my0traiqakJlmWhp6cnWXNcZai1RjqdHhPyTef+plMdSHQlaG9vx3333Yd0Oj3TSyEiIrqgGPwRERERTUEYhlNu0w3DEEopGIaBVCqFrq4uZLNZDA8PIwzDZNpvHKDFwz7iqjul1JiKOiklHMdBY2MjWlpaMDQ0hHK5XPN6Y2MjmpubUV9fD9M0k/39pmLawd9VXPHX0tKCDRs2jGmHpourq6sLq1atwp49ey755950001YuXLlJf1cIiKiS4HBHxEREdEUTCcYAwBDRqFfJpNBS0sLbNtOgjqtNfr7+5P24bgFOAgC+L6PMAxhGAYcx0kCQsMwUFdXh3nz5mHBggU4c+YM8vn8uJ89PDw87fubTitzfP7VqrW1FZs3b57pZVxzlixZAt/3L3nwt2TJEqxfv/6SfiYREdGlwuCPiIiI6ByqK/OmQggB0zLR2NiI2bNno7u7e8zro/fYGy2Xy2H+/PnYt28ffN9Pjvu+j4MHD07/Js5husEmruLgj64dtm3Dsqwxx33fh+d5M7AiIiKiC4vBHxEREdEUTGdfOyklmpqasHLlSqxcuRIvvfQSXNed1ucNDw9j//79I3sCXmTT3bePe/zR1WDLli1YvXr1mOO7du3C9u3bZ2BFREREFxaDPyIiIqIpmEpFnAYgNGAaJurq6qCUwvvvv39e4Z1S6pJWHE234o/BH03Fpk2bxg3WZlo6ncaDDz6IFStWjDvQo1QqnVfLPBER0eVGzvQCiIiIiK4E8aCMOCAb/QhDBRUqhErBsizkcjk4joNTp05Na++8mTTZ/Y1+XM17/E1HKpXCrbfeipaWlpleymWps7MTbW1tM72MMSzLwooVK9DQ0DDTSyEiIrqoWPFHRERENAXxxN3JAi+tASEAJ+3AcRxIeeX8N9aGhgYMDAxMODCkmmEYV9S9XUypVAqbN2/GsWPH0NvbO9PLoSnIZrNYuHAhTJP/XyEiIrr68f+1IyIiIpqCIAgQVII/Mcl5UgrU1WUxNDSEoaGhS7a+DyueqPr++++f89x0Oo1MJnMJVnXpWZYF27ZnehnXrHiateu6F6Wq1LIsLFmyBI8++ugFv026lMgAAAUySURBVDYREdHliP+ploiIiOgcUqkUNm3ahOamJoRhGFX/BSHCIITv+/B9P9rHTwCzZs1GKuXM9JKnzTRNpFIpmKYJz/OgtUYYhAj8IAo9gyAJYtrb27Fs2bIZXvHFsXHjRmzZsmWml3HNWrhwIZ544glks9mLcn3++RIR0bWGFX9ERERE5yCEQDabxZo1a1AulzE0OIT9B/ajUCwCWmPFihVYvHgxisUiHMdBXV3dTC952oQQaG9vT4aS5HI5vL77dZw4eQIpO4X58+djzpw5ME0DDQ25q7YqLp1Oo76+fqaXcc2yLAuNjY0XrZWcf75ERHStYfBHRERENEWtra0AgHw+D8M0UCqXAQBdnZ1ob29HqVSayeV9aHV1dairq0uCzqFlQ2hsaoRt22htbUVLSwv39qMr1urVq9HV1TXTyyAiIrqkGPwRERERTVNdXR1WrlxZc+xKD/2qaa2Rz+fR0dGBjo6OmV4O0QVx4403YsmSJTO9DCIiokuKwR8REREREV21hBBwHAeGYcz0UoiIiC45Bn9ERERERHTVymaz+MxnPoO5c+fO9FKIiIguOQZ/RERERER0VWpvb8d9992HuXPnwrKsKb1n+/bteOeddy7yyoiIiC4NBn9ERERERHRVamhoGLMf57kcPXoUZ86cuUgrIiIiurQ4lo2IiIiI/v/27pWntSUMA/DXU0ppS5odSEgoBEKCQEAFJCAQYOpwYDD8Kv4ACoVDIqpwaCQESUIF1yxu2eacBLGTfYCW6eV5bNfM94ql3szqEBG1Wi3GxsZ+fG0/Ghoairm5uahUKj+69qOxsbGo1Wrf2gMAep0TfwBA33t7e4vHx8dPr2GwNBqNT58O+7g2l8vFyclJm1N9XpZln3rfsyxre4ZyuRy7u7tRrVa/vPbg4CDOz8+/NL9YLMba2lpsbGx8aT0A9AvFHwDQ9y4uLmJ/f/9Ta+7u7jqUBjrr+Pg4hoeH//fzz8/PHUyTxtbWViwuLqaOAQDJKf4AgL738vISrVYrdQz4Eff396kjJDc6OhqlUil1DABITvEHAAD0heHh4VhZWYnx8fHUUQCgKyj+AACAnlepVGJ+fj4ajUaUy+XUcQCgKyj+AACAnjczMxO7u7upYwBAV/kndQAAAAAAoP2c+AMAAHpavV6P9fX11DEAoOso/gAAGGjFYtGFEF1oaWkpnp6e4vLy8q/Pra6uxuzs7LfmZVkWZ2dncXNz8619AKCbKP4AABhoxWIxNjc3o1qtpo7CB8vLy9Fqtf5a/C0vL8f8/Py352VZFs1mM25vb7+9FwB0C//xBwAAbVAoFKJYLKaOkVw+n4+RkZHI5XIdnZPL5aJUKkU+n+/oHADoZU78AQBAG6yurka5XI6jo6PUUZKam5uLnZ2dqFQqHZ1TqVRib28vJicnOzoHAHqZ4g8AANqgVCrF6Oho6hjJFQqF+PXrV0dnTE1NRaPRiMnJySgUCh2dBQC9zKe+AABAT3l5eYlWqxXv7++powBAV1P8AQAAPeX6+jqazWZkWZY6CgB0NcUfAAAAAPQhxR8AAAAA9CGXewAAMLD+uySiVCqljsIf1Ov1eH19jWazmToKAPQkJ/4AABhY1Wo1FhYW3AzbpSYmJmJ2dvaPv2VZFqenp3Fzc/PDqQCgdyj+AACAnpNlWTSbzbi+vv72Xg8PD3FxcRGvr69tSAYA3cOnvgAAwEC7urqKw8PD1DEAoO2c+AMAAACAPqT4AwCANpmeno7t7e2BvSykXq/H5uZm6hgAwL9+A5w0ffTGaOvrAAAAAElFTkSuQmCC;" vertex="1" parent="WIyWlLk6GJQsqaUBKTNV-1">
          <mxGeometry x="320" width="228" height="142.91" as="geometry" />
        </mxCell>
      </root>
    </mxGraphModel>
  </diagram>
</mxfile>
